<?xml version="1.0" standalone="no"?>
<!DOCTYPE svg PUBLIC "-//W3C//DTD SVG 20010904//EN"
 "http://www.w3.org/TR/2001/REC-SVG-20010904/DTD/svg10.dtd">
<svg version="1.0" xmlns="http://www.w3.org/2000/svg"
 width="200.000000pt" height="200.000000pt" viewBox="0 0 200.000000 200.000000"
 preserveAspectRatio="xMidYMid meet">

<g transform="translate(0.000000,200.000000) scale(0.100000,-0.100000)"
fill="#000000" stroke="none">
<path d="M841 1523 c-38 -37 -551 -1029 -551 -1067 0 -71 54 -126 124 -126 70
0 80 11 294 332 113 169 209 308 213 308 5 0 100 -137 211 -304 118 -177 214
-311 230 -320 14 -9 42 -16 63 -16 79 0 132 57 122 134 -7 58 -508 1027 -549
1061 -43 37 -117 35 -157 -2z"/>
</g>
</svg>
