<?xml version="1.0" standalone="no"?>
<!DOCTYPE svg PUBLIC "-//W3C//DTD SVG 20010904//EN"
 "http://www.w3.org/TR/2001/REC-SVG-20010904/DTD/svg10.dtd">
<svg version="1.0" xmlns="http://www.w3.org/2000/svg"
 width="365.000000pt" height="280.000000pt" viewBox="0 0 365.000000 280.000000"
 preserveAspectRatio="xMidYMid meet">

<g transform="translate(0.000000,280.000000) scale(0.100000,-0.100000)"
fill="#000000" stroke="none">
<path d="M1724 2286 c-118 -55 -165 -189 -113 -319 43 -109 63 -140 108 -169
36 -23 56 -28 104 -28 107 0 156 39 209 170 53 131 37 234 -49 310 -74 65
-168 78 -259 36z m184 -50 c52 -27 102 -103 102 -154 0 -15 -9 -10 -44 23 -89
86 -224 78 -301 -17 l-26 -33 6 40 c9 52 51 113 95 136 42 23 129 25 168 5z"/>
<path d="M852 2258 c-19 -24 -32 -93 -32 -173 0 -67 5 -90 29 -141 16 -33 40
-70 55 -81 33 -26 33 -35 1 -23 -23 9 -25 7 -25 -16 0 -64 49 -123 136 -161
33 -15 36 -18 17 -21 -30 -5 -30 -32 1 -65 35 -37 82 -58 137 -60 49 -2 71
-17 25 -17 -36 0 -42 -18 -16 -45 33 -36 80 -47 158 -40 66 6 67 6 38 -11
l-30 -17 25 -20 c21 -17 35 -19 112 -14 48 2 87 1 87 -4 0 -4 -12 -41 -26 -81
-58 -161 -172 -356 -273 -470 -68 -75 -67 -95 2 -147 71 -54 183 -105 303
-137 87 -23 118 -27 249 -27 130 0 163 4 249 27 55 14 141 46 192 71 88 42
174 108 174 133 0 6 -24 39 -54 74 -120 143 -225 324 -281 487 -14 41 -25 76
-25 77 0 1 36 0 80 -3 52 -4 89 -2 110 7 31 13 42 40 16 40 -8 0 -18 5 -22 11
-4 8 12 9 57 4 70 -7 110 3 147 37 29 28 28 48 -2 48 -47 0 -34 15 14 16 60 1
118 30 148 74 28 42 28 50 -4 50 -33 0 -23 17 15 25 50 11 117 78 130 131 7
26 10 48 8 50 -2 3 -17 0 -33 -6 -29 -11 -29 -11 8 27 59 61 82 123 83 223 0
83 -24 180 -45 180 -5 0 -29 -29 -53 -63 -99 -139 -204 -197 -430 -238 -76
-14 -107 -42 -162 -148 -25 -49 -64 -106 -90 -131 l-45 -44 -42 41 c-57 54
-77 63 -138 63 -63 0 -110 -21 -150 -66 -16 -19 -34 -34 -39 -34 -20 0 -98
102 -145 189 -27 50 -60 98 -73 106 -13 9 -61 23 -106 30 -124 22 -180 43
-265 99 -60 40 -88 67 -127 123 -27 40 -53 72 -56 72 -4 1 -11 -5 -17 -11z"/>
<path d="M1123 95 c0 -27 2 -38 4 -22 2 15 8 27 13 27 5 0 11 -12 13 -27 4
-26 4 -26 6 5 1 22 -4 32 -13 32 -8 0 -17 8 -19 18 -3 9 -5 -5 -4 -33z"/>
<path d="M1622 95 c0 -27 2 -43 5 -35 3 8 13 24 22 35 15 18 15 19 -1 7 -14
-12 -17 -10 -21 15 -2 16 -4 6 -5 -22z"/>
<path d="M1239 119 c-8 -20 4 -62 19 -65 7 -1 8 0 2 3 -15 7 -12 43 4 43 8 0
16 -10 18 -22 2 -12 9 -23 16 -24 7 -1 8 0 2 3 -12 6 -13 40 -1 45 5 2 3 9 -5
16 -8 7 -14 8 -14 2 0 -14 -27 -13 -32 2 -3 8 -6 7 -9 -3z"/>
<path d="M1469 118 c-2 -25 3 -53 11 -62 5 -5 6 1 3 14 -3 12 -1 25 4 29 7 4
6 11 -3 19 -11 10 -14 10 -15 0z"/>
<path d="M2020 125 c-1 -5 -1 -21 0 -34 1 -13 -4 -28 -12 -32 -9 -6 -3 -9 17
-9 17 0 25 4 18 8 -6 4 -13 23 -16 42 -2 19 -5 31 -7 25z"/>
<path d="M2067 123 c-3 -5 -4 -21 -3 -38 1 -23 6 -30 21 -30 11 0 20 6 19 13
-1 6 -2 23 -2 37 -2 23 -25 35 -35 18z m23 -13 c0 -5 -4 -10 -10 -10 -5 0 -10
5 -10 10 0 6 5 10 10 10 6 0 10 -4 10 -10z m2 -35 c0 -5 -5 -11 -11 -13 -6 -2
-11 4 -11 13 0 9 5 15 11 13 6 -2 11 -8 11 -13z"/>
<path d="M2127 123 c-12 -12 -7 -33 7 -33 26 0 28 -20 4 -29 -15 -7 -17 -10
-7 -10 9 -1 22 6 29 14 11 13 14 13 25 -2 13 -17 14 -17 33 0 17 16 20 16 25
2 9 -22 34 -19 42 5 15 46 -22 81 -44 43 -9 -17 -10 -17 -16 0 -10 25 -32 21
-49 -10 -8 -16 -15 -22 -16 -15 0 6 -7 12 -15 12 -21 0 -19 18 3 23 14 4 14 5
1 6 -9 0 -19 -2 -22 -6z m88 -33 c0 -13 -5 -25 -11 -27 -14 -5 -25 22 -17 42
8 23 28 12 28 -15z m60 0 c0 -27 -20 -38 -28 -15 -8 20 3 47 17 42 6 -2 11
-14 11 -27z"/>
<path d="M2305 120 c-4 -6 1 -7 11 -3 13 5 16 3 11 -10 -3 -9 -2 -19 4 -22 14
-9 -1 -27 -18 -21 -8 3 -11 1 -8 -4 9 -14 32 -12 38 3 14 38 -19 88 -38 57z"/>
<path d="M2365 120 c-3 -5 0 -7 8 -4 24 9 28 -12 7 -31 -27 -25 -25 -35 8 -34
21 0 23 2 9 7 -15 7 -16 10 -3 27 7 10 12 25 9 32 -6 15 -29 17 -38 3z"/>
<path d="M2427 123 c-12 -12 -7 -33 7 -33 26 0 28 -20 4 -29 -14 -6 -17 -10
-7 -10 8 -1 20 4 26 10 14 14 6 39 -13 39 -20 0 -17 18 4 23 14 4 14 5 1 6 -9
0 -19 -2 -22 -6z"/>
<path d="M2487 123 c-12 -12 -7 -33 7 -33 26 0 28 -20 4 -29 -14 -6 -17 -10
-7 -10 8 -1 20 4 26 10 14 14 6 39 -13 39 -20 0 -17 18 4 23 14 4 14 5 1 6 -9
0 -19 -2 -22 -6z"/>
<path d="M2545 120 c-3 -5 0 -7 8 -4 24 9 28 -12 7 -31 -27 -25 -25 -35 8 -34
21 0 23 2 9 7 -15 7 -16 10 -3 27 7 10 12 25 9 32 -6 15 -29 17 -38 3z"/>
<path d="M1070 93 c0 -10 4 -14 8 -8 4 6 11 13 16 18 5 4 2 7 -7 7 -10 0 -17
-8 -17 -17z"/>
<path d="M1181 83 c-1 -27 3 -33 19 -33 16 0 20 6 19 33 -2 30 -2 30 -6 5 -6
-36 -20 -36 -26 0 -4 25 -4 25 -6 -5z"/>
<path d="M1327 104 c-13 -13 -7 -24 14 -24 11 0 19 5 17 12 -5 14 -22 21 -31
12z"/>
<path d="M1381 78 c2 -28 2 -29 6 -8 3 14 10 28 17 32 7 5 5 8 -6 8 -14 0 -18
-8 -17 -32z"/>
<path d="M1420 93 c0 -10 4 -14 8 -8 4 6 11 13 16 18 5 4 2 7 -7 7 -10 0 -17
-8 -17 -17z"/>
<path d="M1514 95 c-8 -21 2 -45 20 -45 7 0 16 7 20 15 8 21 -3 45 -20 45 -8
0 -17 -7 -20 -15z m31 -15 c0 -7 -6 -15 -12 -17 -8 -3 -13 4 -13 17 0 13 5 20
13 18 6 -3 12 -11 12 -18z"/>
<path d="M1574 95 c-8 -20 2 -45 18 -44 10 0 10 2 1 6 -7 2 -13 13 -13 23 0
10 6 21 13 23 9 4 9 6 -1 6 -7 1 -15 -6 -18 -14z"/>
<path d="M1714 95 c-8 -20 2 -45 18 -44 10 0 10 2 1 6 -7 2 -13 13 -13 23 0
10 6 21 13 23 9 4 9 6 -1 6 -7 1 -15 -6 -18 -14z"/>
<path d="M1764 95 c-8 -21 2 -45 20 -45 17 0 28 24 20 45 -4 8 -13 15 -20 15
-8 0 -17 -7 -20 -15z m31 -15 c0 -7 -6 -15 -12 -17 -8 -3 -13 4 -13 17 0 13 5
20 13 18 6 -3 12 -11 12 -18z"/>
<path d="M1821 77 c2 -31 2 -31 6 -4 2 15 8 27 13 27 5 0 11 -12 13 -27 l4
-28 2 28 c0 15 5 27 10 27 5 0 12 -12 14 -27 4 -27 4 -27 6 4 1 29 -1 31 -34
31 -33 0 -35 -2 -34 -31z"/>
<path d="M1082 65 c-11 -12 -10 -15 3 -15 8 0 15 7 15 15 0 18 -2 18 -18 0z"/>
<path d="M1432 65 c-11 -12 -10 -15 3 -15 8 0 15 7 15 15 0 18 -2 18 -18 0z"/>
<path d="M1640 71 c0 -5 5 -13 10 -16 6 -3 10 -2 10 4 0 5 -4 13 -10 16 -5 3
-10 2 -10 -4z"/>
<path d="M1328 58 c5 -5 16 -8 23 -6 8 3 3 7 -10 11 -17 4 -21 3 -13 -5z"/>
</g>
</svg>
