<?xml version="1.0" standalone="no"?>
<!DOCTYPE svg PUBLIC "-//W3C//DTD SVG 20010904//EN"
 "http://www.w3.org/TR/2001/REC-SVG-20010904/DTD/svg10.dtd">
<svg version="1.0" xmlns="http://www.w3.org/2000/svg"
 width="774.000000pt" height="899.000000pt" viewBox="0 0 774.000000 899.000000"
 preserveAspectRatio="xMidYMid meet">

<g transform="translate(0.000000,899.000000) scale(0.100000,-0.100000)"
fill="#000000" stroke="none">
<path d="M3838 8820 c-51 -193 -132 -400 -248 -635 -163 -330 -295 -521 -505
-730 -224 -224 -443 -349 -710 -405 -33 -7 -63 -16 -67 -19 -11 -10 158 -107
265 -153 50 -22 136 -52 190 -66 53 -14 97 -28 97 -33 0 -12 -303 -301 -401
-382 -280 -231 -455 -322 -719 -374 -24 -5 -24 -6 20 -43 124 -107 365 -222
551 -264 l101 -22 -69 -60 c-363 -319 -716 -540 -987 -619 -50 -14 -92 -27
-94 -30 -3 -2 44 -53 104 -113 157 -158 305 -249 499 -307 50 -15 98 -30 109
-34 16 -6 0 -22 -90 -97 -220 -182 -377 -288 -577 -390 -125 -64 -318 -134
-405 -149 -23 -4 -42 -10 -42 -15 0 -16 99 -159 159 -228 57 -66 132 -135 206
-188 l29 -22 -204 -135 c-473 -311 -790 -469 -970 -484 l-67 -6 12 -46 c62
-236 239 -437 462 -526 106 -43 212 -58 362 -52 75 3 174 13 220 23 l84 17 20
-29 c38 -56 163 -169 228 -207 110 -64 205 -89 339 -89 87 0 134 5 195 22 44
12 89 24 101 27 14 3 44 -12 95 -51 132 -98 309 -182 451 -211 90 -19 246 -19
328 1 80 19 188 70 259 123 l54 41 51 -48 c28 -27 71 -61 95 -77 l43 -29 -5
-211 c-8 -296 -42 -446 -133 -584 -20 -29 -32 -57 -27 -61 13 -13 215 -68 326
-89 239 -46 364 -47 592 -5 84 16 284 66 330 84 l27 10 -36 49 c-99 134 -146
349 -146 665 l0 145 48 32 c26 18 70 51 97 74 l50 43 35 -30 c88 -74 218 -129
351 -149 202 -29 462 53 699 223 l84 60 51 -15 c141 -43 309 -52 425 -22 145
37 297 138 375 249 45 64 26 61 195 31 71 -13 131 -16 235 -12 122 4 152 8
236 36 233 76 424 274 498 515 12 37 21 69 21 71 0 1 -28 5 -62 8 -175 16
-535 199 -997 505 l-174 115 29 21 c121 88 230 204 316 334 51 79 56 92 34 92
-27 0 -214 58 -301 94 -160 66 -360 184 -540 320 -91 68 -244 196 -264 220
-12 14 -11 16 7 16 32 0 176 48 260 86 147 67 322 202 415 319 l39 49 -33 9
c-281 67 -679 309 -1046 633 -73 64 -73 65 26 83 174 34 427 155 561 270 l35
29 -25 6 c-14 3 -54 11 -90 17 -231 39 -526 236 -883 588 l-157 155 87 23 c48
13 132 41 186 63 112 45 293 148 281 159 -5 4 -52 18 -104 30 -256 62 -474
194 -690 417 -226 234 -422 545 -580 924 -57 135 -150 410 -171 503 -7 31 -15
57 -18 57 -3 0 -23 -63 -43 -140z m52 -231 c0 -5 25 -74 56 -152 141 -357 320
-671 514 -902 200 -238 438 -421 658 -507 l85 -33 -70 -32 c-105 -48 -214 -74
-335 -80 -60 -3 -108 -9 -108 -12 0 -28 382 -416 540 -548 175 -146 390 -283
524 -334 l58 -23 -84 -42 c-124 -62 -285 -113 -433 -136 -71 -11 -136 -22
-144 -24 -9 -3 18 -35 75 -88 347 -323 723 -588 999 -701 50 -21 92 -39 94
-41 7 -7 -71 -72 -157 -130 -147 -100 -318 -162 -507 -185 -49 -6 -91 -12 -93
-14 -1 -1 49 -52 113 -113 310 -298 688 -543 990 -642 89 -29 87 -28 75 -50
-50 -93 -220 -242 -344 -300 l-78 -38 53 -42 c66 -52 418 -285 554 -367 267
-161 497 -271 653 -312 l43 -12 -43 -82 c-88 -170 -263 -304 -448 -343 -136
-29 -384 -10 -551 42 -12 3 -26 -11 -49 -52 -17 -31 -63 -87 -101 -125 -176
-174 -414 -213 -686 -114 l-65 23 -51 -46 c-218 -194 -511 -294 -727 -248
-100 21 -220 82 -305 155 l-70 60 -55 -58 c-111 -117 -260 -202 -415 -237
-110 -25 -283 -23 -386 4 -143 38 -286 126 -381 232 l-54 61 -69 -61 c-85 -74
-204 -135 -305 -156 -215 -45 -490 48 -729 248 l-53 45 -82 -28 c-45 -16 -125
-34 -177 -41 -83 -10 -108 -9 -180 5 -164 32 -310 133 -399 274 -32 49 -45 63
-58 58 -43 -17 -187 -45 -278 -55 -167 -18 -351 14 -464 82 -105 62 -216 181
-271 291 -17 32 -29 60 -27 61 2 1 50 17 107 36 128 41 372 163 586 292 184
112 597 388 602 404 2 5 -21 20 -51 33 -65 27 -173 101 -237 163 -50 49 -129
145 -129 158 0 4 42 22 93 39 265 92 571 280 858 528 110 96 236 220 228 226
-2 2 -47 9 -99 15 -175 21 -350 84 -488 176 -74 49 -162 123 -162 136 0 4 12
11 28 14 57 14 312 147 430 225 207 136 374 267 591 464 l134 122 -34 7 c-19
4 -81 14 -139 23 -125 20 -306 78 -421 135 l-83 42 54 23 c151 61 307 158 489
302 109 87 527 502 553 549 l17 31 -80 7 c-141 12 -271 44 -377 94 l-53 25 89
37 c366 151 698 486 966 975 72 131 174 357 227 502 30 82 49 114 49 82z m357
-7082 c3 -194 25 -346 69 -472 19 -55 37 -108 40 -117 5 -13 -3 -19 -36 -28
-104 -28 -224 -50 -331 -61 -99 -11 -135 -10 -250 5 -120 15 -324 58 -337 70
-2 3 6 29 18 58 58 136 89 316 93 541 1 104 5 146 13 143 201 -75 427 -81 623
-16 47 15 88 28 91 29 3 0 6 -68 7 -152z"/>
<path d="M3086 51 c-4 -7 -5 -15 -2 -18 9 -9 19 4 14 18 -4 11 -6 11 -12 0z"/>
<path d="M3170 56 c0 -3 5 -17 12 -31 8 -18 14 -22 20 -13 4 7 7 20 7 28 0 10
-3 8 -9 -5 -7 -16 -9 -17 -9 -3 -1 15 -21 38 -21 24z"/>
<path d="M3231 44 c0 -11 3 -14 6 -6 3 7 2 16 -1 19 -3 4 -6 -2 -5 -13z"/>
<path d="M3266 40 c3 -14 10 -29 15 -35 14 -15 10 7 -7 35 l-15 25 7 -25z"/>
<path d="M3291 44 c0 -11 3 -14 6 -6 3 7 2 16 -1 19 -3 4 -6 -2 -5 -13z"/>
<path d="M3354 30 c1 -24 36 -44 36 -21 0 6 -6 8 -14 5 -10 -4 -16 3 -19 18
-4 22 -4 21 -3 -2z"/>
<path d="M3468 53 c6 -2 18 -2 25 0 6 3 1 5 -13 5 -14 0 -19 -2 -12 -5z"/>
<path d="M3521 28 c2 -30 2 -31 6 -5 2 15 9 27 15 27 5 0 8 -6 5 -14 -3 -8 2
-20 11 -28 13 -11 14 -11 7 2 -5 8 -10 22 -10 30 0 8 -8 16 -17 18 -15 3 -18
-3 -17 -30z"/>
<path d="M3611 40 c14 -31 19 -36 19 -24 0 6 -7 19 -16 30 -14 18 -14 18 -3
-6z"/>
<path d="M3656 51 c-4 -5 3 -7 14 -4 23 6 26 13 6 13 -8 0 -17 -4 -20 -9z"/>
<path d="M3720 56 c0 -2 9 -6 20 -9 11 -3 18 -1 14 4 -5 9 -34 13 -34 5z"/>
<path d="M3846 51 c-3 -5 3 -7 14 -4 16 4 20 0 20 -17 0 -18 -4 -21 -21 -17
-16 4 -19 3 -11 -5 17 -17 44 -1 40 24 -3 24 -32 36 -42 19z"/>
<path d="M3911 28 c2 -30 2 -31 6 -5 2 15 9 27 15 27 5 0 8 -6 5 -14 -3 -8 2
-20 11 -28 13 -11 14 -11 7 2 -5 8 -10 22 -10 30 0 8 -8 16 -17 18 -15 3 -18
-3 -17 -30z"/>
<path d="M3975 30 c0 -17 3 -30 8 -30 4 0 7 13 7 30 0 17 -3 30 -7 30 -5 0 -8
-13 -8 -30z"/>
<path d="M4020 50 c0 -5 5 -10 11 -10 5 0 7 5 4 10 -3 6 -8 10 -11 10 -2 0 -4
-4 -4 -10z"/>
<path d="M4096 51 c-4 -5 3 -7 14 -4 23 6 26 13 6 13 -8 0 -17 -4 -20 -9z"/>
<path d="M4168 53 c7 -3 16 -2 19 1 4 3 -2 6 -13 5 -11 0 -14 -3 -6 -6z"/>
<path d="M4220 39 c-7 -11 -10 -23 -7 -25 2 -2 9 7 15 21 14 30 7 33 -8 4z"/>
<path d="M4286 51 c-4 -5 3 -7 14 -4 23 6 26 13 6 13 -8 0 -17 -4 -20 -9z"/>
<path d="M4358 53 c7 -3 16 -2 19 1 4 3 -2 6 -13 5 -11 0 -14 -3 -6 -6z"/>
<path d="M4418 53 c6 -2 18 -2 25 0 6 3 1 5 -13 5 -14 0 -19 -2 -12 -5z"/>
<path d="M4516 51 c-4 -5 3 -7 14 -4 23 6 26 13 6 13 -8 0 -17 -4 -20 -9z"/>
<path d="M4574 45 c-13 -32 23 -63 40 -36 4 5 -3 7 -14 4 -16 -4 -20 0 -20 17
0 17 4 21 20 17 11 -3 18 -1 14 4 -8 14 -34 11 -40 -6z"/>
<path d="M4640 28 c0 -36 4 -35 14 5 4 16 2 27 -4 27 -5 0 -10 -14 -10 -32z"/>
<path d="M4671 37 c-13 -21 -12 -21 5 -5 10 10 16 20 13 22 -3 3 -11 -5 -18
-17z"/>
<path d="M3060 28 c0 -9 5 -20 10 -23 13 -8 13 5 0 25 -8 13 -10 13 -10 -2z"/>
<path d="M3106 24 c-4 -9 -4 -19 -1 -22 2 -3 7 3 11 12 4 9 4 19 1 22 -2 3 -7
-3 -11 -12z"/>
<path d="M3587 21 c-4 -17 -3 -21 5 -13 5 5 8 16 6 23 -3 8 -7 3 -11 -10z"/>
<path d="M4240 26 c0 -8 4 -17 9 -20 5 -4 7 3 4 14 -6 23 -13 26 -13 6z"/>
<path d="M4358 33 c7 -3 16 -2 19 1 4 3 -2 6 -13 5 -11 0 -14 -3 -6 -6z"/>
<path d="M3150 16 c0 -9 5 -16 10 -16 6 0 10 4 10 9 0 6 -4 13 -10 16 -5 3
-10 -1 -10 -9z"/>
<path d="M3247 23 c-4 -3 -7 -11 -7 -17 0 -6 5 -5 12 2 6 6 9 14 7 17 -3 3 -9
2 -12 -2z"/>
<path d="M4046 17 c3 -10 9 -15 12 -12 3 3 0 11 -7 18 -10 9 -11 8 -5 -6z"/>
<path d="M4126 18 c5 -8 0 -9 -16 -5 -16 4 -20 3 -12 -5 6 -6 18 -8 26 -5 18
7 22 27 5 27 -5 0 -7 -5 -3 -12z"/>
<path d="M4316 18 c5 -8 0 -9 -16 -5 -16 4 -20 3 -12 -5 6 -6 18 -8 26 -5 18
7 22 27 5 27 -5 0 -7 -5 -3 -12z"/>
<path d="M4435 21 c3 -5 -2 -12 -10 -14 -12 -4 -12 -5 1 -3 19 1 32 26 14 26
-6 0 -9 -4 -5 -9z"/>
<path d="M3658 8 c5 -5 16 -8 23 -6 8 3 3 7 -10 11 -17 4 -21 3 -13 -5z"/>
<path d="M3735 10 c-16 -7 -17 -9 -3 -9 9 -1 20 4 23 9 7 11 7 11 -20 0z"/>
<path d="M4518 8 c5 -5 16 -8 23 -6 8 3 3 7 -10 11 -17 4 -21 3 -13 -5z"/>
<path d="M3428 3 c7 -3 16 -2 19 1 4 3 -2 6 -13 5 -11 0 -14 -3 -6 -6z"/>
<path d="M3798 3 c7 -3 16 -2 19 1 4 3 -2 6 -13 5 -11 0 -14 -3 -6 -6z"/>
<path d="M4358 3 c7 -3 16 -2 19 1 4 3 -2 6 -13 5 -11 0 -14 -3 -6 -6z"/>
</g>
</svg>
