<?xml version="1.0" standalone="no"?>
<!DOCTYPE svg PUBLIC "-//W3C//DTD SVG 20010904//EN"
 "http://www.w3.org/TR/2001/REC-SVG-20010904/DTD/svg10.dtd">
<svg version="1.0" xmlns="http://www.w3.org/2000/svg"
 width="1024.000000pt" height="570.000000pt" viewBox="0 0 1024.000000 570.000000"
 preserveAspectRatio="xMidYMid meet">

<g transform="translate(0.000000,570.000000) scale(0.100000,-0.100000)"
fill="#000000" stroke="none">
<path d="M9922 5687 c-49 -18 -108 -70 -187 -163 -112 -134 -223 -216 -535
-399 -452 -265 -607 -324 -846 -325 -133 0 -201 11 -272 46 -59 29 -71 47
-128 196 -54 143 -85 174 -143 144 -40 -21 -74 -73 -161 -246 -134 -267 -309
-490 -520 -665 -193 -159 -337 -228 -482 -228 -83 0 -115 18 -258 143 -176
155 -250 190 -294 141 -20 -22 -21 -37 -11 -226 17 -323 -72 -691 -208 -857
-62 -74 -190 -170 -351 -260 -136 -77 -226 -150 -226 -185 0 -33 31 -60 84
-72 65 -16 122 -50 188 -114 89 -86 157 -191 204 -316 29 -78 64 -242 64 -305
l0 -45 -32 7 c-18 4 -96 7 -173 6 -123 -1 -150 -4 -221 -27 -93 -31 -180 -84
-243 -150 l-44 -46 -106 99 c-58 54 -212 189 -341 300 -553 474 -606 522 -793
717 -94 99 -170 153 -215 153 -35 0 -70 -40 -114 -126 -54 -109 -164 -219
-266 -267 -59 -28 -79 -32 -174 -35 -178 -7 -346 39 -486 132 -87 58 -122 97
-168 189 -47 94 -78 127 -120 127 -41 0 -68 -32 -84 -103 -24 -100 -105 -231
-207 -333 -87 -86 -395 -216 -549 -230 -91 -8 -146 4 -315 71 -75 30 -157 58
-181 61 l-44 6 -49 -148 c-27 -82 -68 -187 -92 -234 -126 -248 -357 -461 -660
-607 -160 -77 -194 -125 -136 -194 37 -43 136 -87 312 -138 241 -70 488 -212
579 -333 88 -116 151 -263 199 -458 22 -86 26 -126 25 -227 -1 -101 2 -126 16
-143 16 -20 19 -20 67 -6 62 19 108 65 159 161 83 156 394 421 609 520 115 52
206 68 361 62 102 -4 151 -11 221 -31 222 -66 427 -206 575 -391 47 -59 90
-134 90 -155 0 -6 9 -33 20 -59 24 -54 61 -81 112 -81 29 0 37 6 55 38 12 20
29 69 39 107 46 191 217 414 434 567 281 197 703 302 1094 270 79 -7 150 -14
158 -17 7 -3 32 -45 55 -94 79 -167 210 -270 387 -301 82 -15 210 -8 293 16
217 62 396 237 420 411 5 40 8 44 27 38 272 -85 512 -4 652 222 70 112 97 209
98 361 l2 123 41 54 c112 145 318 247 606 302 120 23 564 24 699 1 l87 -14 26
61 c33 80 50 158 75 350 23 175 31 215 63 290 84 203 383 492 644 624 188 94
449 170 768 222 126 21 136 24 142 47 12 50 -14 99 -86 157 -75 60 -208 202
-263 280 -86 120 -120 236 -120 399 0 140 27 261 128 590 74 240 107 374 120
494 l7 62 -34 -1 c-19 0 -49 -5 -67 -12z m-62 -280 c-6 -34 -37 -131 -67 -216
-125 -355 -153 -468 -153 -625 0 -127 23 -233 75 -341 53 -112 103 -184 225
-320 52 -59 96 -111 98 -115 2 -4 -16 -11 -40 -15 -85 -13 -315 -75 -433 -115
-157 -54 -345 -145 -470 -228 -121 -80 -310 -264 -382 -372 -123 -184 -211
-419 -243 -645 -6 -44 -13 -95 -16 -114 l-5 -33 -57 6 c-219 23 -489 16 -692
-19 -276 -48 -491 -145 -657 -298 l-42 -39 -24 54 c-41 92 -153 218 -258 292
-20 14 -21 18 -10 43 26 56 141 221 222 318 117 139 467 489 567 566 274 211
574 394 1009 613 73 37 152 78 175 92 l43 24 -45 -6 c-164 -21 -258 -56 -435
-160 -72 -42 -184 -108 -250 -146 -274 -161 -513 -333 -690 -496 -226 -210
-597 -615 -680 -742 l-29 -45 -115 -1 c-99 0 -126 -4 -183 -26 -80 -30 -159
-76 -235 -138 -31 -25 -63 -51 -72 -57 -15 -12 -20 -3 -44 85 -55 196 -160
366 -334 539 -52 52 -93 96 -91 98 2 1 28 15 58 30 148 74 253 160 345 283
159 212 240 471 266 845 6 89 12 163 13 164 1 1 49 -31 107 -73 57 -41 137
-91 177 -111 138 -69 295 -56 469 37 111 60 177 112 315 250 173 174 357 425
488 664 l43 79 22 -49 c65 -148 239 -252 457 -274 221 -22 412 33 679 196 52
31 177 105 279 164 322 186 439 268 555 391 44 46 71 69 74 60 1 -8 -2 -41 -9
-74z m-6127 -2581 c61 -66 976 -874 1080 -955 164 -125 277 -235 277 -268 0
-8 -8 -29 -17 -46 -10 -18 -19 -33 -20 -35 -1 -2 -115 21 -255 52 -702 153
-1090 206 -1512 206 -298 0 -411 -16 -816 -116 -124 -30 -263 -64 -310 -74
-132 -29 -62 -23 198 15 399 60 599 84 793 94 502 27 1219 -72 1788 -247 l123
-38 28 -109 c15 -61 33 -123 39 -139 6 -16 10 -30 9 -31 -2 -1 -52 2 -113 7
-130 11 -337 3 -489 -18 -576 -80 -1000 -387 -1177 -853 -9 -23 -12 -21 -59
52 -62 97 -210 252 -315 329 -222 164 -522 246 -798 218 -253 -26 -396 -111
-714 -425 -103 -103 -196 -191 -205 -196 -19 -10 -29 19 -107 307 -82 307
-153 423 -331 544 -96 66 -193 107 -495 215 -71 26 -134 50 -138 54 -4 4 11
20 35 36 24 15 112 79 195 142 234 175 399 347 505 529 47 79 98 193 111 246
l7 28 65 -25 c147 -55 363 -72 517 -40 320 66 597 271 724 533 1 1 32 -28 70
-66 83 -82 168 -141 280 -194 122 -57 218 -79 365 -85 110 -5 136 -3 196 15
117 36 208 106 358 275 43 48 80 87 82 87 2 0 14 -11 26 -24z m2826 -621 c157
-37 291 -144 360 -287 176 -364 -67 -782 -439 -755 -41 3 -96 13 -122 22 l-48
17 0 51 c-1 203 -116 448 -271 578 -58 48 -58 57 -6 149 106 186 313 275 526
225z m-681 -391 c215 -72 335 -240 357 -501 8 -97 -12 -201 -57 -293 -40 -82
-149 -193 -234 -238 -192 -100 -416 -73 -548 68 -36 38 -49 64 -79 160 -26 81
-55 145 -97 214 -71 117 -84 158 -78 246 13 179 186 335 410 369 98 15 239 4
326 -25z"/>
<path d="M6598 3148 c-51 -62 -52 -73 -15 -92 30 -15 33 -14 49 4 24 30 34 99
15 117 -13 13 -18 9 -49 -29z"/>
<path d="M6286 3069 c-9 -48 -8 -49 28 -49 30 0 34 4 40 31 9 48 8 49 -28 49
-30 0 -34 -4 -40 -31z"/>
<path d="M2038 1563 c6 -2 18 -2 25 0 6 3 1 5 -13 5 -14 0 -19 -2 -12 -5z"/>
<path d="M3335 1193 c14 -79 26 -91 59 -57 26 26 20 61 -14 79 -45 23 -52 20
-45 -22z"/>
<path d="M3170 1150 c0 -31 32 -90 50 -90 44 0 52 46 14 84 -32 31 -64 35 -64
6z"/>
</g>
</svg>
