<?xml version="1.0" standalone="no"?>
<!DOCTYPE svg PUBLIC "-//W3C//DTD SVG 20010904//EN"
 "http://www.w3.org/TR/2001/REC-SVG-20010904/DTD/svg10.dtd">
<svg version="1.0" xmlns="http://www.w3.org/2000/svg"
 width="600.000000pt" height="470.000000pt" viewBox="0 0 600.000000 470.000000"
 preserveAspectRatio="xMidYMid meet">

<g transform="translate(0.000000,470.000000) scale(0.100000,-0.100000)"
fill="#000000" stroke="none">
<path d="M2635 4359 c-172 -20 -386 -96 -584 -206 -2 -1 15 -48 37 -105 68
-170 204 -559 198 -565 -1 -2 -51 -12 -110 -22 -107 -20 -129 -29 -147 -62
-12 -23 8 -69 31 -69 19 0 125 18 155 27 14 4 9 -5 -18 -33 -45 -45 -110 -173
-132 -259 -25 -93 -22 -255 5 -335 30 -89 82 -195 127 -255 l37 -50 3 -137 c2
-76 1 -138 -3 -138 -4 0 -15 6 -23 13 -9 7 -50 34 -92 60 -73 45 -214 180
-285 272 -23 30 -25 38 -13 46 12 7 9 17 -13 59 l-28 50 25 16 c13 9 38 37 56
62 26 41 30 54 26 96 -4 40 -11 55 -36 78 -17 15 -41 28 -52 28 -35 0 -90 -32
-109 -62 l-17 -29 -35 73 c-53 109 -104 162 -184 188 -114 38 -224 9 -317 -85
-74 -73 -91 -114 -91 -215 -1 -166 78 -286 264 -403 19 -13 49 -46 65 -75 24
-43 34 -52 53 -49 17 3 24 -2 29 -22 13 -55 93 -240 141 -329 60 -110 93 -154
185 -249 l70 -72 -16 -76 c-41 -186 -2 -512 87 -716 l33 -78 -46 -6 c-164 -20
-243 -40 -377 -96 -27 -11 -37 -10 -70 7 -36 17 -61 19 -299 18 -288 -1 -472
-19 -592 -56 -54 -17 -73 -28 -73 -40 0 -14 6 -16 33 -11 17 3 46 14 63 24 17
11 48 19 68 19 20 0 36 4 36 9 0 19 665 38 728 22 23 -7 42 -15 42 -20 0 -4
-22 -18 -50 -31 -27 -13 -50 -27 -50 -32 0 -13 14 -10 91 23 194 80 230 93
314 110 49 10 115 19 145 19 l56 0 42 -64 c23 -35 69 -87 102 -116 33 -29 60
-55 60 -59 0 -4 -26 -15 -57 -25 -95 -30 -165 -64 -160 -78 6 -18 19 -15 121
27 117 48 257 76 376 77 115 0 305 -43 404 -92 42 -21 85 -34 126 -37 76 -7
76 10 0 26 -28 6 -78 25 -112 42 l-62 31 29 24 c38 31 164 80 258 100 43 10
122 17 197 17 129 1 202 -11 574 -98 60 -15 128 -25 150 -23 l41 3 -55 13
c-30 7 -102 28 -160 45 l-105 31 76 76 c42 41 91 101 109 134 l33 59 56 -7
c31 -3 117 -21 191 -40 l135 -34 3 -181 c2 -180 3 -181 27 -197 29 -19 74 -14
113 12 l25 16 -7 158 -7 158 113 -33 c62 -19 169 -47 238 -64 69 -16 133 -32
143 -36 11 -5 17 -2 17 7 0 15 -69 40 -144 54 -32 5 -36 8 -21 16 34 20 153
32 310 32 132 1 179 -3 273 -23 62 -13 115 -21 118 -18 12 12 -9 27 -39 28
-33 0 -154 29 -173 41 -6 4 -58 10 -115 14 -100 6 -197 -3 -274 -26 -16 -5
-58 -14 -92 -21 -35 -6 -63 -15 -63 -20 0 -5 -6 -7 -12 -5 -7 2 -72 21 -145
42 l-132 38 -5 41 c-4 30 -28 532 -29 609 -1 54 5 65 62 109 74 57 104 124
104 232 1 112 -61 220 -141 246 -20 6 -40 14 -44 18 -4 3 -12 107 -18 230
l-12 223 32 33 c20 21 33 46 37 71 6 47 44 95 98 122 152 76 265 359 265 662
0 62 -19 238 -36 326 -6 34 -62 37 -178 8 -100 -24 -104 -24 -321 -14 -121 6
-229 11 -240 11 -11 1 -71 8 -133 17 -68 9 -116 12 -122 6 -4 -5 -14 -79 -20
-164 -23 -314 30 -570 153 -729 63 -81 166 -151 223 -151 19 0 28 -8 40 -35 7
-19 14 -48 14 -64 0 -22 11 -39 47 -70 l46 -41 5 -180 5 -180 -40 0 c-53 0
-93 -31 -93 -71 0 -38 -13 -38 -132 2 -51 18 -152 48 -224 68 -107 31 -140 44
-180 76 -27 22 -50 40 -51 40 -1 0 -21 77 -45 172 l-44 171 32 64 c49 96 67
177 68 300 l1 106 51 7 c29 3 60 13 70 21 18 14 18 15 -3 33 -12 10 -44 22
-70 26 -53 8 -73 19 -73 44 0 37 -63 146 -117 203 -100 104 -210 178 -328 218
l-50 17 59 13 c72 17 90 33 82 74 -11 51 -25 59 -77 40 -24 -9 -81 -24 -125
-33 l-81 -17 -11 131 c-10 110 -23 318 -36 542 -1 29 -5 56 -8 59 -11 10 -192
13 -273 3z m253 -585 l42 -5 0 -59 c0 -32 3 -65 6 -74 7 -17 17 -14 -176 -51
-74 -14 -202 -41 -284 -61 -82 -19 -151 -32 -154 -29 -3 3 -16 34 -28 70 l-23
65 27 14 c49 25 226 92 292 111 117 32 164 35 298 19z m985 -201 c-3 -38 -8
-92 -12 -121 -6 -37 -5 -52 3 -49 12 4 23 86 25 180 1 50 4 58 19 55 12 -3 16
-12 15 -33 -12 -199 -12 -220 -3 -153 4 36 14 91 21 122 13 60 17 62 79 50
l32 -7 -5 -116 -6 -116 17 113 c9 62 22 112 27 112 6 0 9 -15 9 -33 -1 -17 -5
-106 -8 -197 -5 -103 -4 -159 2 -150 5 8 12 80 16 160 4 79 9 162 13 182 l6
38 111 0 c149 0 151 -1 150 -53 -1 -25 0 -30 3 -12 2 17 6 37 9 45 10 29 25
-13 18 -54 -3 -21 -3 -73 2 -115 l8 -76 7 119 c5 65 9 119 11 121 2 1 25 5 52
9 l49 6 -7 -38 c-3 -20 -8 -93 -11 -162 -5 -150 8 -108 24 74 6 65 12 120 13
121 2 1 34 10 71 18 l69 15 -7 -79 c-7 -83 3 -329 14 -329 3 0 6 90 6 200 0
214 3 227 49 210 19 -6 23 -24 41 -151 17 -115 19 -166 13 -254 -10 -150 -10
-151 -55 -158 -21 -3 -85 -14 -143 -23 -132 -22 -583 -24 -695 -2 l-70 13 -14
60 c-15 67 -21 426 -8 488 6 26 13 37 26 37 17 0 18 -7 14 -67z m-758 -62
c146 -46 249 -112 356 -229 47 -51 86 -118 103 -178 5 -18 3 -21 -16 -18 -45
8 -384 67 -463 81 -160 29 -195 31 -216 14 -47 -39 -61 -222 -21 -271 17 -20
20 -20 204 -5 104 8 255 26 337 40 218 37 201 41 201 -57 0 -115 -22 -209 -71
-305 -55 -111 -186 -239 -292 -288 -168 -78 -404 -101 -582 -57 -119 30 -294
116 -366 181 -70 63 -130 154 -176 268 -34 83 -36 95 -37 208 -1 111 1 127 32
216 36 107 82 180 140 221 56 42 90 55 183 72 94 17 434 89 519 110 76 19 96
19 165 -3z m-107 -357 c17 -3 22 -11 22 -35 0 -18 4 -28 10 -24 6 3 10 15 10
26 0 10 5 19 10 19 6 0 10 -9 10 -19 0 -11 5 -23 10 -26 6 -4 10 5 10 20 0 25
2 26 33 19 17 -3 64 -12 102 -18 69 -12 70 -13 76 -47 l6 -34 2 33 c1 35 5 36
68 22 24 -6 75 -15 115 -20 94 -13 220 -41 214 -47 -4 -5 -238 -43 -263 -43
-6 0 -15 10 -19 22 -6 19 -7 20 -16 4 -5 -10 -7 -20 -3 -24 10 -10 -92 -30
-192 -38 l-93 -7 0 26 c0 14 -4 29 -10 32 -6 4 -10 -8 -10 -28 l0 -34 -67 -6
c-38 -4 -87 -7 -110 -7 -45 0 -43 -3 -58 95 -6 44 16 133 37 146 12 8 45 6
106 -7z m1777 -123 c-11 -10 -163 -43 -278 -62 -42 -6 -171 -12 -285 -13 -238
-1 -347 13 -358 46 -3 11 -4 21 -2 23 1 1 30 -1 63 -6 93 -12 365 -28 415 -24
25 3 112 10 193 16 81 6 160 15 175 19 37 11 88 12 77 1z m-5 -36 c0 -3 -16
-47 -36 -99 -40 -104 -97 -179 -168 -221 -53 -31 -81 -34 -66 -6 18 35 10 37
-11 4 -22 -35 -46 -46 -34 -15 16 38 18 55 7 48 -7 -4 -12 -12 -12 -18 0 -24
-34 -48 -66 -48 l-33 0 4 73 c5 76 5 76 -23 -38 -8 -29 -9 -30 -79 -33 l-70
-3 -23 58 c-13 32 -27 62 -32 68 -14 15 -9 -30 7 -69 8 -20 13 -36 10 -36 -3
0 -28 11 -55 25 -78 40 -157 131 -194 224 -9 24 -16 45 -14 46 2 2 26 -1 53
-7 28 -6 156 -11 285 -12 239 -1 380 13 490 48 52 16 60 18 60 11z m-285 -384
c-13 -13 -171 -32 -204 -25 -61 13 -50 19 49 24 58 4 118 7 135 8 18 1 25 -2
20 -7z m-35 -75 c0 -26 -8 -41 -32 -61 -27 -23 -39 -26 -76 -22 -50 5 -87 36
-97 79 l-7 27 99 4 c54 1 101 4 106 5 4 1 7 -13 7 -32z m-2631 -80 c66 -86
220 -228 298 -276 40 -25 73 -48 73 -51 0 -4 -16 -21 -35 -38 -107 -94 -249
-288 -280 -383 -10 -29 -19 -55 -21 -57 -2 -2 -21 11 -43 28 -49 39 -141 160
-193 254 -79 144 -161 357 -144 375 12 12 290 201 297 201 4 1 25 -23 48 -53z
m519 -114 c44 -27 93 -54 110 -61 l30 -13 7 -119 c4 -66 5 -122 3 -125 -17
-17 -207 92 -220 126 -9 24 -23 240 -15 240 3 0 41 -22 85 -48z m856 -214 c-8
-94 -12 -98 -150 -123 -49 -9 -99 -19 -110 -22 -20 -4 -23 1 -32 64 -6 37 -13
85 -15 106 -3 37 -3 37 35 37 46 0 192 29 233 46 27 11 31 10 38 -8 4 -11 4
-56 1 -100z m414 -95 c18 -75 30 -139 27 -142 -7 -7 -372 -70 -408 -71 l-28 0
6 118 c9 171 -1 155 112 180 54 12 125 28 158 36 106 24 96 33 133 -121z
m-1261 22 c90 -45 131 -59 238 -81 116 -23 145 -25 265 -21 121 5 272 29 324
52 15 7 17 5 13 -11 -3 -10 -7 -107 -9 -214 l-3 -195 23 -3 c18 -3 22 -8 17
-20 -35 -82 -35 -81 24 -89 45 -6 46 -6 56 70 6 44 8 47 36 47 33 0 35 -9 15
-69 -13 -36 -13 -42 0 -56 18 -18 38 -19 65 -5 16 9 19 22 19 75 0 36 3 65 8
65 4 0 18 3 31 7 22 6 23 5 17 -38 -4 -24 -9 -56 -12 -71 -5 -27 -4 -28 34
-28 53 0 65 16 60 89 -3 53 -1 61 17 65 10 3 21 4 23 2 2 -3 5 -35 7 -73 3
-64 4 -68 26 -65 13 1 33 9 45 17 21 13 21 16 8 72 -18 75 -18 73 11 73 31 0
31 1 1 97 -34 108 -90 353 -83 360 10 9 136 -117 175 -177 20 -30 65 -111 99
-180 86 -171 116 -304 116 -510 1 -161 -11 -224 -69 -368 -49 -123 -121 -217
-217 -288 -50 -37 -61 -42 -85 -33 -55 18 -266 49 -342 49 -97 0 -274 -31
-362 -63 -66 -24 -168 -82 -168 -96 0 -5 -39 3 -87 17 -75 21 -110 24 -233 25
-80 0 -162 -5 -184 -11 -35 -10 -42 -9 -80 18 -52 36 -124 111 -163 170 -32
47 -99 200 -126 285 -48 151 -69 416 -43 555 36 198 79 295 189 427 69 82 172
183 189 183 4 0 56 -25 115 -55z m1671 -95 c51 -17 104 -30 118 -30 l25 0 -31
-38 c-75 -94 -69 -313 12 -399 l21 -23 -40 0 c-52 0 -101 17 -107 38 -2 10 -9
42 -16 72 -15 72 -153 349 -202 405 -21 24 -38 45 -38 48 0 5 121 -29 258 -73z
m-348 -368 c14 -53 13 -69 -9 -75 -17 -4 -21 2 -26 48 -11 82 14 101 35 27z
m-126 6 c3 -13 6 -42 6 -66 0 -39 -2 -43 -22 -40 -21 3 -23 8 -21 51 2 54 8
77 22 77 5 0 11 -10 15 -22z m-136 -61 c3 -56 2 -57 -24 -57 -18 0 -25 4 -21
14 3 7 9 34 12 60 10 64 29 53 33 -17z m-133 16 c-11 -62 -12 -65 -35 -53 -16
9 -18 15 -9 37 23 61 53 72 44 16z m972 -132 c21 -11 45 -22 54 -25 12 -3 18
-21 22 -63 8 -69 12 -572 5 -579 -3 -2 -43 7 -89 20 -113 32 -182 46 -229 46
-22 0 -40 4 -40 10 0 5 11 38 24 72 13 35 28 94 35 131 13 74 16 300 6 370
l-7 43 90 -2 c68 -2 100 -7 129 -23z"/>
<path d="M3010 3320 c-23 -23 -24 -33 -10 -61 12 -22 59 -26 78 -7 19 19 14
55 -10 72 -29 20 -34 20 -58 -4z"/>
<path d="M2662 3298 c-7 -7 -12 -26 -12 -43 0 -38 16 -55 50 -55 31 0 60 28
60 57 0 42 -68 71 -98 41z"/>
<path d="M2345 3191 c-50 -22 -105 -68 -105 -87 0 -20 10 -17 41 12 l27 25 17
-71 c11 -47 34 -98 69 -153 117 -187 357 -298 581 -267 123 16 244 66 310 128
48 44 6 40 -62 -7 -32 -22 -94 -52 -138 -68 -72 -25 -92 -28 -200 -26 -130 1
-147 5 -263 67 -143 77 -257 224 -281 365 l-9 54 39 15 c22 8 39 19 39 24 0
13 -21 9 -65 -11z"/>
<path d="M2870 1790 c-11 -11 -20 -33 -20 -49 0 -75 104 -95 130 -25 26 67
-59 125 -110 74z"/>
<path d="M2890 1480 c-11 -11 -20 -31 -20 -45 0 -31 41 -75 70 -75 29 0 70 44
70 75 0 34 -33 65 -70 65 -17 0 -39 -9 -50 -20z"/>
<path d="M2902 1177 c-65 -69 25 -168 99 -108 17 13 23 29 23 56 0 68 -77 100
-122 52z"/>
</g>
</svg>
