<?xml version="1.0" standalone="no"?>
<!DOCTYPE svg PUBLIC "-//W3C//DTD SVG 20010904//EN"
 "http://www.w3.org/TR/2001/REC-SVG-20010904/DTD/svg10.dtd">
<svg version="1.0" xmlns="http://www.w3.org/2000/svg"
 width="776.000000pt" height="776.000000pt" viewBox="0 0 776.000000 776.000000"
 preserveAspectRatio="xMidYMid meet">

<g transform="translate(0.000000,776.000000) scale(0.100000,-0.100000)"
fill="#000000" stroke="none">
<path d="M1179 7726 c24 -39 28 -61 5 -28 -21 30 -76 30 -104 0 -16 -17 -23
-19 -32 -10 -19 19 -57 14 -83 -13 l-25 -24 0 34 c0 40 -6 43 -108 45 -44 1
-79 -4 -88 -11 -10 -8 -14 -36 -14 -105 l0 -94 35 0 36 0 -21 -22 c-11 -13
-20 -35 -20 -54 0 -23 -6 -34 -18 -39 -19 -6 -42 -44 -42 -71 0 -8 12 -26 26
-39 32 -30 21 -32 -39 -6 -35 15 -48 17 -55 8 -13 -17 -82 -155 -82 -165 0 -4
39 -27 86 -51 90 -44 105 -44 120 1 5 17 8 16 22 -14 12 -23 25 -34 45 -36 20
-3 27 -9 27 -25 0 -13 7 -33 16 -46 14 -20 23 -23 60 -18 24 2 44 3 44 1 0 -2
-22 -15 -50 -29 -27 -14 -50 -27 -50 -29 0 -16 84 -176 92 -176 13 0 147 59
165 73 9 7 7 20 -7 58 -25 62 -25 64 0 39 26 -26 68 -26 96 1 19 17 26 19 44
9 16 -9 29 -9 46 -2 20 10 23 8 26 -11 2 -18 17 -26 86 -45 46 -13 89 -21 96
-19 13 5 51 115 58 166 3 22 -3 27 -49 40 -63 19 -77 31 -35 31 55 0 88 55 60
100 -10 15 -9 22 5 38 21 23 22 61 1 90 -20 28 -13 28 32 -3 20 -14 42 -25 48
-25 11 0 106 142 106 159 0 11 -50 49 -114 86 -54 32 -49 34 -98 -36 l-18 -24
10 28 c13 38 -4 76 -40 90 -17 6 -30 18 -30 27 0 9 -7 26 -16 39 -14 20 -23
23 -60 18 -24 -2 -44 -3 -44 -1 0 2 20 15 45 30 32 18 45 32 45 48 0 27 -18
46 -42 46 -16 0 -17 -3 -8 -20 14 -26 7 -36 -40 -60 -31 -16 -40 -27 -46 -55
-3 -20 -3 -39 0 -42 4 -4 27 0 52 10 50 18 74 14 74 -15 0 -14 -16 -26 -55
-44 -30 -14 -57 -29 -60 -34 -6 -10 62 -90 75 -90 5 0 23 25 40 55 50 87 108
68 60 -20 -13 -23 -20 -47 -17 -52 10 -16 80 2 94 24 41 61 36 59 87 29 26
-15 50 -34 53 -42 7 -19 -56 -116 -71 -107 -6 3 -23 15 -38 25 -21 14 -37 17
-63 12 -50 -9 -53 -22 -11 -60 31 -29 35 -37 26 -54 -15 -28 -30 -25 -78 16
-23 20 -47 34 -54 32 -10 -4 -38 -78 -38 -105 0 -9 16 -13 49 -13 81 0 111 -9
111 -35 0 -26 -21 -34 -74 -28 -47 5 -56 -15 -25 -56 15 -20 34 -32 60 -36 22
-4 41 -11 45 -16 7 -11 -16 -118 -27 -125 -7 -4 -118 23 -127 31 -1 1 3 23 10
48 11 41 10 48 -7 67 -28 31 -44 25 -51 -20 -7 -44 -26 -65 -50 -56 -14 5 -15
16 -9 71 3 35 4 68 1 73 -6 10 -126 -17 -126 -29 0 -4 14 -30 31 -58 33 -53
33 -81 -1 -81 -13 0 -28 13 -42 35 -25 44 -49 42 -61 -4 -6 -25 -4 -46 8 -78
10 -24 16 -45 14 -47 -9 -6 -109 -56 -113 -56 -5 0 -56 109 -56 119 0 4 19 16
42 27 35 16 44 25 51 57 5 21 6 41 3 45 -4 3 -28 -1 -53 -10 -53 -19 -75 -14
-71 16 2 14 21 29 61 48 31 15 57 30 57 33 0 12 -74 95 -85 95 -5 0 -23 -26
-40 -57 -32 -61 -41 -68 -65 -53 -13 8 -13 15 3 56 20 54 15 68 -22 59 -35 -9
-50 -22 -66 -62 -8 -18 -19 -33 -25 -33 -18 0 -110 50 -110 60 0 8 37 92 47
109 1 2 23 -4 49 -14 39 -15 53 -16 85 -6 21 7 39 17 39 24 0 7 -19 23 -41 37
-28 17 -39 30 -37 45 5 32 36 29 94 -9 29 -20 58 -36 62 -36 10 0 42 107 34
115 -3 3 -33 5 -68 5 -46 0 -63 4 -68 15 -11 31 5 45 50 45 52 0 67 20 39 50
-13 15 -31 20 -67 20 l-48 0 0 70 0 70 65 0 65 0 0 -44 c0 -33 7 -52 26 -76
33 -38 46 -29 54 38 4 42 8 47 30 47 24 0 25 -2 25 -67 0 -36 3 -69 6 -72 7
-7 99 14 113 25 5 4 -6 31 -24 60 -23 38 -30 57 -23 68 13 21 29 24 42 9 6 -7
21 -26 34 -42 28 -34 42 -29 51 18 9 48 -19 106 -52 106 l-24 0 21 -34z m-79
-152 c0 -8 -7 -14 -15 -14 -15 0 -21 21 -9 33 10 9 24 -2 24 -19z m280 -83 c0
-12 -20 -25 -27 -18 -7 7 6 27 18 27 5 0 9 -4 9 -9z m-490 -121 c0 -13 -20
-13 -40 0 -12 8 -9 10 13 10 15 0 27 -4 27 -10z m545 -170 c18 -19 17 -20 -3
-20 -15 0 -22 6 -22 20 0 11 2 20 3 20 2 0 12 -9 22 -20z m-488 -97 c2 -6 -4
-13 -13 -17 -21 -8 -26 -3 -18 18 7 18 25 17 31 -1z m281 -95 c-2 -13 -7 -23
-13 -23 -5 0 -11 10 -13 23 -2 15 2 22 13 22 11 0 15 -7 13 -22z"/>
<path d="M3555 7750 c-16 -4 -64 -15 -105 -25 -148 -34 -444 -137 -640 -221
-36 -16 -150 -71 -255 -124 -428 -216 -656 -398 -655 -522 1 -18 6 -42 13 -54
12 -20 399 -465 469 -539 l38 -40 -32 -29 c-86 -75 -171 -163 -198 -204 -55
-83 -64 -175 -23 -231 22 -31 116 -81 151 -81 21 0 24 -3 18 -27 -22 -106 -28
-182 -23 -303 6 -157 34 -282 91 -405 20 -43 36 -79 36 -80 0 -2 -11 -6 -24
-9 -37 -9 -110 -97 -129 -156 -21 -63 -21 -108 -3 -177 l14 -52 -37 -12 c-64
-21 -204 -95 -271 -144 -279 -204 -438 -542 -400 -850 13 -107 50 -226 102
-328 l40 -78 -17 -97 c-23 -131 -31 -391 -16 -522 40 -343 167 -662 378 -942
51 -68 274 -296 337 -345 l40 -30 -52 -69 c-85 -113 -133 -232 -153 -379 -30
-231 81 -394 336 -492 160 -62 343 -87 635 -87 347 -1 544 30 710 114 161 81
240 191 248 344 2 46 -1 107 -7 136 -6 29 -10 55 -7 57 2 2 46 15 97 28 194
49 397 138 567 248 57 37 106 67 110 67 4 0 20 -24 35 -54 74 -141 220 -226
387 -226 229 0 555 147 902 407 112 83 288 269 337 356 67 119 75 148 76 267
0 99 -2 109 -33 173 -73 149 -228 260 -443 319 -71 19 -109 22 -249 23 -91 0
-180 -3 -199 -7 l-33 -8 6 38 c15 93 17 389 3 492 l-14 105 37 41 c47 51 56
107 35 225 -18 105 -47 193 -92 282 l-34 69 43 57 c151 194 310 482 407 736
41 107 44 111 89 135 64 34 103 98 109 182 5 61 7 64 52 98 73 56 262 248 323
330 100 135 162 280 177 411 15 135 -10 242 -82 357 -74 118 -207 206 -349
232 -137 25 -294 -31 -422 -151 l-72 -67 -41 53 c-23 29 -63 66 -90 82 -41 24
-59 28 -120 28 -64 0 -76 -3 -115 -31 -23 -17 -60 -53 -80 -80 -58 -75 -63
-117 -49 -393 7 -129 8 -237 4 -241 -4 -4 -24 -13 -44 -19 -50 -16 -113 -73
-138 -124 -23 -47 -27 -119 -11 -163 12 -31 23 -18 -128 -147 -117 -99 -150
-122 -159 -113 -3 3 0 14 9 23 24 29 94 172 121 248 78 218 75 520 -8 745
-101 278 -335 538 -614 683 -42 21 -74 42 -73 46 2 3 19 24 38 46 137 160 102
326 -77 364 -62 14 -182 14 -273 1 -38 -6 -70 -9 -72 -7 -2 1 -14 122 -28 267
-52 549 -49 536 -106 565 -22 11 -61 15 -162 14 -73 0 -146 -4 -163 -9z m259
-90 c20 -7 24 -14 18 -28 -26 -69 -193 -198 -435 -336 -74 -42 -334 -171 -407
-201 -199 -83 -248 -101 -380 -145 -194 -64 -336 -98 -445 -107 -119 -10 -161
-4 -157 22 7 35 41 73 125 139 353 275 1055 578 1527 659 48 8 129 7 154 -3z
m61 -434 l17 -188 -33 -30 c-306 -268 -836 -509 -1257 -573 -56 -8 -128 -15
-161 -15 -55 0 -61 3 -86 33 -15 17 -44 50 -64 72 -20 22 -78 88 -128 146
l-92 106 82 6 c408 30 1266 399 1627 701 l65 54 7 -62 c4 -33 14 -146 23 -250z
m25 -253 c0 -5 7 -75 15 -158 9 -82 13 -162 10 -177 -16 -69 -175 -189 -405
-304 -301 -150 -573 -234 -755 -234 -88 0 -94 1 -121 28 -52 50 -214 236 -214
244 0 3 39 8 88 11 289 19 742 179 1073 380 114 69 242 161 273 196 19 21 36
28 36 14z m464 -163 c34 -12 55 -37 56 -63 1 -47 -79 -156 -171 -233 -30 -25
-65 -55 -78 -66 -133 -113 -470 -304 -741 -420 -523 -225 -1057 -322 -1167
-212 -27 27 -24 58 12 114 44 68 219 230 249 230 6 0 30 -22 54 -50 54 -63 93
-74 222 -67 352 19 1032 332 1155 532 28 46 30 54 27 136 l-3 87 68 11 c37 6
79 13 93 15 41 8 193 -2 224 -14z m-21 -399 c400 -188 656 -520 700 -908 20
-180 -19 -396 -98 -553 -35 -70 -110 -186 -127 -196 -48 -31 -120 -46 -218
-48 -108 -1 -151 -14 -217 -66 -15 -11 -51 -20 -103 -24 -119 -11 -172 -29
-213 -75 -19 -21 -41 -55 -48 -74 -12 -34 -16 -36 -68 -43 -96 -12 -426 3
-551 25 -191 33 -293 66 -465 151 -237 117 -305 164 -359 248 -154 237 -198
497 -136 790 15 69 30 82 93 82 235 0 750 162 1142 357 193 97 501 288 550
343 24 27 44 25 118 -9z m2118 -397 c136 -40 247 -156 285 -299 52 -194 -40
-422 -264 -656 -51 -54 -126 -124 -165 -156 -40 -32 -73 -61 -75 -65 -11 -24
-165 11 -278 62 -35 16 -101 54 -145 85 -80 57 -109 64 -109 26 0 -48 297
-208 421 -227 24 -4 52 -11 62 -16 35 -18 10 -123 -38 -154 -13 -9 -50 -18
-82 -21 -50 -5 -71 0 -148 30 -389 150 -647 390 -565 525 26 42 76 72 121 72
19 0 44 6 54 14 17 12 18 26 10 257 -12 331 -11 350 18 396 63 98 144 114 220
44 47 -43 65 -81 103 -217 37 -133 57 -170 87 -158 21 8 21 26 2 64 -9 16 -18
49 -21 72 -5 38 -1 50 33 103 119 183 305 269 474 219z m-918 -1258 c153 -103
401 -216 472 -216 13 0 26 -4 30 -10 15 -24 -149 -386 -260 -570 -61 -102
-135 -211 -193 -285 -13 -16 -26 -24 -30 -19 -5 5 -34 42 -66 82 -32 39 -124
134 -205 209 -158 149 -254 246 -277 279 -12 18 -12 30 1 93 19 92 19 191 0
264 -8 32 -15 59 -15 61 0 2 26 23 58 47 31 24 71 55 87 70 17 15 68 59 115
98 l84 71 58 -59 c33 -33 96 -84 141 -115z m-3003 -1 c17 -9 30 -19 30 -24 0
-5 -12 -34 -26 -66 -33 -71 -54 -148 -54 -200 0 -63 -13 -73 -43 -33 -70 91
-87 200 -43 272 38 63 82 79 136 51z m132 -78 c29 -19 112 -64 183 -102 72
-37 131 -69 132 -69 1 -1 -5 -30 -14 -66 -17 -73 -13 -275 7 -343 6 -21 10
-42 8 -47 -7 -21 -246 116 -359 206 -109 87 -102 74 -96 189 4 67 13 118 27
154 24 62 48 111 55 111 3 0 28 -15 57 -33z m2229 -10 c49 -33 68 -91 67 -207
0 -52 -3 -108 -7 -125 l-6 -29 -31 49 c-17 28 -53 88 -79 135 -26 47 -63 104
-81 126 l-34 42 38 15 c53 22 94 21 133 -6z m-229 -42 c41 -28 122 -145 109
-158 -25 -25 -298 -122 -408 -145 l-122 -25 -39 35 c-21 19 -64 47 -95 62 -55
25 -56 27 -46 54 27 71 86 101 217 109 78 5 97 10 120 30 78 67 196 84 264 38z
m-1442 -199 c52 -13 116 -27 141 -31 l46 -7 6 -141 c5 -133 29 -269 57 -336 6
-13 9 -25 7 -28 -10 -9 -204 41 -313 81 -138 51 -138 51 -160 184 -16 101 -18
208 -3 272 16 74 13 72 71 50 29 -10 96 -30 148 -44z m1613 -50 c32 -62 133
-200 171 -235 46 -43 44 -44 -154 -126 -165 -67 -411 -140 -423 -124 -2 2 -25
58 -52 124 -27 66 -61 146 -77 177 -15 32 -28 59 -28 62 0 3 26 10 58 16 129
26 363 105 438 148 31 18 38 14 67 -42z m-2354 -72 c181 -181 546 -377 841
-450 220 -54 528 -90 695 -79 106 6 287 27 351 40 29 6 32 4 70 -61 21 -37 57
-88 79 -113 241 -276 330 -534 280 -814 -9 -53 -15 -104 -11 -112 7 -18 80
-14 226 12 175 30 335 89 490 177 l95 55 7 -27 c20 -70 30 -295 19 -420 -48
-575 -352 -1076 -847 -1395 -90 -59 -288 -157 -384 -192 -76 -27 -290 -85
-315 -85 -7 0 -28 25 -45 55 -46 80 -177 214 -273 278 -194 131 -423 196 -641
184 -174 -10 -341 -60 -480 -145 -37 -23 -72 -42 -76 -42 -11 0 -139 102 -214
171 -79 71 -195 212 -269 324 -125 190 -213 405 -263 643 -24 113 -27 150 -28
327 0 175 10 289 30 354 3 9 26 -9 67 -51 147 -151 338 -249 567 -294 41 -7
89 -14 106 -14 24 0 36 -8 55 -37 13 -21 44 -51 67 -68 39 -27 52 -30 115 -30
44 0 77 -5 85 -13 54 -50 282 -193 368 -229 132 -57 212 -74 334 -75 208 0
375 104 471 294 55 109 70 190 58 307 -14 140 -81 242 -221 339 -26 18 -59 37
-75 43 -27 10 -27 12 -8 23 73 42 104 113 78 177 -21 53 -124 146 -177 160
-25 7 -91 9 -166 7 -114 -5 -136 -9 -247 -47 -67 -22 -127 -41 -133 -41 -6 0
-25 16 -42 36 -59 67 -124 81 -218 45 l-51 -19 -14 21 c-28 44 -46 99 -43 138
2 44 -10 63 -35 53 -13 -5 -17 -20 -17 -69 0 -64 10 -98 44 -148 l19 -28 -37
-35 c-123 -116 -201 -354 -201 -615 0 -115 -2 -135 -15 -133 -8 1 -44 8 -80
14 -339 59 -602 258 -726 550 -104 248 -79 516 71 746 56 86 198 222 287 276
70 43 245 117 277 118 8 0 52 -39 100 -86z m1221 60 l176 -7 12 -77 c19 -122
95 -325 155 -413 17 -25 17 -28 2 -34 -36 -13 -375 9 -483 33 -53 11 -111 230
-112 423 l0 93 38 -6 c20 -3 116 -9 212 -12z m377 -20 c32 -14 69 -35 82 -47
41 -37 88 -120 135 -233 24 -60 51 -126 60 -146 10 -23 12 -39 6 -43 -6 -3
-62 -14 -126 -23 l-117 -16 -19 25 c-77 94 -201 453 -173 499 12 19 93 10 152
-16z m1109 -385 c66 -61 120 -114 122 -118 3 -9 -127 -86 -253 -149 -126 -62
-327 -132 -383 -132 -12 0 -35 21 -60 53 -22 28 -52 65 -67 82 -27 30 -95 137
-95 149 0 3 8 6 18 6 63 0 435 131 537 189 28 16 53 29 56 30 4 1 60 -49 125
-110z m313 -334 c26 -38 60 -91 75 -116 l27 -47 -51 -36 c-119 -85 -331 -187
-525 -251 -182 -60 -164 -63 -189 25 -26 88 -68 184 -113 260 l-33 55 62 18
c140 40 199 62 323 124 72 35 162 84 200 108 l70 44 54 -57 c29 -31 75 -88
100 -127z m-2482 -145 c15 -6 49 -33 74 -61 l46 -51 150 50 c171 58 278 73
376 52 46 -9 67 -21 111 -61 62 -56 74 -87 50 -127 -16 -27 -65 -62 -87 -62
-7 0 -29 -5 -49 -11 -30 -8 -38 -15 -38 -33 0 -19 9 -25 63 -40 131 -36 258
-138 313 -251 26 -54 29 -70 29 -155 -1 -115 -26 -200 -87 -287 -80 -114 -183
-182 -312 -204 -169 -28 -384 40 -611 194 -49 34 -105 75 -124 93 l-34 32 1
103 c1 120 27 250 73 371 32 81 30 104 -6 96 -20 -4 -57 -89 -91 -213 -18 -66
-27 -126 -31 -227 l-6 -138 -39 0 c-143 0 -200 168 -152 451 43 254 133 404
280 464 69 29 65 28 101 15z m2644 -199 c10 -41 19 -98 19 -127 0 -51 -2 -55
-45 -91 -108 -91 -321 -199 -490 -248 -84 -24 -282 -57 -296 -49 -4 2 -3 21 2
41 6 21 11 92 13 157 l3 119 94 27 c52 15 128 40 169 55 102 36 359 165 428
215 l57 40 14 -32 c7 -18 22 -66 32 -107z m364 -1041 c250 -29 440 -132 516
-282 30 -59 37 -161 15 -230 -73 -224 -397 -515 -791 -708 -166 -82 -275 -113
-395 -114 -69 -1 -110 4 -149 18 -90 31 -169 127 -201 245 l-11 43 111 111
c160 159 271 309 362 491 56 111 112 251 132 329 13 52 13 52 72 70 33 10 97
21 144 26 47 5 90 9 95 10 6 0 51 -4 100 -9z m-2681 -955 c357 -74 639 -312
711 -600 51 -206 -42 -345 -285 -424 -283 -93 -892 -83 -1155 18 -104 40 -156
73 -203 127 -58 65 -76 127 -69 233 13 194 107 358 284 501 59 47 233 119 353
144 88 19 274 20 364 1z"/>
<path d="M4399 6145 c-29 -25 -57 -53 -62 -61 -10 -17 -14 -13 147 -181 96
-99 126 -120 126 -88 0 17 -137 355 -150 368 -4 4 -31 -13 -61 -38z"/>
<path d="M3530 5847 c-55 -43 -67 -121 -25 -162 13 -14 36 -25 50 -25 93 0
147 120 82 180 -24 23 -83 26 -107 7z"/>
<path d="M4207 5730 c-55 -43 -42 -142 23 -175 57 -29 115 3 121 66 4 49 -2
68 -32 98 -36 37 -75 40 -112 11z"/>
<path d="M3713 5569 c-130 -22 -233 -114 -233 -207 0 -125 132 -244 318 -288
167 -40 363 21 419 129 19 38 19 111 0 157 -32 75 -137 157 -242 189 -75 23
-193 33 -262 20z m207 -65 c121 -27 228 -107 250 -187 20 -70 -10 -121 -100
-168 -39 -21 -59 -24 -155 -23 -96 0 -119 3 -179 27 -82 32 -127 64 -167 120
-45 61 -39 134 15 179 77 64 200 83 336 52z"/>
<path d="M3100 5495 c-23 -28 -4 -44 57 -47 l58 -3 7 -60 c20 -156 86 -284
201 -383 37 -31 38 -34 41 -111 5 -99 39 -170 104 -216 39 -26 52 -30 112 -29
59 0 74 5 119 33 52 33 96 82 123 135 13 25 25 32 76 42 33 7 81 22 106 33 37
16 46 25 46 45 0 33 -16 33 -99 -1 -58 -23 -80 -27 -176 -27 -187 0 -327 55
-445 174 -95 97 -150 225 -150 354 0 68 -11 76 -103 76 -45 0 -68 -5 -77 -15z"/>
<path d="M5055 2556 c-77 -36 -126 -116 -133 -221 -7 -118 30 -200 105 -231
42 -18 67 -18 109 2 84 40 137 136 137 250 0 61 -4 79 -30 125 -45 81 -114
108 -188 75z"/>
<path d="M4825 7740 c-3 -10 -1 -28 5 -40 9 -16 7 -24 -10 -42 -11 -12 -20
-31 -20 -43 0 -23 28 -55 48 -55 6 0 23 -5 38 -10 l27 -11 -23 -24 c-16 -17
-23 -36 -23 -65 0 -22 -4 -40 -8 -40 -5 0 -18 -9 -29 -20 -21 -21 -28 -84 -10
-95 6 -3 10 -11 10 -17 0 -7 -17 -8 -51 -4 -41 6 -55 4 -70 -10 -23 -21 -25
-57 -4 -74 13 -11 12 -16 -10 -38 -14 -13 -25 -32 -25 -42 0 -24 32 -50 63
-50 20 0 27 -5 27 -18 0 -24 31 -52 58 -52 11 0 36 16 55 36 l34 37 19 -39
c14 -29 26 -40 47 -42 19 -2 27 -9 27 -24 0 -37 32 -77 67 -84 l33 -6 -35 -39
c-47 -52 -46 -82 2 -107 12 -7 29 -9 38 -6 13 5 15 2 10 -19 -5 -18 -1 -31 14
-46 28 -28 46 -26 77 4 20 20 29 23 39 15 17 -15 63 -2 75 20 5 10 7 39 4 65
l-7 46 41 -7 c34 -5 44 -3 65 18 19 19 31 23 66 20 34 -3 47 0 66 18 l24 23
11 -27 c5 -15 10 -33 10 -40 0 -19 34 -46 58 -46 12 0 30 9 41 21 16 18 22 19
39 8 15 -10 29 -10 49 -3 24 8 28 15 28 50 0 26 7 47 18 58 12 12 17 30 15 50
-3 26 -11 35 -51 54 l-48 23 24 19 c33 27 42 66 22 97 -16 24 -16 26 6 49 17
19 21 31 16 63 l-5 40 57 -5 c69 -8 87 7 78 62 -5 31 -2 40 18 56 42 33 23 88
-31 88 -18 0 -24 5 -24 21 0 61 -50 77 -106 34 -40 -31 -49 -31 -51 -2 -2 26
-46 67 -73 67 -12 0 -21 10 -25 30 -7 33 -48 70 -77 70 -17 0 -18 1 -2 25 16
24 16 25 -9 25 -18 0 -36 -14 -66 -51 -41 -51 -51 -79 -30 -79 6 0 33 8 58 17
54 19 81 13 81 -17 0 -14 -16 -28 -59 -50 -33 -16 -63 -34 -66 -40 -9 -14 65
-98 87 -99 12 -1 28 19 47 58 31 61 54 79 77 60 19 -16 18 -33 -6 -80 -21 -40
-20 -59 3 -59 7 0 45 25 85 55 40 30 77 55 82 55 13 0 13 -27 0 -35 -5 -3 -10
-18 -10 -32 0 -24 2 -25 45 -19 57 9 61 -9 5 -24 -47 -13 -54 -39 -15 -60 23
-12 35 -40 18 -40 -5 0 -43 7 -86 15 -140 27 -164 13 -82 -46 47 -34 60 -71
29 -83 -25 -9 -27 -8 -84 34 -30 22 -58 39 -64 37 -9 -3 -45 -100 -46 -124 0
-10 23 -13 83 -13 93 0 110 -7 105 -41 -3 -21 -9 -25 -58 -29 -41 -4 -56 -9
-58 -22 -3 -13 18 -28 82 -60 48 -23 85 -47 83 -53 -2 -5 -19 -12 -37 -15 -43
-6 -47 -20 -15 -50 25 -23 33 -50 16 -50 -5 0 -21 14 -34 30 -35 42 -54 39
-62 -10 -4 -25 -12 -40 -21 -40 -8 0 -14 6 -14 13 0 26 -51 177 -62 183 -16
10 -38 -25 -38 -61 0 -40 -21 -68 -46 -63 -17 3 -19 11 -16 91 3 67 0 87 -10
87 -18 0 -126 -34 -134 -43 -4 -3 12 -36 34 -72 41 -64 44 -88 16 -99 -22 -8
-37 1 -67 44 -50 70 -60 54 -45 -69 6 -50 8 -94 4 -99 -4 -4 -18 5 -30 21 -30
37 -43 34 -56 -13 -16 -58 -32 -51 -24 11 8 57 9 56 -63 34 -37 -12 -28 11 37
87 33 40 60 78 60 85 0 17 -38 16 -70 -2 -50 -29 -100 -12 -84 28 3 8 32 27
65 43 33 15 63 32 66 37 2 4 -18 31 -46 59 -58 58 -62 57 -90 -18 -21 -54 -39
-71 -66 -60 -13 4 -16 14 -12 34 3 15 8 44 12 65 11 54 -8 48 -93 -29 -40 -37
-75 -64 -79 -61 -3 3 -1 19 5 35 15 43 2 57 -38 43 -40 -14 -50 -14 -50 -1 0
6 18 17 40 26 47 19 51 38 11 59 -58 29 -47 36 56 35 54 -1 104 -1 111 -1 27
2 6 35 -38 61 -34 20 -45 32 -45 51 0 37 35 35 109 -6 36 -20 69 -34 74 -31
13 7 37 115 28 124 -4 4 -40 7 -79 7 -62 0 -72 3 -75 19 -6 27 12 39 66 46 38
4 47 9 47 24 0 15 -19 26 -86 50 -48 17 -87 35 -88 41 -1 5 11 13 28 18 43 11
47 25 16 57 -41 43 -26 59 18 21 42 -38 57 -34 57 15 l0 34 -69 0 c-60 0 -70
-3 -76 -20z m769 -202 c-19 -34 -26 -38 -41 -26 -12 10 -11 14 9 24 30 17 41
17 32 2z m-574 -163 c0 -19 -11 -19 -36 0 -18 14 -18 14 9 15 17 0 27 -5 27
-15z m655 -185 c4 -6 -7 -10 -24 -10 -33 0 -34 1 -25 24 5 12 11 13 24 6 11
-6 22 -15 25 -20z m-568 -134 c-2 -6 -11 -12 -20 -14 -11 -2 -14 2 -10 17 3
12 11 17 19 14 8 -3 13 -11 11 -17z m323 -98 l0 -33 -19 25 c-21 26 -19 40 5
40 9 0 14 -11 14 -32z"/>
<path d="M5000 7755 c0 -9 63 -150 73 -162 20 -27 37 -14 37 30 0 76 18 105
55 91 12 -5 15 -24 15 -85 0 -73 2 -79 21 -79 30 0 109 21 115 31 3 5 -11 35
-30 67 -41 66 -41 65 -20 86 20 21 45 8 74 -39 32 -51 50 -46 50 15 l0 50 -84
0 c-48 0 -86 -4 -88 -10 -2 -7 -14 -6 -34 1 -41 16 -80 5 -98 -29 l-15 -27
-13 33 c-9 23 -19 32 -35 32 -13 0 -23 -2 -23 -5z m260 -147 c0 -5 -8 -8 -19
-8 -14 0 -17 6 -13 25 4 24 5 24 18 8 7 -10 14 -21 14 -25z"/>
<path d="M6695 7413 c-23 -24 -26 -34 -22 -71 l5 -42 -67 36 c-36 21 -78 45
-93 56 -31 22 -58 23 -58 4 0 -8 7 -45 15 -83 9 -37 17 -78 20 -89 l5 -21 -39
19 c-47 23 -83 17 -111 -19 -40 -51 -12 -124 53 -141 30 -8 27 -10 -71 -52
-56 -24 -102 -48 -102 -55 0 -6 48 -33 106 -60 104 -48 106 -50 73 -57 -42 -8
-79 -50 -79 -89 0 -38 48 -89 83 -89 30 0 87 45 87 68 0 8 3 13 6 9 4 -3 6
-56 5 -117 -2 -92 0 -110 13 -110 8 0 48 29 89 65 41 36 77 65 81 65 4 0 -1
-14 -9 -31 -30 -58 17 -129 85 -129 12 0 35 13 51 29 33 33 38 74 13 109 -29
41 -9 33 77 -33 46 -35 90 -65 98 -65 11 0 12 20 7 113 -6 103 -5 110 9 85 21
-37 75 -54 112 -34 30 15 53 53 53 87 0 30 -53 79 -87 80 l-28 0 30 14 c17 8
65 30 109 50 62 27 76 38 68 48 -6 7 -60 33 -119 57 l-108 44 44 8 c51 9 65
19 81 58 14 35 -1 73 -42 103 -23 17 -31 18 -60 8 -18 -6 -41 -22 -51 -34 -18
-22 -18 -21 -13 33 3 30 8 85 12 123 5 52 3 67 -7 67 -7 0 -48 -27 -91 -60
-42 -33 -81 -60 -85 -60 -5 0 -7 18 -5 41 8 82 -82 122 -143 62z m103 -15 c16
-16 15 -60 -2 -92 -14 -28 -11 -66 5 -66 5 0 46 29 92 65 45 36 86 65 90 65 5
0 5 -46 1 -102 -8 -111 -8 -137 0 -145 9 -9 56 26 56 42 0 37 70 61 98 33 17
-17 15 -64 -4 -82 -8 -9 -31 -16 -49 -16 -37 0 -85 -18 -85 -32 0 -5 35 -25
78 -44 42 -19 94 -42 115 -52 l38 -17 -101 -45 c-56 -24 -104 -48 -107 -54
-10 -16 37 -46 62 -40 48 12 87 -34 65 -76 -25 -47 -94 -41 -105 9 -6 29 -59
68 -70 51 -3 -5 -1 -57 6 -115 6 -59 9 -108 7 -111 -3 -2 -44 25 -91 61 -47
36 -91 65 -97 65 -16 0 -12 -68 6 -95 31 -47 -8 -104 -60 -91 -13 3 -28 17
-34 32 -11 22 -9 31 9 63 22 39 23 82 2 88 -6 2 -48 -28 -92 -66 -44 -39 -83
-71 -87 -71 -4 0 -4 49 -1 108 3 60 2 114 -3 122 -11 18 -68 -23 -72 -52 -2
-12 -15 -29 -29 -37 -24 -13 -29 -13 -53 2 -51 34 -22 107 42 107 51 0 85 43
45 57 -42 14 -183 82 -183 88 0 3 15 12 33 19 157 65 187 79 187 87 0 15 -56
38 -77 33 -27 -7 -60 11 -68 37 -21 64 69 98 103 39 18 -31 57 -58 69 -46 4 4
-3 57 -15 118 -12 62 -20 114 -18 116 3 2 47 -21 99 -52 129 -76 127 -75 127
-33 0 19 -7 40 -15 47 -34 29 -4 90 45 90 14 0 31 -5 38 -12z"/>
<path d="M6877 7263 c-42 -32 -77 -63 -77 -70 0 -7 21 -21 46 -33 26 -11 52
-28 59 -37 25 -34 41 -8 53 88 6 52 8 97 3 102 -4 4 -42 -18 -84 -50z m49 -57
l-7 -45 -34 17 c-19 9 -35 20 -35 23 0 8 73 59 78 54 3 -2 1 -24 -2 -49z"/>
<path d="M6547 7293 c-6 -10 28 -191 37 -200 3 -4 21 8 39 25 18 17 47 36 65
43 17 6 32 16 32 22 -1 11 -149 117 -163 117 -3 0 -8 -3 -10 -7z m87 -78 l29
-25 -24 -19 c-32 -27 -38 -26 -45 7 -3 15 -8 35 -11 45 -6 25 17 21 51 -8z"/>
<path d="M6530 7033 c-8 -4 -48 -21 -89 -40 -63 -28 -72 -36 -60 -47 14 -13
161 -76 177 -76 11 0 7 164 -5 166 -4 1 -15 0 -23 -3z m0 -78 c0 -19 -5 -35
-10 -35 -15 0 -80 28 -80 34 0 7 60 34 78 35 7 1 12 -12 12 -34z"/>
<path d="M6965 6960 c0 -48 4 -80 10 -80 6 0 35 9 65 21 30 11 67 25 83 31 33
12 35 31 5 46 -48 24 -141 62 -152 62 -7 0 -11 -27 -11 -80z m86 18 l44 -21
-40 -18 c-55 -24 -55 -24 -55 21 0 22 1 40 3 40 2 0 23 -10 48 -22z"/>
<path d="M6577 6793 c-19 -121 -20 -163 -4 -163 18 0 157 107 157 121 0 5 -24
20 -54 33 -29 13 -57 29 -60 35 -15 23 -34 10 -39 -26z m68 -76 c-19 -16 -37
-27 -42 -25 -7 3 -5 67 3 80 3 4 20 0 39 -10 l35 -17 -35 -28z"/>
<path d="M6886 6800 c-22 -17 -50 -30 -63 -30 -44 0 -24 -34 54 -93 55 -41 79
-54 84 -45 9 18 -14 191 -26 194 -5 2 -28 -10 -49 -26z m41 -117 c-8 -7 -66
39 -66 52 -1 6 11 18 27 27 l27 17 9 -45 c4 -25 6 -48 3 -51z"/>
<path d="M1651 6418 c-6 -7 -24 -13 -39 -13 -24 0 -27 -4 -30 -41 -3 -37 -5
-41 -26 -37 -13 3 -30 -2 -37 -10 -10 -10 -21 -12 -37 -6 -17 6 -27 4 -41 -10
-19 -19 -19 -19 -31 9 -15 36 -38 45 -61 24 -10 -9 -22 -13 -27 -10 -21 13
-44 -6 -40 -34 2 -14 -2 -32 -9 -39 -20 -18 -16 -30 17 -49 32 -18 36 -27 20
-37 -5 -3 -10 -17 -10 -29 0 -13 -7 -29 -16 -36 -9 -8 -14 -26 -12 -44 2 -22
-2 -30 -12 -28 -7 2 -25 1 -38 -3 -20 -5 -23 -11 -20 -36 3 -16 1 -32 -4 -35
-17 -11 -7 -45 16 -53 13 -5 26 -17 29 -25 9 -22 40 -20 62 4 l19 21 13 -26
c8 -14 19 -25 26 -25 7 0 18 -13 24 -30 8 -20 18 -30 32 -30 27 0 26 -8 -1
-37 -18 -19 -20 -27 -11 -41 6 -9 18 -16 27 -16 10 1 16 -6 16 -17 0 -26 26
-35 55 -19 13 7 28 9 34 5 21 -13 40 14 34 49 -5 32 -4 33 26 28 22 -3 33 0
37 12 4 11 13 14 30 10 17 -4 31 0 44 11 19 17 20 17 26 -14 8 -37 28 -49 55
-33 10 7 25 9 34 6 21 -8 45 14 45 42 0 12 5 26 10 29 19 12 10 35 -20 54 -28
16 -29 19 -14 32 11 9 14 23 11 46 -3 18 -1 35 4 38 5 4 9 19 9 34 0 26 3 28
38 27 34 -1 37 1 37 26 1 14 7 33 14 42 17 20 7 46 -19 53 -11 3 -20 14 -20
24 0 23 -31 25 -64 4 -22 -15 -24 -14 -29 5 -3 12 -15 24 -27 27 -12 3 -26 17
-31 30 -5 14 -18 27 -29 30 -24 6 -25 16 -5 37 24 23 19 55 -10 62 -15 4 -25
13 -25 24 0 10 -7 21 -16 24 -20 8 -18 8 -33 -6z m22 -49 c-6 -31 -6 -31 28
-24 l34 8 -38 -46 c-43 -53 -48 -73 -14 -62 65 20 88 -2 35 -35 -18 -11 -37
-22 -43 -24 -5 -2 4 -18 22 -36 l31 -33 21 42 c20 39 43 52 56 31 3 -5 -1 -23
-10 -39 -22 -44 -4 -46 49 -5 46 35 50 35 47 2 -1 -11 7 -18 26 -20 l28 -4
-29 -12 c-28 -12 -28 -13 -11 -32 24 -27 17 -31 -30 -20 -22 5 -51 10 -64 10
l-25 0 32 -33 c22 -23 29 -36 22 -46 -7 -12 -16 -10 -50 13 -23 15 -43 26 -44
24 -6 -7 -26 -71 -23 -74 2 -2 25 -5 51 -8 55 -5 80 -21 56 -36 -8 -5 -27 -10
-42 -10 -43 0 -33 -19 22 -43 49 -22 64 -37 36 -37 -21 0 -30 -20 -17 -33 19
-19 12 -31 -8 -13 -21 19 -41 14 -41 -10 0 -31 -18 -11 -30 34 -7 26 -17 51
-22 57 -11 12 -28 -12 -28 -41 0 -24 -25 -40 -36 -23 -3 6 -3 30 1 55 5 34 3
44 -8 44 -22 0 -78 -22 -75 -29 2 -3 12 -23 23 -44 15 -30 16 -40 6 -50 -10
-9 -16 -6 -33 16 -32 43 -41 34 -34 -33 4 -36 3 -60 -2 -60 -6 0 -12 7 -16 15
-8 23 -25 18 -32 -10 -9 -36 -25 -31 -17 6 6 31 5 32 -20 25 -35 -8 -34 -2 9
51 41 49 38 63 -8 45 -57 -21 -70 20 -13 44 19 8 35 20 35 27 0 12 -42 57 -54
57 -3 0 -12 -16 -20 -35 -9 -20 -22 -35 -31 -35 -14 0 -16 7 -10 40 4 22 3 40
-2 40 -5 0 -26 -18 -48 -40 -40 -41 -57 -44 -48 -9 5 19 3 21 -20 17 -15 -3
-27 -1 -27 3 0 5 3 9 8 9 4 0 14 5 22 10 13 9 11 13 -10 30 l-25 20 68 0 c73
0 84 11 37 35 -16 9 -30 22 -30 30 0 19 40 19 66 0 28 -21 51 -18 58 8 11 43
8 47 -40 47 -38 0 -45 3 -42 18 2 9 14 18 28 20 48 7 43 21 -16 48 -47 22 -55
28 -36 31 26 5 28 20 5 45 -9 10 -11 18 -6 18 6 0 16 -7 23 -15 17 -21 30 -19
30 4 0 40 18 29 41 -24 27 -62 43 -66 47 -12 3 29 7 37 23 37 16 0 19 -7 19
-50 l0 -51 38 7 c47 9 49 10 33 37 -8 12 -19 30 -25 39 -8 13 -7 21 2 30 11
11 18 8 37 -14 44 -51 51 -35 29 70 -4 22 10 31 21 12 11 -18 35 -11 35 10 0
11 4 20 10 20 5 0 7 -13 3 -31z m53 -206 c-10 -10 -19 5 -10 18 6 11 8 11 12
0 2 -7 1 -15 -2 -18z m54 -183 c0 -5 -4 -10 -10 -10 -5 0 -10 5 -10 10 0 6 5
10 10 10 6 0 10 -4 10 -10z m-335 -80 c3 -5 1 -10 -4 -10 -6 0 -11 5 -11 10 0
6 2 10 4 10 3 0 8 -4 11 -10z m195 -55 c0 -8 -4 -15 -10 -15 -5 0 -10 7 -10
15 0 8 5 15 10 15 6 0 10 -7 10 -15z"/>
<path d="M7132 5008 c-7 -7 -24 -12 -40 -13 -25 0 -27 -3 -26 -37 1 -35 -1
-38 -27 -38 -15 0 -31 -5 -35 -11 -3 -6 -19 -9 -35 -5 -18 3 -34 0 -44 -10
-16 -16 -35 -11 -35 10 0 8 -7 19 -15 26 -12 10 -20 9 -40 -4 -14 -9 -30 -14
-34 -11 -5 3 -17 2 -26 -1 -13 -5 -15 -14 -11 -35 3 -16 1 -29 -4 -29 -6 0
-10 -11 -10 -26 0 -19 7 -28 29 -35 28 -10 28 -12 16 -36 -8 -15 -11 -31 -8
-36 3 -5 -5 -16 -17 -24 -16 -11 -21 -23 -18 -44 4 -26 1 -29 -21 -29 -38 0
-55 -14 -48 -40 3 -12 1 -30 -5 -40 -15 -23 -3 -50 21 -50 10 0 21 -9 24 -20
6 -25 38 -26 61 -2 16 18 18 18 49 -12 18 -17 36 -39 40 -49 4 -11 16 -21 27
-24 25 -7 25 -11 0 -38 -22 -23 -18 -55 6 -55 8 0 19 -11 24 -25 7 -18 17 -25
35 -25 14 0 25 5 25 11 0 7 9 9 24 5 32 -8 50 15 41 52 -6 27 -4 28 24 24 22
-3 33 0 37 12 4 11 13 14 30 10 17 -4 31 0 44 11 21 19 19 21 35 -30 7 -24 34
-29 54 -11 12 11 21 12 27 6 18 -18 44 0 44 30 0 16 5 32 10 35 19 12 10 45
-15 57 -27 12 -31 23 -14 34 7 4 9 21 6 40 -3 19 -1 36 4 39 5 4 9 19 9 34 0
26 3 28 38 27 34 -1 37 1 37 26 1 16 6 33 13 40 19 19 14 44 -13 56 -14 6 -25
18 -25 26 0 26 -19 28 -55 6 l-35 -22 0 22 c0 15 -9 25 -30 33 -18 7 -30 19
-30 29 0 10 -11 23 -25 30 -24 11 -24 11 -6 37 20 28 13 61 -12 61 -7 0 -17
10 -22 22 -12 27 -35 34 -53 16z m26 -45 c-3 -25 0 -28 26 -25 l28 3 -20 -29
c-12 -16 -28 -35 -37 -42 -24 -20 -19 -44 8 -35 68 21 89 -4 28 -35 -23 -11
-41 -24 -41 -28 0 -5 13 -21 29 -36 l29 -28 22 42 c14 28 26 40 38 38 17 -4
19 -15 6 -55 -9 -32 10 -29 56 7 46 36 52 37 44 5 -6 -23 -3 -25 27 -26 l34
-1 -27 -11 c-32 -13 -35 -24 -10 -44 15 -12 8 -13 -50 -7 -75 7 -85 -2 -41
-34 17 -13 24 -25 20 -36 -9 -22 -20 -20 -55 9 -37 31 -48 31 -56 1 -3 -13 -9
-31 -12 -40 -5 -13 2 -16 39 -16 54 0 77 -7 77 -25 0 -15 -22 -25 -56 -25 -35
0 -22 -15 39 -47 49 -26 50 -28 25 -31 -33 -4 -33 -5 -12 -37 18 -27 5 -35
-16 -10 -17 21 -27 19 -33 -7 -8 -29 -18 -18 -38 40 -19 57 -35 63 -43 17 -5
-26 -12 -35 -27 -35 -19 0 -20 4 -14 51 l7 52 -38 -8 c-55 -10 -57 -13 -34
-51 11 -20 20 -42 20 -50 0 -21 -28 -17 -42 6 -7 11 -19 20 -26 20 -10 0 -11
-14 -6 -62 l7 -63 -22 19 c-11 11 -22 17 -24 15 -2 -2 -9 -15 -15 -29 -12 -24
-12 -24 -9 8 4 32 3 34 -25 28 -15 -3 -28 -3 -28 0 0 3 16 25 35 48 38 47 46
73 18 61 -10 -4 -30 -10 -45 -13 -41 -6 -37 25 5 43 17 7 35 17 40 21 7 8 -40
64 -54 64 -4 0 -13 -16 -20 -35 -9 -24 -19 -35 -32 -35 -17 0 -19 5 -13 40 3
22 3 40 -2 40 -4 0 -23 -16 -42 -35 -39 -40 -50 -43 -50 -14 0 17 -5 20 -25
17 -30 -6 -34 8 -5 17 24 7 26 30 5 39 -33 12 -12 21 45 18 69 -4 80 11 29 41
-25 14 -29 20 -19 32 10 12 18 11 56 -8 50 -24 64 -17 64 33 0 24 -3 25 -45
22 -40 -4 -45 -2 -45 16 0 16 7 21 32 24 51 5 44 25 -16 44 -53 17 -74 34 -42
34 24 0 29 20 10 41 -20 23 -7 25 23 4 20 -14 22 -13 31 13 9 27 10 26 35 -30
14 -32 31 -58 36 -58 6 0 11 18 11 40 0 33 3 40 20 40 17 0 20 -7 20 -51 l0
-51 32 6 c48 10 53 20 28 61 -17 27 -20 39 -11 48 8 8 19 3 41 -18 16 -16 32
-26 35 -23 3 3 2 31 -3 62 -8 51 -3 71 13 46 11 -18 35 -11 35 10 0 11 5 20
10 20 6 0 9 -12 8 -27z m-143 -132 c3 -5 1 -12 -5 -16 -5 -3 -10 1 -10 9 0 18
6 21 15 7z m195 -67 c0 -8 -5 -12 -10 -9 -6 4 -8 11 -5 16 9 14 15 11 15 -7z
m-340 -84 c0 -5 -4 -10 -10 -10 -5 0 -10 5 -10 10 0 6 5 10 10 10 6 0 10 -4
10 -10z m395 -110 c3 -5 -1 -10 -9 -10 -9 0 -16 5 -16 10 0 6 4 10 9 10 6 0
13 -4 16 -10z m-340 -80 c3 -5 1 -10 -4 -10 -6 0 -11 5 -11 10 0 6 2 10 4 10
3 0 8 -4 11 -10z m195 -56 c0 -8 -4 -12 -10 -9 -5 3 -10 10 -10 16 0 5 5 9 10
9 6 0 10 -7 10 -16z"/>
<path d="M1162 4938 c-27 -30 -37 -71 -22 -99 11 -20 10 -21 -6 -15 -11 4 -56
30 -102 57 -46 28 -89 48 -97 46 -10 -5 -9 -23 6 -94 24 -117 25 -114 -20 -91
-43 21 -73 15 -105 -21 -24 -27 -25 -85 -1 -111 9 -10 32 -22 51 -27 34 -8 33
-8 -69 -53 -56 -25 -101 -49 -101 -55 1 -5 48 -33 105 -61 l104 -51 -36 -7
c-45 -8 -68 -33 -76 -79 -4 -29 -1 -40 20 -61 51 -51 117 -41 150 24 l18 35
-2 -110 c-2 -134 -1 -135 11 -135 13 0 150 112 150 122 0 4 7 8 16 8 14 0 14
-2 0 -22 -25 -36 -20 -76 14 -110 26 -26 36 -30 66 -25 68 11 96 84 57 145
l-18 27 30 -19 c17 -10 58 -41 92 -67 89 -69 95 -67 88 29 -3 42 -8 93 -11
112 l-5 35 29 -34 c23 -28 36 -35 65 -35 105 0 120 151 17 173 -28 6 -24 9 70
51 55 25 100 50 100 56 0 6 -44 30 -97 53 -54 23 -107 46 -118 51 -16 7 -11 9
22 9 95 2 126 123 43 166 -35 18 -64 13 -99 -19 l-23 -21 7 118 c6 91 5 117
-5 117 -7 0 -45 -25 -84 -57 -39 -31 -77 -61 -84 -67 -11 -8 -12 -3 -7 26 11
60 -26 108 -84 108 -26 0 -44 -7 -59 -22z m103 -32 c16 -24 12 -76 -6 -76 -5
0 -9 -16 -9 -35 0 -21 5 -35 13 -35 6 0 50 29 97 65 46 36 88 65 93 65 5 0 6
-17 3 -37 -3 -21 -8 -77 -12 -125 -5 -71 -4 -88 7 -88 21 1 44 22 60 55 26 55
109 42 109 -17 0 -29 -38 -60 -70 -56 -31 3 -80 -19 -80 -37 0 -7 46 -31 103
-55 116 -49 128 -57 101 -66 -47 -17 -184 -83 -184 -90 0 -22 34 -43 61 -37
52 10 85 -39 59 -88 -8 -13 -21 -19 -46 -19 -30 0 -37 5 -49 34 -12 29 -52 66
-71 66 -4 0 -3 -55 1 -121 l7 -122 -29 21 c-15 11 -55 41 -87 66 -33 25 -65
46 -73 46 -19 0 -17 -74 2 -90 32 -26 6 -100 -34 -100 -9 0 -27 7 -39 16 -26
18 -30 65 -7 84 19 15 21 90 3 90 -7 0 -49 -32 -93 -70 l-80 -70 -3 120 c-2
86 -6 120 -15 120 -18 -1 -57 -36 -57 -52 0 -20 -38 -58 -58 -58 -23 0 -37 11
-52 39 -18 35 3 69 49 77 46 7 81 24 81 39 0 7 -45 31 -101 55 -55 24 -102 47
-104 50 -3 4 42 26 98 50 56 24 107 47 112 52 19 17 -32 47 -69 41 -42 -7 -68
17 -64 61 2 20 11 34 27 42 32 16 55 6 83 -36 24 -35 68 -54 68 -28 -1 7 -12
60 -25 118 -13 58 -21 107 -19 109 2 2 51 -24 109 -58 58 -34 110 -59 115 -56
16 10 11 45 -10 72 -24 31 -25 42 -4 71 21 31 69 30 89 -2z"/>
<path d="M1337 4779 c-42 -33 -77 -64 -77 -68 0 -5 20 -16 44 -25 24 -9 52
-26 61 -36 32 -35 42 -24 54 55 13 89 14 122 3 129 -4 2 -42 -22 -85 -55z m54
-47 c-2 -20 -5 -40 -7 -44 -4 -6 -38 10 -64 30 -3 2 11 16 30 32 19 16 37 26
40 24 2 -3 3 -22 1 -42z"/>
<path d="M1010 4804 c0 -9 7 -56 16 -105 18 -95 28 -106 60 -64 10 13 35 31
56 40 41 16 48 34 21 52 -10 6 -44 30 -77 52 -65 45 -76 49 -76 25z m86 -68
l35 -24 -31 -22 c-17 -12 -33 -21 -34 -19 -7 8 -17 89 -11 89 3 0 22 -11 41
-24z"/>
<path d="M940 4529 c-81 -33 -110 -54 -95 -67 10 -9 166 -72 177 -72 3 0 6 38
5 85 0 47 -3 85 -6 84 -4 0 -40 -14 -81 -30z m50 -60 c0 -22 -3 -38 -7 -36 -5
3 -26 12 -48 22 l-40 16 35 19 c52 28 60 26 60 -21z"/>
<path d="M1430 4496 c0 -35 -3 -71 -6 -80 -9 -23 16 -20 99 10 71 25 97 40 97
54 0 4 -26 18 -57 31 -32 13 -69 29 -83 36 -45 23 -50 18 -50 -51z m90 -38
c-23 -10 -45 -16 -48 -14 -5 3 -7 60 -3 73 1 2 22 -7 47 -19 l45 -23 -41 -17z"/>
<path d="M1046 4341 c-4 -5 -9 -50 -13 -100 -4 -70 -3 -91 7 -91 17 0 160 113
156 124 -1 5 -20 15 -41 23 -22 7 -49 22 -60 33 -23 22 -40 25 -49 11z m67
-60 c25 -13 37 -31 19 -31 -4 0 -20 -12 -35 -26 -16 -14 -31 -24 -33 -21 -8 7
7 99 15 95 3 -2 18 -10 34 -17z"/>
<path d="M1364 4329 c-12 -11 -38 -26 -60 -34 -21 -7 -40 -17 -42 -23 -4 -13
149 -133 161 -125 5 3 6 38 2 82 -11 129 -19 142 -61 100z m26 -85 l0 -45 -35
27 c-19 14 -35 29 -35 33 0 9 54 39 63 34 4 -2 7 -24 7 -49z"/>
<path d="M6785 3965 c-130 -69 -145 -79 -145 -95 0 -10 12 -39 26 -66 l27 -49
-27 28 c-37 37 -96 38 -120 2 -14 -21 -20 -23 -36 -15 -30 16 -74 12 -98 -10
-27 -25 -35 -25 -27 0 3 10 1 28 -5 40 -10 18 -20 20 -114 20 -76 0 -107 -4
-115 -14 -8 -9 -11 -50 -9 -117 l3 -104 38 -3 38 -3 -27 -31 c-18 -23 -25 -40
-22 -60 4 -24 0 -32 -24 -44 -32 -17 -52 -56 -42 -86 3 -10 18 -30 32 -43 33
-31 13 -33 -43 -5 -22 11 -46 20 -55 20 -15 0 -119 -194 -109 -204 11 -11 190
-96 202 -96 7 0 22 17 32 38 l18 37 8 -35 c8 -38 32 -60 66 -60 18 0 23 -6 23
-24 0 -39 11 -57 43 -71 20 -8 40 -10 61 -4 51 15 42 0 -17 -25 -30 -14 -58
-30 -62 -35 -8 -14 85 -211 100 -211 18 0 189 81 197 93 3 6 -5 35 -18 65 -31
71 -30 81 5 43 36 -38 69 -40 111 -5 23 20 34 24 43 15 15 -15 60 -14 75 1 9
9 12 6 12 -15 0 -24 6 -28 58 -42 31 -9 79 -23 105 -32 32 -10 52 -12 59 -5
18 18 68 205 58 217 -6 7 -35 18 -65 25 -64 15 -81 30 -35 30 43 0 65 14 80
49 10 25 9 35 -4 62 -15 29 -14 32 5 48 29 23 28 75 -1 106 -32 34 -15 31 40
-5 25 -16 50 -30 57 -30 12 0 123 171 123 190 0 15 -180 130 -194 124 -6 -2
-26 -28 -44 -57 -19 -28 -30 -43 -26 -32 19 53 16 84 -10 109 -14 14 -34 26
-46 26 -15 0 -20 6 -20 29 0 46 -43 74 -100 67 l-45 -7 57 34 c32 18 61 36 64
39 5 6 -70 152 -98 191 -13 17 -16 17 -63 -8z m74 -94 c17 -32 31 -63 31 -69
0 -5 -20 -20 -45 -33 -47 -25 -81 -82 -69 -114 8 -19 9 -19 72 7 48 20 54 20
68 6 28 -28 9 -54 -57 -78 -34 -13 -63 -29 -66 -36 -5 -13 73 -104 88 -104 4
0 24 27 44 59 38 64 50 73 78 59 24 -12 21 -37 -8 -80 -34 -50 -32 -68 4 -68
48 0 74 16 101 59 14 23 29 41 35 41 11 -1 117 -73 119 -81 1 -3 -16 -34 -37
-68 l-39 -62 -26 17 c-51 34 -70 40 -107 36 -51 -6 -54 -27 -10 -72 73 -75 15
-111 -65 -40 -24 22 -49 39 -54 37 -14 -5 -57 -120 -48 -128 4 -4 45 -11 92
-16 l85 -8 0 -30 0 -30 -67 -3 c-38 -2 -68 -7 -68 -13 0 -30 55 -80 106 -96
31 -9 53 -22 50 -28 -2 -6 -12 -39 -21 -73 -10 -34 -21 -62 -25 -62 -4 0 -38
9 -75 21 -64 20 -67 22 -61 47 17 73 16 87 -2 111 -27 33 -50 22 -58 -29 -7
-42 -36 -73 -60 -63 -16 6 -18 59 -4 118 5 22 5 44 1 48 -9 9 -130 -11 -144
-24 -5 -4 9 -39 30 -78 36 -68 37 -72 20 -86 -25 -18 -40 -11 -71 36 -30 45
-48 49 -64 14 -17 -37 -14 -74 7 -121 l19 -42 -70 -32 c-38 -18 -70 -31 -72
-29 -1 2 -17 34 -34 72 l-31 67 44 21 c51 24 58 32 74 78 17 51 2 59 -63 37
-60 -21 -86 -17 -86 12 0 25 14 36 75 60 70 27 75 41 34 86 -19 21 -38 44 -42
52 -15 27 -32 13 -67 -54 -29 -55 -39 -67 -60 -67 -21 0 -25 4 -24 30 1 17 7
45 15 62 19 46 4 59 -47 38 -30 -12 -43 -25 -59 -60 -11 -25 -23 -45 -28 -45
-21 0 -127 62 -127 75 0 20 52 125 62 125 5 0 27 -9 49 -21 37 -18 46 -19 90
-9 61 15 64 36 9 70 -40 24 -59 58 -45 79 12 20 40 11 103 -29 64 -42 92 -50
92 -25 0 8 7 35 16 61 20 58 11 65 -66 57 -45 -4 -60 -2 -73 11 -24 25 -6 56
33 56 35 0 80 16 80 28 0 5 -12 21 -26 36 -22 22 -36 26 -80 26 -61 0 -61 -1
-48 108 l7 52 58 0 c84 0 89 -4 89 -64 0 -39 5 -57 24 -78 36 -42 54 -36 61
20 11 78 14 83 43 80 27 -3 27 -4 27 -82 0 -47 4 -81 11 -83 5 -2 37 3 70 10
68 16 69 21 23 96 -36 57 -35 85 2 89 21 2 31 -4 48 -30 41 -66 38 -63 55 -49
29 24 31 80 5 127 -13 24 -21 45 -19 47 14 12 117 67 126 67 6 0 25 -27 43
-59z m-289 -238 c0 -7 -7 -13 -15 -13 -10 0 -15 10 -15 33 1 30 1 31 15 13 8
-11 15 -26 15 -33z m330 -79 c0 -3 -5 -14 -11 -25 -9 -17 -13 -18 -26 -8 -13
12 -13 14 3 26 19 14 34 17 34 7z m-580 -149 c0 -8 -6 -15 -14 -15 -7 0 -19 7
-26 15 -11 13 -8 15 14 15 16 0 26 -5 26 -15z m640 -200 c11 -13 8 -15 -14
-15 -25 0 -33 10 -19 23 10 11 19 8 33 -8z m-570 -100 c15 -18 13 -20 -17 -29
-24 -8 -28 0 -17 28 8 20 18 20 34 1z m326 -111 c-3 -9 -6 -23 -6 -32 -1 -14
-5 -12 -21 7 -15 19 -17 26 -7 32 22 14 41 10 34 -7z"/>
<path d="M1200 2859 c0 -7 -10 -9 -25 -7 -31 6 -47 -12 -43 -49 3 -25 0 -28
-25 -25 -17 2 -29 -2 -33 -12 -4 -10 -15 -13 -39 -9 -19 3 -35 1 -39 -6 -12
-18 -26 -13 -36 14 -10 27 -38 33 -58 13 -7 -7 -24 -12 -40 -13 -23 0 -27 -4
-27 -27 -1 -15 -4 -30 -8 -34 -4 -4 -7 -17 -7 -30 0 -16 9 -25 32 -33 24 -9
29 -14 20 -23 -7 -7 -12 -22 -12 -33 0 -12 -9 -30 -21 -41 -15 -13 -19 -26
-15 -46 5 -25 3 -27 -32 -30 -34 -3 -37 -6 -37 -33 -1 -16 -5 -38 -9 -48 -10
-21 11 -50 31 -43 7 3 13 -1 13 -9 0 -8 9 -19 19 -24 14 -8 25 -6 44 9 30 24
37 25 37 5 0 -9 11 -20 25 -25 15 -6 25 -17 25 -30 0 -13 10 -24 26 -31 24 -9
25 -11 11 -27 -24 -27 -25 -56 -1 -66 11 -5 25 -18 30 -30 12 -25 28 -30 45
-13 8 7 28 13 44 13 28 -1 30 1 29 37 -1 34 1 37 26 37 15 0 33 6 39 14 6 7
22 11 36 8 14 -2 32 1 40 8 12 10 17 7 25 -16 14 -37 29 -45 54 -31 12 6 32
11 46 11 19 1 26 7 28 26 2 14 8 29 13 34 18 19 8 47 -23 66 -18 11 -27 20
-20 20 17 0 32 41 22 60 -5 9 -2 23 6 35 8 10 11 28 8 38 -6 18 -3 19 23 14
39 -8 57 5 51 36 -3 16 0 28 8 31 22 8 17 47 -6 53 -11 3 -20 11 -20 18 0 7
-7 19 -16 26 -14 11 -21 11 -45 -3 -27 -16 -29 -16 -40 3 -5 11 -21 24 -35 29
-14 6 -24 18 -24 30 0 13 -9 22 -25 26 -26 6 -32 18 -15 29 23 14 30 43 14 59
-9 9 -19 14 -24 11 -4 -3 -11 6 -14 20 -5 18 -13 25 -31 25 -14 0 -25 -5 -25
-11z m26 -40 c-6 -31 -5 -31 24 -25 17 3 30 3 30 -1 0 -3 -16 -25 -35 -49 -49
-59 -47 -78 4 -50 14 8 31 12 38 9 24 -9 13 -34 -21 -48 -48 -20 -50 -28 -16
-60 l28 -27 27 42 c38 60 62 43 40 -27 -10 -32 5 -29 60 13 l47 37 -7 -33 c-7
-31 -6 -32 19 -26 15 4 26 2 26 -4 0 -5 -9 -10 -20 -10 -25 0 -26 -17 -2 -43
17 -20 16 -20 -13 -14 -105 20 -105 20 -105 4 0 -8 11 -22 25 -31 29 -19 32
-34 9 -43 -8 -3 -25 4 -38 16 -12 11 -29 21 -37 21 -16 0 -42 -64 -31 -74 3
-3 30 -6 59 -6 46 0 54 -3 51 -17 -2 -12 -14 -19 -36 -21 -47 -5 -39 -24 21
-54 l52 -26 -29 -11 c-28 -11 -28 -12 -11 -31 10 -11 13 -20 8 -20 -6 0 -16 7
-23 15 -17 21 -28 19 -32 -5 -5 -35 -22 -20 -38 34 -18 59 -31 62 -44 11 -6
-26 -13 -35 -25 -33 -13 3 -15 14 -13 57 3 49 2 53 -15 47 -10 -4 -30 -10 -46
-13 l-27 -6 25 -43 c14 -25 23 -49 20 -54 -11 -17 -32 -11 -49 15 -25 37 -35
22 -29 -40 4 -38 2 -55 -6 -55 -6 0 -11 5 -11 10 0 6 -7 10 -15 10 -8 0 -15
-6 -15 -14 0 -8 -5 -18 -11 -22 -8 -4 -9 3 -4 26 7 32 7 32 -26 25 l-34 -8 38
46 c43 53 48 73 15 62 -69 -21 -89 8 -25 38 20 9 37 21 37 25 0 5 -13 21 -29
36 l-29 28 -21 -41 c-12 -22 -26 -41 -32 -41 -16 0 -21 25 -10 53 16 43 -5 42
-50 -2 -22 -23 -43 -41 -45 -41 -3 0 -4 10 -2 23 3 19 -1 22 -24 19 -16 -1
-28 2 -28 8 0 5 6 10 14 10 23 0 31 22 13 35 -30 22 -18 28 43 22 69 -6 85 6
41 31 -17 9 -31 25 -31 35 0 22 12 22 62 -4 45 -23 53 -19 63 30 l7 34 -46 -6
c-37 -5 -48 -4 -53 9 -7 19 13 34 45 34 34 0 26 19 -15 36 -84 33 -81 31 -48
44 27 10 29 13 13 24 -10 7 -18 19 -18 26 0 9 5 8 18 -3 27 -24 40 -21 44 11
3 24 6 22 30 -30 29 -63 48 -74 48 -29 0 29 25 60 37 47 4 -4 6 -25 6 -48 -3
-54 1 -58 42 -45 38 11 43 23 20 53 -19 25 -19 54 0 54 8 0 19 -9 25 -20 6
-11 18 -20 26 -20 12 0 14 10 8 63 -7 61 -7 62 13 45 26 -23 30 -23 37 7 9 36
20 31 12 -6z m-141 -139 c3 -5 1 -10 -4 -10 -6 0 -11 5 -11 10 0 6 2 10 4 10
3 0 8 -4 11 -10z m199 -55 c-4 -8 -11 -12 -16 -9 -6 4 -5 10 3 15 19 12 19 11
13 -6z m-337 -91 c-3 -3 -12 -4 -19 -1 -8 3 -5 6 6 6 11 1 17 -2 13 -5z m393
-110 c0 -2 -7 -4 -15 -4 -8 0 -15 4 -15 10 0 5 7 7 15 4 8 -4 15 -8 15 -10z
m-340 -84 c0 -5 -4 -10 -10 -10 -5 0 -10 5 -10 10 0 6 5 10 10 10 6 0 10 -4
10 -10z m190 -52 c0 -16 -3 -19 -11 -11 -6 6 -8 16 -5 22 11 17 16 13 16 -11z"/>
<path d="M1304 1519 c-49 -24 -70 -112 -38 -157 22 -31 13 -36 -24 -15 -39 23
-81 10 -102 -32 -13 -27 -19 -30 -53 -27 -45 4 -73 -16 -82 -58 l-6 -27 -33
33 c-28 28 -42 34 -76 34 -34 0 -48 -6 -76 -34 -28 -28 -34 -42 -34 -76 0 -34
6 -48 34 -76 23 -23 43 -34 63 -34 43 0 47 -11 13 -31 -34 -21 -47 -61 -33
-99 8 -23 6 -30 -14 -48 -15 -14 -23 -31 -23 -54 0 -42 11 -58 47 -73 l28 -12
-37 -7 c-71 -13 -108 -91 -76 -161 24 -54 113 -73 161 -35 l26 21 15 -29 c17
-33 34 -42 75 -42 21 0 31 -8 44 -34 17 -38 62 -55 94 -37 18 9 19 5 19 -46
-1 -51 2 -57 34 -84 50 -42 101 -40 146 5 27 27 34 42 34 74 0 40 0 41 33 35
35 -5 87 26 87 52 0 9 15 15 47 17 40 3 50 8 69 35 l21 32 21 -24 c68 -78 202
-14 189 90 -7 49 -55 95 -102 96 l-30 0 36 15 c62 26 76 91 29 131 -17 15 -17
19 -4 37 22 32 17 65 -16 98 -37 37 -37 41 0 33 37 -8 103 26 119 62 26 57 1
121 -57 147 -38 17 -45 17 -79 5 -22 -9 -47 -28 -58 -47 -27 -42 -37 -40 -29
7 5 34 3 43 -19 65 -18 18 -37 26 -60 26 -29 0 -36 4 -41 26 -4 16 -19 30 -41
40 -31 13 -39 13 -66 -2 -40 -20 -46 -13 -25 30 20 42 20 69 1 106 -26 51 -98
74 -151 49z m101 -54 c14 -13 25 -31 25 -39 0 -21 -22 -66 -32 -66 -4 0 -8
-27 -8 -60 0 -71 12 -76 70 -30 44 35 76 39 85 9 8 -24 -9 -45 -66 -85 -47
-32 -50 -57 -9 -74 16 -7 35 -18 41 -26 14 -17 48 -18 54 -1 2 6 11 38 19 69
12 42 22 59 38 64 37 11 48 -17 32 -78 -14 -55 -12 -68 12 -68 23 0 94 39 94
52 0 23 34 48 66 48 23 0 38 -7 53 -26 26 -33 26 -45 0 -78 -16 -21 -29 -26
-64 -26 -53 0 -115 -27 -115 -50 0 -10 17 -25 42 -36 54 -25 69 -48 46 -71
-17 -16 -21 -15 -83 10 -36 15 -69 27 -74 27 -12 0 -21 -134 -9 -141 5 -3 35
0 66 7 102 24 143 14 126 -31 -6 -15 -18 -20 -77 -31 -21 -3 -41 -13 -44 -21
-8 -21 46 -62 82 -63 70 0 103 -69 57 -115 -14 -14 -33 -25 -42 -25 -23 0 -70
38 -70 56 0 21 -49 64 -73 64 -17 0 -19 -5 -15 -49 6 -56 -4 -81 -32 -81 -26
0 -40 30 -40 87 0 27 -6 58 -14 68 -13 18 -16 19 -33 4 -10 -9 -37 -26 -60
-38 -24 -12 -43 -26 -43 -31 0 -6 23 -31 50 -57 53 -49 62 -76 31 -92 -15 -8
-28 -3 -64 25 -25 20 -51 33 -56 29 -17 -10 -13 -81 4 -95 24 -20 18 -66 -11
-89 -35 -27 -59 -26 -89 4 -30 29 -32 54 -5 88 21 27 27 91 9 102 -6 4 -28 -7
-49 -24 -42 -33 -84 -40 -94 -16 -9 23 1 37 60 84 30 24 53 47 52 52 -6 15
-123 88 -131 80 -4 -4 -12 -36 -18 -72 -13 -74 -27 -94 -59 -84 -21 7 -22 11
-16 66 6 47 4 60 -8 65 -18 7 -66 -24 -66 -43 0 -23 -47 -63 -74 -63 -31 0
-66 36 -66 67 0 34 43 73 80 73 38 0 90 26 90 44 0 7 -15 19 -32 25 -68 25
-83 36 -83 61 0 34 24 36 101 10 91 -30 96 -28 99 48 3 76 -4 81 -74 57 -64
-21 -95 -17 -99 13 -3 19 6 26 52 47 31 14 56 29 56 35 0 16 -77 60 -105 60
-31 0 -75 41 -75 70 0 27 43 70 70 70 26 0 70 -43 70 -69 0 -20 64 -65 84 -58
7 2 11 31 11 73 0 63 2 69 22 72 26 4 39 -16 48 -80 12 -77 20 -82 87 -50 31
15 57 34 57 41 1 8 -21 36 -49 62 -54 51 -58 60 -35 83 19 19 41 12 83 -27 21
-21 35 -28 42 -21 17 17 15 91 -3 118 -25 37 -21 71 9 95 35 27 59 26 89 -4z
m-205 -290 c0 -13 -18 -31 -24 -24 -2 2 -6 17 -10 32 -6 26 -5 27 14 17 11 -6
20 -17 20 -25z m336 -32 c-3 -3 -13 -3 -22 1 -15 6 -15 8 2 27 l19 21 3 -22
c2 -12 1 -24 -2 -27z m-516 -264 c0 -15 -4 -19 -16 -15 -9 3 -21 6 -27 6 -13
1 22 30 35 30 4 0 8 -9 8 -21z m681 -19 c5 0 9 -4 9 -10 0 -5 -11 -10 -25 -10
-16 0 -25 6 -25 16 0 11 5 14 16 10 9 -3 20 -6 25 -6z m-531 -250 c13 -8 12
-13 -7 -32 -27 -26 -33 -23 -26 15 6 29 10 32 33 17z m350 -42 l0 -31 -22 19
c-13 10 -25 20 -28 22 -6 4 23 22 38 22 7 0 12 -13 12 -32z"/>
<path d="M6777 1288 c-112 -195 -117 -203 -117 -176 0 44 -18 77 -52 98 -44
27 -84 25 -124 -5 -55 -42 -55 -132 0 -170 20 -15 20 -15 1 -15 -11 0 -78 9
-149 20 -72 10 -133 17 -138 14 -15 -10 -8 -26 62 -130 39 -57 70 -105 70
-108 0 -2 -18 3 -41 10 -38 13 -43 13 -79 -7 -70 -40 -79 -123 -18 -174 28
-23 39 -27 81 -22 l49 4 -97 -97 c-119 -120 -120 -130 -8 -130 43 0 109 -3
146 -7 67 -6 68 -6 39 -19 -69 -28 -88 -120 -38 -173 37 -38 83 -48 124 -27
44 23 62 54 63 106 l0 45 28 -70 c15 -38 40 -103 55 -143 16 -42 34 -72 42
-72 8 0 42 56 79 128 55 107 64 120 59 85 -14 -104 87 -169 172 -111 35 24 44
43 44 96 0 25 -10 41 -42 73 -28 27 -36 40 -23 36 50 -16 251 -67 263 -67 22
0 13 26 -48 145 -33 64 -60 119 -60 121 0 3 12 -7 27 -21 20 -18 39 -25 68
-25 104 0 151 119 73 185 -26 22 -39 26 -80 23 -26 -1 -48 -2 -48 -2 0 1 39
43 88 94 48 51 87 100 87 109 0 14 -19 16 -153 19 -96 1 -151 6 -147 12 3 6
15 10 25 10 24 0 68 43 76 75 17 70 -34 135 -107 135 -45 0 -77 -23 -99 -72
l-17 -39 -7 28 c-25 101 -80 253 -91 253 -7 0 -24 -19 -38 -42z m72 -156 c23
-71 41 -133 41 -139 0 -6 7 -17 16 -24 14 -12 20 -9 40 16 16 21 21 37 17 57
-9 45 19 78 67 78 43 0 70 -26 70 -68 0 -28 -42 -72 -69 -72 -11 0 -32 -16
-47 -36 -23 -29 -25 -37 -13 -45 8 -5 81 -9 163 -9 l150 0 -103 -105 c-88 -89
-102 -107 -91 -120 16 -19 59 -19 98 1 27 13 36 13 59 2 38 -18 52 -61 32 -96
-12 -21 -23 -28 -56 -30 -34 -3 -44 1 -62 23 -26 34 -101 49 -101 20 0 -10 27
-69 60 -132 34 -64 59 -117 57 -119 -2 -2 -61 12 -133 31 -71 19 -132 35 -136
35 -13 0 -9 -39 6 -68 8 -15 28 -37 45 -50 59 -43 32 -127 -40 -120 -47 4 -75
45 -61 88 9 25 8 39 -4 71 -26 64 -42 52 -109 -81 -33 -66 -63 -120 -66 -120
-4 0 -28 56 -54 125 -27 69 -53 129 -58 132 -6 3 -21 -6 -34 -21 -17 -20 -23
-39 -23 -72 0 -31 -6 -50 -20 -64 -59 -59 -152 27 -100 93 12 15 29 27 38 27
21 0 64 49 60 69 -3 13 -27 17 -128 23 -69 4 -133 9 -143 10 -13 2 9 30 83
106 55 56 100 109 100 117 0 22 -67 31 -89 11 -24 -22 -77 -20 -101 4 -27 27
-25 66 6 96 28 29 63 27 99 -5 28 -25 84 -35 91 -16 4 8 -28 65 -75 135 -45
66 -77 120 -72 120 6 0 75 -9 153 -20 91 -13 145 -17 151 -11 12 12 -10 71
-26 71 -22 0 -57 44 -57 72 0 61 76 90 118 45 17 -18 21 -33 19 -79 -2 -59 10
-85 35 -75 8 3 45 59 84 126 38 66 70 121 71 121 0 0 20 -58 42 -128z"/>
<path d="M6777 1148 c-47 -73 -107 -181 -107 -193 0 -9 22 -14 73 -18 39 -3
85 -9 101 -13 l29 -7 -6 44 c-10 69 -51 202 -64 206 -6 2 -18 -6 -26 -19z m31
-103 c19 -71 18 -74 -30 -68 -24 3 -45 7 -46 9 -5 4 52 104 58 104 3 0 11 -20
18 -45z"/>
<path d="M6344 956 c-8 -22 115 -216 137 -216 4 0 18 21 29 48 12 26 35 61 52
79 16 17 27 36 24 41 -3 6 -50 20 -104 32 -53 12 -105 24 -115 26 -10 3 -20
-1 -23 -10z m129 -52 c20 -3 39 -9 41 -13 2 -3 -6 -23 -18 -44 -21 -35 -24
-36 -38 -20 -8 10 -25 35 -38 57 -21 35 -22 38 -4 33 10 -3 36 -9 57 -13z"/>
<path d="M6935 860 c-4 -6 5 -30 20 -52 15 -23 30 -58 32 -79 10 -70 23 -67
117 22 47 45 86 87 86 94 0 17 -24 21 -146 24 -68 2 -104 -1 -109 -9z m183
-38 c-1 -5 -22 -25 -45 -46 l-42 -38 -16 37 c-8 21 -15 41 -15 46 0 5 27 9 61
9 33 0 59 -4 57 -8z"/>
<path d="M6383 587 c-113 -113 -111 -117 46 -117 66 0 122 4 126 9 3 5 -8 31
-25 58 -17 26 -33 65 -37 86 -3 20 -10 40 -15 43 -5 3 -48 -32 -95 -79z m104
-73 c-3 -3 -30 -4 -62 -2 l-57 3 43 43 44 43 18 -41 c10 -23 16 -44 14 -46z"/>
<path d="M6961 555 c-18 -31 -43 -61 -56 -67 -49 -22 -31 -45 56 -73 123 -39
157 -45 163 -30 5 14 -110 225 -123 225 -5 0 -23 -25 -40 -55z m99 -120 c0 -4
-8 -4 -17 -1 -10 3 -37 10 -61 16 l-42 11 32 39 31 40 29 -50 c15 -27 28 -52
28 -55z"/>
<path d="M6600 434 c0 -30 56 -214 69 -227 7 -7 14 -7 20 -2 17 17 111 195
111 210 0 10 -20 15 -72 18 -40 3 -85 8 -100 12 -23 6 -28 4 -28 -11z m111
-44 c36 0 36 -8 0 -72 l-29 -51 -11 39 c-25 97 -25 98 -7 91 10 -4 31 -7 47
-7z"/>
<path d="M5024 657 c-3 -9 -14 -12 -28 -10 -28 6 -41 -11 -38 -50 2 -24 -1
-28 -14 -23 -9 4 -27 0 -39 -8 -12 -8 -32 -12 -44 -9 -13 3 -29 -1 -41 -12
-18 -16 -19 -15 -35 14 -17 33 -51 42 -61 16 -4 -10 -13 -13 -26 -9 -27 8 -49
-13 -42 -41 3 -13 1 -26 -5 -29 -22 -14 -11 -44 20 -55 26 -9 29 -13 20 -30
-6 -11 -11 -29 -11 -40 0 -12 -5 -21 -10 -21 -16 0 -29 -43 -19 -62 8 -14 3
-17 -28 -20 -35 -3 -38 -5 -38 -34 0 -17 -6 -38 -14 -47 -11 -14 -11 -20 -1
-32 7 -8 18 -15 26 -15 7 0 18 -9 24 -20 14 -25 32 -25 55 0 23 25 32 25 40 1
3 -11 14 -23 25 -26 10 -3 21 -17 24 -30 3 -13 15 -27 27 -30 12 -4 18 -12 15
-21 -11 -28 22 -13 49 22 32 41 27 52 -14 34 -17 -7 -37 -10 -46 -7 -21 9 -8
36 21 43 42 11 50 31 24 59 -31 33 -45 31 -56 -7 -7 -23 -16 -33 -29 -33 -21
0 -23 13 -11 53 11 34 -14 28 -54 -13 -39 -41 -51 -44 -47 -12 2 19 -2 22 -25
19 -16 -1 -28 0 -28 3 0 3 12 10 28 16 l27 11 -22 18 c-13 10 -23 21 -23 24 0
4 29 4 65 0 73 -8 86 5 35 34 -16 9 -30 22 -30 29 0 24 22 25 65 2 24 -13 46
-21 48 -19 3 3 8 19 12 37 l6 32 -48 3 c-57 4 -66 27 -15 42 38 10 41 23 10
35 -13 5 -36 14 -53 21 -28 11 -29 12 -10 22 30 16 30 16 10 38 -10 11 -13 20
-7 20 6 0 14 -4 17 -10 11 -18 35 -11 35 10 0 36 17 21 41 -35 27 -62 43 -66
47 -12 3 29 7 37 23 37 16 0 19 -7 19 -51 0 -43 3 -50 16 -45 9 3 21 6 27 6 7
0 18 4 26 9 11 7 10 14 -8 39 -11 17 -21 37 -21 46 0 22 26 20 42 -2 32 -45
41 -38 35 26 -5 62 -1 72 20 51 13 -13 33 -4 33 17 0 8 4 14 8 14 5 0 7 -13 4
-30 -4 -29 10 -41 23 -20 7 12 25 13 25 2 0 -5 -16 -30 -36 -56 -21 -25 -34
-49 -31 -52 3 -3 21 0 41 7 20 7 38 10 42 6 12 -11 -5 -37 -30 -47 -36 -13
-41 -29 -15 -56 30 -32 36 -30 56 11 9 19 22 36 30 39 20 8 28 -21 14 -50 -14
-31 -14 -34 2 -34 7 0 28 13 47 30 42 35 66 40 50 10 -9 -16 -8 -22 4 -26 8
-3 19 -3 25 0 5 4 12 2 15 -3 3 -5 -5 -12 -19 -15 -29 -7 -32 -21 -8 -35 31
-17 7 -23 -48 -12 -30 5 -57 6 -62 2 -4 -4 6 -20 23 -35 50 -44 15 -65 -40
-24 -34 25 -45 19 -55 -29 l-6 -32 53 -3 c40 -2 54 -7 56 -20 2 -12 -5 -17
-29 -20 -49 -5 -45 -22 11 -48 52 -24 64 -40 30 -40 -23 0 -25 -17 -6 -42 18
-25 39 -23 31 2 -4 13 -1 22 9 26 27 10 18 42 -15 59 -29 16 -30 17 -14 35 12
13 15 27 11 46 -4 15 -2 32 5 40 6 8 9 23 6 35 -5 19 -3 20 27 15 38 -7 63 12
52 40 -4 10 1 25 10 35 14 15 14 21 4 34 -7 8 -19 15 -26 15 -8 0 -14 9 -14
19 0 28 -37 37 -61 15 -17 -16 -22 -16 -29 -4 -6 8 -10 18 -10 22 0 4 -11 10
-24 14 -14 3 -27 15 -30 30 -4 14 -16 26 -32 30 l-25 6 21 23 c26 28 23 59 -7
63 -14 2 -23 12 -25 25 -4 26 -45 36 -54 14z m-114 -183 c0 -8 -4 -12 -10 -9
-5 3 -10 10 -10 16 0 5 5 9 10 9 6 0 10 -7 10 -16z m200 -54 c0 -5 -4 -10 -10
-10 -5 0 -10 5 -10 10 0 6 5 10 10 10 6 0 10 -4 10 -10z m-340 -90 c0 -5 -4
-10 -10 -10 -5 0 -10 5 -10 10 0 6 5 10 10 10 6 0 10 -4 10 -10z m390 -110 c0
-5 -4 -10 -9 -10 -6 0 -13 5 -16 10 -3 6 1 10 9 10 9 0 16 -4 16 -10z m-340
-80 c0 -5 -4 -10 -10 -10 -5 0 -10 5 -10 10 0 6 5 10 10 10 6 0 10 -4 10 -10z"/>
<path d="M4998 126 c-44 -11 -45 -14 -18 -58 11 -18 20 -39 20 -45 0 -22 -30
-14 -55 14 l-24 28 -1 -33 0 -33 73 2 c40 1 82 8 95 16 19 12 22 11 22 -2 0
-8 7 -15 16 -15 10 0 14 6 11 14 -3 8 -11 32 -18 54 -14 47 -36 47 -41 -1 -2
-22 -9 -33 -22 -35 -17 -4 -18 1 -14 47 3 29 2 53 -1 54 -3 2 -23 -1 -43 -7z
m22 -35 c0 -17 -18 -21 -24 -6 -3 9 0 15 9 15 8 0 15 -4 15 -9z"/>
<path d="M5164 26 c-8 -22 -1 -28 26 -24 l22 3 -21 19 c-19 17 -21 17 -27 2z"/>
</g>
</svg>
