<?xml version="1.0" standalone="no"?>
<!DOCTYPE svg PUBLIC "-//W3C//DTD SVG 20010904//EN"
 "http://www.w3.org/TR/2001/REC-SVG-20010904/DTD/svg10.dtd">
<svg version="1.0" xmlns="http://www.w3.org/2000/svg"
 width="547.000000pt" height="810.000000pt" viewBox="0 0 547.000000 810.000000"
 preserveAspectRatio="xMidYMid meet">

<g transform="translate(0.000000,810.000000) scale(0.100000,-0.100000)"
fill="#000000" stroke="none">
<path d="M2170 7970 c-41 -4 -95 -15 -120 -23 -25 -9 -62 -19 -82 -22 -21 -4
-38 -11 -38 -16 0 -5 -9 -9 -19 -9 -11 0 -23 -4 -26 -10 -3 -5 -16 -10 -28
-10 -12 -1 -40 -9 -62 -20 -22 -11 -46 -19 -53 -20 -7 0 -30 -11 -52 -25 -22
-14 -46 -25 -55 -25 -8 0 -15 -4 -15 -9 0 -5 -17 -17 -37 -26 -21 -10 -44 -24
-51 -32 -7 -7 -20 -13 -28 -13 -8 0 -14 -4 -14 -9 0 -5 -26 -28 -57 -51 -32
-24 -74 -60 -94 -81 -20 -22 -42 -39 -48 -39 -6 0 -16 -9 -23 -20 -7 -11 -18
-20 -25 -20 -13 0 -103 -102 -103 -118 0 -6 -4 -12 -8 -14 -11 -4 -72 -94
-101 -148 -13 -25 -32 -54 -42 -66 -11 -11 -19 -26 -19 -34 0 -7 -6 -21 -14
-29 -19 -22 -76 -132 -76 -148 0 -7 -9 -30 -20 -50 -11 -21 -20 -43 -20 -50 0
-7 -11 -36 -24 -65 -35 -75 -52 -241 -37 -351 7 -45 16 -154 22 -242 5 -88 13
-194 18 -235 16 -126 12 -219 -15 -376 -14 -82 -28 -160 -30 -174 -7 -38 10
-54 52 -53 33 1 46 10 97 62 33 34 65 60 71 58 6 -3 27 2 45 10 19 7 41 11 48
9 7 -3 13 -1 13 5 0 8 -15 9 -45 5 -36 -6 -45 -4 -45 8 0 8 6 19 14 23 16 9
110 202 121 248 3 16 15 47 25 70 10 22 21 56 25 75 4 19 11 40 15 45 4 6 11
28 14 50 4 22 17 68 29 103 18 52 23 61 33 48 6 -9 32 -25 58 -37 26 -11 51
-30 56 -42 10 -25 154 -167 170 -167 5 0 10 -4 10 -9 0 -4 20 -24 45 -43 l45
-36 -34 -26 c-19 -14 -39 -26 -45 -26 -6 0 -11 -4 -11 -9 0 -5 -9 -12 -19 -16
-30 -9 -241 -224 -241 -245 0 -5 -6 -13 -13 -17 -16 -10 -117 -159 -117 -173
0 -5 -3 -10 -8 -10 -4 0 -16 -17 -26 -37 -21 -43 -32 -65 -45 -90 -31 -59 -61
-129 -61 -144 0 -10 -9 -41 -19 -71 -49 -138 -64 -203 -82 -363 -16 -135 9
-387 44 -467 8 -18 21 -48 28 -65 8 -18 17 -33 21 -33 5 0 8 -7 8 -16 0 -8 11
-30 25 -48 14 -18 25 -37 25 -42 0 -5 9 -15 20 -22 11 -7 20 -16 20 -21 0 -13
94 -111 106 -111 5 0 21 -13 36 -29 l28 -29 -25 -16 c-13 -9 -29 -16 -34 -16
-16 0 -102 -61 -108 -76 -3 -8 -10 -14 -17 -14 -6 0 -18 -9 -26 -20 -8 -11
-19 -20 -25 -20 -6 0 -21 -14 -35 -31 -14 -17 -31 -36 -38 -43 -19 -16 -91
-88 -106 -106 -36 -41 -106 -139 -106 -148 0 -5 -9 -17 -20 -27 -11 -10 -20
-23 -20 -28 0 -6 -11 -24 -24 -41 -13 -17 -26 -40 -29 -51 -4 -11 -23 -44 -42
-73 -19 -30 -35 -56 -35 -59 0 -3 -18 -38 -40 -76 -35 -61 -99 -206 -133 -302
-5 -16 -18 -51 -29 -77 -10 -26 -18 -58 -18 -72 0 -14 -11 -55 -25 -92 -14
-36 -25 -76 -25 -87 0 -11 -9 -50 -19 -86 -29 -98 -45 -352 -31 -483 12 -104
44 -229 79 -303 10 -22 25 -56 34 -75 41 -95 132 -271 144 -281 7 -6 13 -17
13 -24 0 -8 3 -15 8 -17 4 -2 17 -16 30 -32 57 -74 245 -276 256 -276 3 0 16
-10 29 -22 73 -71 125 -103 297 -188 58 -29 112 -56 120 -61 47 -27 163 -79
215 -97 176 -59 201 -65 305 -67 90 -3 95 -2 35 4 -129 13 -312 67 -451 133
-56 26 -106 48 -112 48 -5 0 -15 7 -22 15 -7 8 -21 15 -31 15 -11 0 -19 3 -19
8 0 4 -29 21 -65 37 -36 17 -65 33 -65 38 0 4 -7 7 -15 7 -15 0 -75 36 -114
70 -13 11 -28 20 -32 20 -17 0 -309 305 -318 332 -2 7 -14 23 -27 37 -19 20
-143 261 -174 336 -5 11 -21 47 -36 80 -30 65 -37 92 -60 235 -12 68 -14 128
-10 212 6 127 38 328 61 393 8 22 28 92 44 155 17 63 39 133 50 155 12 21 21
46 21 55 1 8 9 33 20 55 11 22 19 46 20 52 0 17 57 122 76 140 8 8 14 23 14
32 0 10 8 29 18 42 9 13 23 35 31 49 24 42 63 114 79 145 8 17 18 32 21 35 10
9 71 100 71 107 0 7 -1 6 117 132 48 51 101 105 118 120 16 14 39 36 52 48 12
12 31 24 42 28 10 3 22 12 25 20 3 8 37 30 75 49 59 29 72 32 82 20 6 -8 17
-14 25 -14 7 0 17 -6 21 -12 31 -50 349 -173 513 -199 345 -57 493 -70 700
-66 231 6 391 21 480 46 36 10 97 27 135 36 157 39 190 49 195 55 3 4 16 10
30 14 34 10 174 79 178 89 2 4 12 7 22 7 10 0 46 18 79 40 33 22 64 40 69 40
8 0 37 21 107 76 15 12 36 15 89 11 37 -2 71 -9 75 -14 3 -6 24 -13 46 -17 21
-4 59 -19 84 -32 25 -13 51 -24 57 -24 6 0 17 -6 23 -14 13 -16 112 -66 129
-66 7 0 12 -4 12 -10 0 -5 6 -10 14 -10 7 0 19 -7 26 -15 7 -8 21 -15 31 -15
11 0 19 -3 19 -8 0 -4 18 -15 41 -25 22 -10 46 -22 52 -27 7 -6 28 -24 47 -40
19 -16 41 -30 47 -30 7 0 18 -9 25 -20 7 -11 19 -20 26 -20 7 0 18 -11 24 -25
6 -14 15 -25 19 -25 8 0 55 -46 82 -82 34 -45 87 -113 100 -128 13 -16 22 -29
52 -80 11 -18 28 -41 38 -52 9 -10 17 -24 17 -30 0 -7 9 -24 20 -38 11 -14 20
-31 20 -38 0 -8 10 -28 23 -45 26 -37 41 -75 68 -171 11 -38 24 -77 29 -87 6
-10 10 -28 10 -41 0 -13 11 -68 24 -123 39 -164 52 -294 38 -389 -7 -45 -12
-100 -12 -122 0 -21 -11 -80 -25 -129 -14 -50 -25 -102 -25 -116 0 -14 -9 -52
-20 -84 -11 -32 -20 -69 -20 -82 0 -13 -4 -32 -10 -43 -5 -11 -14 -29 -20 -40
-5 -11 -10 -27 -10 -36 0 -8 -11 -40 -25 -70 -14 -30 -25 -57 -25 -61 0 -7
-105 -218 -123 -248 -6 -11 -20 -32 -29 -47 -10 -14 -18 -33 -18 -42 0 -8 -6
-19 -13 -23 -6 -4 -25 -26 -42 -48 -44 -60 -215 -227 -255 -249 -19 -11 -37
-22 -40 -26 -9 -11 -101 -70 -109 -70 -5 0 -14 -7 -21 -16 -8 -8 -27 -21 -44
-29 -17 -8 -49 -26 -71 -39 -56 -36 -104 -63 -145 -81 -19 -9 -49 -23 -66 -31
-18 -7 -60 -23 -95 -35 -62 -20 -83 -25 -199 -47 -30 -6 -71 -15 -90 -19 -19
-4 -435 -8 -923 -9 -488 -1 -891 -4 -894 -8 -11 -10 -33 -10 1046 -14 354 -1
647 0 651 3 5 3 64 10 132 15 67 6 148 17 178 26 30 9 74 20 97 24 23 5 50 14
60 19 10 5 52 24 93 42 41 18 88 43 103 56 16 13 34 23 42 23 7 0 18 7 25 15
7 8 20 15 30 15 10 0 20 7 23 15 4 8 21 21 39 28 18 8 39 21 47 30 7 10 17 17
22 17 11 0 103 62 107 72 2 4 10 8 18 8 15 0 183 163 256 247 20 24 49 67 63
95 15 29 40 76 56 103 42 74 123 245 148 315 21 57 58 184 71 245 5 22 16 67
25 100 9 33 20 87 26 120 43 259 48 357 23 465 -8 36 -19 92 -23 125 -7 52
-40 185 -83 335 -7 25 -21 58 -30 73 -10 14 -18 31 -18 37 0 6 -10 27 -23 48
-13 20 -29 52 -36 70 -8 17 -17 32 -22 32 -5 0 -9 7 -9 15 0 8 -8 22 -18 32
-10 10 -34 43 -52 73 -19 30 -40 59 -47 63 -7 4 -13 12 -13 18 0 24 -261 289
-284 289 -3 0 -31 17 -63 38 -32 20 -75 46 -95 56 -21 11 -38 23 -38 28 0 4
-8 8 -17 9 -10 0 -40 14 -68 30 -27 16 -68 38 -90 49 -22 10 -51 26 -65 34
-45 27 -94 47 -135 56 -91 20 -109 26 -112 37 -2 6 26 42 62 79 71 74 155 192
155 217 0 8 4 17 8 19 10 4 74 136 100 208 40 109 74 276 67 330 -37 304 -74
507 -106 577 -10 24 -19 49 -19 56 0 17 -85 166 -110 192 -11 12 -20 26 -20
31 0 5 -11 21 -25 36 -14 15 -25 30 -25 32 0 34 -296 340 -368 380 -10 5 -23
16 -30 23 -7 7 -20 13 -28 13 -8 0 -14 3 -14 8 0 11 -76 42 -104 42 -13 0 -26
3 -28 8 -5 11 -151 82 -170 82 -23 0 -23 11 3 57 12 21 37 85 55 142 30 93 34
116 34 218 l0 113 38 17 c96 42 89 37 141 83 34 31 40 63 14 88 -13 13 -40 18
-130 20 -104 3 -113 5 -113 23 0 11 -13 52 -29 92 -16 39 -38 110 -49 157 -45
184 -87 265 -173 327 -27 19 -49 40 -49 46 0 7 -13 26 -28 44 -15 17 -36 43
-47 57 -36 46 -64 76 -71 76 -3 0 -24 18 -47 40 -47 48 -122 100 -143 100 -7
0 -14 3 -14 8 0 7 -39 26 -130 61 -45 18 -82 23 -200 26 -80 2 -179 0 -220 -5z
m218 -6 c-3 -3 -32 -9 -64 -14 -90 -15 -157 -29 -179 -39 -50 -22 -77 -31 -91
-31 -8 0 -34 -8 -57 -19 -23 -10 -57 -24 -74 -32 -18 -8 -33 -17 -33 -21 0 -3
-13 -9 -29 -13 -15 -3 -38 -15 -49 -25 -12 -11 -25 -20 -30 -20 -16 0 -98 -49
-117 -70 -10 -11 -24 -20 -32 -20 -7 0 -13 -4 -13 -8 0 -4 -28 -28 -62 -52
-78 -54 -80 -57 -126 -101 -68 -66 -112 -116 -112 -127 0 -6 -4 -12 -9 -14
-60 -21 -221 -415 -208 -509 4 -31 3 -36 -8 -26 -30 31 -43 72 -35 112 16 82
53 211 66 230 8 11 14 25 14 31 0 16 98 190 115 204 8 7 15 19 15 26 0 8 3 14
8 14 4 0 18 17 32 38 32 48 157 173 198 197 18 11 32 23 32 27 0 4 4 8 9 8 6
0 30 14 54 30 25 17 50 30 56 30 6 0 11 5 11 10 0 6 8 10 18 10 9 0 38 11 64
25 26 14 53 25 60 25 7 0 30 9 51 20 20 11 46 20 56 20 11 0 41 9 67 21 27 11
78 24 114 30 36 5 103 16 150 23 94 15 146 19 138 10z m167 -38 c55 -6 218
-81 250 -115 10 -12 24 -21 32 -21 7 0 13 -2 13 -4 0 -2 3 -12 7 -21 5 -15 3
-16 -15 -6 -11 6 -36 11 -56 11 -19 0 -38 5 -41 10 -3 6 -15 10 -25 10 -11 0
-40 7 -66 16 -44 15 -58 15 -178 -1 -126 -16 -188 -28 -231 -45 -11 -5 -40
-11 -64 -15 -24 -3 -56 -12 -72 -20 -15 -8 -41 -15 -58 -15 -16 0 -31 -3 -33
-8 -1 -4 -48 -27 -103 -51 -55 -24 -121 -60 -147 -80 -25 -20 -61 -47 -80 -61
-18 -14 -43 -35 -56 -47 -13 -13 -26 -23 -30 -23 -4 0 -15 -8 -24 -17 -16 -17
-23 -24 -55 -56 -7 -6 -26 -24 -43 -40 -16 -15 -30 -31 -30 -36 0 -5 -9 -13
-20 -16 -11 -3 -20 -10 -20 -14 0 -5 -11 -21 -25 -37 -68 -78 -104 -138 -174
-296 -12 -26 -21 -52 -21 -58 0 -5 -6 -28 -12 -50 -16 -51 -41 -50 -44 0 -2
20 -4 40 -5 45 -6 25 16 134 37 182 13 30 24 59 24 66 0 19 79 169 101 192 10
11 42 49 71 85 61 75 55 70 134 138 34 28 66 52 72 52 6 0 12 4 14 8 2 4 31
27 66 51 34 24 62 47 62 52 0 4 15 13 34 19 19 6 40 18 46 26 7 7 21 14 31 14
11 0 19 3 19 8 0 4 29 21 65 37 36 17 65 33 65 38 0 4 10 7 23 7 12 0 35 7 50
15 15 8 45 17 65 21 20 3 64 15 97 26 33 12 96 24 140 28 78 6 107 6 210 -4z
m148 -155 c23 -11 67 -22 97 -25 53 -7 140 -35 140 -47 0 -3 16 -23 36 -45 42
-47 63 -80 42 -69 -7 5 -20 13 -28 19 -21 16 -67 31 -190 62 -89 22 -127 26
-252 25 -81 0 -155 -4 -165 -10 -10 -5 -53 -14 -95 -20 -42 -6 -95 -17 -119
-25 -24 -8 -61 -17 -81 -20 -20 -4 -50 -13 -65 -21 -15 -8 -34 -15 -41 -15
-12 0 -99 -37 -147 -63 -11 -6 -33 -17 -50 -26 -16 -8 -37 -23 -46 -33 -9 -10
-21 -18 -26 -18 -6 0 -18 -9 -28 -20 -10 -11 -23 -20 -29 -20 -7 0 -18 -9 -26
-20 -8 -11 -18 -20 -22 -20 -11 0 -118 -109 -118 -120 0 -5 -9 -12 -20 -15
-11 -3 -20 -12 -20 -19 0 -8 -7 -19 -16 -27 -8 -7 -45 -58 -82 -113 -36 -56
-69 -102 -74 -104 -4 -2 -8 -12 -8 -22 0 -10 -5 -22 -10 -25 -6 -4 -20 -24
-31 -47 -24 -47 -37 -45 -16 4 37 81 57 127 57 133 0 11 78 141 102 171 62 75
270 272 353 333 22 17 49 38 61 48 32 28 101 63 123 63 12 0 21 5 21 10 0 6 9
10 20 10 11 0 20 4 20 9 0 5 12 11 28 14 43 9 102 31 102 39 0 5 10 8 23 8 12
0 47 7 77 16 55 15 121 29 212 43 26 4 51 10 55 14 3 4 48 7 100 7 70 0 104
-5 136 -19z m-13 -111 c111 -14 150 -21 156 -31 3 -5 16 -9 30 -9 43 0 161
-60 218 -112 11 -10 28 -20 37 -23 10 -3 21 -15 24 -26 4 -10 10 -19 15 -19
11 0 70 -115 70 -138 1 -20 34 -119 44 -129 3 -3 6 -15 6 -26 0 -19 -1 -19
-20 -2 -10 9 -18 20 -18 24 7 26 -32 69 -97 108 -46 27 -143 74 -161 77 -83
16 -245 28 -306 23 -114 -9 -215 -25 -240 -38 -47 -25 -58 -29 -73 -29 -13 0
-69 -24 -120 -53 -11 -6 -33 -17 -50 -25 -16 -8 -38 -22 -48 -30 -20 -18 -51
-36 -87 -52 -34 -15 -134 -82 -138 -92 -2 -4 -7 -8 -12 -8 -13 0 -120 -72
-120 -81 0 -5 -6 -9 -13 -9 -8 0 -22 -9 -32 -20 -10 -11 -21 -20 -25 -20 -24
0 -240 -217 -240 -240 0 -5 -9 -14 -20 -20 -11 -6 -20 -17 -20 -26 0 -8 -11
-27 -25 -42 -14 -15 -25 -31 -25 -36 0 -5 -18 -46 -39 -90 -56 -115 -62 -150
-38 -222 10 -32 23 -63 28 -68 13 -14 11 -36 -4 -36 -35 0 -117 149 -117 212
0 11 -8 50 -19 86 -10 37 -24 101 -30 143 -14 90 0 166 45 242 16 27 34 56 39
65 6 10 20 31 31 47 12 17 24 40 28 52 4 11 13 24 21 27 8 3 15 10 15 15 0 14
61 104 77 114 7 4 13 12 13 17 0 10 14 26 114 129 38 39 74 71 80 71 6 0 17 9
24 20 7 11 19 20 27 20 8 0 18 6 22 13 10 15 95 69 141 88 17 8 32 17 32 21 0
3 18 9 40 13 22 4 40 11 40 16 0 5 8 9 18 9 10 0 22 4 28 9 9 9 58 22 159 43
28 6 59 14 70 18 21 8 136 28 195 34 70 6 177 4 250 -4z m-1417 -187 c-3 -10
-13 -27 -22 -38 -32 -39 -58 -81 -65 -103 -4 -12 -11 -22 -15 -22 -5 0 -14
-15 -21 -32 -7 -18 -21 -51 -31 -73 -38 -83 -69 -176 -69 -208 -1 -17 -7 -45
-14 -62 l-13 -30 -21 47 c-33 70 -29 123 13 187 19 29 35 57 35 61 0 5 6 15
13 22 6 7 21 29 31 48 11 19 25 39 33 43 7 4 13 13 13 20 0 7 16 29 35 50 18
20 31 37 27 37 -6 0 69 69 75 70 1 0 0 -8 -4 -17z m1717 -145 c36 -11 72 -24
80 -29 8 -5 29 -15 45 -22 17 -8 36 -21 44 -30 7 -10 19 -17 26 -17 17 0 48
-37 41 -49 -5 -7 26 -54 54 -81 26 -26 81 -163 69 -174 -5 -4 -356 -19 -414
-17 -22 0 -65 4 -96 7 -45 4 -67 1 -110 -17 -100 -41 -135 -91 -147 -206 -10
-88 -2 -129 32 -165 36 -39 59 -48 130 -48 64 0 123 18 229 71 22 10 44 19 50
19 7 1 30 9 52 20 22 11 46 19 53 20 7 0 21 5 32 10 49 24 58 28 90 34 19 4
59 17 88 28 29 11 55 18 58 15 16 -15 15 -147 -1 -207 -9 -36 -20 -81 -24
-100 -7 -32 -29 -89 -52 -132 -21 -41 -34 -63 -40 -68 -4 -3 -24 -27 -45 -55
-37 -49 -79 -96 -185 -206 -91 -94 -212 -171 -299 -190 -19 -4 -66 -16 -105
-27 -61 -18 -202 -34 -288 -32 -47 1 -299 30 -347 40 -25 5 -70 14 -100 20
-30 7 -59 15 -65 20 -5 4 -26 11 -45 15 -19 4 -49 18 -67 31 -17 13 -36 24
-42 24 -6 0 -15 9 -21 20 -6 11 -16 20 -22 20 -13 0 -7 -5 -146 130 -56 55
-102 104 -102 109 0 6 -9 25 -20 43 -11 18 -20 40 -20 48 0 9 -9 33 -20 55
l-20 38 26 83 c15 46 32 89 40 95 8 6 14 18 14 26 0 9 18 42 40 75 22 33 40
63 40 67 0 4 14 20 30 36 17 16 30 32 30 37 0 9 80 89 139 138 23 19 50 43 59
53 9 9 21 17 26 17 5 0 19 8 30 19 33 29 155 111 166 111 5 0 10 4 10 9 0 5
20 19 45 31 25 12 48 26 51 32 4 5 21 17 38 25 38 17 69 35 87 49 38 30 189
100 244 113 22 5 65 16 95 24 83 23 113 25 260 21 99 -4 152 -10 200 -26z
m-2021 -359 c1 -14 10 -34 21 -44 11 -10 20 -23 20 -29 0 -6 9 -17 20 -24 11
-7 20 -17 20 -23 0 -6 25 -35 55 -65 l56 -54 -38 0 c-75 0 -103 16 -169 93
-39 46 -48 146 -16 185 15 19 18 19 24 4 4 -9 7 -29 7 -43z m-18 -177 c16 -18
29 -37 29 -42 0 -6 6 -10 13 -10 6 0 25 -7 42 -16 16 -8 48 -18 72 -21 l43 -6
0 -46 c0 -25 4 -63 9 -83 l9 -38 -52 0 c-32 0 -69 8 -94 20 -22 11 -45 20 -51
20 -5 0 -23 11 -40 26 -16 14 -33 25 -36 24 -12 -2 -55 59 -61 87 -3 16 2 48
11 73 9 25 24 65 32 89 l16 43 15 -43 c8 -24 27 -59 43 -77z m2359 94 c-15
-15 -11 -97 4 -126 13 -22 14 -18 12 48 -1 83 6 93 66 90 33 -2 37 -4 32 -24
-5 -20 19 -84 32 -84 3 0 3 19 -1 43 -8 56 4 71 47 63 32 -6 34 -9 30 -36 -3
-18 0 -30 7 -30 6 0 11 11 11 25 0 30 20 41 49 25 18 -9 19 -14 10 -31 -22
-42 -189 -128 -282 -146 -15 -3 -30 -9 -33 -14 -3 -5 -16 -9 -29 -9 -13 0 -27
-4 -30 -10 -3 -5 -17 -10 -30 -10 -13 0 -45 -11 -72 -24 -26 -13 -63 -27 -80
-31 -18 -4 -33 -10 -33 -15 0 -4 -17 -11 -37 -15 -21 -4 -40 -10 -43 -15 -10
-15 -159 -60 -199 -60 -53 0 -102 24 -129 64 -19 28 -22 42 -18 98 8 98 44
164 112 204 23 14 94 29 78 17 -22 -17 -64 -101 -64 -130 0 -56 13 -123 22
-117 5 3 8 31 7 62 -3 63 7 119 25 138 6 6 19 21 28 33 18 21 81 30 91 14 3
-5 -4 -35 -14 -67 -15 -47 -17 -66 -9 -97 16 -59 26 -47 22 25 -4 53 -1 69 19
99 23 36 26 37 86 37 56 0 61 -2 56 -20 -3 -11 -9 -23 -14 -26 -17 -10 -9 -88
11 -114 15 -20 20 -21 20 -8 0 9 -4 20 -10 23 -25 16 4 134 36 146 11 4 35 8
55 8 l36 1 -10 -44 c-7 -33 -7 -52 3 -75 20 -48 26 -37 22 36 -4 51 -1 69 10
77 19 14 111 15 98 2z m-2452 -260 c9 -13 68 -56 78 -56 4 0 16 -8 27 -17 11
-11 57 -24 115 -34 97 -15 97 -16 97 -45 l0 -29 -115 1 c-107 0 -119 2 -168
29 -29 15 -52 32 -52 37 0 5 -11 20 -25 34 -26 26 -27 49 -8 118 5 19 7 19 25
-4 10 -13 22 -28 26 -34z m-31 -124 c41 -56 133 -84 263 -80 l95 3 16 -47 c10
-25 20 -66 24 -90 4 -24 11 -50 16 -59 6 -11 0 -20 -24 -34 -24 -15 -52 -19
-118 -20 -79 0 -92 3 -153 34 -36 19 -66 38 -66 43 0 4 -6 8 -12 8 -33 1 -57
47 -67 131 -19 144 -14 165 26 111z m35 -267 c16 -14 36 -25 44 -25 8 0 14 -4
14 -9 0 -5 10 -13 23 -16 12 -4 38 -14 57 -23 52 -25 153 -22 213 7 27 12 52
20 55 17 3 -3 0 -6 -6 -6 -6 0 -18 -21 -25 -47 -16 -53 -57 -83 -115 -83 -57
0 -171 31 -200 54 -15 12 -44 33 -64 46 -34 22 -38 29 -38 68 0 23 3 42 6 42
3 0 19 -11 36 -25z m2495 -92 c21 -9 70 -31 108 -49 39 -18 88 -38 110 -45 22
-7 48 -19 57 -27 9 -7 30 -21 47 -30 54 -30 221 -182 221 -202 0 -5 5 -10 11
-10 13 0 69 -55 69 -69 0 -5 6 -14 13 -18 7 -4 28 -30 47 -58 79 -117 102
-150 108 -155 35 -26 142 -287 142 -344 0 -12 7 -48 15 -80 8 -31 20 -105 25
-164 6 -59 13 -135 17 -169 10 -105 -24 -274 -79 -399 -10 -22 -18 -48 -18
-57 0 -9 -3 -17 -8 -17 -4 0 -16 -17 -26 -37 -10 -21 -23 -47 -29 -58 -6 -11
-17 -33 -26 -50 -8 -16 -20 -34 -28 -38 -7 -4 -13 -13 -13 -20 0 -24 -261
-277 -285 -277 -4 0 -20 -11 -37 -25 -16 -14 -37 -25 -46 -25 -8 0 -25 -8 -36
-19 -22 -19 -79 -51 -133 -73 -18 -7 -33 -16 -33 -20 0 -5 -6 -8 -12 -8 -7 0
-26 -7 -42 -15 -40 -21 -162 -63 -217 -74 -24 -5 -78 -19 -119 -30 -41 -11
-102 -25 -135 -31 -33 -6 -76 -16 -96 -21 -19 -5 -170 -9 -335 -9 -231 0 -317
3 -379 15 -44 8 -121 19 -170 24 -50 5 -122 18 -160 29 -39 11 -90 24 -115 27
-25 4 -54 14 -65 21 -11 8 -30 14 -42 14 -12 0 -37 8 -56 19 -18 10 -48 22
-66 26 -17 4 -37 15 -44 26 -6 10 -17 19 -24 19 -14 0 -106 60 -111 72 -2 4
-10 8 -17 8 -8 0 -18 6 -22 14 -4 7 -26 25 -48 38 -52 33 -175 169 -175 193 0
5 -11 23 -25 41 -14 18 -25 38 -25 44 0 6 -7 22 -16 35 -9 14 -27 71 -41 128
-20 87 -24 127 -24 268 0 92 5 178 11 193 6 16 17 63 25 105 13 70 41 178 59
226 36 96 82 195 122 265 36 62 96 153 109 165 6 6 24 30 40 55 40 61 231 249
260 256 13 3 26 12 29 20 3 8 15 14 26 14 11 0 20 5 20 10 0 6 9 10 20 10 11
0 20 -4 20 -10 0 -5 8 -10 18 -10 10 0 27 -7 38 -15 10 -8 27 -15 36 -15 10 0
50 -11 90 -24 40 -14 102 -28 138 -31 36 -4 76 -8 90 -10 14 -1 67 -10 117
-20 79 -14 111 -15 217 -7 68 6 133 15 143 20 10 6 49 15 86 21 61 11 116 29
157 52 8 5 29 15 45 23 17 7 40 22 52 32 12 11 37 30 54 44 18 14 43 36 56 50
13 14 52 55 88 91 36 37 65 72 65 77 0 6 9 16 20 22 11 6 20 15 20 21 0 16 42
48 62 49 10 0 34 -8 55 -17z m-2480 -30 c11 -15 38 -33 73 -49 8 -4 18 -12 21
-17 4 -5 58 -10 121 -11 l114 -1 -9 -40 c-24 -105 -28 -113 -71 -129 -80 -31
-197 -13 -250 37 -30 29 -34 40 -40 102 -4 39 -9 85 -11 103 -4 31 -3 33 18
27 12 -4 27 -14 34 -22z m27 -257 c34 -23 49 -26 117 -26 43 0 89 4 102 9 24
9 24 9 17 -31 -10 -54 -20 -61 -82 -60 -105 1 -208 64 -208 126 0 17 4 26 8
20 4 -6 25 -23 46 -38z m3 -86 c6 0 13 -5 15 -11 4 -13 96 -31 146 -30 40 2
41 -12 6 -79 -31 -59 -67 -80 -136 -80 -39 0 -54 5 -75 26 -24 24 -25 30 -19
97 3 40 6 83 6 96 l0 24 23 -21 c13 -12 28 -22 34 -22z m-2 -218 c17 -5 39 -6
50 -1 27 10 65 11 65 1 0 -5 -13 -23 -28 -40 -23 -25 -37 -32 -66 -32 -44 0
-71 13 -86 41 -16 29 -4 61 18 49 9 -5 31 -13 47 -18z m-37 -79 c12 -7 33 -13
47 -13 31 0 31 -3 3 -36 -30 -34 -80 -64 -107 -64 -25 0 -25 3 -4 87 13 52 19
63 27 52 6 -8 21 -20 34 -26z"/>
<path d="M2835 7120 c-49 -19 -78 -97 -43 -119 58 -36 134 26 108 89 -13 31
-35 41 -65 30z m17 -42 c-7 -7 -12 -8 -12 -2 0 14 12 26 19 19 2 -3 -1 -11 -7
-17z"/>
<path d="M2428 7054 c-10 -3 -18 -11 -18 -19 0 -7 -7 -18 -15 -25 -22 -19 -18
-65 9 -96 l23 -28 39 18 c21 9 46 21 54 25 19 10 25 81 8 104 -13 18 -69 29
-100 21z m52 -49 c-7 -8 -17 -15 -22 -15 -6 0 -5 7 2 15 7 8 17 15 22 15 6 0
5 -7 -2 -15z"/>
<path d="M2170 6455 c-7 -8 -10 -27 -7 -42 12 -59 47 -167 60 -182 8 -9 17
-24 20 -33 4 -10 13 -18 22 -18 20 0 19 13 -4 34 -10 10 -21 27 -24 39 -5 21
-5 21 6 3 16 -26 56 -66 97 -98 19 -15 29 -27 22 -28 -7 0 -24 11 -38 25 -26
26 -44 32 -44 16 0 -12 63 -61 78 -61 7 0 12 -4 12 -10 0 -5 6 -10 14 -10 8 0
38 -12 67 -26 71 -36 188 -35 266 1 28 14 54 25 57 25 8 0 65 40 115 80 51 42
80 89 60 100 -18 12 -39 1 -85 -44 -79 -77 -132 -108 -218 -126 -80 -16 -184
9 -260 62 -21 16 -43 28 -47 28 -11 0 -59 45 -59 55 0 4 -7 13 -15 19 -15 11
-45 109 -45 145 0 10 -8 28 -19 40 -16 18 -20 19 -31 6z m761 -213 c-5 -10
-22 -27 -37 -38 -14 -10 -36 -28 -48 -40 -28 -27 -115 -78 -122 -71 -3 3 4 8
15 12 12 3 21 10 21 15 0 4 10 10 23 14 13 3 50 32 83 65 60 61 83 76 65 43z
m-521 -120 c0 -4 15 -14 33 -22 22 -11 66 -15 148 -15 109 0 114 -1 75 -13
-78 -24 -201 -4 -267 42 -19 13 -20 16 -6 16 9 0 17 -3 17 -8z"/>
<path d="M2792 5607 c-18 -19 -36 -47 -41 -63 -9 -34 5 -84 24 -84 8 0 18 -7
23 -16 8 -14 21 -16 67 -12 50 4 62 10 87 37 30 34 31 59 2 92 -8 8 -14 24
-14 34 0 27 -30 44 -76 45 -33 0 -46 -6 -72 -33z m122 -20 c30 -39 32 -47 11
-47 -8 0 -15 -4 -15 -9 0 -6 -9 -9 -20 -8 -11 1 -20 4 -20 8 0 4 -8 9 -18 11
-25 7 -29 65 -5 71 35 9 42 6 67 -26z"/>
<path d="M3027 5006 c-20 -19 -42 -55 -52 -85 -15 -46 -15 -54 -2 -74 22 -34
86 -52 130 -38 36 12 97 87 97 119 0 8 -16 36 -36 63 -46 63 -84 67 -137 15z
m99 -4 c12 -9 27 -27 34 -40 10 -20 8 -26 -10 -42 -16 -14 -28 -16 -58 -9 -20
5 -40 9 -43 9 -10 0 0 70 13 85 17 19 38 18 64 -3z"/>
<path d="M3168 4215 c-45 -30 -58 -52 -58 -102 0 -28 8 -48 28 -72 24 -28 34
-33 70 -33 45 1 70 14 101 53 34 43 31 93 -6 136 -39 43 -86 50 -135 18z m131
-45 c19 -44 10 -56 -38 -52 -22 2 -39 8 -36 12 3 4 -2 13 -10 20 -24 20 -17
39 18 48 41 11 49 8 66 -28z m-106 -85 c-3 -9 -8 -14 -10 -11 -3 3 -2 9 2 15
9 16 15 13 8 -4z"/>
<path d="M675 5600 c-3 -5 -1 -10 5 -10 5 0 18 -16 27 -35 17 -35 43 -54 43
-31 0 7 -9 21 -20 31 -11 10 -22 26 -25 36 -7 21 -20 25 -30 9z"/>
<path d="M590 5551 c0 -14 50 -51 68 -51 11 0 4 11 -18 30 -37 31 -50 36 -50
21z"/>
<path d="M502 5478 c5 -14 68 -23 68 -10 0 10 -33 22 -58 22 -8 0 -12 -5 -10
-12z"/>
<path d="M1016 5421 c5 -5 26 -16 47 -25 31 -13 37 -13 37 -1 0 8 -9 19 -19
25 -24 13 -79 14 -65 1z"/>
<path d="M458 5383 c-10 -2 -18 -11 -18 -19 0 -11 6 -13 23 -8 12 4 24 10 27
14 3 4 14 10 25 13 13 3 10 5 -10 5 -16 0 -38 -2 -47 -5z"/>
<path d="M1026 5363 c-11 -11 -6 -23 7 -23 8 0 22 -9 32 -20 21 -23 35 -26 35
-6 0 15 -65 58 -74 49z"/>
<path d="M450 5281 c-27 -25 -39 -51 -25 -51 7 0 75 68 75 75 0 13 -23 3 -50
-24z"/>
<path d="M1040 5289 c0 -15 42 -79 53 -79 14 0 7 18 -23 55 -16 21 -30 32 -30
24z"/>
<path d="M1020 5213 c0 -11 7 -36 15 -54 l16 -34 -5 44 c-5 46 -26 82 -26 44z"/>
<path d="M505 5212 c-13 -9 -45 -67 -45 -81 0 -18 20 -13 26 7 3 9 12 30 21
45 15 29 15 41 -2 29z"/>
<path d="M984 5128 c7 -45 12 -55 22 -45 10 9 -7 87 -18 87 -7 0 -8 -15 -4
-42z"/>
<path d="M542 5133 c-6 -10 -13 -34 -16 -53 l-7 -35 19 30 c25 39 36 75 23 75
-6 0 -14 -8 -19 -17z"/>
<path d="M920 5117 c0 -31 13 -77 22 -77 14 0 5 83 -9 88 -7 2 -13 -3 -13 -11z"/>
<path d="M871 5058 c0 -39 3 -48 9 -33 12 28 12 85 0 85 -5 0 -10 -24 -9 -52z"/>
<path d="M580 5054 c-17 -43 -11 -50 15 -19 28 35 31 45 10 45 -9 0 -20 -12
-25 -26z"/>
<path d="M630 5051 c-6 -16 -10 -38 -7 -48 4 -17 4 -17 11 2 4 11 12 28 17 37
11 22 12 38 0 38 -5 0 -14 -13 -21 -29z"/>
<path d="M760 5035 c0 -25 5 -45 10 -45 6 0 10 20 10 45 0 25 -4 45 -10 45 -5
0 -10 -20 -10 -45z"/>
<path d="M715 5040 c-17 -33 -21 -95 -5 -85 6 3 10 16 10 28 0 12 7 35 15 51
18 33 18 36 5 36 -5 0 -16 -13 -25 -30z"/>
</g>
</svg>
