<?xml version="1.0" standalone="no"?>
<!DOCTYPE svg PUBLIC "-//W3C//DTD SVG 20010904//EN"
 "http://www.w3.org/TR/2001/REC-SVG-20010904/DTD/svg10.dtd">
<svg version="1.0" xmlns="http://www.w3.org/2000/svg"
 width="807.000000pt" height="900.000000pt" viewBox="0 0 807.000000 900.000000"
 preserveAspectRatio="xMidYMid meet">

<g transform="translate(0.000000,900.000000) scale(0.100000,-0.100000)"
fill="#000000" stroke="none">
<path d="M3763 8728 c-132 -145 -452 -497 -712 -783 -260 -286 -477 -521 -482
-523 -5 -2 -9 141 -9 362 l0 366 50 0 50 0 0 140 0 140 -590 0 -590 0 0 -140
0 -140 50 0 50 0 0 -912 -1 -913 -784 -862 c-431 -473 -787 -872 -790 -886 -5
-18 16 -67 91 -208 53 -101 137 -263 186 -359 111 -216 202 -349 238 -350 40
0 103 34 143 76 49 52 71 110 65 177 l-4 53 31 -4 c51 -6 109 15 158 58 62 55
90 115 85 185 l-3 55 45 0 c61 1 117 28 166 82 50 54 68 103 62 172 l-4 52 28
-4 c85 -13 203 68 233 159 9 27 15 70 13 94 l-3 45 40 0 c48 0 119 31 159 68
36 34 76 117 76 159 0 27 4 32 33 38 123 27 222 160 201 271 -7 36 -6 37 18
31 41 -11 121 19 170 63 55 48 80 105 80 183 l0 57 44 0 c123 0 226 110 225
241 l0 59 47 0 c65 0 140 44 181 106 34 52 45 94 39 154 l-4 40 46 0 c124 1
229 111 230 243 l0 57 40 0 c54 0 99 20 150 67 55 49 80 103 80 176 l0 57 38
0 c85 0 198 87 223 170 6 20 10 59 8 86 l-4 49 50 1 c125 2 233 122 224 251
l-4 50 107 -1 107 -1 -6 -42 c-13 -99 69 -219 172 -249 31 -9 68 -14 81 -11
22 4 23 2 18 -37 -18 -126 95 -258 221 -260 l51 -1 -4 -48 c-12 -125 107 -257
233 -257 l40 0 -3 -49 c-9 -128 109 -251 240 -251 l36 0 -6 -45 c-13 -123 104
-254 228 -255 l45 0 -4 -51 c-8 -126 103 -249 226 -249 l48 0 -4 -51 c-4 -66
18 -124 70 -177 47 -50 97 -73 159 -74 l45 -1 -4 -50 c-7 -105 69 -212 173
-242 43 -13 56 -21 56 -35 0 -36 32 -114 61 -150 40 -49 98 -80 164 -87 53 -6
54 -6 48 -34 -9 -44 16 -125 53 -173 40 -53 120 -96 178 -96 l41 0 1 -63 c0
-99 50 -174 144 -216 25 -11 63 -21 85 -21 l40 0 1 -63 c0 -99 50 -174 144
-216 25 -11 63 -21 85 -21 l40 0 0 -62 c1 -44 7 -75 22 -104 37 -70 126 -134
186 -134 43 0 135 145 332 520 101 194 187 361 190 371 4 10 1 28 -6 41 -7 12
-125 146 -263 298 -138 151 -339 372 -446 490 -108 118 -353 388 -546 600
-192 212 -576 635 -854 940 -277 305 -572 629 -655 720 -82 91 -393 432 -689
758 -503 553 -541 592 -571 592 -31 0 -52 -21 -272 -262z"/>
<path d="M3921 6349 c-308 -40 -576 -259 -652 -534 l-16 -60 -329 -5 -329 -5
0 -795 0 -795 298 -3 297 -2 0 -130 0 -130 873 0 872 0 -4 130 -3 130 296 0
296 0 -2 798 -3 797 -328 3 c-322 2 -329 2 -334 -18 -10 -40 -28 -18 -50 59
-23 84 -80 211 -95 211 -4 0 -8 7 -8 15 0 9 -37 53 -82 99 -132 132 -274 204
-463 232 -99 15 -138 16 -234 3z m252 -165 c204 -46 383 -201 455 -397 12 -32
22 -62 22 -67 0 -6 -228 -10 -616 -10 l-616 0 7 33 c27 131 173 309 315 382
137 71 287 92 433 59z m-683 -734 c28 -15 88 -12 116 6 14 10 32 31 41 48 11
22 18 26 21 16 2 -8 18 -30 35 -47 53 -56 133 -42 177 29 l18 30 16 -30 c19
-37 53 -62 83 -62 l23 0 0 -215 0 -215 -380 0 -380 0 0 215 0 215 44 0 c48 0
99 33 111 71 6 19 9 18 31 -15 13 -19 33 -40 44 -46z m701 6 c38 -26 101 -21
131 12 14 15 30 36 36 46 9 18 11 17 25 -11 21 -40 58 -63 102 -63 47 0 69 13
99 56 22 33 25 34 31 15 12 -38 63 -71 110 -71 35 0 49 6 74 31 17 17 31 35
31 40 0 5 5 9 10 9 6 0 10 -92 10 -255 l0 -255 -370 0 -370 0 0 241 c0 155 4
248 11 261 10 19 12 19 29 -10 10 -16 29 -37 41 -46z m-173 -798 l2 -268 -380
0 -380 0 0 270 0 270 378 -2 377 -3 3 -267z m832 2 l0 -270 -370 0 -370 0 0
270 0 270 370 0 370 0 0 -270z m-1317 -427 c-7 -2 -19 -2 -25 0 -7 3 -2 5 12
5 14 0 19 -2 13 -5z m60 0 c-7 -2 -19 -2 -25 0 -7 3 -2 5 12 5 14 0 19 -2 13
-5z m70 0 c-7 -2 -19 -2 -25 0 -7 3 -2 5 12 5 14 0 19 -2 13 -5z m60 0 c-7 -2
-19 -2 -25 0 -7 3 -2 5 12 5 14 0 19 -2 13 -5z m280 0 c-7 -2 -19 -2 -25 0 -7
3 -2 5 12 5 14 0 19 -2 13 -5z m60 0 c-7 -2 -19 -2 -25 0 -7 3 -2 5 12 5 14 0
19 -2 13 -5z m70 0 c-7 -2 -19 -2 -25 0 -7 3 -2 5 12 5 14 0 19 -2 13 -5z m64
1 c-3 -3 -12 -4 -19 -1 -8 3 -5 6 6 6 11 1 17 -2 13 -5z m-727 -34 c0 -6 -25
-9 -57 -9 -48 1 -53 3 -28 9 45 11 85 11 85 0z m58 3 c-10 -2 -26 -2 -35 0
-10 3 -2 5 17 5 19 0 27 -2 18 -5z m72 -3 c0 -5 -9 -10 -19 -10 -11 0 -23 5
-26 10 -4 6 5 10 19 10 14 0 26 -4 26 -10z m70 0 c0 -5 -11 -10 -25 -10 -14 0
-25 5 -25 10 0 6 11 10 25 10 14 0 25 -4 25 -10z m190 3 c23 -7 21 -8 -15 -14
-38 -6 143 -12 293 -10 36 0 62 -4 62 -10 0 -6 -45 -9 -125 -7 -69 2 -125 0
-125 -4 0 -5 29 -8 65 -8 40 0 65 -4 65 -11 0 -6 -15 -10 -32 -9 -56 3 -73 1
-63 -9 12 -12 97 -17 112 -8 6 4 24 2 39 -4 20 -7 30 -7 32 0 2 6 8 8 13 5 5
-3 94 -6 196 -6 114 0 181 -3 172 -9 -11 -7 -8 -9 10 -9 16 0 22 4 17 15 -3 9
0 15 9 15 8 0 15 -4 15 -10 0 -13 37 -13 42 -1 2 6 25 6 58 2 47 -7 50 -9 20
-11 -51 -4 -54 -5 -65 -12 -5 -3 -33 -6 -62 -6 -29 -1 -60 -5 -70 -10 -29 -15
-104 -22 -96 -9 4 7 0 8 -13 3 -10 -5 -37 -10 -59 -12 -34 -3 -32 -2 15 10 30
8 58 12 62 10 5 -3 8 -1 8 3 0 5 18 7 40 5 26 -3 40 0 40 7 0 9 -28 10 -102 5
-57 -4 -112 -7 -123 -6 -48 3 -129 2 -133 -3 -3 -3 -11 0 -19 6 -7 7 -13 7
-13 2 0 -6 -11 -8 -25 -5 -17 3 -30 -1 -39 -13 -11 -15 -22 -16 -86 -10 -40 4
-107 8 -148 9 -41 0 -77 6 -79 11 -3 10 182 4 264 -9 18 -2 35 0 38 5 4 5 1
10 -4 11 -33 4 -108 9 -197 11 -56 1 -107 7 -115 13 -18 15 -69 24 -69 13 0
-5 14 -9 30 -9 17 0 30 -4 30 -10 0 -5 -44 -9 -102 -9 -57 0 -136 -3 -176 -6
-46 -3 -71 -1 -67 5 9 14 -19 12 -34 -2 -9 -9 -12 -9 -7 -1 3 6 -1 13 -11 16
-10 3 2 5 27 6 32 1 41 4 30 11 -8 5 -11 12 -7 16 4 4 100 6 213 6 185 -1 235
5 169 21 -14 3 -12 5 10 6 29 2 30 2 6 12 -13 5 -39 7 -57 3 -22 -4 -34 -2
-34 5 0 13 129 15 170 4z m85 -3 c4 -6 -7 -10 -24 -10 -17 0 -31 5 -31 10 0 6
11 10 24 10 14 0 28 -4 31 -10z m131 -3 c4 -4 -21 -7 -55 -7 -41 0 -60 4 -56
11 7 11 99 8 111 -4z m134 1 c0 -4 -26 -7 -57 -7 -45 1 -51 3 -28 8 42 10 85
9 85 -1z m138 -3 c3 -3 -22 -5 -56 -5 -33 0 -63 4 -66 9 -6 9 113 5 122 -4z
m62 5 c0 -5 -11 -10 -25 -10 -14 0 -25 5 -25 10 0 6 11 10 25 10 14 0 25 -4
25 -10z m75 0 c4 -6 -7 -10 -27 -10 -25 0 -29 3 -18 10 19 13 37 13 45 0z m65
0 c0 -5 -11 -10 -25 -10 -14 0 -25 5 -25 10 0 6 11 10 25 10 14 0 25 -4 25
-10z m176 -2 c3 -4 -31 -8 -75 -8 -45 0 -81 4 -81 9 0 12 149 11 156 -1z
m-996 -26 c0 -4 -74 -7 -165 -7 -174 0 -214 12 -57 17 114 4 222 -1 222 -10z
m-350 -2 c0 -6 -11 -8 -27 -4 -40 10 -41 14 -5 14 18 0 32 -5 32 -10z m960 0
c10 -7 -5 -10 -53 -10 -43 0 -66 4 -62 10 8 13 95 13 115 0z m394 1 c3 -4 -14
-8 -37 -8 -120 0 -200 -4 -195 -9 4 -3 49 -5 102 -5 52 0 98 -4 101 -10 7 -10
6 -10 -287 -12 -115 -1 -208 0 -208 3 0 3 -27 3 -60 2 -39 -3 -60 0 -60 7 0
12 16 12 260 12 111 -1 141 2 126 10 -11 7 -37 9 -68 5 -33 -5 -48 -3 -43 3 7
13 362 15 369 2z m-1381 -28 c-7 -2 -19 -2 -25 0 -7 3 -2 5 12 5 14 0 19 -2
13 -5z m391 -69 c5 -14 4 -15 -8 -5 -10 9 -39 11 -93 7 -43 -2 -123 -7 -178
-10 l-100 -5 100 13 c55 7 139 14 186 15 72 1 88 -2 93 -15z m991 -4 c-44 -11
-67 -11 -60 0 3 6 25 9 48 9 40 -1 40 -2 12 -9z m-430 -10 c6 -9 -184 -4 -194
6 -2 2 39 4 92 4 53 0 98 -4 102 -10z m333 3 c-16 -2 -40 -2 -55 0 -16 2 -3 4
27 4 30 0 43 -2 28 -4z m-1048 -13 c0 -5 -2 -10 -4 -10 -3 0 -8 5 -11 10 -3 6
-1 10 4 10 6 0 11 -4 11 -10z m135 0 c3 -5 2 -10 -4 -10 -5 0 -13 5 -16 10 -3
6 -2 10 4 10 5 0 13 -4 16 -10z m70 0 c3 -5 -1 -10 -9 -10 -9 0 -16 5 -16 10
0 6 4 10 9 10 6 0 13 -4 16 -10z m-361 -9 c4 -5 -3 -7 -14 -4 -23 6 -26 13 -6
13 8 0 17 -4 20 -9z m434 2 c-10 -2 -28 -2 -40 0 -13 2 -5 4 17 4 22 1 32 -1
23 -4z m255 -10 c-7 -2 -21 -2 -30 0 -10 3 -4 5 12 5 17 0 24 -2 18 -5z m605
0 c-10 -2 -26 -2 -35 0 -10 3 -2 5 17 5 19 0 27 -2 18 -5z m-305 -10 c-7 -2
-19 -2 -25 0 -7 3 -2 5 12 5 14 0 19 -2 13 -5z m190 0 c-7 -2 -21 -2 -30 0
-10 3 -4 5 12 5 17 0 24 -2 18 -5z"/>
<path d="M3959 6056 c-53 -26 -61 -113 -20 -194 24 -47 96 -112 125 -112 33 0
120 98 135 153 24 86 -5 160 -63 160 -30 0 -66 -28 -66 -52 0 -11 -9 -5 -25
15 -29 37 -55 46 -86 30z"/>
<path d="M3815 4160 c4 -6 31 -10 61 -10 30 0 53 4 50 9 -3 5 -31 9 -61 10
-33 0 -53 -4 -50 -9z"/>
<path d="M3455 4129 c-33 -4 -6 -6 78 -7 75 -1 127 2 127 8 0 10 -118 9 -205
-1z"/>
<path d="M3770 4129 c-14 -4 21 -7 83 -8 59 -1 107 2 107 7 0 9 -157 11 -190
1z"/>
<path d="M2220 3036 c-175 -38 -327 -206 -391 -431 -22 -77 -23 -99 -27 -547
l-4 -468 -54 0 -54 0 0 -85 0 -85 631 0 c571 0 631 1 625 16 -3 9 -6 47 -6 85
l0 69 -60 0 -60 0 0 419 c0 421 -7 531 -37 626 -20 61 -93 205 -105 205 -4 0
-8 5 -8 11 0 21 -107 114 -166 146 -57 30 -150 54 -203 52 -14 0 -51 -6 -81
-13z m235 -164 c70 -35 147 -118 189 -204 44 -91 62 -160 71 -277 l8 -91 -187
0 -186 0 0 305 0 305 28 -6 c15 -4 49 -18 77 -32z m-235 -277 l0 -295 -155 0
-155 0 0 78 c0 149 58 308 148 405 48 51 125 107 149 107 10 0 13 -59 13 -295z
m0 -710 l0 -296 -156 3 -156 3 1 160 c0 88 0 220 0 293 l1 132 155 0 155 0 0
-295z m500 0 l0 -295 -185 0 -185 0 0 295 0 295 185 0 185 0 0 -295z"/>
<path d="M5873 3040 c-171 -34 -328 -202 -394 -420 -22 -73 -23 -90 -27 -542
l-3 -468 -65 0 -64 0 0 -85 0 -85 630 0 630 0 0 85 0 85 -60 0 -60 0 0 438 c0
240 -4 463 -9 494 -16 93 -67 222 -95 240 -6 4 -7 8 -3 8 15 0 -34 63 -97 126
-109 108 -243 151 -383 124z m7 -460 l0 -320 -165 0 -165 0 0 78 c0 179 64
356 166 458 43 44 131 102 157 104 4 0 7 -144 7 -320z m217 295 c73 -37 157
-130 199 -221 45 -96 64 -185 64 -301 l0 -93 -170 0 c-93 0 -170 3 -171 8 -3
26 -4 600 -1 615 6 23 19 22 79 -8z m-217 -995 l0 -270 -165 0 -165 0 0 263
c0 145 3 267 7 270 3 4 78 7 165 7 l158 0 0 -270z m480 0 l0 -270 -172 2 -173
3 2 235 c1 129 2 250 2 268 l1 32 170 0 170 0 0 -270z"/>
<path d="M4001 2869 c-292 -57 -554 -272 -713 -585 -31 -60 -67 -141 -81 -179
-40 -111 -78 -299 -83 -409 -3 -56 -6 -460 -7 -899 l-2 -797 113 0 112 0 0
813 c0 867 0 883 51 1064 128 460 475 755 837 711 146 -17 270 -79 393 -196
128 -121 219 -271 284 -465 69 -211 69 -202 73 -1109 l3 -818 107 0 107 0 -2
732 c-4 1010 -6 1059 -36 1188 -119 502 -435 861 -833 945 -75 16 -252 18
-323 4z"/>
<path d="M4605 1226 c-137 -60 -138 -295 -2 -357 54 -24 81 -24 131 1 70 34
114 124 101 204 -19 123 -130 196 -230 152z"/>
</g>
</svg>
