<?xml version="1.0" standalone="no"?>
<!DOCTYPE svg PUBLIC "-//W3C//DTD SVG 20010904//EN"
 "http://www.w3.org/TR/2001/REC-SVG-20010904/DTD/svg10.dtd">
<svg version="1.0" xmlns="http://www.w3.org/2000/svg"
 width="172.000000pt" height="203.000000pt" viewBox="0 0 172.000000 203.000000"
 preserveAspectRatio="xMidYMid meet">

<g transform="translate(0.000000,203.000000) scale(0.100000,-0.100000)"
fill="#000000" stroke="none">
<path d="M685 2001 c-148 -68 -256 -268 -225 -417 15 -71 49 -108 113 -125 41
-10 46 -14 45 -40 -1 -36 -12 -37 -105 -5 -139 47 -229 46 -305 -4 -83 -55
-106 -135 -78 -276 13 -65 10 -133 -9 -229 -10 -48 -10 -68 1 -99 21 -63 76
-92 136 -72 l22 7 0 -185 0 -186 -27 0 c-16 0 -66 7 -113 15 -47 8 -88 15 -92
15 -25 0 12 -191 51 -268 23 -46 18 -44 227 -68 208 -23 609 -12 750 21 14 3
37 32 65 80 24 42 52 78 63 82 12 4 80 6 151 4 114 -2 138 0 189 19 198 75
220 289 33 330 -100 23 -219 -20 -365 -130 -69 -52 -93 -65 -149 -76 -36 -8
-68 -12 -70 -10 -2 2 -1 82 3 178 l7 174 33 22 c58 38 67 69 59 196 -5 87 -3
125 9 173 32 124 13 207 -64 277 -77 70 -211 75 -331 13 -37 -19 -70 -32 -74
-29 -13 13 -4 63 13 68 91 27 147 86 158 166 8 56 -7 104 -54 178 -43 67 -54
136 -27 176 24 36 7 46 -40 25z m8 -68 c-4 -55 -2 -62 41 -133 67 -110 73
-196 19 -260 -53 -63 -149 -88 -212 -55 -94 48 -86 257 15 390 32 41 118 114
136 115 3 0 4 -26 1 -57z m297 -515 c67 -34 110 -103 110 -177 0 -31 -7 -78
-16 -106 -12 -39 -14 -75 -9 -167 7 -122 3 -140 -38 -185 -27 -30 -41 -29 -33
1 5 19 1 26 -13 31 -27 8 -34 36 -26 96 9 63 -11 99 -55 99 -28 0 -60 22 -60
41 0 23 -42 49 -79 49 -30 0 -49 -8 -86 -39 -63 -52 -125 -61 -188 -29 -29 15
-92 12 -119 -6 -34 -22 -48 -57 -48 -117 0 -92 -50 -163 -115 -163 -75 0 -99
67 -70 196 18 77 18 83 0 193 -22 138 -14 179 46 237 72 69 169 76 324 24
l100 -33 -39 -17 c-21 -10 -66 -23 -100 -29 l-61 -12 43 -3 c54 -4 120 18 197
64 127 77 248 96 335 52z m-191 -339 c19 -7 33 -20 37 -35 8 -31 27 -45 63
-46 44 -1 51 -16 48 -95 -2 -57 2 -75 17 -92 17 -19 18 -35 14 -220 -2 -111
-7 -204 -11 -207 -22 -23 -384 -42 -559 -29 l-108 7 0 198 c0 177 2 203 19
232 11 19 21 61 24 100 9 120 50 148 171 116 83 -22 116 -15 178 35 24 19 50
37 58 40 8 3 15 6 16 6 1 1 15 -4 33 -10z m804 -503 c52 -19 75 -42 83 -82 15
-78 -40 -159 -136 -202 -51 -23 -66 -24 -201 -23 -171 1 -169 2 -227 -99 l-38
-65 -69 -12 c-196 -32 -515 -33 -765 -2 -133 16 -126 11 -154 97 -23 69 -45
192 -35 192 2 0 38 -7 80 -15 202 -38 563 -42 804 -9 161 22 182 30 275 99
167 123 278 158 383 121z"/>
<path d="M1383 483 c-54 -19 -150 -102 -131 -114 7 -5 58 -9 113 -9 113 0 159
16 185 63 14 27 14 29 -13 53 -33 28 -88 31 -154 7z m138 -13 c10 -6 19 -19
19 -29 0 -42 -98 -73 -202 -64 l-59 6 23 25 c51 55 169 88 219 62z"/>
</g>
</svg>
