<?xml version="1.0" standalone="no"?>
<!DOCTYPE svg PUBLIC "-//W3C//DTD SVG 20010904//EN"
 "http://www.w3.org/TR/2001/REC-SVG-20010904/DTD/svg10.dtd">
<svg version="1.0" xmlns="http://www.w3.org/2000/svg"
 width="649.000000pt" height="670.000000pt" viewBox="0 0 649.000000 670.000000"
 preserveAspectRatio="xMidYMid meet">

<g transform="translate(0.000000,670.000000) scale(0.100000,-0.100000)"
fill="#000000" stroke="none">
<path d="M2016 6485 c-97 -25 -177 -99 -211 -195 -22 -63 -20 -181 5 -236 27
-58 78 -114 142 -155 44 -28 61 -33 132 -37 147 -8 270 49 331 152 9 16 14 15
57 -9 50 -28 88 -33 149 -20 33 7 39 4 73 -33 20 -21 54 -47 76 -57 l38 -17
-45 -57 c-26 -30 -55 -75 -66 -100 -21 -48 -24 -130 -7 -177 10 -26 9 -31 -11
-44 -47 -31 -137 -110 -161 -142 -53 -70 -68 -113 -68 -195 0 -43 5 -97 10
-121 10 -40 8 -47 -17 -80 -46 -61 -53 -79 -53 -141 0 -69 65 -271 107 -333
23 -35 25 -41 14 -83 -6 -24 -12 -104 -12 -177 -1 -119 2 -141 25 -213 27 -80
91 -200 120 -225 21 -16 20 -26 -2 -51 -18 -19 -20 -19 -103 25 -157 83 -461
189 -621 217 -84 14 -162 51 -253 119 -88 65 -165 102 -285 134 -150 40 -192
52 -232 66 -30 11 -44 11 -75 1 -36 -12 -46 -10 -187 43 -81 31 -152 53 -157
50 -21 -12 -8 -41 23 -51 43 -15 252 -95 257 -99 2 -2 1 -10 -2 -18 -5 -11
-12 -13 -34 -6 -51 17 -158 42 -183 44 -16 1 -26 -5 -28 -16 -3 -18 19 -26
173 -66 64 -16 70 -20 73 -46 l4 -29 -64 7 c-35 4 -83 16 -107 27 -57 25 -91
25 -91 0 0 -24 46 -43 161 -67 80 -16 85 -19 81 -40 -2 -12 -9 -21 -16 -19 -6
3 -29 7 -51 9 -22 3 -62 10 -90 16 -97 22 -112 23 -118 6 -4 -9 1 -19 11 -25
23 -12 136 -38 200 -46 50 -7 67 -20 38 -31 -12 -5 -42 -1 -193 23 -25 4 -33
1 -33 -10 0 -24 20 -34 104 -51 44 -9 81 -18 83 -20 2 -2 1 -10 -2 -18 -5 -11
-19 -13 -73 -7 -116 13 -142 12 -142 -10 0 -23 20 -29 128 -37 58 -5 82 -11
82 -20 0 -10 -33 -14 -147 -16 -124 -3 -148 -5 -148 -18 0 -12 27 -16 157 -22
107 -5 165 -12 180 -21 13 -8 46 -20 73 -26 28 -7 66 -16 85 -21 19 -5 67 -17
105 -25 39 -9 123 -34 188 -56 64 -21 125 -39 134 -39 48 0 155 -43 200 -81
26 -22 60 -47 75 -55 15 -7 127 -34 249 -58 122 -25 223 -46 225 -48 1 -2 -24
-26 -58 -53 -91 -75 -231 -228 -292 -319 -154 -232 -258 -530 -301 -861 -11
-84 -16 -110 -23 -116 -4 -3 -28 -22 -54 -43 -76 -59 -58 -107 18 -50 19 15
36 25 38 23 2 -2 6 -71 9 -154 5 -154 27 -293 66 -411 29 -88 85 -215 115
-263 14 -22 26 -43 26 -46 0 -3 16 -29 36 -58 280 -402 757 -690 1294 -782
170 -29 581 -9 820 40 14 3 41 8 60 11 58 10 239 63 330 96 112 40 319 143
400 198 224 151 407 351 505 550 25 52 52 106 59 120 20 38 73 187 91 257 104
410 82 903 -56 1251 -127 320 -368 587 -681 752 l-46 24 0 61 c0 65 -17 115
-63 184 l-30 43 26 34 c75 98 115 234 115 391 0 108 1 114 23 122 46 18 69 57
88 148 36 172 49 264 49 351 0 151 -30 203 -153 267 -52 27 -57 33 -52 55 3
14 11 53 17 88 44 231 -153 492 -407 535 l-64 11 -47 79 c-64 108 -165 209
-230 230 -66 21 -156 29 -230 19 l-61 -8 -74 68 c-161 149 -243 200 -358 224
-123 26 -260 15 -418 -33 l-82 -24 -68 24 c-89 32 -160 41 -211 27 -41 -10
-42 -10 -76 28 -78 86 -203 119 -330 87z m173 -61 c37 -10 69 -30 103 -62 50
-46 50 -47 44 -96 -4 -34 0 -65 14 -107 25 -73 25 -84 -1 -125 -60 -98 -231
-143 -344 -90 -56 26 -117 88 -140 142 -52 125 31 302 157 334 24 6 48 13 53
15 22 8 64 4 114 -11z m987 -105 c32 -5 82 -22 111 -36 59 -29 182 -128 260
-208 l52 -53 129 6 c86 3 140 1 165 -7 71 -24 179 -146 245 -277 20 -40 23
-41 83 -48 58 -6 127 -24 139 -36 3 -3 18 -12 34 -20 65 -33 135 -110 177
-194 46 -94 57 -163 36 -246 l-13 -55 -38 2 c-20 2 -49 9 -64 18 -15 8 -54 22
-87 31 -118 31 -210 55 -225 58 -8 1 -22 5 -30 9 -8 3 -58 13 -110 21 -52 8
-122 21 -155 28 -75 15 -581 16 -675 0 -170 -29 -239 -43 -304 -63 -112 -34
-235 -91 -274 -126 -7 -7 -17 -13 -20 -13 -4 0 -18 -10 -32 -23 -34 -32 -57
-39 -64 -21 -3 9 -6 51 -6 94 0 76 1 79 43 136 41 56 162 163 200 177 21 8 22
33 2 80 -23 57 -19 118 11 163 47 70 94 123 134 151 47 33 51 53 12 53 -49 0
-136 38 -167 73 -46 52 -65 59 -150 51 l-74 -7 -55 56 c-59 59 -73 97 -63 164
9 51 20 58 91 57 48 -1 77 -9 127 -34 36 -18 73 -29 84 -26 11 2 52 15 90 27
149 46 268 58 381 38z m654 -1063 c401 -55 851 -198 934 -297 45 -53 43 -220
-5 -454 -21 -105 -28 -122 -57 -134 -22 -9 -34 -8 -67 8 -59 28 -224 85 -360
125 -364 105 -833 161 -1159 136 -265 -19 -414 -50 -513 -105 -39 -21 -43 -22
-56 -6 -29 34 -97 237 -97 292 0 50 44 112 131 183 176 145 364 214 680 250
157 18 441 19 569 2z m-378 -676 c84 -6 189 -15 233 -21 103 -13 269 -40 273
-43 1 -2 -23 -6 -54 -9 -147 -15 -217 -156 -148 -296 48 -96 145 -132 256 -96
155 50 196 217 81 333 -23 23 -49 42 -57 42 -8 0 -18 4 -21 10 -3 5 0 8 7 5 7
-2 63 -16 123 -31 122 -29 312 -90 423 -136 l72 -30 0 -107 c0 -337 -208 -573
-595 -676 -44 -11 -122 -27 -150 -30 -228 -26 -481 -24 -609 5 -353 81 -618
276 -695 514 -38 117 -45 201 -27 317 15 96 19 106 48 132 64 54 207 91 433
112 184 16 226 17 407 5z m409 -150 c39 -21 12 -74 -32 -63 -22 6 -26 42 -7
61 15 15 15 15 39 2z m-2668 -211 c20 -8 27 -18 27 -38 0 -50 -31 -173 -56
-223 -14 -28 -31 -82 -39 -120 -16 -88 -27 -100 -79 -88 -48 11 -55 18 -63 63
-4 30 -1 43 21 71 14 19 26 46 26 60 0 14 4 26 8 26 10 0 32 143 32 204 0 22
7 47 16 57 16 18 40 15 107 -12z m115 -34 c10 -9 -25 -141 -55 -209 -19 -44
-39 -105 -43 -137 -10 -72 -34 -121 -56 -112 -11 4 -14 13 -10 32 4 14 13 53
20 86 7 33 22 79 34 101 21 41 30 74 53 192 11 57 14 62 33 56 12 -4 22 -8 24
-9z m160 -45 c42 -17 88 -39 100 -49 l24 -18 -35 -84 c-20 -46 -57 -139 -83
-206 -26 -68 -53 -123 -60 -123 -6 0 -40 9 -75 19 -35 10 -77 22 -93 25 -26 6
-28 9 -21 39 4 18 11 55 14 82 4 28 23 84 43 125 20 41 42 108 49 148 16 86
20 88 137 42z m199 -126 c3 -8 -6 -31 -19 -52 -14 -20 -31 -55 -38 -77 -7 -22
-25 -75 -41 -117 -16 -42 -29 -84 -29 -93 0 -33 -18 -53 -45 -47 -37 7 -39 16
-15 69 12 27 38 91 57 143 19 52 46 121 60 152 23 51 28 56 45 47 10 -6 22
-17 25 -25z m103 -53 c34 -16 80 -33 101 -36 38 -7 49 -18 29 -30 -18 -11 -77
-138 -84 -180 -4 -22 -8 -44 -10 -50 -1 -5 -8 -38 -15 -71 l-13 -62 -57 29
c-31 16 -62 29 -70 29 -38 0 -91 24 -91 41 0 10 5 21 10 24 6 3 10 15 10 25 0
10 14 52 30 93 17 42 30 83 30 92 0 13 59 123 67 125 0 0 29 -13 63 -29z m210
-62 c0 -6 -9 -28 -20 -48 -67 -124 -100 -227 -100 -314 0 -65 -1 -67 -21 -57
-11 6 -23 18 -26 27 -5 14 23 151 50 243 23 78 117 198 117 149z m155 -40 c50
-17 93 -34 98 -38 4 -4 -10 -41 -31 -82 -40 -77 -92 -247 -92 -300 0 -24 -4
-29 -17 -26 -10 3 -57 13 -105 22 l-87 18 -6 52 c-11 83 4 137 77 288 26 53
53 97 60 97 7 0 54 -14 103 -31z m183 -78 c-14 -32 -64 -155 -79 -193 -11 -26
-19 -67 -19 -91 0 -25 -3 -58 -6 -74 -5 -26 -9 -29 -36 -25 -16 3 -32 10 -34
17 -14 35 64 278 116 363 17 28 23 31 41 22 11 -6 19 -15 17 -19z m115 -34
c43 -20 42 -17 21 -94 -20 -76 -44 -218 -44 -265 0 -21 -2 -38 -6 -38 -17 0
-150 33 -157 39 -14 13 14 163 44 239 49 124 67 152 87 144 9 -5 34 -16 55
-25z m77 -84 c-16 -48 -34 -70 -24 -28 11 48 24 78 30 72 3 -3 1 -23 -6 -44z
m175 -3 c-22 -44 -25 -62 -26 -167 l-1 -118 -20 44 c-19 42 -19 47 -4 127 15
84 48 164 66 164 6 0 -1 -22 -15 -50z m1876 -22 c38 -72 42 -129 15 -222 -25
-84 -36 -79 -36 16 -1 72 -5 93 -34 158 -31 68 -32 77 -18 93 25 28 37 20 73
-45z m-1974 31 c7 -7 8 -20 4 -33 -5 -11 -14 -54 -21 -94 -12 -75 -3 -146 23
-180 12 -16 10 -18 -30 -27 -29 -6 -34 -4 -43 20 -13 34 -13 150 1 217 20 100
37 126 66 97z m178 2 c3 -5 -5 -27 -17 -48 -32 -53 -31 -184 0 -260 21 -52 21
-53 2 -53 -40 0 -64 82 -62 212 1 89 52 188 77 149z m173 -115 l54 -27 -4 -47
c-4 -42 1 -102 18 -201 6 -37 17 -36 -104 -15 -81 13 -142 117 -142 240 0 46
6 73 21 98 l21 36 41 -29 c23 -15 66 -40 95 -55z m1540 9 c44 -101 42 -224 -4
-270 -23 -22 -37 -19 -23 7 7 12 12 68 12 127 1 90 -2 113 -21 150 -20 41 -21
61 -4 61 5 0 22 -34 40 -75z m-2000 -35 c-9 -52 -5 -139 8 -174 5 -12 0 -16
-21 -16 -26 0 -26 0 -20 58 11 105 29 202 36 195 4 -5 3 -33 -3 -63z m1936 25
c32 -68 20 -253 -19 -285 -15 -12 -203 -45 -212 -37 -2 3 7 26 22 52 29 48 30
72 10 195 l-5 35 82 41 c46 23 88 41 93 40 6 -2 18 -20 29 -41z m-1358 -132
c-1 -84 4 -101 42 -175 8 -16 -25 -7 -40 10 -29 31 -53 224 -31 245 22 22 29
2 29 -80z m1128 46 c14 -71 7 -133 -21 -191 -19 -39 -34 -57 -47 -58 -15 0
-17 5 -12 33 4 17 10 78 13 134 5 94 7 102 27 106 11 2 24 5 27 6 4 0 9 -13
13 -30z m-917 -25 c67 -10 70 -16 75 -137 l5 -107 -51 6 c-28 4 -73 12 -101
18 -45 11 -52 17 -73 58 -25 49 -39 140 -28 181 l6 25 62 -19 c34 -10 81 -21
105 -25z m818 -49 c-1 -70 -7 -114 -24 -158 -9 -22 -17 -25 -113 -35 -57 -5
-106 -7 -110 -4 -3 4 -8 57 -10 118 l-3 111 101 12 c55 7 107 17 115 22 34 22
44 6 44 -66z m-659 21 c1 -1 4 -52 6 -113 4 -111 4 -113 -18 -113 -27 0 -32
17 -40 143 l-7 98 29 -7 c16 -4 30 -7 30 -8z m368 -28 c8 -43 10 -92 8 -150
-2 -45 -4 -48 -30 -48 -27 0 -28 2 -40 83 -17 120 -16 135 11 140 43 8 46 7
51 -25z m-109 -20 c3 -24 9 -74 11 -111 l6 -68 -114 3 c-105 3 -113 4 -115 23
-1 11 -5 59 -9 108 l-7 87 110 0 111 0 7 -42z m1023 -15 c35 -21 75 -45 87
-53 12 -8 41 -28 64 -43 62 -41 239 -222 296 -302 124 -175 202 -380 251 -655
19 -105 21 -472 4 -587 -29 -191 -73 -355 -126 -473 -19 -42 -34 -80 -34 -85
0 -5 -11 -25 -23 -44 -13 -20 -48 -74 -78 -121 -105 -165 -338 -373 -539 -483
-128 -71 -332 -147 -490 -185 -137 -33 -173 -39 -397 -72 -39 -5 -170 -10
-290 -10 -241 0 -324 12 -513 72 -485 155 -870 456 -1057 824 -102 201 -138
332 -158 574 l-7 75 91 89 c89 89 90 90 111 71 11 -10 20 -24 20 -31 0 -8 -34
-49 -75 -91 -70 -73 -92 -113 -62 -113 19 0 91 64 141 126 l44 53 26 -20 26
-20 -29 -42 c-16 -23 -50 -65 -75 -94 -49 -54 -58 -83 -27 -83 19 0 72 53 131
132 38 51 46 55 75 34 18 -13 18 -15 -6 -52 -13 -21 -44 -65 -69 -97 -77 -101
-75 -96 -59 -112 8 -8 19 -11 24 -7 14 10 106 127 140 180 30 45 32 47 54 33
16 -10 18 -5 -73 -143 -38 -57 -40 -78 -8 -78 18 1 41 30 98 123 20 31 40 57
45 57 23 0 18 -31 -14 -86 -19 -32 -53 -92 -76 -132 -42 -73 -47 -107 -15
-100 16 3 54 61 130 201 32 59 40 68 59 63 20 -5 30 10 97 132 117 215 126
244 143 444 8 88 21 111 146 268 161 203 204 283 223 413 4 27 10 59 12 70 2
12 9 64 14 116 5 51 11 96 14 99 6 5 89 -6 296 -39 132 -22 520 -27 688 -9
165 17 275 31 322 40 25 5 74 14 110 21 36 7 86 22 111 35 50 25 116 94 125
131 4 13 9 23 12 23 3 0 34 -17 70 -37z m-2148 -85 c0 -3 -11 -19 -24 -35 -47
-56 -95 -142 -116 -205 -14 -45 -32 -75 -58 -100 -37 -35 -183 -128 -201 -128
-25 0 -80 -70 -101 -128 -15 -40 -48 -94 -91 -150 -87 -110 -129 -194 -129
-258 0 -38 -8 -62 -39 -113 -21 -37 -49 -75 -61 -86 l-23 -20 8 60 c16 135 69
335 131 497 45 116 65 153 150 283 71 109 225 275 334 359 44 34 47 35 132 33
48 -1 88 -5 88 -9z m150 -8 c40 -20 138 -50 175 -53 18 -2 20 -8 16 -72 -2
-39 -5 -72 -7 -74 -6 -7 -132 50 -145 65 -6 8 -43 24 -80 35 -38 12 -72 25
-75 31 -5 8 62 88 73 88 2 0 21 -9 43 -20z m-75 -124 c46 -17 243 -115 249
-124 2 -4 2 -19 -1 -34 l-5 -26 -77 52 c-42 29 -115 72 -163 96 -49 23 -88 44
-88 46 0 9 48 3 85 -10z m20 -85 c76 -40 146 -85 203 -132 15 -12 8 -60 -20
-136 -20 -55 -28 -61 -50 -40 -39 38 -296 217 -311 217 -13 0 0 57 24 108 25
51 23 51 154 -17z m-101 -179 c33 -25 80 -59 103 -76 119 -87 132 -98 126
-112 -8 -22 -19 -18 -76 29 -29 23 -88 62 -132 86 -44 24 -97 55 -118 68 -36
23 -37 24 -21 48 19 29 24 27 118 -43z m-116 -37 c20 -14 39 -25 43 -25 14 0
172 -101 215 -137 l47 -41 -59 -73 c-33 -40 -62 -77 -66 -83 -4 -6 -23 -2 -50
11 -41 21 -78 34 -106 39 -8 1 -19 9 -25 17 -7 8 -57 44 -112 79 -55 36 -106
72 -114 81 -7 9 -20 17 -28 17 -26 0 -4 18 63 52 36 18 80 45 97 60 40 34 49
34 95 3z m-227 -178 c84 -63 214 -144 269 -168 102 -43 117 -60 82 -93 -18
-15 -25 -14 -118 31 -64 30 -120 65 -158 99 -32 30 -79 61 -105 70 -66 24 -74
34 -59 67 17 35 36 34 89 -6z m-49 -90 c26 -13 64 -38 85 -57 44 -40 99 -80
109 -80 6 0 165 -79 172 -85 2 -2 -1 -13 -7 -24 -7 -11 -14 -49 -16 -83 -8
-104 -20 -187 -30 -196 -3 -3 -18 6 -33 21 -15 14 -61 48 -102 76 -41 28 -113
78 -160 112 -47 33 -107 72 -135 86 -27 14 -51 29 -53 34 -2 5 -10 9 -18 9
-26 0 -15 28 37 92 28 35 58 75 67 91 19 32 23 32 84 4z m-67 -304 c28 -18 73
-49 100 -69 28 -19 86 -59 131 -89 44 -29 92 -67 107 -84 23 -27 25 -35 15
-56 -6 -14 -16 -25 -22 -25 -6 0 -40 23 -76 50 -36 27 -108 79 -160 115 -118
82 -250 185 -263 206 -6 9 -7 24 -4 33 6 16 13 14 64 -15 32 -18 81 -48 108
-66z m-69 -83 c63 -49 117 -90 120 -90 8 0 90 -58 153 -108 30 -24 67 -50 83
-58 15 -8 28 -20 28 -28 0 -19 -82 -166 -92 -166 -21 0 -339 225 -408 288
l-75 69 33 52 c22 36 32 65 32 92 0 21 2 39 5 39 3 0 57 -40 121 -90z m-208
-162 l21 -23 -48 -50 c-27 -27 -59 -59 -71 -70 l-23 -20 6 58 c5 52 10 63 44
92 21 19 41 34 44 35 3 0 15 -10 27 -22z"/>
<path d="M3118 4508 c-55 -15 -114 -76 -123 -127 -29 -172 107 -292 266 -236
118 42 159 158 98 277 -34 66 -156 110 -241 86z m2 -83 c6 -8 10 -22 8 -32 -4
-24 -47 -24 -62 0 -9 15 -7 21 8 33 25 18 31 18 46 -1z"/>
<path d="M3465 4130 c-83 -21 -184 -32 -310 -34 l-140 -1 -3 -26 c-4 -37 67
-94 155 -124 94 -31 263 -58 339 -53 90 6 116 32 122 121 4 57 1 66 -23 95
-23 27 -33 32 -68 31 -23 0 -55 -4 -72 -9z m97 -47 c28 -25 25 -107 -4 -127
-55 -39 -339 4 -445 67 -18 10 -33 21 -33 24 0 2 41 3 90 1 50 -3 123 2 163 9
39 7 98 17 131 22 32 6 61 13 64 16 8 8 14 6 34 -12z"/>
<path d="M3808 3919 c-36 -21 -16 -79 27 -79 42 0 59 44 29 74 -18 18 -32 20
-56 5z"/>
<path d="M3152 3908 c-35 -35 12 -92 57 -69 39 21 21 81 -24 81 -12 0 -26 -5
-33 -12z"/>
<path d="M3246 3824 c-30 -30 -13 -74 29 -74 44 0 63 60 26 80 -27 14 -37 13
-55 -6z"/>
<path d="M3724 3816 c-3 -8 -4 -25 -2 -38 2 -18 10 -24 35 -26 39 -4 60 25 43
58 -13 24 -68 28 -76 6z"/>
<path d="M3358 3769 c-22 -12 -23 -52 -4 -69 21 -17 56 -9 73 17 13 19 12 24
-6 42 -23 23 -37 25 -63 10z"/>
<path d="M3619 3736 c-16 -35 3 -58 45 -54 28 3 31 6 31 38 0 32 -3 35 -32 38
-27 3 -35 -1 -44 -22z"/>
<path d="M3496 3724 c-26 -25 -18 -54 17 -67 29 -11 57 10 57 42 0 41 -44 56
-74 25z"/>
<path d="M3423 3113 c-4 -1 -28 -7 -51 -13 -60 -16 -126 -78 -151 -144 -50
-134 2 -263 128 -318 70 -30 197 -22 271 17 47 26 59 39 88 94 26 52 32 76 32
128 0 145 -76 220 -232 232 -43 4 -81 5 -85 4z m148 -77 c36 -15 79 -56 98
-93 19 -37 13 -116 -12 -164 -62 -116 -258 -132 -352 -28 -32 36 -35 45 -35
99 0 93 41 157 121 189 37 15 143 13 180 -3z"/>
<path d="M3384 2301 c-104 -27 -177 -122 -183 -238 -5 -98 41 -173 133 -221
59 -31 159 -36 238 -13 59 17 125 72 149 125 21 46 26 167 8 213 -14 39 -77
101 -119 120 -40 17 -180 26 -226 14z m161 -62 c50 -14 100 -51 120 -89 25
-48 19 -131 -11 -176 -49 -72 -96 -93 -197 -91 -62 2 -80 6 -113 29 -54 38
-74 75 -74 140 0 143 125 228 275 187z"/>
<path d="M3270 1509 c-98 -44 -143 -115 -144 -229 -1 -64 3 -81 26 -121 32
-55 85 -93 158 -115 46 -14 66 -14 125 -5 150 25 225 109 225 252 0 106 -42
174 -136 218 -61 29 -190 29 -254 0z m241 -64 c45 -19 55 -29 70 -66 33 -81
22 -158 -29 -212 -39 -42 -75 -57 -147 -64 -56 -5 -71 -3 -119 21 -71 35 -96
74 -96 150 0 94 52 167 134 187 55 13 133 6 187 -16z"/>
<path d="M5097 313 c-4 -3 -7 -19 -7 -34 0 -25 16 -40 43 -38 7 0 2 4 -10 9
-14 6 -23 18 -23 30 0 12 9 24 23 30 21 8 21 9 1 9 -11 1 -24 -2 -27 -6z"/>
<path d="M5174 306 c-20 -53 34 -92 57 -42 9 20 9 29 -1 41 -16 19 -49 20 -56
1z m46 -27 c0 -24 -4 -30 -17 -27 -11 2 -19 14 -21 31 -3 22 1 27 17 27 17 0
21 -6 21 -31z"/>
<path d="M5267 314 c-12 -12 -8 -51 8 -64 26 -22 50 -8 50 30 0 30 -4 35 -25
38 -14 2 -29 0 -33 -4z m48 -34 c0 -16 -6 -26 -18 -28 -19 -4 -32 20 -23 44 9
25 41 13 41 -16z"/>
<path d="M5362 283 c-2 -41 -1 -43 26 -42 22 1 23 2 5 6 -17 3 -23 13 -26 41
l-4 37 -1 -42z"/>
<path d="M5434 308 c-4 -6 -3 -8 4 -4 18 11 25 -14 8 -33 -22 -24 -20 -31 7
-30 12 0 16 3 10 6 -10 3 -10 10 -2 25 17 33 -8 67 -27 36z"/>
<path d="M5500 279 c0 -36 2 -40 22 -37 18 2 23 10 25 41 2 33 -1 37 -23 37
-21 0 -24 -4 -24 -41z m40 21 c0 -5 -7 -10 -15 -10 -8 0 -15 5 -15 10 0 6 7
10 15 10 8 0 15 -4 15 -10z m0 -40 c0 -5 -7 -10 -15 -10 -8 0 -15 5 -15 10 0
6 7 10 15 10 8 0 15 -4 15 -10z"/>
<path d="M5582 280 c0 -35 2 -39 7 -20 l7 25 13 -23 c7 -13 15 -21 18 -18 3 3
0 13 -7 22 -11 12 -11 20 -2 35 7 10 8 19 3 19 -5 0 -12 -8 -16 -17 -7 -17 -8
-16 -15 2 -6 15 -9 8 -8 -25z"/>
<path d="M5663 280 c0 -25 2 -35 4 -22 2 12 2 32 0 45 -2 12 -4 2 -4 -23z"/>
<path d="M5700 280 c0 -36 2 -40 25 -40 32 0 55 41 35 65 -7 8 -23 15 -36 15
-21 0 -24 -5 -24 -40z m53 18 c6 -19 -11 -48 -28 -48 -10 0 -15 10 -15 30 0
23 5 30 19 30 11 0 21 -6 24 -12z"/>
<path d="M5794 309 c-4 -7 3 -19 16 -29 22 -17 22 -18 4 -28 -16 -10 -17 -11
-2 -12 26 0 32 19 12 41 -16 17 -16 22 -4 29 13 8 12 10 -2 10 -9 0 -20 -5
-24 -11z"/>
<path d="M5904 295 c-8 -31 11 -55 40 -54 19 1 18 2 -4 8 -18 5 -25 14 -25 31
0 17 7 26 25 31 l25 7 -27 1 c-22 1 -29 -5 -34 -24z"/>
<path d="M5984 306 c-12 -31 0 -61 25 -61 31 0 50 28 35 53 -14 22 -52 28 -60
8z m50 -11 c8 -21 -3 -45 -20 -45 -18 0 -28 24 -20 45 3 8 12 15 20 15 7 0 16
-7 20 -15z"/>
<path d="M6078 280 c-2 -22 0 -40 4 -40 5 0 8 12 9 28 l1 27 11 -30 10 -30 13
30 c11 25 13 27 14 8 0 -12 5 -25 11 -28 7 -5 8 5 3 32 -9 49 -10 50 -27 16
l-15 -28 -7 28 c-10 39 -22 33 -27 -13z"/>
</g>
</svg>
