<?xml version="1.0" standalone="no"?>
<!DOCTYPE svg PUBLIC "-//W3C//DTD SVG 20010904//EN"
 "http://www.w3.org/TR/2001/REC-SVG-20010904/DTD/svg10.dtd">
<svg version="1.0" xmlns="http://www.w3.org/2000/svg"
 width="980.000000pt" height="930.000000pt" viewBox="0 0 980.000000 930.000000"
 preserveAspectRatio="xMidYMid meet">

<g transform="translate(0.000000,930.000000) scale(0.100000,-0.100000)"
fill="#000000" stroke="none">
<path d="M4191 7701 l-654 -1588 -570 -6 c-314 -4 -1043 -8 -1621 -8 -578 -1
-1115 -4 -1194 -8 l-143 -6 1271 -1230 c699 -676 1309 -1266 1356 -1310 l84
-80 -410 -1724 c-226 -948 -409 -1726 -406 -1728 3 -3 678 418 1502 936 l1497
941 1509 -921 c830 -507 1511 -919 1513 -917 3 2 -189 771 -425 1709 -236 937
-430 1711 -430 1720 0 9 612 600 1360 1315 l1360 1299 -1776 5 -1776 5 -692
1593 c-380 875 -693 1592 -696 1592 -3 0 -299 -715 -659 -1589z m1224 -608
c303 -697 559 -1288 571 -1312 l20 -46 1445 3 1444 2 -57 -52 c-31 -29 -534
-510 -1117 -1068 -716 -684 -1060 -1019 -1056 -1030 26 -87 696 -2762 693
-2766 -3 -2 -555 331 -1227 741 -672 410 -1226 745 -1230 745 -5 0 -557 -344
-1226 -765 -670 -421 -1218 -764 -1220 -763 -1 2 629 2656 658 2770 7 25 -59
91 -1100 1098 -610 589 -1109 1076 -1111 1081 -2 5 448 10 1165 10 642 1 1291
4 1441 8 l273 6 537 1303 c294 716 538 1302 541 1302 3 0 254 -570 556 -1267z"/>
</g>
</svg>
