<?xml version="1.0" standalone="no"?>
<!DOCTYPE svg PUBLIC "-//W3C//DTD SVG 20010904//EN"
 "http://www.w3.org/TR/2001/REC-SVG-20010904/DTD/svg10.dtd">
<svg version="1.0" xmlns="http://www.w3.org/2000/svg"
 width="1000.000000pt" height="1000.000000pt" viewBox="0 0 1000.000000 1000.000000"
 preserveAspectRatio="xMidYMid meet">

<g transform="translate(0.000000,1000.000000) scale(0.100000,-0.100000)"
fill="#000000" stroke="none">
<path d="M4900 9313 c-498 -448 -942 -826 -1370 -1169 -1186 -951 -2410 -1779
-3447 -2335 l-83 -44 0 -217 c0 -120 2 -218 5 -218 9 0 334 145 469 209 71 34
130 60 131 59 1 -2 10 -212 19 -468 26 -722 65 -1686 77 -1885 12 -208 25
-2498 14 -2610 l-7 -75 -213 0 c-177 0 -215 3 -225 15 -16 19 -59 19 -66 0 -5
-12 -26 -15 -105 -15 l-99 0 0 -280 0 -280 5000 0 5000 0 0 280 0 280 -440 0
-440 0 0 1220 c0 934 3 1294 15 1533 19 410 40 921 65 1627 11 316 23 612 26
657 l6 82 130 -65 c163 -82 379 -182 526 -244 l112 -48 0 217 0 218 -228 126
c-1461 803 -3203 2079 -4687 3433 l-90 82 -95 -85z m504 -840 c228 -211 541
-486 781 -686 99 -82 191 -159 205 -171 14 -12 106 -86 205 -165 99 -79 187
-150 195 -158 12 -11 -122 -13 -818 -13 l-832 0 0 716 0 716 39 -34 c21 -18
123 -111 225 -205z m-634 -513 l0 -680 -795 0 -796 0 203 162 c221 176 509
416 682 567 212 186 465 411 582 520 66 61 120 111 122 111 1 0 2 -306 2 -680z
m-1235 -1109 c818 -8 1943 -5 3011 10 l800 11 145 -104 c259 -187 569 -396
844 -568 99 -62 181 -113 182 -114 13 -9 47 -4757 37 -5203 l-7 -323 -385 0
-386 0 58 35 c148 89 214 179 203 276 -8 66 -43 124 -112 187 -79 73 -152 105
-228 100 -54 -3 -61 -1 -78 22 -27 37 -43 183 -35 315 4 60 18 191 32 290 31
219 35 392 11 449 -10 23 -71 93 -145 170 -189 193 -173 155 -170 410 l3 215
-29 30 -29 30 13 113 c7 62 13 163 13 224 1 100 -2 116 -26 165 l-26 54 14
100 c55 396 59 660 11 678 -48 19 -85 -135 -106 -444 -6 -90 -13 -187 -16
-216 l-5 -52 -45 32 c-46 32 -46 32 -174 32 -156 0 -166 6 -124 66 40 58 41
130 2 181 -15 19 -45 77 -67 128 -67 155 -112 202 -224 235 -94 27 -191 -8
-276 -100 -100 -108 -109 -233 -24 -343 14 -19 38 -67 54 -108 15 -40 40 -91
55 -113 22 -34 25 -47 19 -78 -8 -47 -18 -59 -64 -80 -54 -25 -172 -149 -197
-208 -24 -56 -93 -244 -160 -435 -40 -114 -44 -133 -44 -220 1 -288 127 -420
403 -420 48 0 87 -2 87 -3 0 -2 -8 -19 -17 -38 -28 -56 -28 -141 0 -259 76
-312 94 -462 101 -815 6 -287 16 -421 42 -534 8 -35 13 -66 11 -68 -2 -2 -252
-2 -555 -1 l-552 3 50 75 c107 159 152 239 148 268 -3 26 -2 27 46 27 l49 0
13 44 c9 30 28 58 60 87 l47 43 -7 61 c-7 56 -5 63 18 91 15 17 26 34 26 39 0
23 -24 67 -58 106 -50 56 -64 104 -56 192 4 45 2 83 -6 108 -26 83 -74 181
-107 219 -26 31 -33 46 -29 67 6 32 -26 78 -56 78 -11 0 -33 -11 -50 -25 -16
-14 -40 -25 -53 -25 -19 0 -26 9 -41 57 -66 210 -264 326 -500 294 -175 -25
-293 -124 -344 -289 -14 -47 -22 -58 -42 -60 -15 -2 -32 6 -48 23 -47 50 -110
21 -110 -52 0 -22 -11 -47 -33 -75 -72 -95 -118 -238 -110 -340 7 -82 -7 -123
-58 -182 -54 -61 -61 -105 -24 -140 26 -24 27 -29 18 -74 -12 -62 0 -96 42
-122 18 -11 38 -35 45 -53 31 -82 25 -77 75 -70 l45 6 0 -36 c0 -39 30 -93
142 -259 l59 -88 -278 0 -278 0 -1 68 c-2 89 -27 182 -81 310 -39 89 -44 109
-38 145 17 104 11 136 -53 298 -34 86 -73 199 -87 250 -58 207 -75 256 -120
325 -30 48 -49 90 -56 129 -6 31 -9 58 -7 60 34 29 219 127 255 136 63 15 68
18 199 105 128 84 142 98 128 122 -8 12 -6 20 7 32 10 8 19 32 21 55 3 35 0
40 -20 43 -12 2 -20 8 -17 13 16 25 -32 17 -120 -20 -53 -22 -92 -34 -85 -26
25 30 5 36 -40 12 -42 -22 -62 -46 -125 -149 -24 -40 -81 -70 -145 -76 l-47
-4 -7 182 c-8 212 -20 314 -47 385 -28 73 -25 96 20 146 38 43 38 43 102 41
35 -1 69 1 75 6 6 4 25 28 42 53 17 26 42 49 55 53 21 5 25 13 30 66 7 67 25
108 68 157 103 118 35 309 -139 395 -61 30 -74 33 -157 32 -161 -1 -220 -45
-316 -237 -46 -92 -77 -137 -123 -187 -181 -190 -262 -300 -350 -477 -96 -194
-141 -305 -170 -420 -15 -56 -53 -176 -85 -265 -70 -194 -111 -322 -111 -347
0 -10 18 -36 40 -59 48 -48 49 -59 19 -217 -26 -143 -36 -368 -20 -460 7 -39
30 -109 52 -158 38 -85 47 -117 32 -117 -5 0 -28 5 -53 11 -59 13 -97 6 -153
-32 -47 -31 -213 -215 -290 -321 l-42 -57 -369 -1 -369 0 6 1587 c6 1670 24
3711 33 3801 5 46 9 54 37 69 145 74 756 474 1087 712 l195 140 115 -5 c63 -4
417 -9 785 -13z m1595 -4557 c77 -34 160 -121 188 -196 l20 -53 -64 -7 c-35
-3 -77 -9 -93 -13 -26 -5 -32 -2 -44 22 -45 86 -160 127 -250 89 -37 -15 -84
-66 -93 -100 -5 -22 -6 -22 -72 -10 -37 7 -86 13 -109 14 -52 0 -54 9 -16 87
46 99 137 170 247 193 23 5 82 7 133 5 73 -3 104 -9 153 -31z m-4880 -1728 c0
-2 -7 -6 -15 -10 -8 -3 -15 -1 -15 4 0 6 7 10 15 10 8 0 15 -2 15 -4z"/>
<path d="M4999 6295 c-3 -6 -37 -151 -74 -322 -38 -172 -73 -313 -78 -313 -5
0 -66 35 -136 79 -69 43 -132 82 -140 86 -14 8 12 -35 114 -188 32 -48 56 -89
54 -90 -2 -2 -147 -35 -321 -73 -174 -38 -312 -72 -305 -75 7 -4 152 -37 322
-74 171 -38 312 -70 314 -71 2 -2 -1 -9 -6 -16 -6 -7 -48 -73 -93 -147 -69
-114 -78 -132 -54 -116 16 10 79 52 140 92 61 40 114 73 116 73 3 0 36 -142
74 -315 38 -173 72 -315 75 -315 3 0 36 141 73 313 38 171 71 315 75 319 3 4
70 -33 149 -82 78 -49 142 -87 142 -84 0 2 -41 66 -91 140 -50 75 -89 137 -87
139 2 2 138 33 303 69 165 36 308 70 318 74 12 5 -84 30 -275 71 -161 36 -307
68 -325 73 l-32 9 76 122 c42 67 83 133 92 147 19 29 29 34 -143 -77 -71 -46
-129 -83 -131 -81 -1 2 -33 147 -71 323 -39 176 -72 315 -75 310z"/>
<path d="M160 2302 c0 -5 7 -17 15 -28 13 -17 14 -17 15 -1 0 14 9 17 50 17
28 0 50 5 50 10 0 6 -28 10 -65 10 -36 0 -65 -4 -65 -8z"/>
<path d="M160 2232 c0 -5 7 -17 15 -28 13 -17 14 -17 15 -1 0 14 9 17 50 17
28 0 50 5 50 10 0 6 -28 10 -65 10 -36 0 -65 -4 -65 -8z"/>
<path d="M176 2164 c-33 -33 -6 -74 49 -74 58 0 84 45 43 74 -29 20 -72 20
-92 0z m78 -10 c24 -9 19 -33 -8 -40 -31 -7 -66 3 -66 21 0 21 41 32 74 19z"/>
<path d="M160 2035 c0 -25 5 -45 10 -45 6 0 10 14 10 30 0 17 2 30 4 30 2 0
25 -9 51 -20 53 -23 55 -23 55 -11 0 7 -108 61 -124 61 -3 0 -6 -20 -6 -45z"/>
<path d="M222 1968 c-5 -7 -12 -22 -14 -33 -4 -18 -6 -17 -18 8 -14 30 -33 38
-23 10 11 -31 46 -63 69 -63 27 0 54 25 54 49 0 35 -46 55 -68 29z m43 -34 c0
-10 -8 -20 -17 -22 -18 -3 -26 27 -11 42 12 11 28 0 28 -20z"/>
<path d="M188 1863 c-19 -5 -34 -45 -23 -62 11 -18 22 -12 21 12 -1 32 34 34
64 2 32 -34 40 -32 40 15 0 44 -20 56 -21 13 0 -16 -3 -22 -6 -15 -7 17 -54
39 -75 35z"/>
<path d="M203 1763 c-54 -5 -56 -24 -6 -58 47 -32 63 -32 63 0 0 16 6 25 15
25 8 0 15 7 15 15 0 8 -4 15 -9 15 -5 0 -15 1 -23 3 -7 2 -32 2 -55 0z m36
-39 c1 -1 1 -8 -1 -14 -2 -8 -13 -4 -28 10 l-25 21 25 -7 c14 -3 27 -8 29 -10z"/>
<path d="M235 1650 c-3 -5 -19 -7 -35 -4 -25 6 -30 3 -36 -21 -4 -15 -2 -31 5
-38 15 -15 92 -18 108 -5 18 14 16 43 -3 62 -18 18 -30 20 -39 6z m-27 -37
c-4 -22 -22 -20 -26 1 -2 10 3 16 13 16 10 0 15 -7 13 -17z m60 0 c-2 -10 -10
-18 -18 -18 -8 0 -16 8 -18 18 -2 12 3 17 18 17 15 0 20 -5 18 -17z"/>
<path d="M226 1543 c-4 -4 -19 -7 -34 -8 -23 0 -27 -4 -27 -29 0 -16 5 -31 11
-33 7 -2 10 6 7 22 -4 18 -1 25 11 25 9 0 16 -7 16 -15 0 -22 17 -18 23 6 8
29 32 18 32 -14 -1 -30 12 -36 22 -11 14 37 -35 83 -61 57z"/>
<path d="M190 1449 c0 -5 -4 -7 -10 -4 -5 3 -10 2 -10 -4 0 -5 6 -12 13 -15 9
-5 9 -7 0 -12 -10 -4 -9 -9 2 -20 8 -9 20 -12 26 -8 6 3 14 1 18 -5 5 -8 15
-9 31 -3 19 7 21 10 7 15 -23 9 -22 28 1 20 12 -4 11 0 -7 17 -18 18 -25 20
-32 9 -6 -11 -9 -10 -15 4 -7 19 -24 23 -24 6z m40 -39 c0 -5 -4 -10 -10 -10
-5 0 -10 5 -10 10 0 6 5 10 10 10 6 0 10 -4 10 -10z"/>
<path d="M140 1280 c0 -6 38 -10 95 -10 57 0 95 4 95 10 0 6 -38 10 -95 10
-57 0 -95 -4 -95 -10z"/>
<path d="M190 1197 c0 -9 10 -23 22 -31 22 -15 21 -16 -25 -16 -35 0 -47 -4
-47 -15 0 -12 15 -15 75 -15 60 0 75 3 75 15 0 9 -9 15 -22 16 l-23 0 23 16
c12 8 22 22 22 30 0 11 -6 9 -27 -6 l-26 -21 -24 22 c-19 18 -23 19 -23 5z"/>
<path d="M190 1084 c0 -32 20 -54 50 -54 30 0 50 22 50 54 0 25 -17 18 -24
-10 -9 -33 -49 -31 -54 4 -4 25 -22 31 -22 6z"/>
<path d="M206 994 c-19 -18 -20 -28 -6 -55 12 -22 59 -26 78 -7 26 26 1 78
-38 78 -10 0 -26 -7 -34 -16z m59 -29 c0 -22 -31 -33 -47 -17 -17 17 -1 44 24
40 15 -2 23 -10 23 -23z"/>
<path d="M190 900 c0 -5 -7 -10 -15 -10 -8 0 -15 -4 -15 -10 0 -5 6 -10 14
-10 8 0 16 -6 19 -12 4 -10 7 -10 18 0 7 6 26 12 41 12 28 0 48 24 33 38 -4 4
-10 1 -12 -5 -5 -15 -63 -18 -63 -3 0 6 -4 10 -10 10 -5 0 -10 -4 -10 -10z"/>
<path d="M212 810 c-19 -34 -35 -34 -40 -2 -4 29 -22 28 -22 -1 0 -52 52 -63
78 -17 20 35 37 34 37 -4 -1 -31 19 -29 23 3 8 53 -49 69 -76 21z"/>
<path d="M202 678 c-28 -28 -6 -68 38 -68 14 0 31 5 38 12 15 15 16 54 2 63
-6 3 -10 -5 -10 -19 0 -14 -4 -28 -10 -31 -6 -4 -10 7 -10 24 0 23 -5 31 -18
31 -10 0 -23 -5 -30 -12z m28 -29 c0 -11 -4 -17 -10 -14 -5 3 -10 13 -10 21 0
8 5 14 10 14 6 0 10 -9 10 -21z"/>
</g>
</svg>
