<?xml version="1.0" standalone="no"?>
<!DOCTYPE svg PUBLIC "-//W3C//DTD SVG 20010904//EN"
 "http://www.w3.org/TR/2001/REC-SVG-20010904/DTD/svg10.dtd">
<svg version="1.0" xmlns="http://www.w3.org/2000/svg"
 width="340.000000pt" height="270.000000pt" viewBox="0 0 340.000000 270.000000"
 preserveAspectRatio="xMidYMid meet">

<g transform="translate(0.000000,270.000000) scale(0.100000,-0.100000)"
fill="#000000" stroke="none">
<path d="M1640 2493 c-178 -10 -358 -59 -525 -143 -328 -163 -572 -445 -685
-790 -80 -243 -81 -557 -3 -795 30 -92 92 -232 122 -274 12 -16 21 -45 21 -64
0 -45 9 -50 58 -33 38 14 41 13 75 -11 38 -27 74 -31 169 -18 48 6 63 4 98
-14 22 -11 48 -21 57 -21 9 0 22 -8 30 -17 10 -12 12 -13 8 -3 -4 8 1 6 9 -4
9 -11 16 -29 16 -40 1 -17 4 -15 15 9 7 17 14 24 14 17 1 -7 6 -10 11 -7 13 8
13 -1 0 -26 -6 -10 -8 -19 -6 -19 3 0 12 12 20 28 15 27 15 26 16 -30 0 -32 3
-58 7 -58 4 0 18 10 31 23 21 18 24 19 19 4 -4 -11 -1 -25 8 -33 13 -14 15
-11 16 28 l1 43 15 -49 15 -49 16 24 c24 34 42 34 43 2 1 -21 4 -16 11 17 21
101 20 99 28 65 l6 -30 17 30 16 30 1 -35 c0 -19 7 -46 15 -60 14 -24 14 -24
15 20 0 33 3 41 10 30 8 -12 10 -8 11 15 1 25 4 21 19 -25 16 -47 18 -51 20
-25 1 26 3 27 10 10 7 -16 9 -12 9 20 l1 40 20 -30 c11 -16 23 -47 27 -69 5
-33 7 -36 16 -20 6 11 13 21 17 24 4 3 11 25 17 50 l11 45 1 -45 c2 -44 2 -45
16 -20 8 14 14 44 15 68 0 23 5 42 10 42 6 0 9 -31 7 -82 -4 -74 -3 -79 7 -45
9 29 14 35 24 25 9 -9 12 0 13 43 0 39 3 49 9 34 5 -11 9 -33 9 -50 1 -21 4
-26 10 -16 7 11 9 11 14 0 3 -9 6 -7 7 6 1 17 3 16 16 -7 22 -41 25 -34 9 19
-8 26 -13 49 -11 50 2 2 13 -11 26 -29 l22 -33 -6 30 -6 30 15 -25 c13 -22 14
-23 15 -5 0 17 2 18 11 5 8 -11 9 -8 5 15 l-6 30 15 -27 c14 -25 43 -48 61
-48 4 0 -7 14 -25 32 -18 18 -28 34 -22 36 7 2 8 14 5 30 -4 15 -3 24 1 20 4
-4 8 -21 9 -39 1 -18 7 -34 13 -36 7 -3 9 4 6 18 -4 14 -2 20 4 16 6 -4 14 1
18 11 6 13 10 8 20 -23 8 -25 14 -33 15 -20 l1 20 9 -20 c8 -18 9 -17 9 8 1
29 10 34 29 15 19 -19 14 4 -13 52 l-25 45 41 -45 c34 -37 40 -40 34 -20 -8
25 -7 25 13 7 17 -16 20 -16 18 -3 -1 9 -8 22 -14 28 -27 27 -10 30 18 3 34
-32 41 -23 9 11 -18 19 -18 22 -4 28 12 4 21 -5 35 -37 15 -32 20 -37 20 -19
0 13 -5 33 -11 45 -7 15 -2 13 15 -8 l26 -30 -10 34 c-7 27 -7 32 2 23 7 -7
17 -12 22 -12 6 0 5 5 -2 12 -18 18 -15 24 12 23 13 0 34 -9 46 -20 l23 -20
-12 23 c-15 28 0 29 37 2 23 -17 34 -19 75 -11 50 9 99 2 270 -38 111 -27 123
-26 152 3 13 14 35 28 47 31 36 11 48 25 48 56 0 15 17 63 39 106 95 192 134
360 135 578 0 231 -40 399 -141 598 -175 342 -466 582 -836 688 -144 42 -306
60 -457 52z m320 -128 c300 -54 598 -236 784 -479 114 -148 184 -297 233 -494
25 -97 27 -124 27 -287 -1 -200 -15 -284 -76 -451 l-32 -89 -9 37 c-7 29 -4
52 16 110 52 153 62 222 62 403 -1 184 -18 285 -73 425 -153 390 -497 675
-924 767 -110 24 -368 24 -483 0 -477 -97 -849 -443 -972 -904 -24 -88 -27
-116 -27 -283 -1 -122 4 -204 12 -240 21 -84 52 -179 79 -242 21 -48 24 -63
16 -95 l-10 -38 -31 67 c-158 343 -149 776 23 1112 184 362 557 633 940 686
50 6 97 13 105 15 32 8 259 -5 340 -20z m-3 -114 c178 -35 318 -92 460 -190
259 -177 443 -456 504 -766 18 -89 18 -339 0 -420 -22 -101 -52 -188 -61 -179
-27 28 -85 172 -111 277 -42 170 -80 232 -192 312 l-28 20 18 35 c27 53 29
158 6 211 -64 142 -221 201 -354 131 -96 -50 -146 -143 -136 -253 11 -122 88
-204 219 -233 l27 -6 -52 -78 c-41 -62 -56 -78 -71 -74 -17 5 -19 1 -13 -42 5
-37 2 -56 -14 -88 l-20 -40 -22 20 c-50 45 -121 56 -177 27 -31 -16 -80 -74
-80 -95 0 -7 -16 -30 -35 -51 -19 -22 -35 -43 -35 -48 0 -5 -13 -12 -30 -16
-16 -4 -30 -10 -30 -15 0 -17 -34 -20 -56 -5 -13 9 -24 11 -24 6 0 -6 8 -15
18 -20 9 -6 12 -11 6 -11 -18 0 -44 35 -56 76 -5 22 -15 45 -20 52 -12 14 -32
16 -23 2 10 -16 -17 -11 -37 7 -17 15 -18 15 -18 -4 0 -11 14 -32 30 -46 20
-19 30 -37 30 -56 0 -16 3 -37 6 -45 6 -15 -4 -16 -89 -10 -88 6 -96 5 -113
-14 -10 -12 -22 -18 -28 -15 -17 11 -56 9 -56 -2 -1 -24 -31 49 -37 90 -5 43
-5 45 20 45 14 0 29 -4 32 -10 9 -14 68 -13 83 2 15 15 15 60 0 110 -9 32 -9
44 1 60 20 33 48 124 47 155 -1 36 -38 44 -70 14 -12 -12 -26 -18 -30 -14 -4
4 -11 1 -16 -7 -14 -22 -21 -7 -29 57 -4 32 -10 63 -14 69 -4 8 8 15 36 22
120 31 194 152 163 270 -18 69 -56 115 -121 147 -45 22 -65 27 -109 23 -109
-9 -195 -89 -204 -191 -5 -63 -15 -75 -151 -180 -116 -90 -137 -118 -147 -194
-4 -31 -16 -67 -30 -86 -57 -79 -77 -123 -103 -227 l-27 -111 -21 68 c-44 139
-55 213 -55 363 0 155 14 246 58 379 115 343 407 635 755 751 183 61 436 78
626 41z m463 -581 c83 -43 130 -122 130 -219 0 -58 -24 -131 -42 -131 -18 0
-20 31 -4 65 16 34 14 79 -5 91 -5 3 -9 13 -9 22 0 9 -17 36 -38 59 -35 40
-41 43 -92 44 -105 2 -183 -46 -192 -119 -5 -36 -2 -44 28 -74 18 -18 34 -42
34 -52 0 -11 14 -32 32 -46 25 -21 32 -36 33 -64 2 -36 1 -37 -29 -30 -180 37
-251 269 -123 402 76 80 184 100 277 52z m-1032 -87 c103 -83 118 -206 36
-301 -31 -36 -109 -80 -122 -68 -2 3 14 22 37 42 27 25 41 46 41 62 0 14 5 40
12 58 8 23 9 47 2 81 -11 58 -55 93 -116 93 -59 0 -98 -21 -156 -85 -29 -32
-56 -55 -59 -51 -14 13 28 113 59 143 57 53 86 64 161 60 57 -4 74 -9 105 -34z
m984 -365 c-7 -7 -12 -8 -12 -2 0 14 12 26 19 19 2 -3 -1 -11 -7 -17z m-305
-314 c48 -23 67 -55 59 -99 -5 -24 -11 -33 -21 -28 -8 3 -12 9 -9 14 3 6 -5 7
-19 4 -18 -5 -35 0 -56 16 -38 28 -85 27 -124 -1 l-29 -22 7 23 c11 38 38 71
75 90 43 23 72 24 117 3z m-875 -666 c-2 -21 -8 -38 -14 -38 -5 0 -6 10 -3 23
4 12 9 30 12 40 8 29 11 16 5 -25z m99 17 c10 7 1 -52 -12 -75 -5 -9 -8 6 -8
40 0 30 3 49 6 42 2 -6 9 -10 14 -7z m290 -45 c-9 -24 -10 -24 -10 -3 -1 12
-4 30 -7 40 -5 15 -4 15 5 3 9 -13 11 -12 12 5 2 19 2 19 6 0 2 -12 -1 -32 -6
-45z"/>
<path d="M1576 2161 c-4 -5 -2 -12 3 -15 5 -4 12 -2 15 3 4 5 2 12 -3 15 -5 4
-12 2 -15 -3z"/>
<path d="M1708 2147 c-5 -10 -8 -64 -8 -120 l-1 -102 -30 35 c-29 34 -30 34
-20 7 6 -16 16 -38 22 -50 14 -25 20 -30 -83 57 -32 26 -58 44 -58 40 0 -5 26
-35 58 -67 l57 -59 -42 4 c-49 4 -48 -7 2 -16 61 -12 50 -26 -22 -27 -37 -1
-97 -4 -133 -8 -63 -7 -62 -7 59 -15 l124 -9 -37 -19 c-52 -27 -39 -33 18 -9
49 22 59 16 25 -15 -12 -10 -35 -37 -52 -59 l-31 -40 30 25 c16 13 44 38 62
55 l33 30 -15 -37 c-23 -54 -19 -59 9 -13 l25 40 1 -45 c1 -25 5 -97 8 -160
l6 -115 9 154 9 155 23 -30 c28 -34 30 -28 9 24 l-16 37 48 -46 c80 -75 90
-78 34 -6 -53 68 -56 76 -19 56 34 -18 31 -3 -4 20 l-33 21 75 1 c41 0 100 4
130 9 l55 7 -70 2 c-38 2 -92 6 -120 9 l-49 7 28 18 c36 24 27 33 -13 13 -49
-26 -48 -19 4 34 57 58 52 66 -9 15 -51 -42 -59 -43 -46 -9 16 40 11 51 -9 25
l-19 -25 -6 75 c-3 41 -7 90 -9 109 -1 26 -4 31 -9 17z"/>
<path d="M1920 2130 c0 -5 7 -10 16 -10 8 0 12 5 9 10 -3 6 -10 10 -16 10 -5
0 -9 -4 -9 -10z"/>
<path d="M2053 2099 c-18 -18 13 -45 32 -29 12 10 13 16 4 26 -14 17 -22 17
-36 3z"/>
<path d="M1343 2061 c-9 -14 -7 -20 8 -29 15 -10 20 -9 28 6 14 26 -21 48 -36
23z"/>
<path d="M1056 1971 c-4 -7 -5 -15 -2 -18 9 -9 19 4 14 18 -4 11 -6 11 -12 0z"/>
<path d="M2320 1960 c0 -5 5 -10 10 -10 6 0 10 5 10 10 0 6 -4 10 -10 10 -5 0
-10 -4 -10 -10z"/>
<path d="M2323 1829 c-11 -11 -7 -39 6 -39 17 1 31 18 25 33 -7 20 -16 21 -31
6z"/>
<path d="M911 1766 c-8 -9 -9 -21 -4 -30 7 -13 11 -13 28 0 17 13 18 16 4 30
-14 13 -17 13 -28 0z"/>
<path d="M1450 1750 c0 -5 5 -10 10 -10 6 0 10 5 10 10 0 6 -4 10 -10 10 -5 0
-10 -4 -10 -10z"/>
<path d="M1160 1720 c0 -5 5 -10 10 -10 6 0 10 5 10 10 0 6 -4 10 -10 10 -5 0
-10 -4 -10 -10z"/>
<path d="M2050 1690 c0 -5 4 -10 9 -10 6 0 13 5 16 10 3 6 -1 10 -9 10 -9 0
-16 -4 -16 -10z"/>
<path d="M820 1590 c0 -5 5 -10 10 -10 6 0 10 5 10 10 0 6 -4 10 -10 10 -5 0
-10 -4 -10 -10z"/>
<path d="M2666 1591 c-4 -5 -2 -12 3 -15 5 -4 12 -2 15 3 4 5 2 12 -3 15 -5 4
-12 2 -15 -3z"/>
<path d="M1600 1530 c0 -5 5 -10 10 -10 6 0 10 5 10 10 0 6 -4 10 -10 10 -5 0
-10 -4 -10 -10z"/>
<path d="M1944 1469 c-3 -6 0 -17 8 -25 13 -13 16 -13 28 1 12 14 11 18 -1 26
-19 12 -26 11 -35 -2z"/>
<path d="M734 1452 c-16 -25 10 -50 30 -29 11 10 11 16 1 30 -15 21 -18 21
-31 -1z"/>
<path d="M2696 1403 c-9 -24 9 -39 29 -23 12 10 13 16 4 26 -15 19 -25 18 -33
-3z"/>
</g>
</svg>
