<?xml version="1.0" standalone="no"?>
<!DOCTYPE svg PUBLIC "-//W3C//DTD SVG 20010904//EN"
 "http://www.w3.org/TR/2001/REC-SVG-20010904/DTD/svg10.dtd">
<svg version="1.0" xmlns="http://www.w3.org/2000/svg"
 width="232.000000pt" height="280.000000pt" viewBox="0 0 232.000000 280.000000"
 preserveAspectRatio="xMidYMid meet">

<g transform="translate(0.000000,280.000000) scale(0.100000,-0.100000)"
fill="#000000" stroke="none">
<path d="M1655 2702 c-3 -8 -5 -31 -5 -52 0 -36 -2 -38 -37 -45 -39 -7 -100
-35 -143 -65 -22 -16 -29 -16 -50 -4 -40 22 -43 16 -8 -15 38 -34 32 -49 -11
-31 -16 6 -35 9 -40 5 -14 -8 -14 -55 -1 -55 6 0 10 5 10 10 0 11 33 14 42 4
4 -3 -8 -28 -25 -55 -45 -73 -49 -149 -12 -204 l28 -40 -21 -36 c-18 -31 -19
-39 -8 -48 8 -7 12 -20 9 -31 -3 -11 6 -33 21 -53 14 -19 26 -41 26 -50 0 -21
30 -37 70 -37 49 0 35 -31 -23 -49 -43 -13 -63 -31 -36 -31 6 0 -10 -23 -35
-50 -46 -52 -78 -122 -98 -214 -6 -30 -22 -64 -38 -83 -63 -71 -147 -253 -234
-502 -25 -73 -46 -137 -46 -142 0 -6 20 -19 46 -30 36 -16 44 -25 42 -42 -2
-16 6 -26 35 -40 38 -18 228 -67 260 -67 13 0 17 -8 17 -33 0 -26 -6 -36 -31
-51 -17 -10 -35 -29 -41 -42 -7 -15 -20 -24 -33 -24 -34 0 -65 -31 -71 -72 -5
-31 -3 -38 19 -53 15 -9 45 -19 68 -22 23 -4 50 -14 60 -24 57 -57 259 -50
383 13 68 34 67 31 29 119 -20 47 -37 105 -40 138 l-5 57 65 18 c77 21 187 71
187 85 0 5 15 13 33 16 66 15 147 72 147 104 0 20 -68 147 -145 270 -79 127
-165 241 -225 294 -55 49 -67 90 -30 100 25 6 27 60 6 130 -13 45 -13 46 10
51 13 4 28 14 33 24 10 19 45 21 109 7 30 -7 32 -6 32 21 0 16 -4 45 -10 63
-8 28 -6 38 7 53 15 17 15 19 0 36 -23 25 -21 45 7 71 35 33 49 73 44 130 -1
28 -1 51 2 51 12 0 80 -52 80 -61 0 -5 -11 -26 -25 -46 -13 -20 -23 -39 -21
-41 9 -8 65 29 71 48 3 11 12 20 19 20 8 0 19 7 26 15 11 13 11 20 0 39 -6 13
-9 33 -6 44 5 14 1 24 -11 30 -14 8 -15 13 -5 25 11 13 8 21 -18 50 -16 19
-30 46 -30 59 0 47 -21 87 -58 110 -21 12 -59 43 -85 67 -47 44 -51 45 -125
51 -64 4 -74 7 -57 17 11 6 41 14 66 18 35 5 49 13 57 30 11 23 10 23 -21 11
-42 -17 -140 -28 -132 -15 4 5 10 23 15 39 l9 30 -45 -2 c-25 -2 -46 -9 -49
-16z"/>
<path d="M417 2630 c-27 -5 -67 -16 -89 -24 -21 -9 -44 -14 -49 -10 -5 3 -8 0
-7 -6 2 -7 -13 -20 -32 -31 -19 -10 -31 -19 -26 -19 5 0 1 -9 -9 -20 -10 -11
-28 -20 -39 -20 -12 0 -28 -5 -36 -10 -12 -8 -11 -10 8 -10 12 0 22 -4 22 -10
0 -5 -4 -10 -10 -10 -5 0 -10 -7 -10 -15 0 -9 -10 -26 -23 -38 -12 -12 -18
-19 -13 -14 6 4 12 7 16 7 3 0 4 -53 2 -117 -1 -67 1 -112 6 -105 6 8 16 -3
32 -37 27 -59 56 -88 125 -128 37 -22 57 -43 78 -81 l28 -52 -25 0 c-29 0 -46
-25 -46 -69 0 -32 -46 -160 -82 -225 -26 -48 -47 -143 -48 -212 0 -28 -9 -77
-20 -109 -23 -66 -25 -106 -8 -123 7 -7 40 -12 78 -12 53 0 70 -4 84 -19 16
-18 16 -23 2 -69 -16 -56 -9 -106 34 -252 13 -43 20 -90 18 -114 -3 -28 0 -44
10 -52 22 -16 8 -70 -32 -133 -46 -70 -56 -129 -28 -152 30 -23 146 -51 217
-50 61 0 177 21 229 41 43 16 65 49 66 98 0 62 -13 78 -73 96 -44 13 -57 22
-75 55 l-22 39 25 6 c14 4 25 13 25 21 0 10 11 15 34 15 l34 0 6 68 c4 37 11
92 17 122 6 30 16 105 22 165 11 102 14 110 35 113 12 2 26 11 31 21 19 34
-32 319 -78 441 -29 78 -76 148 -111 168 -16 9 -30 24 -30 33 0 16 -31 49 -65
67 -17 10 -13 11 25 12 39 0 49 5 82 41 21 23 38 45 38 50 0 5 5 9 10 9 6 0
10 15 10 34 0 22 6 36 16 40 15 6 15 9 -5 29 -11 13 -21 26 -21 29 0 3 14 22
30 43 17 21 30 48 30 61 0 13 9 28 19 34 26 14 44 73 36 118 -30 168 -269 306
-468 272z"/>
<path d="M4 100 c0 -58 1 -81 3 -53 2 29 2 77 0 105 -2 29 -3 6 -3 -52z"/>
<path d="M523 95 c0 -27 2 -38 4 -22 2 15 8 27 13 27 5 0 11 -12 13 -27 4 -26
4 -26 6 5 1 22 -4 32 -13 32 -8 0 -17 8 -19 18 -3 9 -5 -5 -4 -33z"/>
<path d="M1022 95 c0 -33 2 -43 7 -30 8 19 8 19 19 0 6 -11 12 -15 12 -8 0 6
-5 15 -10 18 -8 5 -7 12 2 23 12 15 11 15 -4 4 -15 -12 -17 -10 -21 15 -2 16
-4 6 -5 -22z"/>
<path d="M639 119 c-8 -20 4 -62 19 -65 7 -1 8 0 2 3 -16 7 -12 43 5 43 8 0
15 -9 15 -19 0 -11 4 -22 9 -25 5 -4 7 3 4 15 -3 12 -1 24 4 28 7 4 6 11 -3
19 -8 7 -14 8 -14 2 0 -14 -27 -13 -32 2 -3 8 -6 7 -9 -3z"/>
<path d="M869 118 c-2 -25 3 -53 11 -62 5 -5 6 1 3 14 -3 12 -1 25 4 29 7 4 6
11 -3 19 -11 10 -14 10 -15 0z"/>
<path d="M1407 123 c-3 -5 -4 -21 -3 -38 1 -23 6 -30 21 -30 11 0 20 6 19 13
-1 6 -2 23 -2 37 -2 23 -25 35 -35 18z m23 -13 c0 -5 -4 -10 -10 -10 -5 0 -10
5 -10 10 0 6 5 10 10 10 6 0 10 -4 10 -10z m2 -35 c0 -5 -5 -11 -11 -13 -6 -2
-11 4 -11 13 0 9 5 15 11 13 6 -2 11 -8 11 -13z"/>
<path d="M1460 110 c-13 -24 2 -60 25 -60 17 0 28 33 20 60 -3 11 -13 20 -20
20 -8 0 -19 -9 -25 -20z m35 -20 c0 -13 -5 -25 -11 -27 -14 -5 -25 22 -17 42
8 23 28 12 28 -15z"/>
<path d="M1525 120 c-4 -6 1 -7 11 -3 13 5 16 3 11 -10 -3 -9 -2 -19 4 -22 14
-9 -1 -27 -18 -21 -8 3 -11 1 -8 -4 8 -14 32 -13 37 2 13 39 -18 88 -37 58z"/>
<path d="M1585 120 c-4 -6 1 -7 11 -3 13 5 16 3 11 -10 -3 -9 -2 -19 4 -22 14
-9 -1 -27 -18 -21 -8 3 -11 1 -8 -4 10 -16 32 -12 40 8 6 16 7 16 16 0 22 -39
59 -4 44 42 -8 26 -29 25 -48 -2 l-16 -23 0 23 c-1 22 -25 31 -36 12z m90 -30
c0 -13 -5 -25 -11 -27 -14 -5 -25 22 -17 42 8 23 28 12 28 -15z"/>
<path d="M1710 106 c-15 -29 -8 -56 15 -56 23 0 31 31 12 45 -12 9 -14 14 -5
23 7 7 8 12 2 12 -6 0 -16 -11 -24 -24z m22 -31 c0 -5 -5 -11 -11 -13 -6 -2
-11 4 -11 13 0 9 5 15 11 13 6 -2 11 -8 11 -13z"/>
<path d="M1764 115 c-4 -8 -1 -22 6 -30 6 -8 9 -19 5 -25 -3 -5 -4 -10 -1 -10
10 0 33 55 29 68 -6 17 -32 15 -39 -3z m28 -10 c0 -5 -5 -11 -11 -13 -6 -2
-11 4 -11 13 0 9 5 15 11 13 6 -2 11 -8 11 -13z"/>
<path d="M1827 123 c-12 -12 -7 -33 7 -33 26 0 28 -20 4 -29 -14 -6 -17 -10
-7 -10 8 -1 20 4 26 10 14 14 6 39 -13 39 -20 0 -17 18 4 23 14 4 14 5 1 6 -9
0 -19 -2 -22 -6z"/>
<path d="M470 93 c0 -10 4 -14 8 -8 4 6 11 13 16 18 5 4 2 7 -7 7 -10 0 -17
-8 -17 -17z"/>
<path d="M581 83 c-1 -27 3 -33 19 -33 16 0 20 6 19 33 -2 30 -2 30 -6 5 -6
-36 -20 -36 -26 0 -4 25 -4 25 -6 -5z"/>
<path d="M727 104 c-13 -13 -7 -24 14 -24 11 0 19 5 17 12 -5 14 -22 21 -31
12z"/>
<path d="M781 78 c2 -28 2 -29 6 -8 3 14 10 28 17 32 7 5 5 8 -6 8 -14 0 -18
-8 -17 -32z"/>
<path d="M820 93 c0 -10 4 -14 8 -8 4 6 11 13 16 18 5 4 2 7 -7 7 -10 0 -17
-8 -17 -17z"/>
<path d="M914 95 c-8 -21 2 -45 20 -45 17 0 28 24 20 45 -4 8 -13 15 -20 15
-8 0 -17 -7 -20 -15z m31 -15 c0 -7 -6 -15 -12 -17 -8 -3 -13 4 -13 17 0 13 5
20 13 18 6 -3 12 -11 12 -18z"/>
<path d="M974 95 c-8 -20 2 -45 18 -44 10 0 10 2 1 6 -7 2 -13 13 -13 23 0 10
6 21 13 23 9 4 9 6 -1 6 -7 1 -15 -6 -18 -14z"/>
<path d="M1114 95 c-8 -20 2 -45 18 -44 10 0 10 2 1 6 -7 2 -13 13 -13 23 0
10 6 21 13 23 9 4 9 6 -1 6 -7 1 -15 -6 -18 -14z"/>
<path d="M1164 95 c-8 -21 2 -45 20 -45 19 0 29 29 15 46 -15 18 -28 18 -35
-1z m31 -15 c0 -7 -6 -15 -12 -17 -8 -3 -13 4 -13 17 0 13 5 20 13 18 6 -3 12
-11 12 -18z"/>
<path d="M1221 77 c2 -31 2 -31 6 -4 2 15 8 27 13 27 5 0 11 -12 13 -27 l4
-28 2 28 c0 15 5 27 10 27 5 0 12 -12 14 -27 4 -27 4 -27 6 4 1 29 -1 31 -34
31 -33 0 -35 -2 -34 -31z"/>
<path d="M482 65 c-11 -12 -10 -15 3 -15 8 0 15 7 15 15 0 18 -2 18 -18 0z"/>
<path d="M832 65 c-11 -12 -10 -15 3 -15 8 0 15 7 15 15 0 18 -2 18 -18 0z"/>
<path d="M728 58 c5 -5 16 -8 23 -6 8 3 3 7 -10 11 -17 4 -21 3 -13 -5z"/>
</g>
</svg>
