<?xml version="1.0" standalone="no"?>
<!DOCTYPE svg PUBLIC "-//W3C//DTD SVG 20010904//EN"
 "http://www.w3.org/TR/2001/REC-SVG-20010904/DTD/svg10.dtd">
<svg version="1.0" xmlns="http://www.w3.org/2000/svg"
 width="1000.000000pt" height="1400.000000pt" viewBox="0 0 1000.000000 1400.000000"
 preserveAspectRatio="xMidYMid meet">

<g transform="translate(0.000000,1400.000000) scale(0.100000,-0.100000)"
fill="#000000" stroke="none">
<path d="M4973 10340 c-88 -18 -181 -104 -207 -191 -9 -29 -16 -84 -16 -122 0
-38 -4 -67 -8 -65 -4 2 -63 36 -130 77 -111 67 -128 74 -175 74 -29 0 -66 -7
-84 -16 -39 -20 -81 -70 -89 -105 -3 -15 -8 -33 -10 -40 -7 -22 16 -103 36
-132 11 -15 118 -99 239 -186 l220 -159 1 -258 c0 -204 -3 -257 -12 -251 -7 5
-74 52 -148 105 -176 126 -189 132 -261 127 -78 -6 -133 -42 -165 -111 -30
-65 -30 -108 0 -173 28 -59 16 -50 336 -283 l245 -178 3 -249 2 -249 -132 -82
c-73 -45 -140 -84 -148 -87 -9 -4 -94 43 -210 115 -107 67 -196 122 -197 123
-4 3 -11 54 -58 434 -29 232 -51 375 -61 395 -41 81 -103 117 -201 117 -87 0
-138 -27 -172 -90 l-25 -44 23 -254 c13 -139 21 -255 19 -257 -5 -5 -403 238
-426 260 -8 7 -26 112 -47 281 -37 294 -44 328 -77 369 -66 85 -240 87 -301 4
-30 -41 -33 -81 -21 -233 6 -78 10 -142 9 -144 -1 -2 -35 14 -75 35 -65 34
-81 38 -144 38 -165 -1 -280 -116 -280 -280 1 -117 57 -200 182 -271 29 -16
52 -32 52 -35 0 -4 -49 -36 -109 -73 -175 -106 -192 -127 -193 -221 -1 -102
77 -179 181 -179 51 -1 74 9 284 113 198 98 232 112 252 103 13 -6 108 -64
211 -128 l187 -117 -146 -73 c-158 -80 -188 -107 -205 -181 -29 -128 65 -246
196 -246 53 0 76 9 305 121 136 67 252 122 256 122 5 0 108 -61 228 -135 l218
-136 6 -97 c3 -53 5 -146 5 -206 l-1 -110 -173 -98 c-96 -54 -178 -98 -184
-98 -5 0 -172 66 -371 146 -305 123 -370 146 -413 146 -86 -1 -150 -43 -193
-129 -39 -78 -18 -186 43 -226 21 -14 302 -142 422 -192 l39 -16 -30 -18 c-17
-10 -118 -68 -226 -129 l-196 -110 -259 105 c-268 108 -308 120 -369 109 -79
-15 -164 -137 -150 -215 16 -85 30 -96 274 -208 l75 -34 -80 -44 c-94 -53
-136 -98 -165 -174 -51 -135 17 -296 150 -353 29 -13 70 -20 114 -21 64 -1 74
2 177 56 61 31 111 57 113 57 2 0 4 -58 6 -129 1 -70 6 -145 11 -165 27 -121
174 -174 280 -101 65 45 78 86 86 270 4 88 8 167 10 175 1 8 3 52 3 97 l1 81
208 118 c114 64 211 119 215 122 5 2 6 -72 2 -164 -6 -164 -6 -170 17 -214 13
-26 41 -58 66 -75 85 -59 216 -33 277 55 33 48 42 102 50 320 4 102 9 196 10
210 2 14 4 44 4 67 l1 41 205 117 205 117 88 -46 c48 -26 129 -68 180 -93 l92
-48 0 -215 -1 -215 -275 -190 c-315 -217 -329 -231 -329 -340 1 -120 85 -215
190 -215 52 0 71 9 192 86 47 31 117 76 155 100 l68 44 0 -253 -1 -252 -210
-144 c-115 -79 -223 -159 -239 -177 -35 -40 -54 -103 -44 -147 21 -99 87 -168
162 -169 57 -1 74 7 204 88 65 41 120 74 123 74 3 0 5 -46 5 -103 0 -64 6
-123 15 -155 59 -196 306 -265 455 -126 73 68 89 116 91 268 0 69 5 126 10
126 5 0 66 -35 136 -78 125 -76 128 -77 193 -77 58 0 71 4 104 29 70 53 93
143 57 221 -24 51 -43 68 -236 209 -88 64 -184 134 -214 157 l-53 41 3 249 c2
137 7 249 10 249 4 0 82 -54 174 -120 134 -96 176 -120 212 -126 51 -8 113 8
157 39 36 26 76 110 76 163 0 60 -42 137 -98 177 -26 19 -156 113 -289 211
l-242 177 2 187 2 187 154 97 c85 53 160 94 165 91 51 -29 397 -246 400 -251
2 -4 32 -162 65 -352 34 -190 66 -360 72 -378 52 -161 309 -186 386 -38 21 40
19 93 -11 290 -15 93 -25 171 -23 173 3 2 108 -61 234 -139 l230 -143 38 -210
c21 -115 43 -224 50 -240 16 -39 73 -90 120 -105 23 -8 57 -10 92 -5 45 5 63
14 95 43 47 45 58 86 46 172 -4 35 -7 65 -5 67 2 1 25 -4 51 -13 62 -21 156
-14 214 15 99 51 156 147 154 263 -2 116 -54 185 -215 282 -53 32 -99 61 -101
65 -2 3 72 58 166 121 94 63 180 127 193 142 66 78 52 198 -30 260 -39 29
-109 44 -154 32 -21 -6 -156 -77 -299 -157 -143 -81 -266 -147 -273 -147 -11
0 -178 100 -347 208 l-54 34 177 101 c195 112 223 139 232 221 8 71 -4 114
-48 161 -50 54 -100 72 -189 67 -20 -2 -365 -186 -542 -290 -26 -15 -29 -13
-210 98 -100 62 -189 118 -196 124 -8 8 -14 55 -17 136 -3 69 -7 159 -9 200
l-4 76 209 118 c115 65 217 120 228 123 11 3 184 -52 385 -121 216 -74 382
-126 404 -126 81 0 169 68 201 153 15 40 14 113 -3 145 -29 55 -70 79 -260
151 -103 39 -195 75 -204 80 -19 11 -27 5 243 156 l210 118 75 -26 c41 -14
150 -51 242 -82 143 -49 174 -56 212 -51 143 22 219 199 131 304 -15 18 -57
41 -119 66 l-95 37 41 41 c138 138 99 367 -77 454 -48 23 -64 26 -132 23 -72
-4 -85 -8 -171 -56 -59 -32 -95 -47 -97 -40 -2 7 -11 95 -20 196 -17 195 -25
222 -75 265 -86 72 -205 53 -271 -43 -24 -34 -24 -38 -27 -345 l-3 -311 -199
-113 c-109 -61 -202 -112 -207 -112 -4 0 -9 80 -11 178 -2 97 -8 191 -13 209
-14 44 -89 110 -134 119 -97 18 -189 -23 -232 -105 -23 -43 -23 -50 -23 -342
l0 -297 -237 -135 -238 -134 -95 50 c-209 109 -238 127 -243 149 -4 12 -5 128
-4 257 l2 235 265 183 c146 101 282 201 302 222 57 60 71 130 42 215 -33 96
-124 156 -210 140 -20 -4 -111 -56 -211 -120 -96 -63 -179 -114 -184 -114 -5
0 -8 107 -6 247 l2 247 217 151 c119 82 228 161 242 174 127 120 2 373 -159
324 -18 -6 -92 -47 -164 -92 -71 -44 -132 -81 -134 -81 -2 0 -4 40 -5 90 -1
66 -6 102 -22 138 -51 118 -187 187 -317 162z m120 -124 c39 -16 82 -61 96
-99 6 -16 11 -104 11 -203 0 -96 2 -174 5 -174 2 0 101 61 220 135 118 74 221
135 229 135 22 0 56 -49 56 -79 0 -38 -21 -55 -282 -236 l-228 -157 0 -389 c0
-309 3 -389 13 -383 6 4 119 76 250 161 131 85 249 159 262 165 32 14 51 6 75
-34 24 -40 25 -86 2 -114 -9 -12 -149 -112 -310 -224 l-292 -202 2 -325 3
-325 224 -120 c163 -86 229 -117 241 -111 10 4 143 79 298 167 l281 159 -5
306 c-5 342 -2 360 57 385 38 16 84 5 99 -24 5 -10 12 -141 16 -291 3 -151 7
-275 8 -276 0 -1 146 80 323 180 l322 182 1 328 c0 313 1 328 20 347 27 27 64
25 87 -4 16 -20 23 -68 42 -292 13 -148 25 -271 27 -273 2 -2 59 28 126 67
206 118 225 125 307 107 40 -8 98 -74 107 -120 8 -43 -8 -102 -36 -138 -11
-14 -70 -53 -131 -88 -75 -41 -107 -65 -98 -70 8 -4 95 -39 194 -79 99 -39
187 -78 194 -86 13 -12 13 -18 -2 -49 -33 -70 -40 -70 -327 29 l-258 88 -238
-135 c-545 -307 -499 -279 -473 -292 13 -6 158 -63 323 -125 325 -124 326
-125 300 -190 -18 -44 -49 -70 -84 -70 -15 0 -197 59 -404 130 -207 72 -383
130 -391 130 -7 0 -40 -15 -72 -34 -148 -86 -450 -255 -465 -261 -15 -6 -17
-16 -14 -54 3 -25 8 -147 11 -271 4 -124 11 -227 15 -230 4 -3 118 -74 254
-158 l246 -154 80 46 c293 169 487 275 513 281 32 8 83 -18 93 -47 23 -68 12
-78 -266 -237 -138 -79 -247 -147 -243 -151 4 -4 144 -92 311 -195 191 -118
308 -185 318 -181 8 3 143 78 300 166 158 89 295 160 309 160 31 0 65 -33 65
-63 0 -31 -17 -46 -205 -173 -88 -60 -193 -131 -232 -158 -40 -27 -72 -50 -70
-51 1 -2 84 -53 184 -114 101 -62 192 -124 203 -138 85 -109 8 -263 -132 -263
-45 0 -63 9 -206 99 l-84 52 6 -38 c3 -21 13 -92 21 -158 8 -66 18 -134 20
-152 7 -39 -15 -63 -56 -63 -43 0 -66 15 -77 52 -6 18 -27 128 -48 243 -24
139 -42 216 -53 226 -24 25 -702 441 -708 435 -3 -2 2 -53 11 -113 8 -59 27
-187 41 -283 14 -96 28 -187 31 -202 4 -21 -1 -34 -20 -53 -35 -35 -86 -34
-126 3 -29 26 -31 34 -95 397 -36 204 -68 378 -71 387 -4 15 -482 322 -513
330 -6 2 -105 -55 -221 -127 l-210 -130 0 -256 0 -255 288 -209 c158 -115 297
-219 310 -232 31 -31 30 -86 -3 -118 -46 -47 -62 -39 -333 155 -138 99 -254
180 -257 180 -3 0 -5 -180 -5 -399 l0 -400 243 -176 c133 -98 248 -184 255
-193 29 -37 -2 -105 -49 -104 -13 0 -118 57 -232 126 -114 69 -210 126 -212
126 -3 0 -5 -95 -5 -212 0 -194 -2 -215 -21 -255 -30 -61 -92 -97 -158 -91
-56 6 -104 36 -129 81 -14 27 -18 69 -22 254 l-5 222 -200 -125 c-248 -156
-231 -147 -254 -135 -24 14 -45 65 -37 95 4 18 71 69 251 193 l244 168 1 392
0 393 -87 -57 c-413 -267 -434 -280 -459 -275 -16 3 -32 18 -44 43 -24 45 -25
77 -6 104 8 11 145 110 305 220 l291 200 0 280 0 280 -234 123 c-128 67 -239
122 -246 122 -10 0 -501 -271 -519 -287 -3 -2 -12 -142 -22 -311 -9 -169 -20
-315 -24 -325 -9 -21 -55 -47 -83 -47 -11 0 -32 10 -47 22 l-27 21 6 211 c4
116 9 237 12 269 l6 59 -24 -13 c-12 -6 -84 -47 -158 -89 -74 -43 -214 -121
-310 -175 -96 -54 -176 -98 -177 -99 -1 -1 -6 -93 -12 -206 -19 -354 -21 -370
-42 -391 -10 -10 -32 -19 -49 -19 -53 0 -58 21 -66 260 -8 244 -8 246 -22 243
-6 -1 -83 -43 -171 -93 -186 -105 -221 -114 -291 -78 -62 32 -92 85 -87 155 6
80 31 105 221 211 91 52 166 97 166 101 0 4 -104 54 -230 112 -127 57 -235
112 -241 122 -21 37 23 97 71 97 16 0 55 -11 87 -25 32 -13 159 -65 281 -115
l224 -90 181 103 c100 57 257 146 349 198 93 52 168 96 168 99 0 3 -143 68
-318 145 -174 77 -325 148 -334 157 -20 20 -14 51 18 95 38 50 66 50 190 -1
372 -152 659 -266 669 -266 7 0 66 30 131 67 66 36 169 94 229 128 l110 62 -2
209 c-3 237 -9 334 -20 345 -4 4 -129 82 -278 174 l-270 167 -275 -136 c-151
-75 -282 -137 -290 -136 -32 1 -78 39 -85 70 -12 55 10 72 252 194 l227 113
-44 28 c-25 16 -92 58 -150 93 -58 36 -175 109 -261 162 -85 54 -165 103 -177
109 -19 10 -53 -5 -272 -114 -137 -69 -259 -125 -270 -125 -25 0 -70 42 -70
66 0 27 50 64 239 178 100 60 181 110 181 111 0 2 -69 46 -154 99 -136 85
-157 101 -175 139 -27 55 -26 92 2 147 26 53 83 90 140 90 44 0 91 -23 242
-119 61 -38 112 -65 114 -60 3 10 -26 433 -34 480 -6 41 16 63 61 61 70 -3 70
-4 114 -352 22 -173 43 -316 47 -318 5 -1 159 -96 343 -211 245 -152 336 -203
338 -192 1 9 -11 159 -28 334 -16 175 -30 333 -30 352 0 42 21 59 76 59 34 1
49 -5 70 -26 26 -26 28 -37 80 -449 30 -232 57 -426 61 -429 26 -23 504 -311
512 -308 4 1 97 59 205 127 l196 124 0 308 0 307 -290 211 c-159 117 -296 222
-305 234 -22 31 -19 72 8 103 44 51 64 43 330 -148 133 -95 245 -175 249 -176
5 -2 7 178 6 399 l-3 404 -234 171 c-129 94 -240 179 -248 189 -7 11 -13 27
-13 37 0 22 43 68 63 68 8 0 108 -56 221 -125 114 -69 209 -125 211 -125 3 0
5 80 5 178 0 165 2 180 23 216 25 44 93 86 139 86 16 0 43 -6 61 -14z"/>
<path d="M7302 650 c-23 -10 -43 -46 -35 -66 2 -6 -5 -14 -16 -17 -24 -6 -29
-37 -6 -37 17 0 18 -11 15 -87 -2 -53 -2 -53 29 -53 l31 0 0 70 c0 63 2 70 20
70 13 0 20 7 20 20 0 13 -7 20 -20 20 -30 0 -26 38 5 50 16 6 23 14 19 25 -7
17 -27 18 -62 5z"/>
<path d="M5654 635 c-4 -9 -2 -21 4 -27 16 -16 47 -5 47 17 0 26 -42 34 -51
10z"/>
<path d="M6774 640 c-61 -19 -100 -94 -84 -165 15 -68 74 -103 150 -90 34 6
40 11 40 31 0 22 -3 23 -43 18 -54 -8 -85 15 -94 68 -5 32 -1 41 26 69 28 28
36 31 71 25 38 -6 40 -5 40 19 0 17 -6 25 -17 25 -10 0 -27 2 -38 4 -11 3 -34
1 -51 -4z"/>
<path d="M7930 520 l0 -130 25 0 c24 0 25 3 25 58 0 60 11 82 41 82 22 0 29
-20 29 -86 0 -51 1 -54 25 -54 24 0 25 2 25 68 0 45 -5 75 -16 90 -16 24 -53
29 -85 12 -18 -10 -19 -7 -19 40 0 47 -2 50 -25 50 l-25 0 0 -130z"/>
<path d="M8144 635 c-4 -9 -2 -21 4 -27 16 -16 47 -5 47 17 0 26 -42 34 -51
10z"/>
<path d="M5759 628 c-2 -15 -2 -38 0 -155 1 -82 1 -83 26 -83 23 0 25 3 25 50
l0 50 55 0 55 0 0 -50 c0 -47 2 -50 25 -50 l25 0 0 125 0 125 -25 0 c-23 0
-25 -4 -26 -42 -1 -24 -1 -46 0 -50 0 -5 -24 -8 -54 -8 l-55 0 0 50 c0 47 -2
50 -25 50 -14 0 -26 -6 -26 -12z"/>
<path d="M7700 620 c0 -11 3 -21 8 -21 4 -1 18 -3 31 -4 35 -4 42 -22 39 -118
l-3 -87 28 0 27 0 0 100 c0 88 2 100 18 101 9 1 24 2 32 3 8 0 16 11 18 24 3
22 1 22 -97 22 -94 0 -101 -1 -101 -20z"/>
<path d="M6588 613 c-10 -2 -18 -13 -18 -24 0 -10 -7 -19 -15 -19 -8 0 -15 -9
-15 -20 0 -11 7 -20 15 -20 12 0 15 -13 15 -55 0 -62 22 -95 64 -95 15 0 26 7
29 20 3 13 0 20 -8 20 -17 0 -26 14 -30 48 -5 37 4 62 21 62 22 0 17 37 -7 43
-16 4 -19 11 -14 26 6 21 0 24 -37 14z"/>
<path d="M7423 613 c-7 -2 -13 -13 -13 -24 0 -10 -7 -19 -15 -19 -8 0 -15 -9
-15 -20 0 -11 7 -20 15 -20 12 0 15 -13 15 -59 0 -68 17 -94 59 -89 31 4 45
47 14 44 -15 -1 -19 8 -21 52 -3 47 -1 52 17 52 14 0 21 6 21 20 0 13 -7 20
-20 20 -15 0 -20 7 -20 25 0 24 -11 29 -37 18z"/>
<path d="M5650 480 l0 -90 28 0 27 0 -3 90 c-3 88 -4 90 -28 90 -24 0 -24 -1
-24 -90z"/>
<path d="M6049 557 c-23 -18 -39 -52 -39 -85 0 -63 70 -107 133 -83 42 16 29
36 -21 33 -33 -3 -43 1 -52 17 -10 20 -8 21 50 21 59 0 60 0 60 29 0 45 -35
81 -78 81 -20 0 -44 -6 -53 -13z m69 -29 c20 -20 14 -34 -17 -36 -36 -3 -47
11 -25 32 19 19 26 20 42 4z"/>
<path d="M6233 563 c-7 -2 -13 -13 -13 -23 0 -17 4 -18 30 -8 23 7 34 7 45 -2
24 -20 18 -27 -27 -33 -69 -9 -93 -70 -42 -104 25 -16 28 -16 55 0 16 9 29 12
29 7 0 -6 11 -10 25 -10 24 0 25 2 25 70 0 85 -18 110 -77 109 -21 0 -44 -3
-50 -6z m75 -109 c-5 -25 -35 -41 -49 -27 -18 18 -3 43 26 43 19 0 26 -5 23
-16z"/>
<path d="M6410 480 c0 -89 0 -90 25 -90 24 0 25 3 25 54 0 56 16 86 46 86 8 0
14 9 14 20 0 23 -29 27 -48 8 -9 -9 -12 -9 -12 0 0 7 -11 12 -25 12 -25 0 -25
-1 -25 -90z"/>
<path d="M6920 480 c0 -89 0 -90 25 -90 24 0 25 3 25 54 0 59 16 86 51 86 12
0 19 7 19 20 0 23 -38 28 -58 8 -9 -9 -12 -9 -12 0 0 7 -11 12 -25 12 -25 0
-25 -1 -25 -90z"/>
<path d="M7073 563 c-7 -2 -13 -14 -13 -25 0 -15 4 -18 18 -13 32 15 66 11 70
-7 3 -14 -3 -18 -26 -18 -41 0 -74 -29 -74 -65 0 -49 47 -69 90 -39 12 8 22
10 22 5 0 -6 9 -11 20 -11 17 0 20 7 22 53 2 75 0 89 -19 109 -16 17 -79 24
-110 11z m75 -115 c-4 -30 -48 -39 -48 -10 0 24 8 32 32 32 14 0 19 -6 16 -22z"/>
<path d="M7510 565 c0 -3 15 -44 34 -89 38 -91 38 -123 0 -132 -33 -8 -33 -44
0 -44 41 0 65 32 106 140 46 122 48 133 18 128 -17 -2 -26 -16 -42 -67 l-21
-63 -20 63 c-18 56 -23 64 -47 67 -16 2 -28 1 -28 -3z"/>
<path d="M8149 568 c0 -2 -3 -42 -5 -90 l-6 -88 31 0 31 0 0 90 c0 89 0 90
-25 90 -14 0 -25 -1 -26 -2z"/>
<path d="M8240 480 l0 -90 30 0 31 0 -2 60 c-2 65 7 84 37 78 16 -3 19 -14 22
-71 3 -64 4 -67 27 -67 24 0 25 2 25 71 0 88 -10 109 -53 109 -18 0 -38 -5
-44 -11 -8 -8 -13 -8 -17 0 -4 6 -18 11 -32 11 -24 0 -24 -1 -24 -90z"/>
<path d="M8475 545 c-19 -18 -25 -35 -25 -70 0 -75 55 -116 108 -79 21 14 22
14 22 -5 0 -11 -11 -28 -26 -37 -20 -14 -32 -15 -60 -6 -32 10 -34 9 -34 -13
0 -19 7 -25 34 -31 43 -8 101 11 121 39 11 16 15 49 15 124 l0 103 -25 0 c-14
0 -25 -5 -25 -12 0 -9 -3 -9 -12 0 -20 20 -67 14 -93 -13z m93 -27 c25 -25 5
-98 -28 -98 -18 0 -40 32 -40 59 0 30 16 51 40 51 9 0 21 -5 28 -12z"/>
<path d="M8698 558 c-9 -7 -17 -20 -18 -28 -6 -40 2 -52 40 -67 57 -23 54 -47
-5 -41 -33 4 -45 2 -45 -8 0 -16 31 -34 59 -34 83 0 110 85 35 112 -45 16 -43
44 4 40 26 -2 32 2 32 18 0 17 -7 20 -43 20 -24 0 -50 -6 -59 -12z"/>
<path d="M8955 545 c-32 -32 -35 -105 -5 -135 39 -39 120 -39 120 0 0 16 -5
19 -28 14 -36 -7 -62 16 -62 55 0 37 22 54 60 49 26 -4 30 -1 30 19 0 21 -5
23 -45 23 -35 0 -52 -6 -70 -25z"/>
<path d="M9125 545 c-36 -35 -35 -102 1 -136 38 -36 107 -34 140 4 27 32 31
75 9 116 -17 34 -33 41 -86 41 -29 0 -47 -7 -64 -25z m105 -36 c20 -36 -2 -88
-37 -89 -35 0 -58 71 -31 98 19 19 56 14 68 -9z"/>
<path d="M9330 480 c0 -89 0 -90 25 -90 24 0 25 3 25 58 0 60 11 82 42 82 19
0 21 -9 18 -92 -1 -47 -1 -48 29 -48 l30 0 3 68 c3 64 4 67 28 67 24 0 25 -3
28 -67 3 -65 4 -68 27 -68 24 0 25 2 25 71 0 39 -5 79 -10 90 -13 23 -66 26
-90 4 -15 -14 -18 -14 -30 0 -15 18 -61 20 -79 3 -11 -10 -14 -10 -18 0 -3 6
-16 12 -29 12 -24 0 -24 -1 -24 -90z"/>
<path d="M8853 433 c-19 -7 -16 -40 3 -47 19 -7 44 10 44 29 0 10 -25 28 -33
24 -1 0 -8 -3 -14 -6z"/>
</g>
</svg>
