<?xml version="1.0" standalone="no"?>
<!DOCTYPE svg PUBLIC "-//W3C//DTD SVG 20010904//EN"
 "http://www.w3.org/TR/2001/REC-SVG-20010904/DTD/svg10.dtd">
<svg version="1.0" xmlns="http://www.w3.org/2000/svg"
 width="505.000000pt" height="470.000000pt" viewBox="0 0 505.000000 470.000000"
 preserveAspectRatio="xMidYMid meet">

<g transform="translate(0.000000,470.000000) scale(0.100000,-0.100000)"
fill="#000000" stroke="none">
<path d="M498 4100 c-43 -5 -101 -20 -130 -33 -101 -46 -234 -183 -280 -287
-12 -25 -25 -53 -29 -62 -13 -25 -11 -165 2 -191 23 -44 64 -78 113 -92 110
-33 175 -13 239 74 22 31 44 58 49 59 4 2 8 12 8 22 0 39 48 39 133 1 81 -36
119 -91 166 -240 48 -150 51 -262 11 -456 -11 -55 -25 -125 -30 -155 -6 -30
-15 -77 -20 -105 -47 -236 -52 -541 -10 -649 4 -11 13 -41 20 -66 57 -209 180
-363 323 -405 34 -10 68 -23 75 -28 17 -13 16 -229 -2 -281 -20 -57 -60 -103
-119 -134 -47 -24 -62 -27 -152 -26 -166 1 -270 46 -314 137 -44 91 -26 154
62 218 37 27 46 29 93 23 29 -3 62 -3 74 1 28 9 70 97 70 147 0 61 -26 71
-162 66 -112 -5 -162 -18 -220 -60 -14 -10 -22 -10 -38 0 -24 15 -114 16 -140
2 -27 -14 -80 -94 -80 -119 0 -23 20 -27 51 -11 15 8 25 7 43 -7 37 -27 46
-56 46 -151 0 -94 21 -216 48 -272 9 -19 38 -56 64 -82 l47 -48 -107 -1 c-59
0 -127 -4 -152 -7 l-45 -7 -8 -79 c-5 -55 -4 -82 4 -92 10 -13 276 -14 1868
-11 1848 3 1856 3 1946 24 310 73 569 236 731 459 60 84 133 228 154 306 8 33
11 90 6 195 -7 181 -17 259 -38 298 -58 108 -57 106 -47 133 12 31 38 62 52
62 23 0 77 34 77 49 0 18 -49 74 -94 109 -48 37 -130 24 -197 -32 -53 -45
-147 -41 -188 8 -16 19 -50 241 -51 327 l0 56 45 18 c52 19 99 79 122 154 42
140 -64 292 -241 345 -49 15 -78 12 -171 -15 -56 -17 -79 -30 -116 -68 -50
-49 -61 -76 -94 -236 -30 -144 -73 -267 -113 -320 -73 -96 -200 -140 -412
-140 -116 0 -150 4 -245 29 -130 33 -312 113 -416 181 -96 64 -376 343 -631
630 -222 249 -458 486 -566 568 -115 88 -389 214 -524 241 -12 3 -45 10 -73
16 -67 14 -391 21 -487 10z m482 -40 c216 -41 437 -136 600 -257 84 -63 329
-304 470 -463 51 -58 123 -139 160 -180 36 -41 82 -93 101 -114 19 -22 108
-115 200 -207 170 -172 254 -236 404 -312 145 -72 395 -137 528 -137 34 0 103
9 152 19 178 37 247 79 306 183 28 50 30 51 24 18 -19 -103 -97 -167 -275
-225 -96 -31 -114 -34 -210 -31 -118 3 -230 23 -369 68 -169 54 -371 160 -476
249 -42 35 -206 211 -359 384 -49 55 -103 115 -120 134 -17 19 -40 46 -51 61
-43 58 -176 201 -309 333 -284 282 -475 392 -766 443 -195 34 -615 24 -640
-16 -3 -4 -36 -29 -75 -54 l-70 -47 55 51 c65 61 139 98 206 106 27 4 51 8 53
10 2 2 83 4 180 4 134 0 201 -5 281 -20z m-24 -56 c382 -55 584 -198 1097
-779 357 -404 498 -554 567 -605 216 -163 602 -300 840 -300 127 0 354 84 419
155 46 50 66 103 81 220 19 144 59 323 80 366 36 69 139 119 247 119 104 0
208 -64 254 -157 27 -54 31 -71 27 -118 -7 -78 -65 -164 -123 -181 -59 -16
-61 -31 -36 -250 19 -168 20 -205 11 -329 -15 -192 -28 -242 -91 -335 -69
-104 -177 -186 -289 -221 -108 -33 -333 -65 -600 -84 -30 -2 -136 -10 -235
-17 -233 -17 -1580 -17 -1770 0 -340 30 -408 49 -502 135 -74 68 -134 172
-164 282 -4 17 -13 48 -19 70 -18 65 -40 256 -34 295 2 19 9 91 14 160 9 117
17 169 39 280 59 285 62 314 58 440 -3 101 -9 139 -30 201 -62 181 -100 233
-195 269 -91 35 -152 32 -152 -6 0 -16 -42 -75 -94 -131 -27 -30 -35 -33 -89
-33 -133 0 -204 68 -195 187 2 32 12 74 21 93 37 77 202 232 282 266 84 35
368 39 581 8z m3890 -1703 c52 -37 81 -80 63 -92 -8 -5 -21 -9 -30 -9 -9 0
-33 -18 -53 -40 -44 -49 -47 -89 -11 -142 46 -68 58 -124 72 -346 9 -155 -27
-274 -131 -436 -148 -229 -413 -409 -721 -488 -73 -19 -123 -21 -600 -28 -643
-10 -2808 -12 -3042 -3 l-172 6 6 61 c3 34 8 63 10 66 3 3 566 8 1251 11 1929
10 2380 25 2637 90 266 67 415 171 520 364 82 151 120 347 95 498 -16 100 -26
124 -83 207 -62 92 -74 128 -54 167 36 68 87 113 157 134 40 12 45 11 86 -20z
m-283 -61 c42 0 43 0 21 -42 -15 -29 -15 -74 0 -108 5 -13 -6 -15 -67 -15
l-73 0 3 60 c2 33 6 79 9 102 l5 42 32 -19 c18 -11 49 -20 70 -20z m42 -213
c31 -17 48 -39 75 -91 l34 -68 0 -141 c-1 -172 -17 -246 -79 -372 -73 -147
-161 -237 -294 -301 -79 -38 -207 -78 -286 -89 l-49 -8 36 49 c50 68 68 117
68 183 0 114 -31 173 -105 200 -105 39 -126 24 -95 -69 22 -65 18 -106 -16
-172 -30 -58 -57 -75 -123 -77 -71 -2 -123 20 -165 69 -32 39 -40 69 -32 126
7 51 60 191 82 215 9 10 39 19 77 22 202 21 363 66 455 129 116 80 212 213
236 331 8 36 17 70 21 76 12 20 117 12 160 -12z m-3797 -423 c26 -18 24 -51
-9 -116 l-19 -38 -74 0 c-71 0 -76 -2 -123 -39 -69 -54 -93 -107 -79 -171 24
-103 94 -172 207 -204 216 -60 390 2 446 159 14 38 18 80 18 173 l0 122 25 -4
c14 -3 53 -8 87 -11 71 -8 67 -1 79 -161 8 -106 -7 -172 -62 -273 -41 -75 -61
-93 -134 -123 -52 -21 -69 -22 -320 -23 -257 0 -267 1 -317 24 -102 46 -152
164 -153 359 0 101 -12 143 -53 181 -19 17 -34 22 -56 19 -27 -4 -29 -3 -19
16 20 39 51 66 85 72 50 9 77 -2 95 -38 l16 -33 10 26 c22 56 131 96 262 98
45 1 73 -4 88 -15z m2792 -178 c-40 -88 -60 -188 -47 -237 12 -50 74 -113 133
-135 32 -12 60 -15 102 -11 50 5 61 11 94 45 37 40 68 119 68 174 0 16 -7 45
-15 65 -22 53 -20 56 26 49 88 -14 123 -67 123 -186 0 -69 -10 -94 -64 -168
-21 -30 -49 -52 -87 -69 -51 -24 -66 -25 -227 -27 l-172 -1 -43 28 c-23 15
-45 36 -48 45 -4 9 -9 19 -13 22 -3 3 -17 28 -29 55 -42 89 -39 292 5 377 15
28 22 30 176 36 l47 2 -29 -64z m-1786 25 l208 -1 -6 -22 c-28 -94 -37 -171
-33 -253 6 -114 29 -176 88 -237 l45 -48 -465 0 c-433 1 -464 2 -436 17 48 25
94 82 133 163 l37 75 -1 160 0 160 110 -7 c61 -3 205 -7 320 -7z m1566 10 c0
-5 -5 -22 -10 -37 -22 -57 -31 -172 -20 -251 13 -95 40 -152 99 -214 l46 -47
-335 -6 c-184 -4 -386 -7 -448 -9 l-113 -2 40 36 c47 43 96 129 106 186 10 60
-4 148 -29 186 -23 35 -96 76 -137 77 -44 0 -54 -22 -35 -77 22 -64 20 -109
-8 -168 -33 -71 -56 -88 -126 -93 -50 -4 -66 0 -102 21 -115 67 -128 146 -53
313 l27 61 371 8 c205 4 424 11 487 15 176 11 240 11 240 1z m-1136 -22 c3 -3
-5 -32 -18 -65 -66 -166 -62 -226 23 -301 52 -47 110 -67 172 -60 85 10 120
45 154 155 19 58 19 56 -13 166 -5 17 -1 18 34 12 90 -17 124 -65 124 -176 0
-108 -60 -208 -152 -254 -49 -25 -60 -26 -212 -26 -172 0 -210 9 -269 60 -81
70 -104 268 -52 443 l17 59 93 -4 c51 -1 96 -6 99 -9z"/>
</g>
</svg>
