<?xml version="1.0" standalone="no"?>
<!DOCTYPE svg PUBLIC "-//W3C//DTD SVG 20010904//EN"
 "http://www.w3.org/TR/2001/REC-SVG-20010904/DTD/svg10.dtd">
<svg version="1.0" xmlns="http://www.w3.org/2000/svg"
 width="1920.000000pt" height="1920.000000pt" viewBox="0 0 1920.000000 1920.000000"
 preserveAspectRatio="xMidYMid meet">

<g transform="translate(0.000000,1920.000000) scale(0.100000,-0.100000)"
fill="#000000" stroke="none">
<path d="M10200 18046 c-155 -33 -249 -83 -356 -190 -92 -93 -141 -181 -175
-317 -32 -123 -24 -289 18 -412 42 -119 86 -189 162 -256 35 -31 80 -70 100
-87 l35 -32 -37 -73 c-104 -204 -416 -579 -809 -972 -260 -261 -266 -270 -233
-341 45 -94 172 -97 445 -11 74 23 150 45 169 48 33 7 33 6 28 -22 -22 -106
-176 -435 -273 -581 -188 -283 -581 -673 -870 -863 -135 -88 -189 -139 -224
-212 -50 -104 -3 -182 140 -231 46 -16 85 -19 233 -19 l179 0 -5 -32 c-9 -54
-84 -229 -144 -336 -129 -231 -307 -465 -450 -593 -48 -43 -128 -117 -178
-164 -101 -96 -154 -138 -339 -266 -311 -214 -403 -384 -282 -522 34 -38 121
-82 201 -101 189 -44 604 -60 1080 -42 165 6 394 14 508 18 l208 6 -6 -29
c-18 -80 -97 -351 -211 -720 -69 -225 -128 -434 -131 -465 -5 -53 -4 -56 18
-63 61 -17 800 -28 1544 -21 784 6 1027 13 1042 29 14 14 6 147 -17 271 -12
66 -48 244 -80 395 -55 258 -91 451 -104 564 l-6 49 152 -6 c84 -4 272 -16
418 -28 365 -31 877 -33 1025 -5 194 36 310 93 381 187 57 75 74 111 74 161 0
80 -49 129 -324 326 -423 303 -787 705 -976 1076 -55 108 -110 252 -110 287 0
14 23 17 163 22 290 11 424 66 421 175 -3 84 -64 154 -263 299 -234 170 -327
248 -482 403 -218 218 -366 426 -495 695 -59 124 -134 320 -134 350 0 18 23
14 205 -37 241 -67 354 -73 415 -22 37 32 40 82 7 135 -12 20 -110 123 -218
228 -108 105 -230 230 -270 278 -40 49 -107 126 -149 173 -65 72 -410 522
-451 587 -12 20 -7 28 62 100 144 150 205 254 235 394 28 130 2 315 -62 442
-126 250 -324 372 -619 382 -79 3 -142 0 -185 -9z m335 -71 c104 -27 184 -72
261 -149 80 -81 121 -147 160 -261 24 -71 28 -95 28 -205 0 -109 -4 -135 -27
-205 -63 -190 -205 -327 -412 -396 -56 -19 -91 -24 -180 -24 -183 0 -315 56
-449 191 -87 86 -132 161 -163 266 -84 291 51 594 325 730 128 64 326 86 457
53z m375 -1571 c163 -217 220 -283 430 -502 133 -139 245 -252 249 -252 3 0
43 -36 88 -79 73 -71 123 -140 123 -171 0 -17 -139 -11 -230 11 -47 11 -134
36 -195 55 -60 19 -141 38 -179 41 l-69 6 7 -60 c18 -165 138 -453 273 -658
207 -314 651 -764 946 -958 96 -63 132 -101 147 -155 15 -56 13 -61 -33 -81
-73 -31 -143 -41 -296 -41 -82 0 -169 -3 -195 -6 -46 -7 -46 -7 -46 -46 0
-130 118 -387 312 -677 107 -160 166 -231 347 -411 180 -180 473 -420 627
-513 165 -101 174 -160 45 -280 -66 -60 -152 -107 -246 -133 -110 -30 -338
-28 -1018 9 -345 19 -638 33 -650 30 -33 -8 -57 -33 -57 -59 0 -24 70 -390
145 -754 47 -228 70 -352 80 -437 l7 -53 -1221 0 -1221 0 0 24 c0 36 50 224
115 431 169 543 197 636 212 717 13 68 14 91 5 100 -21 21 -131 21 -547 3
-433 -19 -1010 -17 -1160 4 -254 36 -367 107 -334 209 27 86 102 162 314 317
262 193 576 483 729 675 200 251 406 655 406 798 0 39 0 39 -46 46 -26 3 -111
6 -190 6 -193 0 -344 29 -344 67 0 34 42 103 96 156 31 30 117 99 192 154 221
159 354 279 531 478 348 391 572 782 589 1027 4 63 2 78 -9 78 -26 0 -174 -39
-300 -78 -69 -22 -159 -45 -198 -52 -69 -11 -161 -7 -161 8 0 26 75 112 270
310 316 319 621 686 749 900 28 46 52 89 53 94 3 7 41 1 109 -16 183 -46 284
-45 439 8 l65 22 28 -30 c16 -17 113 -144 217 -282z"/>
<path d="M10231 17639 c-88 -28 -169 -108 -195 -193 -52 -167 31 -364 182
-434 148 -67 349 8 430 162 24 46 27 62 27 151 0 89 -3 106 -28 157 -34 70
-110 140 -174 162 -63 22 -164 19 -242 -5z m254 -94 c33 -21 57 -47 79 -85 27
-48 31 -64 31 -130 -1 -88 -21 -136 -84 -193 -98 -88 -242 -82 -340 15 -77 75
-95 198 -43 298 31 62 55 82 132 110 79 29 163 24 225 -15z"/>
<path d="M3442 16984 c-145 -39 -276 -143 -339 -270 -44 -89 -51 -169 -30
-314 l13 -96 -220 -88 c-278 -112 -396 -172 -517 -263 -287 -216 -484 -532
-559 -898 -33 -158 -50 -312 -76 -660 -13 -187 -31 -394 -40 -460 -56 -442
-186 -804 -431 -1204 -154 -253 -219 -315 -511 -495 -128 -79 -204 -152 -244
-234 -30 -60 -33 -75 -33 -157 0 -107 19 -157 87 -231 103 -112 331 -173 941
-249 339 -42 644 -71 947 -90 376 -24 357 -19 385 -107 59 -181 222 -320 447
-380 65 -17 110 -22 208 -22 155 0 267 26 395 89 170 85 232 148 279 285 16
47 32 88 35 92 8 10 231 30 671 63 714 53 1059 100 1358 186 223 63 323 118
387 207 28 41 30 50 30 130 0 76 -4 95 -29 146 -42 86 -148 191 -287 287 -66
45 -155 112 -197 148 -276 239 -496 616 -618 1060 -83 302 -113 493 -149 951
-14 179 -32 379 -40 444 -60 463 -210 772 -503 1031 -162 144 -246 192 -482
280 -85 32 -186 73 -224 92 -60 30 -67 37 -61 56 14 44 17 252 5 310 -37 181
-182 329 -358 366 -71 15 -175 13 -240 -5z m283 -103 c118 -55 220 -171 250
-286 17 -67 15 -93 -22 -238 -13 -53 -23 -104 -21 -113 2 -10 67 -39 193 -85
330 -121 530 -231 690 -381 228 -213 354 -514 414 -988 11 -85 29 -279 41
-430 32 -415 68 -640 146 -909 91 -315 217 -589 385 -836 122 -181 211 -263
469 -435 68 -46 146 -105 172 -131 91 -91 133 -231 93 -308 -60 -117 -329
-208 -812 -275 -291 -41 -542 -64 -1393 -131 -107 -9 -204 -20 -216 -24 -16
-7 -24 -27 -38 -92 -9 -46 -27 -103 -38 -127 -27 -57 -100 -114 -213 -168
-128 -61 -205 -78 -355 -78 -183 0 -308 39 -429 134 -55 43 -124 139 -135 187
-21 89 -38 132 -53 138 -10 3 -241 28 -513 56 -928 92 -1398 158 -1595 224
-153 51 -237 155 -221 273 8 61 58 150 114 205 26 25 99 78 162 118 142 88
215 146 305 241 220 229 399 537 508 873 91 278 132 524 177 1055 40 461 73
669 141 873 135 409 395 687 796 851 97 40 386 148 436 163 23 7 22 50 -4 160
-26 111 -23 198 10 267 51 105 188 218 297 246 72 18 187 5 259 -29z"/>
<path d="M3519 16680 c-48 -8 -123 -53 -148 -89 -56 -78 -41 -201 31 -268 87
-82 248 -63 315 38 24 36 28 53 28 108 0 138 -101 232 -226 211z m109 -114
c34 -32 37 -39 37 -89 0 -66 -26 -101 -88 -118 -77 -21 -157 45 -157 129 0 64
57 112 133 112 29 0 46 -8 75 -34z"/>
<path d="M15805 16433 c-237 -85 -381 -331 -720 -1225 -64 -166 -123 -311
-133 -320 -13 -14 -97 -29 -367 -68 -707 -102 -1056 -164 -1203 -214 -83 -28
-206 -110 -268 -180 -126 -139 -135 -274 -33 -464 55 -103 116 -181 239 -303
156 -154 334 -292 700 -541 179 -122 329 -224 333 -228 11 -10 -32 -215 -98
-465 -212 -805 -246 -963 -226 -1071 23 -125 100 -227 209 -281 52 -25 67 -28
162 -28 93 0 113 3 175 29 123 51 469 213 890 418 551 269 495 246 557 224 28
-10 130 -66 227 -125 97 -59 271 -160 386 -225 116 -65 278 -159 360 -209 178
-108 289 -161 376 -182 181 -42 297 4 398 159 52 79 71 139 71 220 0 35 -54
356 -125 748 -69 378 -125 706 -125 728 0 79 18 98 340 365 306 255 403 340
502 442 322 335 403 642 223 842 -51 56 -164 124 -256 155 -116 39 -230 53
-749 91 -654 49 -619 45 -640 68 -22 23 -153 314 -324 719 -246 583 -311 705
-424 809 -32 29 -90 68 -132 88 -68 32 -84 36 -175 39 -76 2 -112 -2 -150 -15z
m291 -88 c117 -68 237 -229 354 -470 67 -139 87 -189 275 -665 99 -250 178
-419 222 -471 38 -44 101 -58 332 -69 525 -26 701 -40 879 -71 365 -63 524
-189 510 -404 -6 -85 -51 -193 -121 -285 -56 -74 -243 -286 -269 -305 -12 -8
-75 -65 -141 -127 -66 -62 -180 -162 -253 -223 -74 -60 -190 -159 -259 -219
l-125 -109 0 -56 c0 -106 38 -321 168 -946 76 -367 77 -371 77 -525 0 -174
-10 -213 -76 -279 -55 -55 -111 -76 -204 -75 -125 1 -91 -16 -976 496 -157 91
-330 189 -383 218 -96 52 -98 52 -139 40 -82 -24 -940 -421 -1283 -593 -134
-67 -198 -87 -283 -87 -168 0 -254 69 -283 230 -15 80 0 223 41 375 91 347
187 712 227 865 47 184 59 287 36 328 -7 12 -66 58 -130 100 -113 75 -270 186
-532 376 -489 355 -708 636 -662 853 34 165 185 266 487 328 88 18 841 138
1165 186 199 29 265 48 282 79 4 8 37 98 73 200 102 290 255 668 350 868 120
250 251 403 394 458 23 9 65 13 117 11 68 -3 89 -8 130 -32z"/>
<path d="M15890 15829 c-24 -11 -53 -28 -63 -37 -37 -33 -60 -94 -61 -158 -2
-121 88 -208 213 -207 125 2 201 79 201 205 -1 162 -148 262 -290 197z m148
-89 c56 -34 77 -112 47 -170 -32 -63 -138 -81 -194 -35 -56 48 -65 140 -18
182 53 48 110 56 165 23z"/>
<path d="M9865 9270 c-272 -59 -434 -289 -381 -540 17 -80 66 -193 115 -264
l30 -43 -92 -8 c-52 -4 -110 -14 -133 -25 -53 -23 -54 -29 -54 -333 l0 -239
32 -64 32 -64 -54 -47 c-363 -308 -653 -860 -744 -1413 -71 -431 -56 -923 45
-1438 169 -865 526 -1760 1189 -2977 111 -203 202 -370 203 -371 1 -1 16 -4
34 -7 l31 -6 78 142 c107 197 386 751 469 932 461 1012 721 1871 801 2650 24
233 24 646 0 845 -77 642 -308 1147 -711 1556 -60 61 -123 121 -139 132 l-28
22 15 87 c22 123 29 288 19 421 -13 171 -34 190 -217 199 l-114 6 35 45 c138
181 149 443 26 621 -48 71 -136 135 -220 161 -75 24 -207 34 -267 20z m262
-104 c69 -31 147 -106 181 -172 63 -124 69 -271 15 -385 -146 -314 -627 -282
-745 48 -29 83 -29 208 2 286 44 114 149 208 270 242 85 23 200 15 277 -19z
m-297 -843 c171 -14 213 -15 340 -3 273 24 302 25 332 0 39 -30 48 -76 48
-251 0 -165 -11 -254 -34 -278 -12 -11 -102 -13 -538 -13 -482 1 -524 3 -535
19 -14 18 -16 159 -4 388 l6 130 45 12 c64 16 118 16 340 -4z m661 -646 c90
-44 361 -331 487 -516 207 -303 326 -622 395 -1061 19 -119 21 -178 22 -490 0
-379 -7 -477 -61 -803 -85 -524 -277 -1172 -529 -1787 -101 -245 -215 -492
-425 -915 -196 -394 -274 -535 -298 -535 -4 0 -29 44 -56 97 -26 54 -106 199
-176 323 -387 683 -786 1601 -974 2243 -159 540 -226 962 -226 1418 0 378 41
651 146 974 43 134 169 394 258 533 134 210 322 429 436 507 l43 30 296 6
c163 3 366 5 451 5 148 -1 157 -2 211 -29z"/>
<path d="M9875 9039 c-48 -13 -115 -78 -141 -133 -30 -64 -32 -153 -5 -211 22
-50 86 -108 137 -126 22 -7 64 -13 94 -13 73 0 124 19 173 63 52 47 77 102 77
172 0 154 -105 261 -254 258 -28 0 -65 -5 -81 -10z m173 -96 c49 -36 66 -70
70 -136 3 -52 0 -67 -20 -96 -33 -49 -69 -72 -121 -78 -60 -7 -110 11 -146 52
-79 91 -54 216 53 267 51 23 126 19 164 -9z"/>
<path d="M15330 8947 c-220 -75 -375 -273 -396 -506 -11 -123 24 -233 124
-385 40 -62 44 -73 40 -117 -6 -59 -73 -180 -141 -255 -26 -28 -89 -80 -140
-115 -138 -93 -227 -169 -259 -218 -25 -40 -28 -54 -27 -120 0 -42 4 -102 8
-134 6 -51 5 -59 -14 -71 -11 -7 -77 -62 -145 -121 -69 -60 -195 -154 -280
-210 -86 -57 -189 -129 -230 -162 -41 -32 -172 -131 -290 -219 -295 -221 -396
-324 -553 -564 -204 -316 -301 -680 -268 -1015 40 -419 222 -765 625 -1190
341 -360 711 -635 1158 -861 456 -230 640 -348 902 -576 48 -43 92 -78 97 -78
4 0 169 106 366 237 197 130 489 313 648 406 530 310 529 310 943 679 314 279
339 304 424 420 109 149 151 219 239 403 71 147 136 328 164 455 26 119 31
357 10 481 -62 371 -286 733 -661 1070 -140 125 -183 158 -444 334 -286 193
-418 293 -545 416 l-110 107 23 63 c34 99 28 155 -26 213 -15 15 -70 63 -122
106 -167 136 -279 262 -420 475 -40 61 -81 119 -91 131 -18 20 -18 22 21 111
126 286 102 498 -75 667 -67 64 -149 114 -234 143 -92 31 -230 31 -321 0z
m299 -86 c33 -10 80 -30 103 -44 54 -31 149 -130 176 -182 54 -108 68 -253 33
-364 -84 -269 -408 -412 -658 -289 -73 36 -162 125 -205 204 -82 151 -77 360
12 489 110 161 352 244 539 186z m343 -1027 c152 -211 215 -282 364 -410 72
-61 142 -126 156 -142 36 -43 42 -89 21 -153 -16 -49 -22 -55 -58 -66 -60 -17
-170 -16 -208 3 -18 9 -62 45 -99 80 -36 35 -71 64 -77 64 -5 0 -28 -26 -50
-57 -21 -32 -52 -70 -68 -86 -78 -73 -215 -59 -315 32 -47 43 -88 71 -102 71
-3 0 -19 -27 -37 -61 -52 -96 -96 -119 -232 -120 -103 -1 -135 15 -192 95 -26
36 -54 66 -62 66 -9 0 -55 -17 -102 -37 -106 -47 -180 -51 -251 -14 -25 13
-48 29 -52 35 -15 22 -8 131 11 171 23 51 56 79 165 140 207 117 329 253 382
430 10 33 19 62 21 64 1 2 31 -10 65 -28 170 -85 355 -74 523 33 39 24 74 43
80 42 5 -2 58 -70 117 -152z m159 -798 c73 -56 131 -70 270 -63 l118 7 123
-115 c160 -151 269 -235 583 -450 143 -98 294 -206 335 -240 84 -70 290 -280
290 -295 0 -19 -165 -118 -328 -198 -378 -186 -826 -337 -1202 -406 -634 -116
-1337 -75 -1967 114 -337 101 -933 350 -1081 452 l-43 29 73 81 c168 187 367
346 803 642 190 129 296 208 393 295 l133 120 102 -6 c96 -5 107 -3 185 26 98
36 99 36 106 13 11 -33 70 -85 125 -110 43 -20 71 -25 135 -25 99 -1 147 19
225 90 l55 49 55 -33 c30 -18 80 -42 110 -54 107 -40 225 -12 307 72 21 22 41
39 44 39 4 0 27 -15 51 -34z m-2672 -1376 c206 -103 639 -273 874 -344 234
-70 522 -130 787 -163 224 -28 736 -25 960 5 489 66 914 192 1396 415 88 40
198 96 245 124 46 28 108 63 138 78 l53 26 44 -46 c124 -133 237 -378 290
-625 22 -105 25 -324 5 -425 -19 -95 -97 -359 -120 -404 -39 -74 -76 -95 -350
-193 -718 -256 -1283 -382 -1923 -428 -187 -13 -611 -13 -793 0 -436 32 -901
121 -1290 248 -137 45 -555 202 -665 250 -178 78 -247 220 -268 554 -15 232
11 430 85 642 43 124 129 294 189 369 l44 57 49 -20 c27 -10 140 -64 250 -120z
m4575 -1566 c-65 -157 -299 -438 -555 -670 -268 -243 -389 -331 -734 -534
-641 -378 -950 -573 -1116 -706 l-66 -53 -39 27 c-22 14 -111 81 -199 148
-225 171 -320 231 -645 404 -514 275 -728 414 -1015 659 -127 109 -183 165
-299 304 -152 182 -326 431 -312 445 7 7 156 -45 376 -131 376 -146 597 -211
955 -281 843 -164 1611 -154 2437 30 291 64 509 133 1008 318 113 41 208 75
212 76 4 0 0 -16 -8 -36z"/>
<path d="M15373 8672 c-118 -42 -168 -115 -168 -247 0 -93 28 -167 86 -224
123 -124 349 -79 425 83 28 61 32 159 9 227 -48 141 -206 213 -352 161z m202
-90 c83 -49 118 -168 75 -257 -31 -65 -84 -98 -165 -103 -52 -3 -71 0 -103 18
-131 74 -136 270 -9 337 70 36 145 38 202 5z"/>
<path d="M3948 8510 c-45 -5 -89 -15 -104 -25 -52 -34 -56 -62 -55 -395 1
-168 4 -339 8 -380 5 -69 9 -78 41 -108 38 -37 36 -44 -23 -62 -57 -18 -218
-99 -300 -152 -207 -133 -340 -304 -375 -485 -18 -90 -9 -254 18 -327 56 -155
172 -282 381 -420 74 -49 129 -92 125 -96 -8 -8 -47 -20 -286 -85 -161 -44
-306 -103 -533 -215 -433 -215 -682 -403 -855 -648 -377 -533 -328 -1142 129
-1615 128 -133 215 -204 387 -317 308 -202 650 -347 1111 -471 112 -30 203
-57 203 -60 0 -4 -18 -19 -41 -34 -58 -41 -143 -136 -170 -192 -18 -37 -24
-65 -24 -118 0 -100 34 -166 139 -270 68 -68 98 -89 186 -133 58 -28 168 -70
245 -93 77 -23 141 -43 143 -44 2 -1 12 -40 23 -86 46 -197 116 -358 190 -443
22 -25 64 -57 95 -72 47 -23 63 -26 119 -22 149 12 212 94 275 353 42 168 65
229 99 258 16 13 71 36 127 51 270 77 491 223 565 373 19 38 24 64 24 123 0
98 -30 153 -143 272 -92 96 -94 89 18 108 448 78 1059 340 1402 601 118 91
296 271 371 376 115 162 199 350 231 523 20 106 21 304 0 410 -89 469 -471
878 -1109 1186 -271 131 -531 218 -851 284 -109 23 -208 47 -221 53 -21 12
-19 15 60 72 45 33 120 98 167 145 143 143 202 270 201 435 0 104 -18 181 -65
280 -91 191 -227 304 -556 462 -74 36 -130 67 -123 70 6 2 33 10 59 16 45 11
49 15 58 52 21 85 10 806 -13 843 -15 24 -196 32 -731 30 -300 -1 -580 -4
-622 -8z m1263 -85 l26 -7 6 -327 c7 -347 3 -390 -36 -415 -45 -30 -191 -45
-527 -55 -376 -13 -547 -5 -701 32 l-94 23 -3 372 c-1 204 -1 373 0 373 35 16
1266 20 1329 4z m-51 -929 c318 -145 388 -186 503 -295 122 -116 187 -244 194
-386 7 -114 -6 -177 -59 -283 -66 -135 -225 -278 -410 -369 -79 -38 -88 -46
-88 -80 0 -27 17 -32 230 -68 432 -73 723 -161 1021 -311 769 -385 1159 -915
1075 -1461 -59 -387 -338 -755 -784 -1036 -319 -201 -796 -378 -1219 -452
-137 -24 -223 -49 -223 -65 0 -21 49 -63 110 -96 86 -45 164 -119 192 -181 31
-70 30 -161 -4 -235 -62 -134 -201 -215 -532 -307 -76 -22 -142 -43 -148 -49
-5 -5 -29 -85 -52 -178 -87 -338 -140 -424 -261 -424 -139 0 -257 198 -314
529 l-16 94 -91 18 c-296 60 -525 186 -584 321 -36 81 -32 169 9 253 38 77 72
105 209 173 76 39 92 50 92 70 0 34 -61 57 -236 88 -421 73 -906 268 -1261
506 -496 332 -738 765 -683 1223 27 229 102 400 263 600 166 207 295 317 559
479 284 174 480 249 1024 391 133 35 184 52 192 66 20 31 0 53 -80 88 -226
101 -292 145 -419 278 -194 204 -220 422 -78 660 46 76 164 192 262 257 100
66 185 109 342 172 113 45 127 49 240 55 66 3 300 6 520 5 l400 -2 105 -48z"/>
<path d="M4456 8248 c-25 -7 -59 -30 -92 -62 -84 -82 -105 -195 -55 -294 39
-76 135 -132 226 -132 92 0 187 56 227 134 25 48 29 137 9 204 -35 122 -173
187 -315 150z m137 -82 c72 -31 118 -120 103 -201 -10 -50 -71 -111 -122 -121
-87 -16 -162 19 -195 90 -45 99 -4 195 98 231 49 18 76 18 116 1z"/>
</g>
</svg>
