<?xml version="1.0" standalone="no"?>
<!DOCTYPE svg PUBLIC "-//W3C//DTD SVG 20010904//EN"
 "http://www.w3.org/TR/2001/REC-SVG-20010904/DTD/svg10.dtd">
<svg version="1.0" xmlns="http://www.w3.org/2000/svg"
 width="391.000000pt" height="211.000000pt" viewBox="0 0 391.000000 211.000000"
 preserveAspectRatio="xMidYMid meet">

<g transform="translate(0.000000,211.000000) scale(0.100000,-0.100000)"
fill="#000000" stroke="none">
<path d="M3377 2002 c-7 -10 4 -62 13 -62 4 0 7 -13 6 -29 -1 -16 -4 -27 -7
-25 -8 5 -21 -85 -13 -97 3 -5 0 -9 -6 -9 -8 0 -10 -10 -6 -27 4 -18 3 -23 -2
-15 -7 11 -10 9 -15 -7 -3 -12 -1 -24 4 -27 6 -3 5 -11 -2 -20 -6 -7 -15 -12
-19 -9 -4 2 -12 -7 -18 -20 -6 -14 -8 -24 -4 -22 10 3 13 -14 6 -35 -8 -26
-26 -22 -19 5 3 13 -2 8 -14 -13 -11 -19 -18 -43 -15 -53 6 -21 -22 -70 -36
-62 -5 3 -12 0 -16 -6 -5 -8 -3 -9 6 -4 10 6 12 3 8 -13 -4 -12 -2 -20 3 -16
5 3 9 11 9 19 0 7 4 15 8 17 4 2 23 24 42 50 28 41 36 46 49 36 11 -9 10 -6
-2 9 -17 20 -17 23 -2 52 8 17 18 31 21 31 3 0 3 -4 0 -9 -4 -5 -4 -15 -1 -23
4 -10 24 -12 80 -10 63 3 75 1 75 -12 0 -19 21 -21 38 -4 7 7 12 8 12 4 0 -5
8 -2 17 5 11 10 14 10 9 2 -4 -8 -2 -13 8 -13 8 0 18 5 22 11 11 18 20 -2 34
-70 12 -55 48 -151 50 -128 0 11 -31 129 -40 152 -9 20 -23 66 -25 75 0 3 -4
11 -9 18 -4 7 -3 19 4 27 16 19 6 19 -13 0 -13 -12 -15 -11 -13 9 1 15 6 22
15 18 11 -4 11 -1 1 19 -25 48 -83 128 -90 124 -4 -3 -7 3 -6 13 0 10 -5 16
-14 14 -8 -2 -12 0 -7 4 9 9 -43 65 -54 58 -4 -2 -11 1 -15 7 -5 8 -3 9 7 4 8
-4 -2 8 -20 28 -38 41 -38 40 -44 29z m36 -36 c4 -10 1 -13 -8 -9 -8 3 -12 9
-9 14 7 12 11 11 17 -5z m177 -208 c0 -5 0 -11 -1 -14 0 -4 5 -10 11 -14 8 -5
7 -9 -3 -13 -10 -4 -14 0 -12 11 1 9 -7 28 -19 41 l-21 24 23 -14 c12 -8 22
-17 22 -21z m-250 -102 c0 -3 -4 -8 -10 -11 -5 -3 -10 -1 -10 4 0 6 5 11 10
11 6 0 10 -2 10 -4z m285 -15 c3 -5 0 -13 -6 -17 -7 -4 -9 -3 -5 4 3 5 0 13
-6 15 -9 4 -10 6 -1 6 6 1 14 -3 18 -8z m-336 -87 c-15 -18 -22 -13 -13 10 3
9 10 13 16 10 5 -3 4 -12 -3 -20z"/>
<path d="M1458 1857 c6 -99 -20 -184 -105 -347 -193 -369 -201 -385 -223 -475
-30 -122 -25 -301 12 -416 29 -88 106 -234 150 -284 45 -52 122 -85 200 -88
60 -2 69 1 103 28 74 60 162 289 200 520 33 198 11 461 -56 688 -48 161 -137
310 -234 393 l-51 43 4 -62z m73 -24 c169 -179 259 -463 259 -821 0 -186 -13
-274 -66 -450 -47 -156 -93 -245 -145 -279 -25 -17 -43 -23 -47 -16 -4 5 -24
16 -45 23 -99 32 -217 256 -217 410 0 70 36 222 71 293 16 35 58 95 93 133 34
38 73 86 86 108 27 46 32 40 56 -60 47 -204 62 -428 39 -609 -20 -160 -33
-223 -51 -252 -8 -13 -10 -23 -5 -23 20 0 34 48 57 194 43 272 26 523 -53 796
l-16 55 -13 -38 c-17 -49 -44 -87 -115 -164 -137 -149 -192 -385 -135 -580 29
-102 59 -153 134 -231 49 -51 56 -62 38 -62 -38 1 -105 38 -146 82 -53 56
-126 190 -158 287 -37 115 -42 280 -12 397 27 109 47 154 137 314 114 204 169
327 188 418 9 45 13 91 10 102 -10 32 8 23 56 -27z"/>
<path d="M498 1851 c7 -93 -20 -190 -92 -326 -206 -393 -214 -412 -236 -498
-31 -121 -25 -303 13 -420 29 -89 105 -232 149 -282 38 -44 117 -81 191 -90
52 -6 62 -4 100 20 65 42 116 147 176 365 77 284 66 591 -34 897 -47 142 -135
275 -246 371 l-25 22 4 -59z m73 -28 c52 -55 117 -153 153 -233 29 -63 81
-262 96 -365 15 -110 12 -380 -6 -476 -22 -120 -79 -300 -119 -379 -42 -84
-79 -112 -152 -118 -113 -9 -203 59 -285 215 -66 127 -88 207 -95 344 -5 100
-3 129 16 203 28 108 39 134 117 277 139 255 193 372 209 454 9 44 13 90 10
102 -8 34 6 28 56 -24z"/>
<path d="M2378 1846 c7 -114 -37 -234 -184 -496 -78 -138 -123 -238 -144 -323
-31 -120 -25 -303 12 -418 29 -88 106 -234 150 -284 38 -44 118 -81 193 -90
56 -6 63 -4 101 23 67 49 114 146 173 362 74 272 67 559 -21 854 -47 161 -143
318 -241 399 l-43 35 4 -62z m73 -23 c122 -129 199 -307 244 -567 21 -121 20
-392 -1 -505 -37 -196 -138 -459 -182 -475 -9 -3 -27 -10 -39 -16 -16 -6 -23
-6 -23 1 0 6 8 13 19 16 51 13 86 211 85 478 0 201 -19 336 -70 512 l-17 58
-13 -38 c-17 -48 -44 -87 -113 -162 -73 -79 -117 -164 -141 -272 -27 -120 -25
-210 4 -310 29 -102 62 -158 136 -233 48 -50 54 -60 36 -60 -37 1 -102 36
-145 81 -53 55 -126 188 -158 288 -38 116 -43 280 -13 397 27 109 47 154 137
314 114 203 170 328 188 415 9 44 13 90 10 102 -8 34 6 28 56 -24z m48 -678
c44 -205 59 -408 41 -550 -18 -142 -39 -255 -50 -273 -7 -12 -8 -7 -2 18 12
60 8 291 -7 342 -14 50 -69 118 -94 118 -51 0 -92 -111 -91 -245 0 -75 5 -99
27 -148 14 -32 36 -71 47 -87 38 -54 2 -31 -50 31 -63 76 -84 116 -110 215
-25 98 -25 146 0 263 27 121 70 208 145 290 34 36 72 83 84 104 29 48 34 42
60 -78z m-65 -398 c36 -47 49 -116 49 -257 0 -131 -16 -202 -45 -208 -36 -7
-119 142 -133 238 -8 54 9 158 35 218 24 54 57 58 94 9z"/>
<path d="M3640 1665 c0 -5 5 -17 10 -25 5 -8 10 -10 10 -5 0 6 -5 17 -10 25
-5 8 -10 11 -10 5z"/>
<path d="M3338 1608 c-8 -19 16 -45 27 -28 3 5 2 10 -4 10 -5 0 -11 8 -13 18
-3 16 -4 16 -10 0z"/>
<path d="M3621 1584 c0 -11 3 -14 6 -6 3 7 2 16 -1 19 -3 4 -6 -2 -5 -13z"/>
<path d="M3676 1545 c4 -8 8 -15 10 -15 2 0 4 7 4 15 0 8 -4 15 -10 15 -5 0
-7 -7 -4 -15z"/>
<path d="M3691 1504 c0 -11 3 -14 6 -6 3 7 2 16 -1 19 -3 4 -6 -2 -5 -13z"/>
<path d="M3189 1419 c-8 -15 -8 -19 0 -15 6 4 11 2 11 -4 0 -6 5 -8 10 -5 6 3
10 11 10 16 0 6 -5 7 -12 3 -8 -5 -9 -2 -5 9 9 24 0 21 -14 -4z"/>
<path d="M3711 1424 c0 -11 3 -14 6 -6 3 7 2 16 -1 19 -3 4 -6 -2 -5 -13z"/>
<path d="M3166 1373 c-6 -14 -5 -15 5 -6 7 7 10 15 7 18 -3 3 -9 -2 -12 -12z"/>
<path d="M3183 1360 c-11 -16 -10 -18 2 -14 8 4 15 12 15 20 0 19 -3 18 -17
-6z"/>
<path d="M3732 1340 c0 -14 2 -19 5 -12 2 6 2 18 0 25 -3 6 -5 1 -5 -13z"/>
<path d="M3140 1330 c-6 -11 -8 -20 -6 -20 3 0 10 9 16 20 6 11 8 20 6 20 -3
0 -10 -9 -16 -20z"/>
<path d="M3741 1274 c0 -11 3 -14 6 -6 3 7 2 16 -1 19 -3 4 -6 -2 -5 -13z"/>
<path d="M3076 1203 c-6 -14 -5 -15 5 -6 7 7 10 15 7 18 -3 3 -9 -2 -12 -12z"/>
<path d="M3753 1185 c0 -22 2 -30 4 -17 2 12 2 30 0 40 -3 9 -5 -1 -4 -23z"/>
<path d="M3056 1165 c-3 -9 -6 -22 -5 -28 0 -7 5 -1 10 12 5 13 8 26 5 28 -2
2 -6 -3 -10 -12z"/>
<path d="M3753 1060 c0 -25 2 -35 4 -22 2 12 2 32 0 45 -2 12 -4 2 -4 -23z"/>
<path d="M3751 884 c0 -11 3 -14 6 -6 3 7 2 16 -1 19 -3 4 -6 -2 -5 -13z"/>
<path d="M3397 463 c-13 -24 -16 -65 -5 -87 13 -30 62 -37 72 -11 7 19 -3 75
-17 93 -10 13 -43 16 -50 5z"/>
</g>
</svg>
