<?xml version="1.0" standalone="no"?>
<!DOCTYPE svg PUBLIC "-//W3C//DTD SVG 20010904//EN"
 "http://www.w3.org/TR/2001/REC-SVG-20010904/DTD/svg10.dtd">
<svg version="1.0" xmlns="http://www.w3.org/2000/svg"
 width="308.000000pt" height="101.000000pt" viewBox="0 0 308.000000 101.000000"
 preserveAspectRatio="xMidYMid meet">

<g transform="translate(0.000000,101.000000) scale(0.100000,-0.100000)"
fill="#000000" stroke="none">
<path d="M789 994 c-93 -28 -189 -143 -279 -336 -42 -91 -47 -97 -75 -97 -68
-1 -158 66 -189 141 -32 75 -10 148 56 188 36 22 128 27 186 11 17 -5 32 -6
32 -2 0 15 -56 33 -116 38 -51 5 -71 1 -116 -19 -71 -33 -101 -74 -106 -147
-3 -45 1 -65 20 -101 31 -57 104 -113 177 -135 31 -10 57 -19 59 -20 6 -5 -56
-120 -92 -169 -72 -101 -149 -140 -228 -117 -101 31 -76 181 30 181 26 0 45
-7 57 -20 30 -34 59 -24 32 11 -20 26 -53 39 -102 39 -124 0 -166 -171 -58
-233 23 -13 52 -19 99 -18 145 1 297 116 382 289 15 28 31 52 38 52 6 0 49 18
94 41 176 88 292 263 247 372 -8 19 -20 38 -27 42 -29 18 -78 21 -121 9z m73
-89 c28 -62 -43 -178 -161 -262 -111 -80 -113 -76 -36 81 53 108 86 155 135
189 33 23 48 21 62 -8z"/>
<path d="M2005 960 c-36 -14 -115 -102 -180 -200 -62 -94 -160 -279 -186 -353
-17 -48 -104 -155 -136 -168 -28 -10 -63 4 -63 26 0 8 22 39 50 69 79 88 95
131 64 174 -26 38 -71 29 -147 -31 -21 -16 -41 -27 -44 -24 -3 4 7 27 21 52
l27 45 -30 0 c-27 0 -33 -8 -86 -107 -68 -128 -116 -190 -162 -209 -53 -23
-83 2 -83 66 0 42 10 60 31 60 31 0 94 36 123 71 34 40 33 88 -3 105 -48 24
-116 -26 -177 -129 -44 -76 -102 -145 -135 -162 -22 -12 -29 -12 -45 0 -39 28
-17 120 74 318 40 85 42 87 75 87 22 0 37 6 41 15 4 11 -2 15 -24 15 -17 0
-30 3 -30 6 0 3 23 47 50 98 28 51 50 96 50 99 0 4 -15 7 -32 7 -32 0 -35 -5
-87 -105 -44 -86 -58 -105 -76 -105 -13 0 -28 -7 -35 -15 -11 -13 -8 -15 14
-15 26 0 26 0 12 -32 -126 -284 -134 -314 -101 -377 17 -33 33 -41 85 -41 40
0 73 24 117 85 l22 30 1 -27 c1 -84 86 -129 156 -83 l24 15 -21 -52 c-58 -146
-60 -158 -21 -158 25 0 29 6 50 73 13 40 45 118 71 172 40 83 60 111 119 168
79 76 114 86 120 35 3 -22 -9 -41 -57 -92 -35 -37 -61 -75 -61 -87 0 -11 13
-34 29 -50 23 -23 38 -29 72 -29 35 0 47 6 77 37 l35 38 -7 -43 -6 -43 31 3
c30 3 32 6 50 76 25 100 44 136 97 183 46 40 74 47 80 19 1 -9 -18 -51 -43
-95 -37 -64 -45 -88 -43 -120 2 -30 9 -42 26 -51 40 -20 74 -3 117 60 l40 58
8 -38 c8 -40 41 -84 63 -84 7 0 29 14 49 31 20 18 37 30 38 28 2 -2 10 -16 19
-30 22 -35 50 -41 93 -19 34 17 35 17 35 -1 0 -14 7 -19 30 -19 22 0 30 5 30
18 0 33 40 135 68 176 31 45 96 96 124 96 29 0 22 -30 -27 -116 -46 -81 -54
-117 -32 -148 20 -27 73 -24 106 8 l28 27 17 -26 c12 -18 25 -25 47 -25 42 0
63 13 102 65 l35 45 6 -39 c11 -71 86 -102 156 -66 32 16 89 83 114 133 21 41
12 56 -11 21 -60 -85 -134 -142 -174 -132 -24 7 -43 56 -35 97 6 29 11 34 42
39 89 15 172 118 129 161 -47 46 -129 -1 -194 -113 -55 -93 -128 -173 -155
-169 -32 5 -24 37 44 176 33 68 60 125 60 128 0 2 -11 4 -24 4 -30 0 -48 -25
-103 -140 -43 -89 -109 -170 -138 -170 -26 0 -13 46 33 119 44 67 59 120 42
151 -14 27 -46 25 -99 -5 -51 -29 -59 -27 -36 9 l17 26 -30 0 c-29 0 -35 -7
-91 -113 -62 -116 -130 -202 -153 -195 -28 10 -17 56 42 176 33 68 60 125 60
128 0 13 -59 2 -64 -13 -6 -14 -9 -14 -27 5 -52 57 -159 1 -220 -113 -46 -85
-125 -177 -148 -173 -23 5 -15 43 19 93 63 93 77 156 42 188 -25 23 -41 21
-84 -8 -48 -32 -51 -32 -32 8 11 22 37 44 85 71 143 81 232 191 233 287 1 33
-5 53 -18 68 -21 23 -22 23 -51 11z m43 -53 c4 -33 -28 -107 -70 -159 -40 -51
-162 -152 -166 -139 -2 6 31 71 72 145 95 168 156 225 164 153z m-842 -401 c6
-17 -22 -76 -45 -93 -27 -21 -82 -45 -88 -39 -10 10 58 112 86 129 32 20 40
21 47 3z m950 -10 c8 -35 -20 -125 -58 -182 -36 -54 -82 -79 -98 -54 -28 44 5
154 65 216 47 50 81 57 91 20z m820 9 c11 -28 -19 -77 -65 -106 -67 -43 -77
-38 -45 22 27 49 75 99 95 99 5 0 12 -7 15 -15z"/>
<path d="M2781 721 c-23 -23 -26 -37 -12 -45 26 -16 65 34 43 56 -7 7 -17 3
-31 -11z"/>
</g>
</svg>
