<?xml version="1.0" standalone="no"?>
<!DOCTYPE svg PUBLIC "-//W3C//DTD SVG 20010904//EN"
 "http://www.w3.org/TR/2001/REC-SVG-20010904/DTD/svg10.dtd">
<svg version="1.0" xmlns="http://www.w3.org/2000/svg"
 width="326.000000pt" height="114.000000pt" viewBox="0 0 326.000000 114.000000"
 preserveAspectRatio="xMidYMid meet">

<g transform="translate(0.000000,114.000000) scale(0.100000,-0.100000)"
fill="#000000" stroke="none">
<path d="M789 1102 c-73 -47 -174 -176 -265 -339 -29 -52 -30 -53 -76 -53 -58
0 -64 -18 -8 -22 l40 -3 -49 -83 c-142 -238 -267 -318 -357 -228 -42 42 -46
85 -9 121 32 33 105 35 136 4 26 -26 45 -12 23 19 -32 45 -135 45 -181 0 -34
-34 -40 -92 -15 -138 52 -95 182 -96 289 -3 44 39 122 146 172 237 l42 76 126
0 c115 0 125 -1 118 -17 -20 -46 -55 -179 -55 -207 0 -37 30 -104 56 -128 30
-27 75 -40 133 -39 197 2 357 257 236 378 -41 41 -81 44 -118 7 -29 -29 -61
-111 -46 -119 5 -4 13 6 19 22 26 75 52 100 92 90 28 -7 48 -44 48 -90 0 -73
-76 -179 -159 -221 -40 -21 -115 -21 -132 0 -27 33 -23 123 11 227 31 93 34
97 61 97 16 0 29 5 29 10 0 6 -9 10 -20 10 -11 0 -20 3 -20 6 0 4 16 48 37 98
27 69 37 110 41 168 l5 77 -36 36 c-46 46 -102 49 -168 7z m111 -27 c19 -23 6
-78 -54 -227 l-54 -133 -127 -3 -127 -3 27 48 c118 204 236 332 306 333 9 0
22 -7 29 -15z"/>
<path d="M2443 1061 c-85 -52 -220 -291 -309 -546 -32 -93 -69 -146 -120 -170
-33 -15 -37 -15 -60 0 -22 14 -25 22 -22 67 l3 51 47 14 c114 33 174 162 79
171 -59 6 -136 -64 -171 -156 -25 -67 -130 -191 -130 -154 0 22 64 230 80 263
11 21 20 41 20 44 0 13 -50 3 -58 -11 -8 -15 -11 -15 -31 5 -26 26 -44 26 -96
2 -49 -22 -100 -79 -126 -138 -11 -25 -40 -69 -65 -99 -71 -82 -113 -67 -59
21 40 65 75 139 75 158 0 31 -20 57 -43 57 -12 0 -42 -12 -66 -25 -51 -29 -59
-27 -36 9 17 26 17 26 -13 26 -28 0 -34 -7 -77 -87 -45 -85 -95 -215 -95 -247
0 -11 9 -16 30 -16 23 0 30 4 30 20 0 33 48 150 76 183 37 44 94 87 115 87 30
0 23 -34 -20 -106 -22 -36 -42 -78 -46 -93 -9 -40 9 -78 39 -83 37 -7 66 11
106 65 l35 47 6 -30 c17 -80 70 -103 128 -54 27 22 31 23 30 7 -3 -52 -14 -64
-92 -97 -120 -53 -187 -113 -187 -169 0 -55 86 -85 149 -53 55 29 131 134 156
216 4 14 38 54 75 90 l69 65 18 -40 c33 -73 114 -78 183 -10 39 38 50 43 50
22 0 -28 45 -57 88 -57 32 0 49 7 77 31 l35 31 9 -25 c18 -48 81 -51 127 -6
l32 31 -8 -36 c-8 -35 -7 -36 21 -36 16 0 31 6 33 13 29 117 53 165 107 220
56 56 94 72 105 44 3 -8 -16 -51 -40 -98 -25 -46 -46 -96 -46 -110 0 -39 22
-62 59 -61 40 1 54 12 97 77 27 40 34 45 34 27 0 -31 26 -79 50 -92 24 -13 64
4 85 37 l16 24 22 -33 c26 -39 66 -48 103 -23 28 18 117 150 112 166 -2 5 -29
-22 -61 -61 -63 -76 -86 -93 -107 -80 -19 12 -1 67 65 196 l52 104 -27 0 c-15
0 -33 -7 -40 -15 -11 -13 -14 -12 -29 7 -48 59 -174 -12 -226 -128 -25 -55
-119 -164 -141 -164 -26 0 -14 46 28 111 36 55 42 72 42 119 1 53 0 55 -27 58
-19 2 -43 -6 -69 -23 -43 -29 -56 -28 -39 3 16 30 14 34 -16 30 -22 -2 -35
-18 -78 -98 -57 -104 -136 -200 -166 -200 -34 0 -22 50 45 183 l64 128 -32 -3
c-28 -3 -35 -11 -81 -100 -53 -102 -123 -194 -159 -208 -36 -13 -56 6 -56 54
0 70 23 117 88 182 71 71 167 214 228 338 44 89 49 110 38 140 -8 22 -52 20
-91 -3z m57 -39 c0 -10 -17 -54 -39 -98 -62 -126 -219 -352 -221 -316 0 20
140 308 183 375 25 38 43 57 57 57 13 0 20 -7 20 -18z m-420 -421 c0 -15 -9
-40 -21 -55 -20 -26 -87 -66 -109 -66 -16 0 29 78 68 117 41 41 62 43 62 4z
m986 4 c13 -51 -23 -148 -77 -210 -80 -91 -118 13 -51 138 46 87 115 125 128
72z m-1308 -27 c5 -60 -67 -190 -121 -220 -47 -25 -63 61 -26 142 29 64 87
122 119 118 21 -3 25 -9 28 -40z m-88 -344 c0 -19 -68 -129 -92 -150 -56 -47
-129 -22 -99 34 24 45 191 146 191 116z"/>
<path d="M2531 826 c-24 -25 -21 -46 5 -46 19 0 41 47 28 60 -7 7 -18 2 -33
-14z"/>
</g>
</svg>
