<?xml version="1.0" standalone="no"?>
<!DOCTYPE svg PUBLIC "-//W3C//DTD SVG 20010904//EN"
 "http://www.w3.org/TR/2001/REC-SVG-20010904/DTD/svg10.dtd">
<svg version="1.0" xmlns="http://www.w3.org/2000/svg"
 width="280.000000pt" height="85.000000pt" viewBox="0 0 280.000000 85.000000"
 preserveAspectRatio="xMidYMid meet">

<g transform="translate(0.000000,85.000000) scale(0.100000,-0.100000)"
fill="#000000" stroke="none">
<path d="M789 812 c-73 -47 -174 -176 -265 -339 -29 -52 -30 -53 -76 -53 -58
0 -64 -18 -8 -22 l40 -3 -49 -83 c-142 -238 -267 -318 -357 -228 -42 42 -46
85 -9 121 32 33 105 35 136 4 26 -26 45 -12 23 19 -32 45 -135 45 -181 0 -34
-34 -40 -92 -15 -138 52 -95 182 -96 289 -3 44 39 122 146 172 237 l42 76 126
0 c115 0 125 -1 118 -17 -20 -46 -55 -179 -55 -207 0 -37 30 -104 56 -128 30
-27 75 -40 133 -39 197 2 357 257 236 378 -41 41 -81 44 -118 7 -29 -29 -61
-111 -46 -119 5 -4 13 6 19 22 26 75 52 100 92 90 28 -7 48 -44 48 -90 0 -73
-76 -179 -159 -221 -40 -21 -115 -21 -132 0 -27 33 -23 123 11 227 31 93 34
97 61 97 16 0 29 5 29 10 0 6 -9 10 -20 10 -11 0 -20 3 -20 6 0 4 16 48 37 98
27 69 37 110 41 168 l5 77 -36 36 c-46 46 -102 49 -168 7z m111 -27 c19 -23 6
-78 -54 -227 l-54 -133 -127 -3 -127 -3 27 48 c118 204 236 332 306 333 9 0
22 -7 29 -15z"/>
<path d="M2401 605 c-44 -86 -58 -105 -76 -105 -13 0 -28 -6 -34 -14 -10 -12
-8 -15 13 -18 l26 -3 -31 -65 c-17 -36 -48 -106 -68 -156 -43 -105 -86 -164
-137 -189 -33 -15 -37 -15 -60 0 -22 14 -25 22 -22 66 l3 50 55 19 c113 38
164 159 71 168 -57 6 -128 -58 -175 -159 -21 -45 -113 -136 -147 -144 -30 -7
-55 12 -65 51 -13 50 57 198 106 224 37 20 53 13 47 -20 -8 -37 6 -39 21 -4
18 39 0 64 -47 64 -53 0 -108 -50 -156 -142 -43 -82 -118 -168 -146 -168 -34
0 -22 51 44 184 l63 127 -31 -3 c-27 -3 -35 -12 -81 -105 -29 -57 -71 -125
-94 -153 -67 -79 -108 -61 -55 25 40 65 75 139 75 158 0 31 -20 57 -43 57 -12
0 -42 -12 -66 -25 -51 -29 -59 -27 -36 9 17 26 17 26 -13 26 -28 0 -34 -7 -77
-88 -45 -84 -95 -214 -95 -246 0 -11 9 -16 30 -16 23 0 30 4 30 20 0 33 48
150 76 183 37 44 94 87 115 87 30 0 23 -34 -20 -106 -22 -36 -42 -78 -46 -93
-9 -40 10 -81 37 -82 40 -2 52 2 79 27 29 28 39 30 39 9 0 -19 31 -35 67 -35
29 0 69 34 105 88 l15 23 6 -31 c20 -99 138 -108 214 -15 l30 36 12 -41 c12
-41 40 -67 76 -70 49 -5 69 3 114 45 l48 45 13 -30 c16 -38 37 -50 87 -50 42
0 70 18 107 68 l24 33 7 -28 c19 -79 93 -96 168 -39 24 19 58 37 75 41 40 8
78 39 98 77 21 41 11 46 -18 8 -23 -32 -75 -66 -85 -56 -3 3 3 27 15 53 37 87
43 124 27 150 -10 14 -26 23 -43 24 -15 0 -36 4 -46 8 -11 4 -31 5 -45 3 -38
-8 -115 -91 -136 -147 -22 -58 -78 -130 -116 -150 -22 -12 -29 -12 -45 0 -39
28 -17 120 74 318 40 85 42 87 75 87 22 0 37 6 41 15 4 11 -2 15 -24 15 -17 0
-30 3 -30 6 0 3 23 47 50 98 28 51 50 96 50 99 0 4 -15 7 -32 7 -32 0 -35 -5
-87 -105z m-241 -294 c0 -15 -9 -40 -21 -55 -22 -28 -97 -71 -107 -62 -9 9 30
77 66 113 41 41 62 43 62 4z m435 -31 c-18 -50 -19 -88 -5 -126 10 -24 7 -31
-22 -61 -64 -67 -115 -28 -84 65 18 53 63 124 98 155 28 24 31 17 13 -33z m89
32 c10 -30 -36 -142 -58 -142 -16 0 -1 118 19 140 22 25 32 25 39 2z"/>
<path d="M1710 540 c-23 -23 -22 -43 3 -48 22 -4 45 44 30 59 -8 8 -17 5 -33
-11z"/>
</g>
</svg>
