<?xml version="1.0" standalone="no"?>
<!DOCTYPE svg PUBLIC "-//W3C//DTD SVG 20010904//EN"
 "http://www.w3.org/TR/2001/REC-SVG-20010904/DTD/svg10.dtd">
<svg version="1.0" xmlns="http://www.w3.org/2000/svg"
 width="192.000000pt" height="85.000000pt" viewBox="0 0 192.000000 85.000000"
 preserveAspectRatio="xMidYMid meet">

<g transform="translate(0.000000,85.000000) scale(0.100000,-0.100000)"
fill="#000000" stroke="none">
<path d="M789 812 c-73 -47 -174 -176 -265 -339 -29 -52 -30 -53 -76 -53 -58
0 -64 -18 -8 -22 l40 -3 -49 -83 c-142 -238 -267 -318 -357 -228 -42 42 -46
85 -9 121 32 33 105 35 136 4 26 -26 45 -12 23 19 -32 45 -135 45 -181 0 -34
-34 -40 -92 -15 -138 52 -95 182 -96 289 -3 44 39 122 146 172 237 l42 76 126
0 c115 0 125 -1 118 -17 -20 -46 -55 -179 -55 -207 0 -37 30 -104 56 -128 30
-27 75 -40 133 -39 197 2 357 257 236 378 -41 41 -81 44 -118 7 -29 -29 -61
-111 -46 -119 5 -4 13 6 19 22 26 75 52 100 92 90 28 -7 48 -44 48 -90 0 -73
-76 -179 -159 -221 -40 -21 -115 -21 -132 0 -27 33 -23 123 11 227 31 93 34
97 61 97 16 0 29 5 29 10 0 6 -9 10 -20 10 -11 0 -20 3 -20 6 0 4 16 48 37 98
27 69 37 110 41 168 l5 77 -36 36 c-46 46 -102 49 -168 7z m111 -27 c19 -23 6
-78 -54 -227 l-54 -133 -127 -3 -127 -3 27 48 c118 204 236 332 306 333 9 0
22 -7 29 -15z"/>
<path d="M1671 348 c-43 -21 -101 -92 -118 -143 -7 -22 -17 -31 -36 -33 -32
-4 -32 -5 -11 57 21 66 16 115 -13 119 -36 5 -56 -37 -51 -108 4 -56 2 -62
-32 -107 -37 -49 -75 -71 -105 -59 -27 10 -15 94 27 199 l35 87 -38 0 c-37 0
-38 -1 -59 -57 -49 -131 -50 -206 -4 -255 46 -47 78 -39 149 36 54 55 65 63
92 59 26 -4 32 -11 44 -51 11 -36 22 -51 46 -63 42 -21 73 -14 121 26 21 18
55 37 75 40 40 8 107 74 107 104 0 10 -12 3 -33 -21 -30 -34 -74 -64 -83 -56
-2 2 7 31 21 63 46 117 40 165 -20 165 -13 0 -35 4 -48 9 -19 7 -35 5 -66 -11z
m33 -83 c-13 -48 -14 -65 -4 -98 10 -35 9 -43 -8 -66 -22 -29 -62 -47 -86 -38
-25 10 -20 79 9 138 25 49 94 134 102 125 2 -2 -3 -30 -13 -61z m96 32 c0 -32
-48 -129 -60 -122 -13 8 -13 66 0 102 20 52 60 66 60 20z"/>
</g>
</svg>
