<?xml version="1.0" standalone="no"?>
<!DOCTYPE svg PUBLIC "-//W3C//DTD SVG 20010904//EN"
 "http://www.w3.org/TR/2001/REC-SVG-20010904/DTD/svg10.dtd">
<svg version="1.0" xmlns="http://www.w3.org/2000/svg"
 width="247.000000pt" height="86.000000pt" viewBox="0 0 247.000000 86.000000"
 preserveAspectRatio="xMidYMid meet">

<g transform="translate(0.000000,86.000000) scale(0.100000,-0.100000)"
fill="#000000" stroke="none">
<path d="M822 834 c-26 -11 -51 -13 -110 -7 -42 5 -105 5 -140 1 -157 -17
-302 -144 -302 -264 0 -43 36 -125 58 -132 11 -3 10 3 -2 26 -67 130 24 269
209 318 51 14 175 19 175 8 0 -4 -35 -44 -79 -89 -82 -88 -139 -183 -201 -340
-71 -179 -124 -261 -193 -294 -55 -27 -86 -26 -127 1 -55 38 -64 104 -20 148
27 27 91 27 115 0 21 -23 35 -26 35 -6 0 51 -131 77 -183 36 -31 -25 -51 -80
-42 -119 7 -34 58 -85 100 -101 51 -19 130 -14 188 13 89 41 118 81 238 326
108 221 174 335 221 378 l24 22 32 -19 c67 -41 91 -131 56 -206 -25 -52 -37
-58 -76 -34 -66 40 -158 17 -158 -40 0 -30 44 -70 77 -71 101 -3 96 -1 106
-44 19 -92 -24 -228 -85 -265 -52 -32 -103 -27 -144 14 -50 50 -44 117 15 170
21 19 29 66 12 66 -14 0 -72 -71 -87 -106 -19 -45 -18 -110 3 -144 38 -65 152
-91 238 -56 88 37 155 138 154 231 0 46 -6 68 -40 151 -11 29 -10 34 14 60 86
93 71 219 -36 303 l-39 30 36 18 c20 9 36 20 36 25 0 12 -41 8 -78 -8z m-53
-373 c20 -13 4 -31 -29 -31 -30 0 -45 13 -35 30 8 12 45 13 64 1z"/>
<path d="M1136 541 c-19 -21 -21 -51 -3 -51 18 0 37 21 37 41 0 26 -15 31 -34
10z"/>
<path d="M1297 365 c-63 -22 -103 -61 -151 -150 -36 -68 -117 -155 -144 -155
-36 0 -27 34 43 178 l64 132 -30 0 c-29 0 -33 -6 -86 -117 -63 -134 -75 -184
-48 -213 41 -46 102 -18 164 74 l26 39 7 -42 c16 -95 75 -113 135 -42 16 19
22 22 23 10 0 -24 43 -59 72 -59 14 0 36 9 50 20 l25 19 -5 -24 c-4 -22 -1
-25 26 -25 26 0 31 4 36 36 16 83 48 143 107 199 98 94 130 66 60 -53 -49 -85
-55 -107 -41 -142 23 -55 82 -44 136 27 32 42 32 42 38 17 27 -106 166 -93
237 22 l24 39 7 -44 c8 -45 41 -91 65 -91 7 0 30 15 51 34 l38 35 13 -31 c26
-58 89 -54 139 10 37 48 86 132 80 138 -3 2 -33 -29 -67 -70 -62 -74 -84 -91
-102 -80 -20 12 -7 56 51 173 33 67 60 124 60 127 0 13 -59 2 -64 -13 -6 -14
-9 -14 -27 5 -50 55 -158 2 -218 -107 -41 -75 -135 -178 -171 -186 -92 -21
-84 146 12 248 21 21 45 37 58 37 20 0 22 -4 17 -30 -8 -38 8 -39 21 -2 14 42
-1 62 -47 62 -53 0 -111 -52 -153 -138 -39 -80 -113 -172 -139 -172 -34 0 -21
42 41 133 16 24 32 62 36 85 12 74 -28 92 -101 47 -52 -32 -59 -31 -40 5 l16
30 -30 0 c-27 0 -33 -8 -86 -111 -57 -111 -132 -205 -157 -196 -25 8 -10 69
49 188 l58 119 -26 0 c-15 0 -32 -7 -39 -15 -11 -14 -14 -13 -26 4 -18 26 -45
31 -87 16z m58 -46 c21 -66 -71 -249 -126 -249 -29 0 -42 27 -36 75 17 118
139 249 162 174z m931 -3 c8 -35 -20 -125 -58 -182 -36 -54 -82 -79 -98 -54
-28 44 5 154 65 216 47 50 81 57 91 20z"/>
</g>
</svg>
