<?xml version="1.0" standalone="no"?>
<!DOCTYPE svg PUBLIC "-//W3C//DTD SVG 20010904//EN"
 "http://www.w3.org/TR/2001/REC-SVG-20010904/DTD/svg10.dtd">
<svg version="1.0" xmlns="http://www.w3.org/2000/svg"
 width="255.000000pt" height="85.000000pt" viewBox="0 0 255.000000 85.000000"
 preserveAspectRatio="xMidYMid meet">

<g transform="translate(0.000000,85.000000) scale(0.100000,-0.100000)"
fill="#000000" stroke="none">
<path d="M491 815 c-112 -53 -231 -154 -296 -253 -15 -23 -30 -42 -34 -42 -3
0 -20 9 -38 20 -21 13 -36 32 -44 59 -22 75 41 157 127 165 47 4 70 26 29 27
-91 3 -158 -26 -193 -83 -55 -92 -29 -166 87 -245 2 -1 -6 -29 -18 -60 -27
-70 -37 -183 -22 -239 35 -131 172 -195 290 -135 95 49 181 168 181 251 0 93
-86 121 -161 53 -50 -45 -73 -85 -57 -101 8 -8 19 1 38 32 47 73 98 96 121 55
25 -48 -39 -166 -123 -225 -56 -40 -83 -46 -125 -29 -68 29 -79 129 -30 275
l22 65 74 12 c178 30 328 100 414 193 30 32 56 69 59 82 8 42 -11 86 -49 115
-32 24 -47 28 -117 31 -70 2 -88 -1 -135 -23z m200 -26 c33 -17 42 -55 23 -95
-30 -64 -163 -151 -293 -193 -64 -21 -131 -28 -131 -13 1 36 124 192 201 253
67 53 153 74 200 48z"/>
<path d="M921 764 c-78 -68 -181 -248 -267 -472 -53 -135 -57 -186 -18 -231
21 -25 33 -31 65 -31 51 0 83 21 124 83 l33 49 7 -43 c9 -53 46 -93 78 -84 12
4 33 19 46 35 l24 28 22 -32 c15 -22 30 -32 54 -34 44 -4 68 18 148 141 35 53
68 97 73 97 5 0 21 -10 36 -23 l26 -23 -31 -55 c-35 -63 -39 -99 -13 -122 31
-28 71 -26 108 7 l28 23 19 -23 c31 -40 81 -33 126 16 l37 41 14 -26 c31 -57
94 -72 155 -36 20 11 42 21 49 21 7 0 25 9 40 21 l27 21 37 -42 c31 -36 43
-42 76 -42 22 0 49 8 65 19 14 11 38 23 53 26 14 4 40 19 57 33 29 24 31 25
31 5 0 -84 90 -120 170 -67 49 32 148 179 111 164 -4 -1 -32 -32 -61 -67 -91
-109 -170 -115 -170 -12 0 43 9 61 31 61 58 0 149 79 149 129 0 36 -17 51 -57
51 -45 0 -114 -64 -149 -139 -25 -50 -79 -121 -94 -121 -3 0 -4 18 -2 40 6 55
-2 79 -44 140 -26 38 -33 55 -25 63 6 6 11 26 11 44 0 26 -4 33 -19 33 -27 0
-42 -23 -48 -72 -8 -59 -38 -114 -70 -130 -16 -7 -35 -29 -44 -48 -9 -19 -26
-44 -38 -54 l-21 -19 6 45 c5 36 1 54 -19 94 -14 28 -33 56 -41 63 -18 15 -21
47 -6 56 16 10 11 55 -7 62 -22 9 -53 -31 -53 -71 -1 -42 -40 -114 -70 -129
-14 -7 -33 -29 -43 -50 -42 -84 -127 -141 -127 -84 0 12 29 82 65 155 l64 132
-30 0 c-29 0 -33 -6 -85 -115 -58 -122 -119 -200 -151 -193 -28 6 -19 51 22
105 26 35 35 55 33 78 -3 26 -10 33 -55 50 -49 18 -53 22 -53 53 0 21 -6 35
-16 39 -39 15 -68 -42 -44 -87 10 -18 6 -30 -22 -78 -40 -68 -142 -177 -157
-168 -23 15 -9 67 49 185 l59 121 -28 0 c-16 0 -34 -7 -41 -15 -11 -13 -14
-12 -29 7 -46 56 -164 -7 -219 -117 -27 -55 -110 -153 -142 -170 -40 -21 -63
-1 -62 52 1 69 22 119 62 151 53 43 141 163 214 290 72 127 96 193 76 217 -21
26 -63 18 -109 -21z m69 -31 c0 -16 -11 -51 -24 -78 -51 -111 -216 -351 -223
-328 -8 24 160 364 205 416 23 26 42 21 42 -10z m88 -430 c6 -81 -85 -231
-134 -221 -26 4 -31 87 -10 143 21 53 93 127 120 123 17 -2 22 -12 24 -45z
m1378 33 c10 -26 -25 -80 -70 -108 -42 -28 -66 -35 -66 -21 0 19 65 112 89
126 32 20 40 21 47 3z m-644 -72 c28 -65 15 -170 -16 -120 -6 10 -21 34 -34
54 -23 35 -23 36 -6 74 9 21 21 38 26 38 5 0 18 -21 30 -46z m294 0 c16 -38
18 -102 4 -124 -11 -17 -12 -16 -39 37 -11 23 -25 44 -31 48 -6 4 -2 21 10 46
23 44 35 43 56 -7z m-346 -121 l30 -48 -21 -17 c-28 -23 -35 -23 -64 7 -24 23
-35 82 -18 98 18 19 45 3 73 -40z m295 0 l26 -48 -20 -16 c-29 -24 -60 -13
-79 27 -12 27 -13 39 -4 59 18 40 47 32 77 -22z"/>
<path d="M1682 554 c-26 -18 -30 -57 -6 -52 22 4 45 40 36 55 -6 10 -13 9 -30
-3z"/>
</g>
</svg>
