<?xml version="1.0" standalone="no"?>
<!DOCTYPE svg PUBLIC "-//W3C//DTD SVG 20010904//EN"
 "http://www.w3.org/TR/2001/REC-SVG-20010904/DTD/svg10.dtd">
<svg version="1.0" xmlns="http://www.w3.org/2000/svg"
 width="259.000000pt" height="86.000000pt" viewBox="0 0 259.000000 86.000000"
 preserveAspectRatio="xMidYMid meet">

<g transform="translate(0.000000,86.000000) scale(0.100000,-0.100000)"
fill="#000000" stroke="none">
<path d="M436 848 c-171 -17 -320 -154 -320 -293 0 -87 59 -155 134 -155 40 0
65 13 113 59 43 40 60 68 75 124 15 54 -13 50 -37 -6 -48 -113 -162 -176 -205
-115 -27 38 -21 127 12 189 51 98 149 149 287 149 61 0 165 -23 165 -36 0 -2
-25 -34 -55 -71 -36 -45 -94 -144 -170 -293 -63 -124 -123 -236 -134 -249
l-19 -24 -62 17 c-71 20 -139 23 -169 7 -83 -45 -8 -150 98 -137 24 3 69 17
100 31 52 24 62 25 107 15 56 -13 156 -15 200 -4 202 49 363 310 323 527 -13
73 -28 105 -74 156 l-35 38 35 19 c19 10 35 22 35 26 0 12 -40 8 -80 -6 -30
-12 -41 -11 -84 6 -65 25 -154 35 -240 26z m335 -194 c45 -95 19 -269 -59
-390 -83 -127 -173 -181 -288 -171 -36 2 -68 7 -71 10 -3 3 17 32 45 64 64 74
124 168 168 263 58 122 115 233 136 263 24 34 37 26 69 -39z m-578 -546 c20
-6 37 -15 37 -19 0 -11 -59 -21 -104 -17 -45 3 -71 32 -46 48 15 10 45 7 113
-12z"/>
<path d="M2239 773 c-89 -80 -195 -275 -286 -523 -35 -98 -71 -148 -126 -177
-25 -13 -31 -13 -52 1 -51 33 -40 118 17 130 80 16 153 101 129 152 -8 19 -18
24 -49 24 -51 0 -108 -48 -151 -129 -39 -73 -126 -171 -152 -171 -34 0 -22 50
44 184 l63 127 -31 -3 c-27 -3 -35 -12 -81 -105 -29 -57 -71 -125 -94 -153
-67 -79 -108 -61 -55 25 40 65 75 139 75 158 0 31 -20 57 -43 57 -12 0 -42
-12 -66 -25 -24 -14 -46 -24 -48 -21 -3 2 3 16 13 31 l17 27 -32 -4 c-31 -3
-37 -10 -86 -106 -58 -114 -119 -193 -150 -195 -38 -4 -28 43 37 176 62 124
63 127 39 127 -13 0 -32 -7 -42 -16 -16 -14 -18 -14 -29 5 -17 33 -77 28 -136
-11 -107 -73 -142 -249 -61 -303 30 -19 68 -6 93 33 l16 25 15 -30 c21 -45 53
-56 97 -33 35 17 36 17 36 -1 0 -14 7 -19 30 -19 23 0 30 4 30 20 0 33 48 150
76 183 37 44 94 87 115 87 30 0 23 -34 -20 -106 -22 -36 -42 -78 -46 -93 -9
-40 10 -81 37 -82 40 -2 52 2 79 27 29 28 39 30 39 9 0 -19 31 -35 67 -35 29
0 69 34 105 88 15 22 15 22 22 -17 8 -52 44 -81 101 -81 35 0 50 7 88 40 l46
41 15 -29 c17 -34 34 -42 82 -42 46 0 79 23 119 82 l32 49 7 -41 c8 -52 47
-94 79 -85 12 4 33 19 46 35 l24 28 22 -32 c29 -44 77 -48 117 -9 35 33 101
139 96 154 -2 5 -20 -13 -41 -40 -22 -28 -55 -64 -74 -82 -30 -26 -38 -29 -50
-17 -17 18 -5 54 66 196 l51 102 -29 0 c-16 0 -34 -7 -41 -15 -11 -13 -14 -12
-29 7 -46 56 -164 -7 -219 -118 -26 -51 -112 -153 -143 -170 -53 -28 -77 21
-54 109 12 46 25 67 77 120 95 96 239 323 269 424 10 34 9 45 -1 58 -22 27
-67 18 -111 -22z m71 -30 c0 -34 -32 -104 -90 -198 -53 -87 -149 -215 -160
-215 -20 0 141 332 197 408 30 40 53 42 53 5z m-1236 -399 c22 -58 -49 -219
-110 -246 -81 -37 -66 128 20 217 44 46 79 57 90 29z m826 -4 c0 -37 -29 -79
-73 -105 -64 -37 -72 -32 -41 26 44 79 114 128 114 79z m494 -40 c-2 -85 -77
-210 -126 -210 -40 0 -42 94 -4 169 24 46 86 102 110 99 19 -3 21 -9 20 -58z"/>
<path d="M1700 560 c-23 -23 -22 -43 3 -48 22 -4 45 44 30 59 -8 8 -17 5 -33
-11z"/>
</g>
</svg>
