<?xml version="1.0" standalone="no"?>
<!DOCTYPE svg PUBLIC "-//W3C//DTD SVG 20010904//EN"
 "http://www.w3.org/TR/2001/REC-SVG-20010904/DTD/svg10.dtd">
<svg version="1.0" xmlns="http://www.w3.org/2000/svg"
 width="244.000000pt" height="113.000000pt" viewBox="0 0 244.000000 113.000000"
 preserveAspectRatio="xMidYMid meet">

<g transform="translate(0.000000,113.000000) scale(0.100000,-0.100000)"
fill="#000000" stroke="none">
<path d="M524 1119 c-27 -3 -71 -16 -97 -27 -54 -24 -137 -105 -157 -151 -15
-37 -17 -37 -61 -8 -58 39 -50 90 21 142 27 20 30 26 17 31 -27 10 -90 -29
-112 -69 l-20 -37 20 -38 c13 -24 34 -44 62 -57 39 -19 42 -23 43 -60 0 -38
-2 -41 -45 -58 -183 -76 -248 -308 -118 -428 48 -45 89 -60 161 -60 98 0 187
35 255 100 71 67 87 136 44 187 -30 35 -87 35 -154 0 -54 -28 -36 -35 41 -14
54 14 76 1 76 -46 0 -83 -121 -166 -241 -166 -45 0 -55 4 -85 34 -30 30 -34
40 -34 88 0 65 41 155 93 206 l34 33 32 -30 c39 -36 87 -47 135 -31 94 31 57
129 -56 148 -36 6 -43 11 -43 30 0 21 5 23 76 27 107 6 183 36 242 96 37 39
47 56 47 82 0 62 -65 90 -176 76z m123 -76 c9 -23 -82 -105 -134 -121 -22 -7
-65 -12 -94 -12 l-54 1 50 46 c86 79 216 128 232 86z m-240 -295 c17 -14 16
-37 -2 -44 -18 -7 -81 30 -89 53 -6 13 0 15 36 9 23 -4 48 -12 55 -18z"/>
<path d="M2030 825 c-19 -20 -21 -28 -12 -37 15 -15 45 1 50 27 7 31 -13 36
-38 10z"/>
<path d="M674 608 c-62 -122 -95 -213 -90 -242 9 -42 24 -56 64 -56 27 0 42 8
67 35 l33 35 21 -35 c37 -63 96 -45 164 49 13 18 15 17 26 -14 25 -73 76 -91
126 -44 15 14 29 23 31 21 3 -2 -1 -21 -8 -41 -11 -33 -21 -41 -79 -66 -95
-40 -147 -77 -175 -125 -40 -69 -10 -115 76 -115 38 0 48 6 101 58 45 43 67
75 93 135 25 57 44 86 74 110 22 17 51 45 63 61 l22 28 11 -32 c24 -71 97 -92
165 -47 l38 25 -5 -24 c-4 -21 -1 -24 24 -24 28 0 30 5 56 88 25 81 33 93 87
145 57 55 95 71 104 45 2 -7 -18 -54 -45 -104 -26 -50 -48 -98 -48 -106 0 -9
8 -26 18 -38 25 -31 66 -29 104 6 21 20 32 25 35 16 10 -26 35 -42 68 -42 33
0 61 24 122 106 l22 29 0 -33 c1 -55 34 -102 71 -102 5 0 25 14 45 31 20 18
37 30 38 28 2 -2 10 -16 19 -30 39 -63 99 -39 168 67 27 42 50 82 50 88 0 6
-22 -14 -48 -44 -66 -77 -103 -111 -116 -107 -26 9 -14 58 44 175 33 68 60
125 60 128 0 13 -59 2 -64 -13 -6 -14 -9 -14 -27 5 -25 27 -68 28 -117 3 -47
-24 -73 -53 -105 -116 -32 -63 -133 -175 -158 -175 -33 0 -22 45 46 181 l65
130 -33 -3 c-30 -3 -35 -10 -82 -105 -55 -111 -125 -203 -156 -203 -30 0 -23
30 27 108 89 140 61 226 -51 157 -52 -32 -59 -31 -40 5 15 30 15 30 -13 30
-27 0 -34 -9 -87 -111 -31 -61 -71 -127 -88 -146 -39 -45 -90 -68 -116 -53
-39 20 -39 130 0 130 50 0 138 69 154 121 10 30 -21 59 -62 59 -48 0 -132 -84
-158 -158 -18 -51 -116 -174 -128 -162 -8 7 59 234 83 280 l20 40 -29 0 c-18
0 -31 -6 -35 -16 -6 -15 -9 -14 -31 6 -54 51 -162 -14 -219 -133 -23 -48 -51
-88 -85 -120 -93 -87 -96 -31 -7 146 l64 128 -31 -3 c-28 -3 -36 -12 -77 -90
-62 -118 -143 -218 -175 -218 -39 0 -32 30 40 178 l64 132 -29 0 c-26 0 -33
-7 -56 -52z m819 -13 c-1 -15 -8 -37 -16 -49 -17 -24 -103 -73 -112 -64 -10
10 43 95 77 123 37 31 54 28 51 -10z m757 20 c26 -32 -33 -192 -87 -235 -99
-78 -97 103 2 206 44 46 65 53 85 29z m-1079 -17 c2 -48 -4 -75 -29 -127 -27
-54 -81 -121 -98 -121 -69 1 -36 174 46 244 40 33 80 35 81 4z m-110 -416
c-39 -77 -92 -124 -134 -120 -47 4 -49 43 -5 85 34 33 134 93 156 93 8 0 2
-20 -17 -58z"/>
</g>
</svg>
