<?xml version="1.0" standalone="no"?>
<!DOCTYPE svg PUBLIC "-//W3C//DTD SVG 20010904//EN"
 "http://www.w3.org/TR/2001/REC-SVG-20010904/DTD/svg10.dtd">
<svg version="1.0" xmlns="http://www.w3.org/2000/svg"
 width="237.000000pt" height="89.000000pt" viewBox="0 0 237.000000 89.000000"
 preserveAspectRatio="xMidYMid meet">

<g transform="translate(0.000000,89.000000) scale(0.100000,-0.100000)"
fill="#000000" stroke="none">
<path d="M906 861 c-4 -6 -26 -21 -49 -33 -44 -22 -56 -22 -322 1 -101 9 -183
-2 -251 -33 -168 -77 -246 -273 -146 -369 31 -30 85 -44 127 -33 33 8 75 52
75 77 0 26 -7 24 -42 -11 -23 -23 -39 -30 -69 -30 -74 0 -104 65 -75 162 22
77 64 130 127 162 65 32 120 33 279 6 229 -40 311 -26 355 61 14 25 5 63 -9
40z"/>
<path d="M1229 635 c-48 -93 -57 -105 -80 -105 -15 0 -29 -7 -33 -15 -4 -11 1
-15 18 -15 24 0 23 -2 -30 -117 -30 -65 -60 -136 -66 -158 -8 -24 -34 -62 -65
-94 -43 -44 -55 -52 -67 -42 -20 17 -6 61 60 193 l54 108 -29 0 c-16 0 -34 -7
-41 -15 -11 -13 -14 -12 -29 7 -44 54 -163 -6 -215 -108 -53 -106 -10 -244 67
-215 14 6 33 22 43 35 l16 26 22 -33 c17 -24 30 -33 57 -35 31 -3 41 3 72 37
41 45 47 48 47 26 0 -31 47 -65 90 -65 32 0 48 7 80 36 34 31 40 33 40 17 0
-22 27 -50 50 -53 33 -5 49 1 80 33 l33 32 -6 -32 c-6 -31 -5 -33 22 -33 27 0
30 4 55 84 24 78 31 89 88 141 34 30 73 58 86 62 50 12 46 -11 -22 -149 l-67
-133 27 -3 c33 -4 32 -6 89 103 50 96 81 134 133 167 56 34 82 4 43 -50 -32
-46 -71 -130 -71 -154 0 -13 7 -34 16 -46 12 -18 24 -22 52 -20 29 2 42 11 69
46 18 23 36 44 39 45 4 1 12 -13 16 -30 17 -66 82 -76 124 -20 l18 24 21 -31
c16 -23 29 -32 57 -34 31 -3 40 2 75 41 41 47 100 147 86 147 -4 0 -21 -19
-38 -41 -41 -55 -113 -121 -125 -114 -22 14 -7 68 50 184 l59 121 -29 0 c-16
0 -33 -7 -38 -15 -7 -14 -11 -13 -27 5 -27 30 -83 27 -131 -9 -55 -40 -69 -57
-103 -131 -16 -36 -48 -84 -70 -107 -78 -82 -98 -38 -30 66 50 76 63 119 49
155 -18 47 -65 35 -158 -42 l-40 -32 11 35 c9 31 8 38 -10 56 -20 20 -21 20
-54 3 -19 -9 -54 -34 -79 -55 -24 -21 -46 -36 -48 -34 -3 2 7 24 22 49 14 24
26 47 26 50 0 3 -12 6 -27 6 -25 0 -34 -11 -81 -98 -59 -109 -137 -202 -170
-202 -36 0 -27 34 43 178 l64 132 -29 0 c-28 0 -34 -7 -81 -101 -61 -122 -136
-209 -180 -209 -62 0 -46 103 45 295 54 114 55 115 89 115 22 0 37 6 41 15 4
12 -2 15 -28 15 l-34 0 54 101 c30 55 54 103 54 105 0 2 -15 4 -34 4 -32 0
-35 -3 -87 -105z m-331 -313 c7 -98 -117 -270 -154 -211 -12 21 -5 99 14 142
25 55 90 119 117 115 16 -2 21 -12 23 -46z m1280 1 c6 -81 -85 -231 -134 -221
-24 4 -30 65 -13 128 16 56 93 142 123 138 17 -2 22 -11 24 -45z"/>
<path d="M595 661 c-28 -16 -70 -50 -93 -75 -40 -43 -94 -144 -108 -202 -4
-15 -26 -34 -59 -53 -29 -17 -56 -35 -60 -41 -9 -15 0 -12 40 11 20 12 38 19
41 16 15 -14 -59 -186 -100 -234 -36 -43 -93 -61 -136 -43 -74 31 -80 151 -9
180 35 15 68 5 96 -28 19 -23 23 -24 29 -9 8 22 -12 46 -53 64 -42 17 -68 17
-107 -2 -79 -38 -88 -144 -16 -203 68 -57 215 -39 293 36 33 31 58 76 103 187
31 78 33 80 68 83 34 3 36 2 36 -27 0 -43 28 -42 32 2 3 31 4 32 61 38 88 10
136 69 91 113 -52 52 -152 15 -169 -64 -5 -23 -12 -29 -41 -32 -30 -4 -33 -2
-28 17 18 59 100 209 138 249 36 39 39 46 22 46 -12 0 -44 -13 -71 -29z m108
-206 c9 -23 -25 -55 -67 -62 -38 -6 -38 -6 -26 18 21 40 42 59 65 59 13 0 25
-7 28 -15z"/>
<path d="M1447 572 c-10 -10 -17 -26 -17 -36 0 -23 29 -17 47 10 11 18 11 23
0 33 -11 8 -18 7 -30 -7z"/>
</g>
</svg>
