<?xml version="1.0" standalone="no"?>
<!DOCTYPE svg PUBLIC "-//W3C//DTD SVG 20010904//EN"
 "http://www.w3.org/TR/2001/REC-SVG-20010904/DTD/svg10.dtd">
<svg version="1.0" xmlns="http://www.w3.org/2000/svg"
 width="181.000000pt" height="89.000000pt" viewBox="0 0 181.000000 89.000000"
 preserveAspectRatio="xMidYMid meet">

<g transform="translate(0.000000,89.000000) scale(0.100000,-0.100000)"
fill="#000000" stroke="none">
<path d="M906 861 c-4 -6 -26 -21 -49 -33 -44 -22 -56 -22 -322 1 -101 9 -183
-2 -251 -33 -168 -77 -246 -273 -146 -369 31 -30 85 -44 127 -33 33 8 75 52
75 77 0 26 -7 24 -42 -11 -23 -23 -39 -30 -69 -30 -74 0 -104 65 -75 162 22
77 64 130 127 162 65 32 120 33 279 6 229 -40 311 -26 355 61 14 25 5 63 -9
40z"/>
<path d="M1230 795 c-48 -36 -112 -125 -174 -245 -56 -108 -146 -327 -146
-355 0 -23 -71 -96 -108 -112 -23 -10 -38 -11 -51 -3 -39 20 -39 130 0 130 50
0 128 60 149 114 14 39 -9 66 -58 66 -30 0 -44 -9 -87 -53 -106 -109 -115
-261 -18 -294 41 -14 87 2 133 46 22 21 40 32 40 24 0 -8 11 -25 25 -38 38
-39 94 -35 145 11 34 31 40 33 40 17 0 -29 32 -53 69 -53 38 0 84 43 129 120
14 25 31 50 37 55 7 6 28 34 49 62 41 58 80 93 103 93 12 0 14 -9 9 -45 -8
-53 3 -78 43 -95 30 -12 30 -13 15 -41 -8 -16 -17 -29 -20 -29 -2 0 -22 9 -44
20 -51 26 -72 25 -98 -3 -32 -34 -30 -89 4 -116 35 -27 56 -26 92 4 l30 25 30
-25 c36 -30 70 -35 108 -15 31 17 126 158 117 174 -4 5 -16 -3 -27 -19 -63
-90 -108 -112 -170 -84 l-24 11 18 40 c13 29 32 48 68 69 28 15 60 42 71 58
49 69 17 137 -46 96 -14 -9 -38 -46 -54 -81 -16 -36 -34 -62 -39 -59 -6 3 -10
30 -10 60 0 44 -4 57 -22 69 -46 33 -92 10 -155 -77 -21 -28 -71 -91 -111
-139 -57 -68 -79 -88 -99 -88 -23 0 -25 3 -19 33 3 17 32 84 64 147 31 63 58
118 60 123 2 4 -10 7 -28 7 -30 0 -33 -5 -76 -95 -56 -117 -140 -215 -185
-215 -37 0 -46 32 -29 108 11 48 22 66 84 131 142 150 294 422 264 474 -13 25
-59 21 -98 -8z m60 -38 c0 -48 -91 -212 -193 -349 -92 -123 -83 -84 34 152 78
158 119 220 145 220 8 0 14 -10 14 -23z m420 -402 c0 -27 -45 -85 -66 -85 -18
0 -17 2 1 47 29 69 65 90 65 38z m-837 -20 c-1 -15 -8 -37 -16 -49 -17 -24
-103 -73 -112 -64 -10 10 43 95 77 123 37 31 54 28 51 -10z m625 -201 c22 -15
22 -17 6 -35 -18 -20 -69 -26 -79 -8 -4 5 -4 21 -1 35 8 29 40 32 74 8z"/>
<path d="M595 661 c-28 -16 -70 -50 -93 -75 -40 -43 -94 -144 -108 -202 -4
-15 -26 -34 -59 -53 -29 -17 -56 -35 -60 -41 -9 -15 0 -12 40 11 20 12 38 19
41 16 15 -14 -59 -186 -100 -234 -36 -43 -93 -61 -136 -43 -74 31 -80 151 -9
180 35 15 68 5 96 -28 19 -23 23 -24 29 -9 8 22 -12 46 -53 64 -42 17 -68 17
-107 -2 -79 -38 -88 -144 -16 -203 68 -57 215 -39 293 36 33 31 58 76 103 187
31 78 33 80 68 83 34 3 36 2 36 -27 0 -43 28 -42 32 2 3 31 4 32 61 38 88 10
136 69 91 113 -52 52 -152 15 -169 -64 -5 -23 -12 -29 -41 -32 -30 -4 -33 -2
-28 17 18 59 100 209 138 249 36 39 39 46 22 46 -12 0 -44 -13 -71 -29z m108
-206 c9 -23 -25 -55 -67 -62 -38 -6 -38 -6 -26 18 21 40 42 59 65 59 13 0 25
-7 28 -15z"/>
<path d="M1332 574 c-26 -18 -30 -57 -6 -52 22 4 45 40 36 55 -6 10 -13 9 -30
-3z"/>
</g>
</svg>
