<?xml version="1.0" standalone="no"?>
<!DOCTYPE svg PUBLIC "-//W3C//DTD SVG 20010904//EN"
 "http://www.w3.org/TR/2001/REC-SVG-20010904/DTD/svg10.dtd">
<svg version="1.0" xmlns="http://www.w3.org/2000/svg"
 width="172.000000pt" height="114.000000pt" viewBox="0 0 172.000000 114.000000"
 preserveAspectRatio="xMidYMid meet">

<g transform="translate(0.000000,114.000000) scale(0.100000,-0.100000)"
fill="#000000" stroke="none">
<path d="M344 1116 c-87 -38 -161 -153 -171 -266 -7 -69 8 -120 49 -166 26
-29 37 -34 74 -34 37 0 51 6 85 37 48 44 87 116 96 178 5 38 3 45 -10 40 -8
-4 -18 -25 -21 -49 -8 -52 -60 -141 -98 -170 -79 -57 -163 81 -125 206 26 85
84 138 151 138 23 0 71 -15 119 -36 79 -36 117 -40 170 -19 29 12 20 -22 -17
-68 -73 -90 -190 -300 -261 -471 -32 -75 -31 -75 -150 -107 -158 -42 -225 -95
-225 -176 0 -59 25 -99 78 -125 39 -18 48 -19 85 -8 59 17 159 121 236 247 58
94 67 104 116 127 71 32 152 109 181 171 13 28 24 55 24 62 0 21 -27 4 -40
-25 -23 -51 -85 -123 -137 -159 -29 -20 -55 -34 -58 -31 -7 6 289 586 327 642
15 22 26 41 24 43 -2 2 -27 -8 -57 -22 -68 -31 -104 -31 -177 -1 -132 55 -209
67 -268 42z m-20 -818 c-18 -59 -79 -172 -110 -205 -31 -33 -37 -35 -76 -30
-27 4 -49 14 -60 27 -22 28 -24 98 -2 128 19 28 80 59 159 83 85 25 98 24 89
-3z"/>
<path d="M1570 1022 c-85 -87 -183 -272 -267 -502 -35 -96 -71 -148 -124 -175
-39 -21 -67 -9 -80 34 -15 52 0 86 43 95 80 16 153 101 129 152 -8 19 -18 24
-49 24 -53 0 -109 -50 -156 -140 -25 -47 -47 -75 -67 -86 -17 -8 -33 -14 -35
-11 -2 2 7 30 20 63 47 116 42 164 -19 164 -13 0 -35 4 -48 9 -41 16 -105 -23
-152 -92 -36 -53 -40 -64 -40 -122 0 -85 23 -119 86 -123 38 -3 50 2 86 33 23
19 47 35 55 35 8 0 30 8 50 18 l36 19 6 -38 c7 -47 45 -79 93 -79 41 0 68 13
110 52 l31 30 16 -30 c18 -35 33 -42 87 -42 32 0 45 7 77 39 39 41 107 151 92
151 -4 0 -32 -30 -62 -66 -29 -36 -65 -72 -80 -80 -25 -13 -30 -12 -48 6 -24
24 -24 29 -5 104 13 49 25 68 68 110 90 86 233 308 273 423 21 61 11 83 -39
83 -25 0 -43 -12 -87 -58z m90 -12 c0 -34 -59 -149 -132 -258 -96 -144 -143
-191 -112 -114 33 82 154 319 183 360 37 50 61 55 61 12z m-410 -400 c0 -37
-29 -79 -73 -105 -64 -37 -72 -32 -41 26 44 79 114 128 114 79z m-365 -50
c-16 -49 -16 -76 0 -127 14 -45 -87 -110 -111 -71 -14 22 -4 79 21 131 25 49
94 131 103 122 2 -2 -4 -27 -13 -55z m93 32 c4 -29 -44 -135 -58 -127 -17 11
-11 88 10 123 22 36 43 38 48 4z"/>
</g>
</svg>
