<?xml version="1.0" standalone="no"?>
<!DOCTYPE svg PUBLIC "-//W3C//DTD SVG 20010904//EN"
 "http://www.w3.org/TR/2001/REC-SVG-20010904/DTD/svg10.dtd">
<svg version="1.0" xmlns="http://www.w3.org/2000/svg"
 width="257.000000pt" height="114.000000pt" viewBox="0 0 257.000000 114.000000"
 preserveAspectRatio="xMidYMid meet">

<g transform="translate(0.000000,114.000000) scale(0.100000,-0.100000)"
fill="#000000" stroke="none">
<path d="M344 1116 c-87 -38 -161 -153 -171 -266 -7 -69 8 -120 49 -166 26
-29 37 -34 74 -34 37 0 51 6 85 37 48 44 87 116 96 178 5 38 3 45 -10 40 -8
-4 -18 -25 -21 -49 -8 -52 -60 -141 -98 -170 -79 -57 -163 81 -125 206 26 85
84 138 151 138 23 0 71 -15 119 -36 79 -36 117 -40 170 -19 29 12 20 -22 -17
-68 -73 -90 -190 -300 -261 -471 -32 -75 -31 -75 -150 -107 -158 -42 -225 -95
-225 -176 0 -59 25 -99 78 -125 39 -18 48 -19 85 -8 59 17 159 121 236 247 58
94 67 104 116 127 71 32 152 109 181 171 13 28 24 55 24 62 0 21 -27 4 -40
-25 -23 -51 -85 -123 -137 -159 -29 -20 -55 -34 -58 -31 -7 6 289 586 327 642
15 22 26 41 24 43 -2 2 -27 -8 -57 -22 -68 -31 -104 -31 -177 -1 -132 55 -209
67 -268 42z m-20 -818 c-18 -59 -79 -172 -110 -205 -31 -33 -37 -35 -76 -30
-27 4 -49 14 -60 27 -22 28 -24 98 -2 128 19 28 80 59 159 83 85 25 98 24 89
-3z"/>
<path d="M1372 1045 c-81 -70 -178 -244 -273 -488 -45 -118 -59 -144 -96 -178
-84 -77 -85 -17 -3 150 33 67 60 124 60 127 0 2 -11 4 -25 4 -27 0 -57 -40
-99 -133 -28 -62 -130 -177 -157 -177 -34 0 -22 48 44 183 l62 127 -27 0 c-34
0 -47 -19 -103 -151 -49 -116 -53 -143 -29 -177 24 -35 71 -29 116 15 34 33
38 35 44 17 24 -67 84 -74 138 -14 31 34 37 38 43 23 14 -42 45 -63 91 -63 37
0 50 6 78 34 l34 34 6 -24 c7 -29 32 -44 72 -44 30 0 73 38 113 100 l17 25 11
-43 c13 -47 42 -82 67 -82 9 0 31 15 50 34 l33 33 20 -33 c17 -28 26 -34 53
-34 19 0 44 8 57 17 23 16 24 16 19 -5 -5 -19 -2 -22 23 -22 16 0 31 6 33 13
29 117 53 165 107 220 57 56 94 72 105 43 3 -8 -15 -52 -40 -98 -47 -87 -54
-115 -36 -149 8 -14 21 -19 49 -19 40 0 57 14 103 82 l24 37 12 -44 c7 -27 21
-51 36 -60 22 -15 27 -15 55 -1 17 9 35 25 41 37 11 19 12 19 33 -13 18 -25
31 -34 59 -36 31 -3 40 2 72 40 42 49 88 127 83 141 -1 5 -22 -16 -46 -47 -56
-72 -97 -107 -117 -99 -24 9 -12 51 55 185 l59 118 -28 0 c-15 0 -33 -7 -40
-15 -11 -13 -14 -12 -29 7 -49 59 -180 -18 -230 -135 -22 -51 -115 -157 -137
-157 -26 0 -14 46 31 115 40 62 45 75 43 120 -3 47 -5 50 -31 53 -19 2 -43 -6
-69 -23 -43 -29 -56 -28 -39 3 16 30 14 34 -16 30 -23 -3 -35 -19 -84 -113
-38 -72 -74 -125 -104 -153 -84 -80 -88 -26 -7 136 31 64 59 120 60 124 7 15
-57 8 -66 -7 -7 -14 -11 -13 -27 5 -54 60 -171 -7 -229 -132 -24 -51 -124
-158 -147 -158 -34 0 -22 52 45 184 l63 127 -31 -3 c-28 -3 -35 -12 -81 -100
-53 -102 -124 -194 -159 -208 -37 -14 -56 5 -56 58 1 69 22 118 71 161 78 68
246 326 280 429 28 86 -32 112 -109 47z m70 -39 c-6 -55 -101 -221 -200 -350
-25 -33 -48 -54 -50 -48 -5 15 146 326 188 387 36 53 67 58 62 11z m257 -398
c12 -34 -6 -108 -43 -168 -60 -97 -116 -108 -116 -23 0 62 36 138 84 181 43
37 64 40 75 10z m679 -19 c6 -74 -80 -229 -128 -229 -67 0 -35 160 46 237 48
45 78 42 82 -8z"/>
<path d="M1480 830 c-23 -23 -22 -43 3 -48 22 -4 45 44 30 59 -8 8 -17 5 -33
-11z"/>
</g>
</svg>
