<?xml version="1.0" standalone="no"?>
<!DOCTYPE svg PUBLIC "-//W3C//DTD SVG 20010904//EN"
 "http://www.w3.org/TR/2001/REC-SVG-20010904/DTD/svg10.dtd">
<svg version="1.0" xmlns="http://www.w3.org/2000/svg"
 width="307.000000pt" height="84.000000pt" viewBox="0 0 307.000000 84.000000"
 preserveAspectRatio="xMidYMid meet">

<g transform="translate(0.000000,84.000000) scale(0.100000,-0.100000)"
fill="#000000" stroke="none">
<path d="M702 813 c-62 -30 -130 -118 -195 -254 l-62 -128 -41 -1 c-59 0 -126
26 -164 65 -64 66 -47 185 35 235 31 19 46 21 103 17 37 -3 78 -8 92 -11 21
-5 20 -4 -5 8 -103 50 -245 14 -290 -74 -59 -113 47 -266 198 -286 26 -4 47
-9 47 -12 0 -11 -94 -193 -104 -201 -7 -6 -33 -2 -71 11 -158 53 -296 -35
-207 -132 49 -55 155 -56 258 -4 l51 26 74 -27 c105 -38 174 -36 259 7 80 41
121 94 128 167 4 46 2 53 -26 81 -38 38 -79 39 -139 4 -54 -31 -52 -42 2 -14
49 25 67 25 96 1 50 -40 6 -161 -74 -203 -60 -32 -165 -31 -227 1 -25 13 -47
25 -48 26 -2 2 15 31 38 65 23 34 57 94 75 134 33 72 34 73 93 95 86 31 145
66 207 122 57 53 105 135 105 181 0 37 -23 82 -52 102 -29 21 -113 20 -156 -1z
m126 -55 c7 -7 12 -28 12 -48 0 -44 -34 -95 -107 -160 -46 -41 -153 -104 -162
-94 -2 2 6 32 19 66 59 164 123 248 188 248 21 0 43 -5 50 -12z m-593 -628
c23 -9 25 -13 15 -25 -29 -35 -145 -41 -157 -9 -12 32 5 44 61 44 30 0 67 -5
81 -10z"/>
<path d="M2717 573 c-36 -76 -75 -160 -87 -187 -19 -46 -21 -48 -39 -32 -22
20 -73 21 -110 1 -46 -23 -105 -98 -124 -156 -11 -35 -31 -69 -58 -96 -81 -83
-110 -35 -39 64 22 31 40 64 40 73 0 23 -23 41 -73 60 -37 14 -41 19 -41 50
-1 30 -5 35 -28 38 -39 5 -54 -28 -38 -79 12 -36 11 -41 -20 -93 -43 -71 -134
-170 -152 -164 -28 9 -18 53 41 175 34 69 61 127 61 129 0 12 -55 1 -65 -13
-11 -15 -13 -15 -24 5 -18 34 -77 30 -137 -10 -38 -25 -56 -48 -81 -98 -35
-70 -126 -180 -149 -180 -26 0 -15 44 31 120 43 71 54 115 39 154 -9 23 -53
19 -99 -9 -50 -31 -61 -31 -41 -3 22 31 20 38 -11 38 -25 0 -33 -11 -83 -106
-39 -75 -63 -110 -83 -121 -16 -8 -31 -13 -33 -10 -2 2 7 30 20 63 47 116 42
164 -19 164 -13 0 -35 4 -48 9 -60 23 -160 -68 -191 -174 -23 -76 -107 -149
-158 -138 -43 10 -49 133 -6 133 11 0 41 11 67 26 104 57 120 154 24 154 -29
0 -43 -9 -88 -54 -88 -90 -113 -210 -56 -267 49 -49 128 -36 184 31 28 33 37
37 37 16 0 -7 9 -25 21 -40 31 -40 93 -37 145 7 21 18 56 38 77 44 l38 12 -6
-32 c-4 -18 -9 -40 -11 -49 -4 -14 1 -18 25 -18 27 0 31 4 41 43 24 94 52 146
105 196 53 51 91 64 101 37 3 -8 -15 -50 -41 -94 -37 -64 -46 -87 -43 -118 2
-29 9 -42 27 -51 38 -18 79 4 121 66 l35 52 8 -40 c7 -37 45 -81 68 -81 5 0
26 15 47 34 l38 35 12 -28 c18 -42 52 -53 93 -33 30 15 98 105 164 217 10 17
13 17 43 1 38 -20 40 -38 7 -91 -45 -73 -27 -135 40 -135 27 0 41 9 73 45 l40
46 19 -38 c11 -24 29 -42 47 -48 26 -9 32 -7 59 26 l31 36 21 -31 c16 -24 29
-32 57 -34 32 -3 40 2 74 42 l38 45 17 -38 c30 -67 106 -72 164 -11 16 16 37
30 48 30 34 0 86 31 107 65 31 50 24 64 -11 22 -28 -34 -75 -64 -86 -54 -2 2
8 29 22 59 32 70 42 139 23 155 -8 7 -44 15 -80 19 l-66 7 -47 -44 c-46 -43
-77 -90 -88 -140 -10 -40 -86 -121 -111 -117 -16 2 -20 9 -18 31 3 26 90 225
216 491 31 65 56 120 56 122 0 2 -13 4 -28 4 -27 0 -33 -9 -95 -137z m-1679
-259 c4 -31 -32 -78 -81 -104 -25 -13 -49 -22 -52 -18 -4 3 9 31 28 61 52 80
98 107 105 61z m896 10 c22 -58 -49 -219 -110 -246 -81 -37 -66 128 20 217 44
46 79 57 90 29z m634 -32 c4 -51 -29 -130 -78 -185 -85 -97 -120 20 -44 150
29 51 71 85 98 81 17 -2 22 -11 24 -46z m-1334 -21 c-15 -48 -15 -77 1 -127 9
-28 -43 -84 -79 -84 -72 0 -42 131 53 232 19 21 36 36 38 34 2 -2 -3 -27 -13
-55z m92 34 c7 -27 -38 -135 -55 -135 -19 0 -12 93 9 128 24 38 37 41 46 7z
m1541 3 c-3 -13 -10 -41 -16 -63 -7 -28 -7 -53 1 -84 11 -43 10 -45 -21 -73
-78 -70 -119 -4 -67 108 21 45 89 134 103 134 3 0 3 -10 0 -22z m83 -16 c0
-30 -32 -106 -49 -116 -32 -20 -23 98 10 133 24 26 39 19 39 -17z"/>
</g>
</svg>
