<?xml version="1.0" standalone="no"?>
<!DOCTYPE svg PUBLIC "-//W3C//DTD SVG 20010904//EN"
 "http://www.w3.org/TR/2001/REC-SVG-20010904/DTD/svg10.dtd">
<svg version="1.0" xmlns="http://www.w3.org/2000/svg"
 width="357.000000pt" height="84.000000pt" viewBox="0 0 357.000000 84.000000"
 preserveAspectRatio="xMidYMid meet">

<g transform="translate(0.000000,84.000000) scale(0.100000,-0.100000)"
fill="#000000" stroke="none">
<path d="M822 819 c-64 -12 -157 -66 -216 -125 -75 -75 -142 -176 -241 -363
-126 -239 -166 -291 -226 -291 -41 0 -58 9 -74 41 -23 43 -18 77 14 110 30 30
67 37 100 20 9 -5 23 -6 30 -1 21 12 -31 42 -74 42 -71 0 -130 -67 -121 -137
5 -46 60 -104 98 -106 112 -6 143 26 278 286 106 203 173 308 245 378 52 52
171 124 183 112 3 -3 -10 -22 -29 -43 -101 -106 -145 -188 -204 -375 -49 -156
-92 -250 -147 -319 l-32 -41 39 6 c127 21 226 113 400 376 133 201 220 305
294 353 74 46 77 32 9 -40 -174 -185 -294 -475 -247 -599 25 -66 73 -94 158
-94 71 0 168 46 211 101 102 128 59 309 -62 259 -27 -11 -88 -88 -88 -111 0
-20 22 -4 50 37 33 49 70 65 96 44 26 -21 14 -108 -22 -166 -39 -62 -124 -123
-173 -123 -81 0 -99 58 -62 202 33 126 114 274 260 472 l71 96 -37 0 c-51 -1
-114 -16 -171 -42 -74 -34 -205 -174 -282 -301 -36 -60 -86 -141 -112 -180
-48 -75 -139 -177 -157 -177 -6 0 5 28 25 63 48 85 68 131 124 283 57 157 108
258 162 319 l40 45 -34 -1 c-18 -1 -52 -5 -76 -10z"/>
<path d="M3235 770 c-81 -32 -233 -258 -365 -540 -22 -48 -58 -105 -83 -133
-85 -90 -103 -44 -29 72 86 132 52 215 -59 145 -47 -29 -58 -26 -34 10 17 26
17 26 -13 26 -28 0 -34 -7 -86 -102 -63 -115 -132 -198 -165 -198 -35 0 -26
38 44 179 l64 131 -29 0 c-33 0 -54 -31 -106 -153 -33 -77 -103 -161 -131
-155 -32 6 -26 39 17 100 56 80 53 106 -17 133 -48 18 -52 23 -55 55 -2 27 -8
36 -25 38 -41 6 -61 -56 -31 -95 14 -18 -16 -68 -110 -180 -31 -37 -52 -53
-68 -53 -18 0 -24 6 -24 21 0 19 144 346 215 489 18 36 40 82 48 103 l16 37
-29 0 c-27 0 -33 -7 -68 -77 -22 -43 -61 -126 -87 -185 -26 -60 -50 -108 -52
-108 -2 0 -11 7 -19 15 -58 57 -207 -48 -230 -163 -4 -18 -29 -55 -59 -88 -99
-105 -107 -41 -18 137 l60 119 -27 0 c-15 0 -33 -7 -40 -15 -11 -13 -14 -12
-29 7 -46 56 -174 -11 -222 -117 -34 -74 -18 -179 31 -205 24 -13 64 4 85 37
l16 24 22 -33 c39 -58 94 -49 146 23 l29 39 7 -27 c8 -36 43 -73 68 -73 10 0
32 16 49 35 l31 34 16 -31 c40 -77 99 -51 193 86 37 54 69 104 71 110 7 18 62
-17 65 -42 2 -12 -6 -36 -18 -52 -32 -45 -37 -100 -11 -124 28 -25 65 -23 104
6 l32 25 18 -23 c26 -35 73 -32 114 8 l32 31 -6 -36 c-5 -36 -5 -37 26 -37 23
0 31 4 31 18 0 31 39 134 66 175 28 43 98 97 126 97 29 0 22 -30 -27 -116 -63
-109 -58 -164 14 -166 27 -1 41 6 69 36 l34 38 -7 -42 -7 -41 33 3 c30 3 34 7
41 43 22 108 49 164 100 210 28 25 57 45 64 45 23 0 28 -30 10 -59 -78 -122
-95 -204 -47 -227 39 -20 78 1 119 64 28 41 38 50 40 36 7 -48 14 -66 32 -84
27 -27 43 -25 85 11 20 18 37 30 38 28 2 -2 10 -16 19 -30 39 -63 99 -39 168
67 27 42 50 82 50 88 0 6 -22 -14 -48 -44 -66 -77 -103 -111 -116 -107 -26 9
-14 58 44 175 33 68 60 125 60 128 0 13 -59 2 -64 -13 -6 -14 -9 -14 -27 5
-25 27 -68 28 -117 3 -49 -25 -73 -53 -110 -126 -34 -66 -116 -165 -137 -165
-36 0 -30 23 39 134 41 68 48 122 18 149 -25 23 -41 21 -84 -8 -48 -32 -51
-32 -32 8 11 22 37 44 85 72 86 48 180 135 209 194 29 58 32 132 6 160 -21 23
-22 23 -51 11z m43 -53 c4 -33 -28 -107 -70 -159 -40 -52 -162 -152 -166 -138
-2 5 29 69 70 141 94 168 158 228 166 156z m-1692 -412 c13 -51 -23 -148 -77
-210 -79 -89 -118 9 -54 135 43 86 118 128 131 75z m352 -19 c4 -48 -54 -174
-95 -206 -99 -78 -98 103 2 207 56 58 88 58 93 -1z m1442 29 c26 -32 -33 -192
-87 -235 -99 -78 -97 103 2 206 44 46 65 53 85 29z"/>
<path d="M2536 531 c-19 -21 -21 -51 -3 -51 18 0 37 21 37 41 0 26 -15 31 -34
10z"/>
</g>
</svg>
