<?xml version="1.0" standalone="no"?>
<!DOCTYPE svg PUBLIC "-//W3C//DTD SVG 20010904//EN"
 "http://www.w3.org/TR/2001/REC-SVG-20010904/DTD/svg10.dtd">
<svg version="1.0" xmlns="http://www.w3.org/2000/svg"
 width="334.000000pt" height="105.000000pt" viewBox="0 0 334.000000 105.000000"
 preserveAspectRatio="xMidYMid meet">

<g transform="translate(0.000000,105.000000) scale(0.100000,-0.100000)"
fill="#000000" stroke="none">
<path d="M822 1029 c-64 -12 -157 -66 -216 -125 -75 -75 -142 -176 -241 -363
-126 -239 -166 -291 -226 -291 -41 0 -58 9 -74 41 -23 43 -18 77 14 110 30 30
67 37 100 20 9 -5 23 -6 30 -1 21 12 -31 42 -74 42 -71 0 -130 -67 -121 -137
5 -46 60 -104 98 -106 112 -6 143 26 278 286 106 203 173 308 245 378 52 52
171 124 183 112 3 -3 -10 -22 -29 -43 -101 -106 -145 -188 -204 -375 -49 -156
-92 -250 -147 -319 l-32 -41 39 6 c127 21 226 113 400 376 133 201 220 305
294 353 74 46 77 32 9 -40 -174 -185 -294 -475 -247 -599 25 -66 73 -94 158
-94 71 0 168 46 211 101 102 128 59 309 -62 259 -27 -11 -88 -88 -88 -111 0
-20 22 -4 50 37 33 49 70 65 96 44 26 -21 14 -108 -22 -166 -39 -62 -124 -123
-173 -123 -81 0 -99 58 -62 202 33 126 114 274 260 472 l71 96 -37 0 c-51 -1
-114 -16 -171 -42 -74 -34 -205 -174 -282 -301 -36 -60 -86 -141 -112 -180
-48 -75 -139 -177 -157 -177 -6 0 5 28 25 63 48 85 68 131 124 283 57 157 108
258 162 319 l40 45 -34 -1 c-18 -1 -52 -5 -76 -10z"/>
<path d="M2069 968 c-48 -32 -148 -188 -211 -328 -43 -98 -57 -120 -74 -120
-37 0 -58 -34 -51 -84 6 -43 4 -48 -44 -106 -57 -68 -85 -88 -102 -71 -15 15
5 75 68 197 l52 104 -27 0 c-15 0 -33 -7 -40 -15 -11 -13 -14 -12 -29 7 -46
56 -174 -11 -222 -117 -34 -74 -18 -179 31 -205 24 -13 64 4 85 37 l16 24 22
-33 c33 -48 77 -50 120 -6 18 18 40 44 49 58 9 14 -4 -39 -30 -118 -51 -157
-51 -174 7 -180 61 -6 175 137 188 238 4 28 10 40 22 40 9 0 33 11 52 25 l37
24 5 -36 c6 -38 41 -83 64 -83 7 0 30 15 51 34 l38 35 13 -31 c26 -58 83 -54
138 10 22 24 33 31 33 21 0 -9 9 -28 21 -43 16 -21 29 -26 63 -26 49 0 77 17
117 73 l29 40 6 -31 c8 -39 46 -82 73 -82 10 0 32 15 48 33 l28 32 20 -30 c42
-61 110 -40 168 54 l21 34 10 -43 c15 -58 51 -86 89 -69 15 7 34 23 43 37 l16
25 15 -30 c42 -88 130 -44 205 100 10 22 18 41 15 43 -2 2 -28 -26 -57 -62
-63 -77 -96 -102 -112 -86 -16 16 4 77 66 200 l53 102 -27 0 c-15 0 -33 -7
-40 -15 -11 -14 -14 -13 -27 5 -31 44 -140 10 -191 -59 -13 -17 -31 -51 -41
-74 -10 -23 -42 -68 -71 -100 -57 -62 -90 -74 -90 -32 0 27 80 210 203 468
l76 157 -30 0 c-37 0 -45 -14 -135 -213 -37 -84 -69 -154 -71 -156 -2 -2 -11
3 -21 12 -10 10 -35 17 -55 17 -61 0 -160 -91 -174 -162 -6 -33 -104 -143
-133 -151 -47 -12 -64 52 -35 135 9 28 38 67 79 110 116 118 270 380 264 448
-3 30 -7 35 -31 38 -69 8 -153 -89 -255 -293 -51 -104 -118 -266 -136 -330 -9
-30 -93 -118 -108 -113 -28 10 -17 56 42 176 33 68 60 125 60 128 0 13 -59 2
-64 -13 -6 -14 -9 -14 -27 5 -51 56 -161 1 -217 -108 -32 -65 -90 -130 -114
-130 -8 0 -20 30 -30 72 l-18 71 68 71 c113 119 220 294 237 390 6 28 3 41
-10 56 -23 25 -34 25 -76 -2z m71 -36 c0 -35 -83 -177 -178 -305 -121 -163
-122 -146 -4 84 105 208 182 301 182 221z m570 -5 c0 -34 -79 -184 -153 -290
-59 -84 -107 -140 -107 -124 0 28 143 316 197 399 29 43 63 52 63 15z m-1124
-412 c13 -51 -23 -148 -77 -210 -79 -89 -118 9 -54 135 43 86 118 128 131 75z
m620 1 c8 -35 -20 -125 -58 -182 -36 -54 -82 -79 -98 -54 -28 44 5 154 65 216
47 50 81 57 91 20z m574 9 c39 -47 -75 -261 -134 -253 -17 2 -22 11 -24 43 -5
62 17 121 65 176 46 51 71 60 93 34z m364 -1 c22 -58 -49 -219 -110 -246 -81
-37 -66 128 20 217 44 46 79 57 90 29z m-1351 -40 c3 -4 -1 -17 -10 -31 -19
-28 -39 -17 -28 16 6 20 25 28 38 15z m56 -136 c1 -32 -9 -35 -32 -10 -14 15
-14 20 0 52 16 35 16 35 23 10 5 -14 8 -37 9 -52z m-20 -48 c20 -17 22 -26 16
-57 -11 -59 -42 -116 -90 -163 -32 -31 -48 -41 -55 -34 -10 10 1 46 81 252 10
27 17 27 48 2z"/>
</g>
</svg>
