<?xml version="1.0" standalone="no"?>
<!DOCTYPE svg PUBLIC "-//W3C//DTD SVG 20010904//EN"
 "http://www.w3.org/TR/2001/REC-SVG-20010904/DTD/svg10.dtd">
<svg version="1.0" xmlns="http://www.w3.org/2000/svg"
 width="305.000000pt" height="85.000000pt" viewBox="0 0 305.000000 85.000000"
 preserveAspectRatio="xMidYMid meet">

<g transform="translate(0.000000,85.000000) scale(0.100000,-0.100000)"
fill="#000000" stroke="none">
<path d="M822 829 c-64 -12 -157 -66 -216 -125 -75 -75 -142 -176 -241 -363
-126 -239 -166 -291 -226 -291 -41 0 -58 9 -74 41 -23 43 -18 77 14 110 30 30
67 37 100 20 9 -5 23 -6 30 -1 21 12 -31 42 -74 42 -71 0 -130 -67 -121 -137
5 -46 60 -104 98 -106 112 -6 143 26 278 286 106 203 173 308 245 378 52 52
171 124 183 112 3 -3 -10 -22 -29 -43 -101 -106 -145 -188 -204 -375 -49 -156
-92 -250 -147 -319 l-32 -41 39 6 c127 21 226 113 400 376 133 201 220 305
294 353 74 46 77 32 9 -40 -174 -185 -294 -475 -247 -599 25 -66 73 -94 158
-94 71 0 168 46 211 101 102 128 59 309 -62 259 -27 -11 -88 -88 -88 -111 0
-20 22 -4 50 37 33 49 70 65 96 44 26 -21 14 -108 -22 -166 -39 -62 -124 -123
-173 -123 -81 0 -99 58 -62 202 33 126 114 274 260 472 l71 96 -37 0 c-51 -1
-114 -16 -171 -42 -74 -34 -205 -174 -282 -301 -36 -60 -86 -141 -112 -180
-48 -75 -139 -177 -157 -177 -6 0 5 28 25 63 48 85 68 131 124 283 57 157 108
258 162 319 l40 45 -34 -1 c-18 -1 -52 -5 -76 -10z"/>
<path d="M2943 771 c-85 -52 -220 -291 -309 -546 -32 -93 -69 -146 -120 -170
-33 -15 -37 -15 -60 0 -22 14 -25 22 -22 67 l3 51 47 14 c137 39 177 203 42
169 -38 -10 -104 -84 -134 -151 -17 -38 -46 -77 -79 -108 -93 -87 -96 -32 -8
147 l63 127 -31 -3 c-27 -3 -35 -12 -75 -89 -46 -89 -130 -203 -157 -213 -61
-24 -56 15 22 173 l64 131 -29 0 c-28 0 -33 -7 -81 -102 -56 -112 -130 -208
-160 -208 -30 0 -23 31 27 108 89 140 61 226 -51 157 -52 -32 -59 -31 -40 5
l16 30 -30 0 c-27 0 -33 -8 -86 -111 -57 -111 -132 -205 -157 -196 -26 9 -9
71 49 188 l60 119 -27 0 c-15 0 -33 -7 -40 -15 -11 -13 -14 -12 -29 7 -46 56
-174 -11 -222 -117 -34 -74 -18 -179 31 -205 24 -13 64 4 85 37 l16 24 22 -33
c28 -41 68 -48 107 -20 l27 20 -5 -24 c-4 -21 -1 -24 26 -24 26 0 31 4 36 36
16 83 48 143 107 199 94 90 130 67 66 -43 -54 -93 -61 -117 -47 -152 12 -29
29 -36 70 -30 8 1 29 15 45 30 l30 29 17 -29 c25 -44 75 -42 121 5 l35 36 20
-36 c18 -29 27 -35 56 -35 28 0 41 8 73 44 l38 44 20 -42 c36 -74 115 -79 185
-11 39 38 50 43 50 22 0 -29 45 -57 90 -57 38 0 48 5 84 43 41 44 107 153 89
146 -6 -2 -36 -35 -68 -72 -61 -73 -89 -90 -117 -75 -13 6 -18 21 -18 52 0 70
23 117 88 182 71 71 167 214 228 338 44 89 49 110 38 140 -8 22 -52 20 -91 -3z
m57 -39 c0 -10 -17 -54 -39 -98 -62 -126 -219 -352 -221 -316 0 20 140 308
183 375 25 38 43 57 57 57 13 0 20 -7 20 -18z m-1414 -417 c13 -51 -23 -148
-77 -210 -79 -89 -118 9 -54 135 43 86 118 128 131 75z m994 -4 c0 -15 -9 -40
-21 -55 -20 -26 -87 -66 -109 -66 -16 0 29 78 68 117 41 41 62 43 62 4z"/>
</g>
</svg>
