<?xml version="1.0" standalone="no"?>
<!DOCTYPE svg PUBLIC "-//W3C//DTD SVG 20010904//EN"
 "http://www.w3.org/TR/2001/REC-SVG-20010904/DTD/svg10.dtd">
<svg version="1.0" xmlns="http://www.w3.org/2000/svg"
 width="327.000000pt" height="84.000000pt" viewBox="0 0 327.000000 84.000000"
 preserveAspectRatio="xMidYMid meet">

<g transform="translate(0.000000,84.000000) scale(0.100000,-0.100000)"
fill="#000000" stroke="none">
<path d="M822 819 c-64 -12 -157 -66 -216 -125 -75 -75 -142 -176 -241 -363
-126 -239 -166 -291 -226 -291 -41 0 -58 9 -74 41 -23 43 -18 77 14 110 30 30
67 37 100 20 9 -5 23 -6 30 -1 21 12 -31 42 -74 42 -71 0 -130 -67 -121 -137
5 -46 60 -104 98 -106 112 -6 143 26 278 286 106 203 173 308 245 378 52 52
171 124 183 112 3 -3 -10 -22 -29 -43 -101 -106 -145 -188 -204 -375 -49 -156
-92 -250 -147 -319 l-32 -41 39 6 c127 21 226 113 400 376 133 201 220 305
294 353 74 46 77 32 9 -40 -174 -185 -294 -475 -247 -599 25 -66 73 -94 158
-94 71 0 168 46 211 101 102 128 59 309 -62 259 -27 -11 -88 -88 -88 -111 0
-20 22 -4 50 37 33 49 70 65 96 44 26 -21 14 -108 -22 -166 -39 -62 -124 -123
-173 -123 -81 0 -99 58 -62 202 33 126 114 274 260 472 l71 96 -37 0 c-51 -1
-114 -16 -171 -42 -74 -34 -205 -174 -282 -301 -36 -60 -86 -141 -112 -180
-48 -75 -139 -177 -157 -177 -6 0 5 28 25 63 48 85 68 131 124 283 57 157 108
258 162 319 l40 45 -34 -1 c-18 -1 -52 -5 -76 -10z"/>
<path d="M2180 525 c-19 -20 -21 -28 -12 -37 15 -15 45 1 50 27 7 31 -13 36
-38 10z"/>
<path d="M1769 357 c-8 -18 -7 -32 4 -59 15 -36 15 -36 -29 -102 -56 -83 -128
-160 -146 -153 -26 9 -9 71 49 188 l60 119 -27 0 c-15 0 -33 -7 -40 -15 -11
-13 -14 -12 -29 7 -46 56 -174 -11 -222 -117 -34 -74 -18 -179 31 -205 24 -13
64 4 85 37 l16 24 22 -33 c27 -39 66 -48 103 -23 14 9 55 62 91 118 36 56 67
103 68 105 2 2 17 -4 34 -13 38 -19 39 -42 6 -91 -28 -42 -33 -95 -9 -118 25
-25 74 -20 107 12 20 18 31 23 34 14 10 -26 35 -42 68 -42 33 0 61 24 122 106
l22 29 0 -33 c1 -18 8 -46 16 -62 26 -51 71 -49 113 5 l20 25 20 -33 c25 -43
52 -50 97 -27 34 17 35 17 35 -1 0 -14 7 -19 30 -19 23 0 30 4 30 20 0 32 37
130 65 172 29 44 99 98 127 98 24 0 24 -34 -1 -68 -32 -47 -71 -130 -71 -155
0 -36 22 -58 58 -59 37 -1 60 17 100 78 l28 42 12 -44 c21 -77 86 -92 128 -30
l16 26 22 -33 c30 -45 77 -49 118 -10 35 33 101 139 96 154 -2 5 -20 -13 -41
-40 -58 -76 -106 -115 -123 -100 -20 16 -10 45 58 182 l58 117 -29 0 c-16 0
-34 -7 -41 -15 -11 -13 -14 -12 -29 7 -21 25 -65 27 -109 4 -39 -20 -108 -99
-117 -134 -11 -43 -113 -162 -140 -162 -27 0 -17 42 25 105 94 141 65 232 -51
159 -45 -28 -56 -27 -40 4 15 29 14 32 -14 32 -21 0 -33 -16 -84 -112 -59
-111 -132 -203 -154 -195 -27 9 -15 57 43 175 33 68 60 125 60 128 0 13 -59 2
-64 -13 -6 -14 -9 -13 -28 7 -17 19 -28 21 -65 17 -59 -6 -110 -48 -149 -122
-40 -74 -139 -185 -165 -185 -34 0 -22 46 45 182 l65 129 -32 -3 c-30 -3 -35
-10 -87 -115 -30 -62 -71 -131 -91 -153 -41 -46 -79 -54 -79 -17 0 20 9 37 62
116 10 14 18 33 18 42 0 22 -32 48 -73 60 -32 9 -36 14 -39 47 -3 32 -7 37
-30 40 -21 3 -30 -2 -39 -21z m-183 -52 c13 -51 -23 -148 -77 -210 -79 -89
-118 9 -54 135 43 86 118 128 131 75z m814 10 c17 -20 4 -83 -32 -155 -64
-129 -144 -134 -124 -9 9 57 38 110 81 147 40 35 57 39 75 17z m674 -45 c-2
-85 -77 -210 -126 -210 -40 0 -42 94 -4 169 24 46 86 102 110 99 19 -3 21 -9
20 -58z"/>
</g>
</svg>
