<?xml version="1.0" standalone="no"?>
<!DOCTYPE svg PUBLIC "-//W3C//DTD SVG 20010904//EN"
 "http://www.w3.org/TR/2001/REC-SVG-20010904/DTD/svg10.dtd">
<svg version="1.0" xmlns="http://www.w3.org/2000/svg"
 width="299.000000pt" height="85.000000pt" viewBox="0 0 299.000000 85.000000"
 preserveAspectRatio="xMidYMid meet">

<g transform="translate(0.000000,85.000000) scale(0.100000,-0.100000)"
fill="#000000" stroke="none">
<path d="M822 829 c-64 -12 -157 -66 -216 -125 -75 -75 -142 -176 -241 -363
-126 -239 -166 -291 -226 -291 -41 0 -58 9 -74 41 -23 43 -18 77 14 110 30 30
67 37 100 20 9 -5 23 -6 30 -1 21 12 -31 42 -74 42 -71 0 -130 -67 -121 -137
5 -46 60 -104 98 -106 112 -6 143 26 278 286 106 203 173 308 245 378 52 52
171 124 183 112 3 -3 -10 -22 -29 -43 -101 -106 -145 -188 -204 -375 -49 -156
-92 -250 -147 -319 l-32 -41 39 6 c127 21 226 113 400 376 133 201 220 305
294 353 74 46 77 32 9 -40 -174 -185 -294 -475 -247 -599 25 -66 73 -94 158
-94 71 0 168 46 211 101 102 128 59 309 -62 259 -27 -11 -88 -88 -88 -111 0
-20 22 -4 50 37 33 49 70 65 96 44 26 -21 14 -108 -22 -166 -39 -62 -124 -123
-173 -123 -81 0 -99 58 -62 202 33 126 114 274 260 472 l71 96 -37 0 c-51 -1
-114 -16 -171 -42 -74 -34 -205 -174 -282 -301 -36 -60 -86 -141 -112 -180
-48 -75 -139 -177 -157 -177 -6 0 5 28 25 63 48 85 68 131 124 283 57 157 108
258 162 319 l40 45 -34 -1 c-18 -1 -52 -5 -76 -10z"/>
<path d="M1923 770 c-74 -45 -197 -256 -288 -495 -25 -66 -52 -131 -60 -145
-16 -30 -71 -75 -102 -85 -33 -9 -63 26 -63 73 0 48 6 55 60 71 26 8 60 29 83
52 31 31 38 44 35 71 -4 41 -38 61 -77 47 -36 -14 -99 -76 -122 -121 -63 -123
-33 -230 66 -230 39 0 69 17 111 59 16 18 28 24 31 16 2 -7 13 -23 24 -37 17
-21 29 -26 66 -26 39 0 50 5 82 38 20 20 44 48 53 62 17 27 20 24 32 -33 8
-32 39 -67 62 -67 9 0 31 15 50 34 l33 33 20 -33 c17 -28 26 -34 53 -34 19 0
44 7 56 16 21 14 22 14 22 -5 0 -17 6 -21 30 -21 23 0 30 4 30 20 0 35 42 144
69 179 32 42 98 91 123 91 24 0 24 -34 -1 -68 -31 -45 -71 -130 -71 -152 0
-64 69 -83 120 -35 l27 26 17 -26 c25 -38 78 -35 120 8 17 17 39 43 48 57 l17
25 0 -31 c2 -63 65 -109 128 -92 41 11 102 68 138 131 31 54 25 78 -8 32 -71
-98 -138 -146 -176 -125 -39 20 -39 130 0 130 50 0 138 69 154 121 10 29 -21
59 -60 59 -44 0 -114 -63 -150 -134 -39 -77 -121 -168 -149 -164 -33 5 -23 45
45 179 32 65 59 121 59 124 0 13 -49 3 -63 -12 -8 -10 -36 -61 -60 -113 -26
-54 -63 -113 -86 -137 -77 -82 -97 -40 -30 64 91 139 61 229 -52 157 -45 -28
-56 -27 -40 4 16 30 14 34 -15 30 -22 -3 -35 -20 -83 -109 -59 -110 -99 -166
-135 -186 -55 -30 -48 21 24 166 33 67 60 124 60 127 0 13 -59 2 -64 -12 -6
-15 -9 -15 -29 5 -60 55 -172 -6 -228 -124 -25 -52 -121 -160 -149 -168 -47
-12 -63 48 -36 134 9 30 34 64 78 109 115 117 260 362 262 442 1 41 -1 43 -29
46 -17 1 -44 -6 -62 -18z m57 -37 c-1 -32 -45 -126 -103 -218 -61 -98 -146
-209 -153 -202 -11 11 146 336 198 410 22 31 58 37 58 10z m-418 -424 c-1 -13
-11 -35 -21 -49 -19 -26 -98 -76 -107 -67 -14 13 54 114 89 134 30 17 43 11
39 -18z m498 11 c22 -41 -34 -188 -88 -231 -53 -41 -81 -11 -68 72 9 57 38
110 81 147 41 37 60 40 75 12z m823 -15 c-1 -15 -9 -37 -16 -49 -17 -25 -102
-74 -112 -64 -10 10 43 95 77 123 37 31 54 28 51 -10z"/>
<path d="M2690 540 c-22 -22 -25 -36 -9 -45 12 -8 49 23 49 41 0 23 -19 25
-40 4z"/>
</g>
</svg>
