<?xml version="1.0" standalone="no"?>
<!DOCTYPE svg PUBLIC "-//W3C//DTD SVG 20010904//EN"
 "http://www.w3.org/TR/2001/REC-SVG-20010904/DTD/svg10.dtd">
<svg version="1.0" xmlns="http://www.w3.org/2000/svg"
 width="230.000000pt" height="86.000000pt" viewBox="0 0 230.000000 86.000000"
 preserveAspectRatio="xMidYMid meet">

<g transform="translate(0.000000,86.000000) scale(0.100000,-0.100000)"
fill="#000000" stroke="none">
<path d="M1103 825 c-81 -49 -147 -168 -247 -443 -59 -164 -105 -260 -139
-289 -20 -17 -20 -17 -14 2 3 11 16 47 28 80 21 54 23 84 29 320 5 214 9 267
23 299 9 21 17 40 17 42 0 2 -29 4 -65 4 -58 0 -68 -3 -100 -32 -79 -69 -131
-164 -225 -408 -78 -203 -108 -266 -151 -314 -69 -79 -189 -50 -189 46 0 79
83 116 137 62 19 -19 28 -23 37 -14 8 8 3 19 -22 41 -67 60 -178 28 -201 -58
-19 -68 30 -132 116 -151 117 -26 215 84 363 408 93 204 187 370 210 370 5 0
-2 -19 -15 -42 -48 -88 -60 -151 -55 -303 7 -228 6 -388 -3 -412 -8 -22 -7
-23 57 -23 62 0 66 2 89 33 43 57 74 129 147 343 115 336 162 416 253 431 20
3 38 12 41 19 10 25 -74 17 -121 -11z"/>
<path d="M2172 765 c-49 -42 -114 -138 -172 -254 -44 -88 -140 -326 -140 -346
0 -18 -99 -107 -110 -100 -27 16 -9 64 108 298 7 14 -57 7 -66 -8 -7 -14 -11
-13 -27 5 -47 52 -153 3 -210 -99 -39 -68 -124 -173 -155 -188 -62 -31 -79 46
-36 161 14 35 43 105 66 155 41 87 44 90 78 93 46 4 56 28 12 28 l-32 0 56
105 56 105 -34 0 c-34 0 -36 -3 -91 -104 -47 -88 -60 -105 -82 -108 -32 -4
-44 -28 -14 -28 12 0 21 -2 21 -4 0 -3 -24 -58 -53 -123 -30 -65 -59 -135 -66
-155 -15 -44 -103 -142 -123 -136 -25 9 -10 70 49 189 l58 119 -26 0 c-15 0
-32 -7 -39 -15 -11 -13 -14 -12 -29 7 -46 56 -174 -11 -222 -117 -20 -44 -25
-119 -9 -159 5 -14 20 -32 34 -41 29 -19 57 -9 93 34 16 18 22 22 23 10 0 -27
39 -59 72 -59 23 0 41 10 70 41 33 34 39 38 45 22 14 -42 45 -63 91 -63 38 0
50 5 81 38 20 20 44 48 53 62 l16 25 11 -43 c13 -47 42 -82 67 -82 9 0 31 15
50 34 l33 33 20 -33 c29 -48 76 -48 122 1 35 37 49 43 49 22 0 -29 45 -57 90
-57 39 0 48 5 84 44 42 45 107 152 89 145 -6 -2 -36 -35 -68 -72 -61 -73 -89
-90 -117 -75 -14 6 -18 21 -18 56 1 69 22 118 71 161 78 68 246 326 280 429
28 86 -32 112 -109 47z m70 -39 c-6 -55 -101 -221 -200 -350 -25 -33 -48 -54
-50 -48 -5 15 146 326 188 387 36 53 67 58 62 11z m-1097 -397 c21 -66 -71
-249 -126 -249 -29 0 -42 27 -36 75 17 118 139 249 162 174z m590 -39 c-1 -64
-29 -129 -77 -179 -43 -44 -72 -39 -76 14 -6 66 17 124 69 178 63 65 84 62 84
-13z"/>
</g>
</svg>
