<?xml version="1.0" standalone="no"?>
<!DOCTYPE svg PUBLIC "-//W3C//DTD SVG 20010904//EN"
 "http://www.w3.org/TR/2001/REC-SVG-20010904/DTD/svg10.dtd">
<svg version="1.0" xmlns="http://www.w3.org/2000/svg"
 width="287.000000pt" height="86.000000pt" viewBox="0 0 287.000000 86.000000"
 preserveAspectRatio="xMidYMid meet">

<g transform="translate(0.000000,86.000000) scale(0.100000,-0.100000)"
fill="#000000" stroke="none">
<path d="M445 848 c-189 -26 -326 -132 -371 -286 -19 -65 -12 -111 23 -152 78
-93 201 -78 281 34 32 44 62 105 62 125 0 23 -27 -2 -40 -37 -44 -126 -170
-199 -242 -142 -52 41 -60 114 -22 196 60 127 278 238 433 220 109 -13 107 -8
45 -89 -65 -85 -114 -178 -184 -347 -126 -301 -180 -359 -296 -315 -70 27 -95
96 -53 149 29 37 99 37 127 1 12 -15 23 -21 27 -15 23 36 -52 86 -114 76 -102
-16 -141 -117 -74 -196 36 -44 74 -60 138 -60 155 0 289 157 399 470 41 115
115 280 126 280 18 0 60 -44 79 -83 50 -104 3 -194 -122 -231 -22 -7 -13 -26
12 -26 78 0 209 99 229 172 20 73 -19 144 -105 194 -28 17 -42 32 -39 41 4 10
1 11 -12 4 -11 -6 -38 -5 -77 4 -85 18 -160 23 -230 13z"/>
<path d="M2554 782 c-48 -35 -95 -92 -166 -202 -58 -89 -142 -251 -173 -332
-19 -51 -117 -168 -141 -168 -26 0 -14 44 31 120 43 71 54 115 39 154 -9 23
-53 19 -99 -9 -50 -31 -61 -31 -41 -3 23 32 20 40 -11 36 -24 -3 -35 -17 -79
-98 -56 -104 -135 -200 -165 -200 -34 0 -22 50 44 184 l63 127 -31 -3 c-28 -3
-35 -12 -90 -121 -62 -122 -113 -187 -146 -187 -32 0 -23 46 21 107 22 31 40
64 40 73 0 24 -28 46 -78 61 -34 10 -41 16 -36 31 9 31 -5 58 -31 58 -36 0
-50 -33 -35 -80 14 -42 9 -56 -43 -125 -85 -112 -147 -154 -147 -100 0 25 82
213 210 481 l69 144 -29 0 c-35 0 -51 -24 -140 -225 -35 -77 -65 -142 -66
-144 -2 -2 -12 3 -22 12 -63 58 -198 -35 -231 -158 -11 -40 -72 -114 -111
-135 -16 -9 -22 -8 -26 5 -10 24 3 61 62 177 30 60 54 111 54 113 0 14 -59 3
-64 -11 -6 -15 -9 -15 -29 5 -91 84 -270 -96 -238 -239 22 -97 74 -115 129
-45 l20 25 21 -35 c17 -30 26 -35 56 -35 37 0 62 18 98 69 9 14 18 23 20 20 1
-2 10 -21 20 -41 25 -57 61 -61 104 -14 29 31 34 34 40 19 12 -34 36 -53 68
-53 38 0 70 31 150 150 31 47 59 86 60 88 8 9 65 -30 65 -44 0 -8 -12 -35 -26
-59 -31 -53 -34 -103 -9 -121 30 -22 79 -17 105 11 l23 25 23 -25 c32 -34 79
-33 117 3 l30 27 -6 -32 c-6 -31 -5 -33 22 -33 27 0 30 4 56 88 24 79 32 93
86 145 57 56 94 71 105 43 3 -8 -15 -50 -41 -94 -37 -64 -46 -87 -43 -118 6
-72 74 -78 130 -11 l27 32 -6 -42 c-6 -42 -5 -43 25 -43 26 0 31 4 37 32 4 18
16 64 28 101 18 56 31 77 74 118 88 84 117 58 54 -48 -56 -94 -66 -127 -51
-162 22 -54 79 -46 131 19 l33 41 10 -33 c13 -38 62 -68 100 -61 14 3 42 20
64 38 21 18 55 37 75 40 40 8 107 74 107 104 0 10 -12 3 -33 -21 -30 -34 -74
-64 -83 -56 -2 2 7 31 21 63 46 117 40 165 -20 165 -13 0 -35 4 -48 9 -56 21
-156 -67 -187 -164 -16 -50 -86 -135 -111 -135 -26 0 -24 26 6 75 42 69 75
139 75 163 0 23 -32 62 -52 62 -6 0 -31 -11 -55 -25 -23 -14 -43 -24 -43 -21
0 27 35 62 104 104 96 59 176 134 205 195 28 57 28 130 1 157 -26 26 -30 25
-76 -8z m66 -17 c31 -38 -41 -164 -147 -258 -52 -46 -93 -73 -93 -62 0 19 148
267 178 298 41 42 45 43 62 22z m-1690 -425 c7 -13 7 -33 0 -65 -28 -127 -136
-237 -156 -160 -16 64 21 161 81 213 41 37 60 40 75 12z m356 -5 c21 -83 -102
-273 -155 -240 -15 8 -14 78 1 127 16 53 92 138 124 138 17 0 25 -7 30 -25z
m1368 -50 c-13 -48 -14 -65 -4 -98 10 -35 9 -43 -8 -66 -22 -29 -62 -47 -86
-38 -25 10 -20 79 9 138 25 49 94 134 102 125 2 -2 -3 -30 -13 -61z m96 32 c0
-32 -48 -129 -60 -122 -13 8 -13 66 0 102 20 52 60 66 60 20z"/>
<path d="M1880 560 c-23 -23 -22 -43 3 -48 22 -4 45 44 30 59 -8 8 -17 5 -33
-11z"/>
</g>
</svg>
