<?xml version="1.0" standalone="no"?>
<!DOCTYPE svg PUBLIC "-//W3C//DTD SVG 20010904//EN"
 "http://www.w3.org/TR/2001/REC-SVG-20010904/DTD/svg10.dtd">
<svg version="1.0" xmlns="http://www.w3.org/2000/svg"
 width="296.000000pt" height="86.000000pt" viewBox="0 0 296.000000 86.000000"
 preserveAspectRatio="xMidYMid meet">

<g transform="translate(0.000000,86.000000) scale(0.100000,-0.100000)"
fill="#000000" stroke="none">
<path d="M445 848 c-189 -26 -326 -132 -371 -286 -19 -65 -12 -111 23 -152 78
-93 201 -78 281 34 32 44 62 105 62 125 0 23 -27 -2 -40 -37 -44 -126 -170
-199 -242 -142 -52 41 -60 114 -22 196 60 127 278 238 433 220 109 -13 107 -8
45 -89 -65 -85 -114 -178 -184 -347 -126 -301 -180 -359 -296 -315 -70 27 -95
96 -53 149 29 37 99 37 127 1 12 -15 23 -21 27 -15 23 36 -52 86 -114 76 -102
-16 -141 -117 -74 -196 36 -44 74 -60 138 -60 155 0 289 157 399 470 41 115
115 280 126 280 18 0 60 -44 79 -83 50 -104 3 -194 -122 -231 -22 -7 -13 -26
12 -26 78 0 209 99 229 172 20 73 -19 144 -105 194 -28 17 -42 32 -39 41 4 10
1 11 -12 4 -11 -6 -38 -5 -77 4 -85 18 -160 23 -230 13z"/>
<path d="M2726 418 c-9 -12 -16 -35 -16 -51 0 -36 -46 -127 -64 -127 -19 0
-56 -47 -56 -71 0 -44 -96 -117 -135 -103 -21 9 -35 37 -35 73 0 43 9 61 31
61 58 0 149 79 149 129 0 36 -17 51 -57 51 -46 0 -115 -65 -153 -145 -51 -107
-136 -186 -153 -141 -6 14 6 40 57 120 26 43 27 48 13 70 -9 13 -34 28 -61 36
-42 12 -46 15 -43 42 3 37 -24 59 -50 42 -23 -14 -28 -48 -13 -84 11 -26 8
-34 -26 -87 -57 -89 -101 -140 -140 -158 -33 -15 -37 -15 -60 0 -22 14 -25 22
-22 67 l3 51 47 14 c114 33 174 162 79 171 -59 6 -131 -59 -172 -155 -30 -71
-75 -113 -119 -113 -20 0 -44 6 -53 13 -17 11 -17 15 0 55 13 31 26 45 50 52
45 15 113 92 113 128 0 32 -16 52 -41 52 -24 0 -72 -58 -93 -113 -15 -40 -20
-46 -33 -36 -11 10 -13 24 -8 60 6 41 4 49 -16 63 -13 9 -34 16 -46 16 -33 0
-94 -60 -158 -155 -60 -89 -149 -180 -165 -170 -21 13 -8 62 47 174 32 64 59
119 61 124 7 14 -57 7 -66 -8 -7 -14 -11 -13 -27 5 -54 60 -189 -18 -227 -132
-11 -34 -65 -109 -101 -141 -10 -9 -28 -17 -38 -17 -31 0 -23 42 21 106 22 33
40 66 40 75 0 22 -32 48 -73 60 -32 9 -36 14 -39 47 -3 32 -7 37 -30 40 -40 5
-58 -35 -36 -81 14 -31 14 -34 -13 -77 -31 -48 -34 -60 -20 -60 5 0 20 17 33
37 13 20 26 41 29 46 10 15 69 -21 69 -43 0 -10 -11 -36 -25 -56 -46 -68 -27
-134 39 -134 27 0 42 9 75 45 22 24 41 49 41 55 0 22 18 0 23 -29 7 -35 39
-71 63 -71 9 0 31 15 50 34 l33 33 20 -33 c40 -68 114 -36 179 76 56 98 127
192 155 206 39 21 53 7 38 -37 -13 -38 4 -74 45 -89 13 -5 24 -12 24 -15 0 -6
-20 -46 -26 -54 -2 -2 -23 6 -47 19 -56 30 -91 22 -114 -25 -13 -28 -14 -39
-4 -63 18 -42 60 -58 99 -38 17 9 34 20 37 26 4 6 19 0 39 -15 51 -39 95 -34
139 14 l36 40 18 -37 c21 -44 69 -64 117 -51 42 12 101 72 146 149 64 108 63
107 94 86 39 -25 41 -39 12 -83 -35 -54 -42 -88 -22 -118 13 -19 25 -25 53
-25 31 0 44 8 79 45 l41 45 6 -29 c17 -85 115 -99 189 -27 l36 35 24 -30 c36
-45 77 -53 135 -23 27 13 54 24 61 24 17 0 93 72 115 109 26 45 10 38 -51 -21
l-53 -53 6 50 c6 50 -7 83 -67 167 -9 13 -9 22 1 41 27 51 -11 91 -43 45z
m-930 -53 c9 -22 -15 -74 -43 -92 -13 -9 -26 -13 -30 -10 -8 9 4 47 27 85 21
35 37 41 46 17z m-531 -65 c-1 -91 -77 -215 -128 -208 -19 3 -22 10 -25 50 -4
62 29 137 80 184 55 49 73 43 73 -26z m775 31 c0 -15 -9 -40 -21 -55 -20 -26
-87 -66 -109 -66 -16 0 29 78 68 117 41 41 62 43 62 4z m536 18 c3 -6 -1 -28
-11 -49 -12 -27 -31 -46 -67 -65 -27 -15 -52 -24 -55 -21 -10 10 58 112 86
129 31 20 38 20 47 6z m186 -75 c28 -65 15 -170 -16 -120 -6 10 -21 34 -34 54
-23 35 -23 36 -6 74 9 21 21 38 26 38 5 0 18 -21 30 -46z m-59 -111 c13 -21
27 -43 31 -50 4 -7 -4 -19 -19 -29 -23 -15 -27 -15 -50 0 -31 20 -42 60 -25
92 19 34 36 30 63 -13z m-1120 -37 c23 -18 22 -30 -7 -45 -44 -24 -79 1 -62
45 7 18 45 18 69 0z"/>
</g>
</svg>
