<?xml version="1.0" standalone="no"?>
<!DOCTYPE svg PUBLIC "-//W3C//DTD SVG 20010904//EN"
 "http://www.w3.org/TR/2001/REC-SVG-20010904/DTD/svg10.dtd">
<svg version="1.0" xmlns="http://www.w3.org/2000/svg"
 width="180.000000pt" height="103.000000pt" viewBox="0 0 180.000000 103.000000"
 preserveAspectRatio="xMidYMid meet">

<g transform="translate(0.000000,103.000000) scale(0.100000,-0.100000)"
fill="#000000" stroke="none">
<path d="M789 1014 c-93 -28 -189 -143 -279 -336 -42 -91 -47 -97 -75 -97 -68
-1 -158 66 -189 141 -32 75 -10 148 56 188 36 22 128 27 186 11 17 -5 32 -6
32 -2 0 15 -56 33 -116 38 -51 5 -71 1 -116 -19 -71 -33 -101 -74 -106 -147
-3 -45 1 -65 20 -101 31 -57 104 -113 177 -135 31 -10 57 -19 59 -20 6 -5 -56
-120 -92 -169 -72 -101 -149 -140 -228 -117 -101 31 -76 181 30 181 26 0 45
-7 57 -20 30 -34 59 -24 32 11 -20 26 -53 39 -102 39 -124 0 -166 -171 -58
-233 23 -13 52 -19 99 -18 145 1 297 116 382 289 15 28 31 52 38 52 6 0 49 18
94 41 176 88 292 263 247 372 -8 19 -20 38 -27 42 -29 18 -78 21 -121 9z m73
-89 c28 -62 -43 -178 -161 -262 -111 -80 -113 -76 -36 81 53 108 86 155 135
189 33 23 48 21 62 -8z"/>
<path d="M1303 970 c-50 -30 -117 -129 -193 -285 -39 -78 -70 -147 -70 -153 0
-7 -11 -12 -23 -12 -39 0 -60 -33 -55 -84 5 -40 2 -48 -26 -74 -17 -16 -41
-33 -53 -36 l-22 -7 25 57 c32 72 42 145 22 161 -8 7 -44 15 -80 19 l-66 7
-45 -43 c-60 -55 -87 -111 -87 -182 0 -113 87 -157 167 -84 21 18 54 36 74 40
21 4 50 16 65 29 18 14 26 16 22 7 -3 -8 -25 -75 -49 -148 -48 -145 -47 -164
8 -170 61 -6 172 132 189 234 5 34 11 41 40 50 33 11 34 10 34 -16 0 -35 28
-60 67 -60 23 0 40 10 71 44 22 24 46 54 53 67 13 23 13 23 21 -21 7 -42 43
-90 69 -90 5 0 26 15 47 34 l38 35 12 -28 c29 -66 96 -55 154 25 40 55 72 114
65 120 -2 3 -30 -27 -62 -66 -59 -73 -88 -96 -105 -85 -20 12 -8 53 50 174 33
68 60 125 60 127 0 12 -55 1 -65 -13 -11 -15 -13 -15 -24 5 -30 56 -156 4
-206 -85 -62 -109 -143 -203 -176 -203 -33 0 -23 40 46 179 l65 132 -32 -3
c-31 -3 -36 -9 -84 -107 -48 -98 -89 -151 -117 -151 -7 0 -20 32 -29 71 l-17
72 67 72 c109 117 208 276 234 377 11 42 10 49 -7 68 -23 25 -32 25 -72 0z
m64 -45 c-3 -19 -27 -71 -53 -115 -61 -102 -203 -294 -212 -285 -10 10 166
350 205 395 44 52 68 53 60 5z m239 -409 c14 -57 -59 -214 -111 -238 -82 -37
-68 127 19 217 48 51 82 59 92 21z m-796 10 c0 -2 -7 -20 -15 -39 -18 -43 -20
-110 -4 -139 9 -17 6 -25 -22 -54 -41 -43 -85 -47 -95 -9 -12 47 25 136 82
204 30 35 54 51 54 37z m70 -36 c0 -30 -38 -120 -51 -120 -14 0 -19 55 -9 89
11 38 38 73 51 65 5 -3 9 -18 9 -34z m144 -8 c2 -4 -4 -19 -14 -32 -17 -22
-19 -23 -25 -7 -4 9 -5 24 -1 32 6 16 31 20 40 7z m51 -108 c8 -55 1 -65 -25
-38 -18 17 -18 23 -8 52 7 17 15 32 19 32 4 0 10 -21 14 -46z m0 -124 c-11
-60 -44 -123 -88 -167 -42 -44 -67 -54 -67 -28 0 8 18 61 41 117 23 57 45 113
50 126 9 23 9 23 40 5 27 -16 30 -22 24 -53z"/>
<path d="M1386 741 c-19 -21 -21 -51 -3 -51 18 0 37 21 37 41 0 26 -15 31 -34
10z"/>
</g>
</svg>
