<?xml version="1.0" standalone="no"?>
<!DOCTYPE svg PUBLIC "-//W3C//DTD SVG 20010904//EN"
 "http://www.w3.org/TR/2001/REC-SVG-20010904/DTD/svg10.dtd">
<svg version="1.0" xmlns="http://www.w3.org/2000/svg"
 width="315.000000pt" height="208.000000pt" viewBox="0 0 315.000000 208.000000"
 preserveAspectRatio="xMidYMid meet">

<g transform="translate(0.000000,208.000000) scale(0.100000,-0.100000)"
fill="#000000" stroke="none">
<path d="M1621 2031 c-24 -16 -87 -44 -140 -62 -87 -30 -107 -33 -216 -34 -75
0 -159 7 -224 19 -147 26 -315 19 -426 -18 -200 -68 -343 -212 -390 -391 -57
-219 48 -395 238 -396 77 -1 111 15 161 73 43 49 52 78 36 107 -11 22 -30 29
-30 11 0 -18 -63 -81 -101 -101 -45 -22 -87 -24 -132 -5 -134 56 -98 341 61
487 89 82 145 103 277 107 97 3 127 0 245 -28 180 -43 295 -50 386 -22 154 47
312 181 302 257 l-3 25 -44 -29z"/>
<path d="M1095 1661 c-84 -40 -176 -111 -225 -173 -57 -71 -90 -141 -210 -443
-110 -273 -161 -368 -241 -440 -142 -128 -329 -84 -329 78 0 61 19 106 59 140
27 22 42 27 89 27 67 0 111 -23 133 -69 l16 -31 21 23 22 24 -22 33 c-37 53
-89 75 -184 75 -73 0 -84 -3 -118 -28 -62 -48 -90 -100 -94 -177 -3 -56 0 -74
21 -117 48 -94 119 -135 232 -134 147 1 252 45 355 150 81 83 137 189 250 471
132 331 235 509 338 587 l44 33 -49 0 c-32 0 -68 -9 -108 -29z"/>
<path d="M1278 1457 c-38 -32 -51 -62 -38 -87 16 -30 44 -24 79 15 35 41 34
36 21 69 -12 32 -27 33 -62 3z"/>
<path d="M2143 1140 c-34 -17 -83 -53 -111 -80 -52 -51 -122 -175 -122 -215 0
-29 -47 -93 -131 -178 -51 -53 -72 -68 -90 -65 -59 8 -28 107 121 396 l80 152
-55 0 c-49 0 -57 -3 -76 -29 l-22 -30 -32 35 c-29 30 -38 34 -84 34 -115 0
-241 -99 -310 -243 -65 -137 -237 -332 -285 -325 -18 3 -21 10 -20 50 0 39 19
85 112 272 l111 226 -53 0 c-38 0 -57 -5 -69 -18 -21 -23 -124 -240 -171 -359
-39 -102 -44 -139 -21 -183 22 -42 53 -60 105 -60 73 0 121 40 213 177 l35 53
7 -43 c17 -97 67 -167 122 -167 36 0 94 35 123 75 30 41 36 43 44 11 3 -14 21
-41 40 -60 28 -30 40 -36 75 -36 23 0 54 6 69 14 33 17 90 77 125 130 17 26
28 35 31 25 30 -101 60 -142 113 -155 36 -9 108 23 143 63 17 19 33 34 34 32
2 -2 -4 -35 -13 -72 l-16 -68 -116 -48 c-196 -81 -316 -176 -349 -276 -24 -73
30 -146 123 -164 89 -16 180 34 280 153 50 60 124 202 148 283 10 35 24 52 80
93 37 27 87 74 112 102 l45 52 11 -41 c21 -79 79 -125 156 -125 55 0 108 29
168 90 43 44 53 49 93 50 67 1 127 41 175 115 42 68 46 82 25 90 -10 4 -22 -6
-35 -26 -30 -48 -92 -103 -130 -116 -19 -6 -36 -9 -38 -8 -2 2 12 37 32 78 48
102 81 235 67 271 -15 37 -56 61 -106 63 -24 1 -48 5 -55 9 -27 17 -102 7
-145 -18 -87 -51 -216 -232 -216 -302 0 -12 -4 -34 -9 -47 -10 -25 -171 -201
-178 -194 -5 6 81 319 112 407 15 41 36 92 46 112 11 21 19 40 19 43 0 3 -22
5 -48 5 -42 0 -50 -3 -60 -24 l-11 -25 -35 35 c-45 45 -98 47 -183 4z m-499
-56 c21 -20 21 -104 0 -175 -38 -129 -151 -279 -212 -279 -34 0 -45 14 -55 66
-8 43 16 151 48 214 41 82 151 190 192 190 6 0 19 -7 27 -16z m644 -14 c22
-42 7 -113 -47 -225 -53 -113 -139 -215 -178 -215 -116 0 -58 276 87 414 51
49 65 57 92 54 23 -2 37 -11 46 -28z m490 -72 c-33 -94 -34 -178 -3 -238 l17
-34 -60 -58 c-50 -49 -66 -58 -96 -58 -103 0 -79 176 48 355 43 59 98 115 115
115 4 0 -6 -37 -21 -82z m158 3 c-6 -41 -70 -186 -88 -197 -4 -3 -12 14 -18
37 -19 71 10 182 58 220 25 19 27 20 40 2 9 -12 12 -32 8 -62z m-796 -582 c0
-6 -21 -51 -47 -101 -81 -157 -187 -241 -261 -206 -42 20 -43 75 -2 122 43 49
119 103 215 153 86 46 95 49 95 32z"/>
</g>
</svg>
