<?xml version="1.0" standalone="no"?>
<!DOCTYPE svg PUBLIC "-//W3C//DTD SVG 20010904//EN"
 "http://www.w3.org/TR/2001/REC-SVG-20010904/DTD/svg10.dtd">
<svg version="1.0" xmlns="http://www.w3.org/2000/svg"
 width="227.000000pt" height="86.000000pt" viewBox="0 0 227.000000 86.000000"
 preserveAspectRatio="xMidYMid meet">

<g transform="translate(0.000000,86.000000) scale(0.100000,-0.100000)"
fill="#000000" stroke="none">
<path d="M212 849 c-104 -21 -202 -164 -202 -293 0 -100 57 -186 123 -186 81
0 162 98 182 219 6 34 4 42 -6 39 -7 -2 -17 -21 -21 -41 -11 -51 -50 -126 -83
-160 -54 -53 -122 -24 -145 64 -33 123 52 269 157 269 15 0 57 -14 93 -32 50
-24 79 -32 126 -32 l60 -1 -42 -80 c-24 -44 -66 -140 -94 -214 -68 -179 -119
-276 -175 -339 l-47 -52 34 0 c59 0 159 29 232 67 51 27 97 63 161 128 94 95
151 179 278 410 94 172 98 179 137 191 42 14 51 34 15 34 -68 0 -118 -57 -245
-280 -116 -202 -172 -284 -254 -366 -72 -71 -169 -134 -239 -152 l-37 -11 82
89 c109 116 141 172 203 353 60 176 81 221 142 300 50 64 39 76 -32 32 -54
-33 -102 -32 -199 6 -92 36 -157 48 -204 38z"/>
<path d="M1048 625 c-47 -93 -56 -105 -79 -105 -15 0 -29 -7 -33 -15 -4 -11 2
-15 20 -15 l24 0 -21 -42 c-13 -24 -44 -92 -70 -153 -54 -125 -125 -218 -163
-213 -33 5 -23 45 45 179 32 65 59 121 59 124 0 16 -51 1 -68 -20 -25 -31
-112 -235 -112 -262 0 -33 29 -63 61 -63 42 0 65 14 98 61 l29 39 11 -32 c18
-52 39 -68 89 -68 42 0 50 5 93 49 l47 49 6 -28 c15 -75 99 -94 163 -36 22 19
54 36 77 40 44 8 82 43 128 119 17 26 32 47 34 47 16 0 64 -33 64 -44 0 -7
-14 -40 -31 -73 -29 -56 -30 -63 -18 -89 20 -42 80 -46 119 -9 l27 26 17 -26
c13 -20 25 -25 55 -25 40 0 61 17 118 95 l21 29 12 -42 c12 -47 41 -82 66 -82
9 0 31 15 50 34 l33 33 20 -33 c17 -28 26 -34 54 -34 42 0 83 38 133 124 34
57 40 93 7 45 -31 -46 -132 -141 -142 -134 -26 15 3 94 107 298 7 14 -57 7
-66 -8 -7 -14 -11 -13 -27 5 -54 59 -171 -7 -229 -130 -23 -51 -124 -160 -147
-160 -33 0 -22 48 41 179 33 68 60 125 60 128 0 2 -12 3 -27 1 -25 -3 -35 -17
-88 -121 -33 -64 -76 -133 -94 -152 -75 -76 -99 -17 -31 74 22 29 40 61 40 70
0 25 -28 47 -78 62 -34 10 -41 16 -36 31 9 31 -5 58 -31 58 -36 0 -50 -33 -35
-80 15 -44 3 -72 -57 -137 -38 -42 -92 -70 -80 -42 60 140 70 186 44 207 -7 6
-43 14 -80 18 l-68 7 -54 -56 c-34 -35 -58 -71 -66 -97 -14 -47 -97 -144 -129
-153 -28 -7 -50 18 -50 58 0 47 22 111 85 243 53 111 54 112 88 112 48 0 59
28 13 32 l-34 3 54 99 c30 54 54 101 54 102 0 2 -15 4 -34 4 -34 0 -36 -2 -88
-105z m1027 -325 c-1 -64 -29 -129 -77 -179 -46 -47 -72 -40 -76 21 -4 62 29
137 80 184 55 49 73 43 73 -26z m-830 9 c-16 -45 -19 -112 -5 -144 11 -28 -43
-85 -81 -85 -46 0 -52 53 -14 133 25 54 89 137 105 137 5 0 3 -19 -5 -41z m85
3 c0 -30 -32 -106 -48 -116 -15 -9 -25 30 -18 69 7 38 43 88 57 80 5 -4 9 -18
9 -33z"/>
<path d="M860 560 c-22 -22 -25 -36 -9 -45 12 -8 49 23 49 41 0 23 -19 25 -40
4z"/>
<path d="M1860 560 c-23 -23 -22 -43 3 -48 22 -4 45 44 30 59 -8 8 -17 5 -33
-11z"/>
</g>
</svg>
